M48
; DRILL file KiCad 10.0.4 date 2026-08-07T18:21:09
; FORMAT={-:-/ absolute / metric / decimal}
; #@! TF.CreationDate,2026-08-07T18:21:09-04:00
; #@! TF.GenerationSoftware,Kicad,Pcbnew,10.0.4
; #@! TF.FileFunction,Plated,1,4,PTH
FMAT,2
METRIC
; #@! TA.AperFunction,Plated,PTH,ViaDrill
T1C0.300
; #@! TA.AperFunction,Plated,PTH,ComponentDrill
T2C0.300
; #@! TA.AperFunction,Plated,PTH,ComponentDrill
T3C0.600
; #@! TA.AperFunction,Plated,PTH,ComponentDrill
T4C0.750
; #@! TA.AperFunction,Plated,PTH,ComponentDrill
T5C0.889
; #@! TA.AperFunction,Plated,PTH,ComponentDrill
T6C0.900
; #@! TA.AperFunction,Plated,PTH,ComponentDrill
T7C1.397
; #@! TA.AperFunction,Plated,PTH,ComponentDrill
T8C1.500
; #@! TA.AperFunction,Plated,PTH,ComponentDrill
T9C1.700
%
G90
G05
T1
X90.37Y-106.59
X92.69Y-109.16
X101.94Y-123.31
X104.44Y-120.93
X106.05Y-87.65
X107.7Y-90.4
X107.82Y-86.74
X107.87Y-91.98
X109.42Y-89.17
X109.49Y-84.13
X110.8Y-100.21
X111.09Y-79.53
X111.1Y-84.56
X113.04Y-84.58
X113.53Y-85.87
X113.77Y-93.51
X113.88Y-89.23
X114.33Y-86.99
X122.2Y-91.0
X122.2Y-93.52
X122.87Y-85.36
X123.78Y-90.97
X124.46Y-82.5
X124.48Y-89.69
X125.67Y-92.84
X127.16Y-86.05
X129.7Y-92.88
X130.09Y-85.28
X130.147Y-90.06
X130.17Y-91.26
X130.26Y-86.44
X130.91Y-82.48
X131.12Y-84.54
X132.37Y-96.7
X133.65Y-90.06
X134.09Y-97.0
X134.14Y-99.9
X134.74Y-98.7
X134.98Y-88.11
X135.74Y-104.92
X137.11Y-114.07
X137.69Y-87.23
X137.7Y-111.71
X137.83Y-89.76
X137.86Y-82.91
X137.87Y-85.95
X137.87Y-115.83
X139.25Y-122.6
X139.4Y-117.38
X139.5Y-119.27
X139.6Y-113.28
X140.05Y-97.35
X140.67Y-102.5
X140.77Y-110.44
X141.73Y-102.409
X142.2Y-108.79
X142.22Y-110.08
X142.22Y-110.88
X143.066Y-102.489
X143.602Y-107.104
X143.83Y-116.05
X143.85Y-103.07
X144.13Y-117.79
X144.73Y-102.59
X145.202Y-107.572
X145.34Y-110.71
X145.935Y-102.52
X146.0Y-107.51
X146.89Y-117.455
X147.84Y-119.04
X149.371Y-116.034
X150.23Y-111.16
X150.63Y-119.25
X151.072Y-118.583
X151.295Y-116.145
X152.45Y-99.86
X152.53Y-122.204
X152.57Y-87.22
X152.59Y-88.51
X153.61Y-104.92
X153.87Y-114.56
X155.4Y-84.68
X155.4Y-85.93
X155.81Y-88.623
X156.07Y-86.76
X156.61Y-88.648
X157.41Y-88.661
X157.8Y-95.3
X158.21Y-88.657
X158.4Y-91.0
X158.78Y-83.05
X160.69Y-82.19
X160.8Y-90.576
X163.44Y-96.0
X163.9Y-85.6
X164.16Y-82.62
X164.24Y-91.06
X165.24Y-91.05
X166.96Y-88.18
X169.01Y-85.34
X169.017Y-86.163
X170.029Y-88.871
X170.9Y-83.76
X171.4Y-92.04
X171.48Y-106.73
X172.66Y-89.04
X174.17Y-87.87
X174.24Y-85.45
X183.06Y-123.18
X185.58Y-121.07
T2
X117.265Y-90.405
X117.265Y-91.605
X117.265Y-92.805
X118.665Y-90.405
X118.665Y-91.605
X118.665Y-92.805
X142.2Y-90.4
X142.2Y-91.8
X142.9Y-89.7
X142.9Y-91.1
X142.9Y-92.5
X143.6Y-90.4
X143.6Y-91.8
X144.3Y-89.7
X144.3Y-91.1
X144.3Y-92.5
X145.0Y-90.4
X145.0Y-91.8
T4
X116.6Y-85.5
X118.6Y-85.5
T5
X94.32Y-106.627
X94.32Y-109.167
X94.32Y-111.707
X101.94Y-119.328
X104.48Y-119.328
X107.02Y-119.328
X175.425Y-106.741
X175.425Y-109.281
X175.425Y-111.821
X183.045Y-119.441
X185.585Y-119.441
X188.125Y-119.441
T6
X101.305Y-96.468
X101.305Y-101.547
X107.655Y-96.468
X107.655Y-101.547
X182.41Y-96.581
X182.41Y-101.661
X188.76Y-96.581
X188.76Y-101.661
T7
X96.86Y-102.5
X96.86Y-115.835
X112.1Y-102.5
X112.1Y-115.835
X177.965Y-102.614
X177.965Y-115.949
X193.205Y-102.614
X193.205Y-115.949
T8
X178.77Y-86.63
T9
X176.23Y-84.09
X176.23Y-89.17
X181.31Y-84.09
X181.31Y-89.17
T3
G00X134.69Y-121.42
M15
G01X134.69Y-122.52
M16
G05
G00X134.69Y-125.85
M15
G01X134.69Y-126.45
M16
G05
G00X143.33Y-121.42
M15
G01X143.33Y-122.52
M16
G05
G00X143.33Y-125.85
M15
G01X143.33Y-126.45
M16
G05
G00X146.18Y-121.38
M15
G01X146.18Y-122.48
M16
G05
G00X146.18Y-125.81
M15
G01X146.18Y-126.41
M16
G05
G00X154.82Y-121.38
M15
G01X154.82Y-122.48
M16
G05
G00X154.82Y-125.81
M15
G01X154.82Y-126.41
M16
G05
M30
