%TF.GenerationSoftware,KiCad,Pcbnew,10.0.4*%
%TF.CreationDate,2026-08-07T18:21:11-04:00*%
%TF.ProjectId,swervecontrollerPCBv1,73776572-7665-4636-9f6e-74726f6c6c65,rev?*%
%TF.SameCoordinates,Original*%
%TF.FileFunction,Copper,L4,Bot*%
%TF.FilePolarity,Positive*%
%FSLAX46Y46*%
G04 Gerber Fmt 4.6, Leading zero omitted, Abs format (unit mm)*
G04 Created by KiCad (PCBNEW 10.0.4) date 2026-08-07 18:21:11*
%MOMM*%
%LPD*%
G01*
G04 APERTURE LIST*
G04 Aperture macros list*
%AMRoundRect*
0 Rectangle with rounded corners*
0 $1 Rounding radius*
0 $2 $3 $4 $5 $6 $7 $8 $9 X,Y pos of 4 corners*
0 Add a 4 corners polygon primitive as box body*
4,1,4,$2,$3,$4,$5,$6,$7,$8,$9,$2,$3,0*
0 Add four circle primitives for the rounded corners*
1,1,$1+$1,$2,$3*
1,1,$1+$1,$4,$5*
1,1,$1+$1,$6,$7*
1,1,$1+$1,$8,$9*
0 Add four rect primitives between the rounded corners*
20,1,$1+$1,$2,$3,$4,$5,0*
20,1,$1+$1,$4,$5,$6,$7,0*
20,1,$1+$1,$6,$7,$8,$9,0*
20,1,$1+$1,$8,$9,$2,$3,0*%
G04 Aperture macros list end*
%TA.AperFunction,HeatsinkPad*%
%ADD10C,0.500000*%
%TD*%
%TA.AperFunction,HeatsinkPad*%
%ADD11R,1.900000X2.900000*%
%TD*%
%TA.AperFunction,HeatsinkPad*%
%ADD12C,0.600000*%
%TD*%
%TA.AperFunction,ComponentPad*%
%ADD13RoundRect,0.250000X0.350000X0.625000X-0.350000X0.625000X-0.350000X-0.625000X0.350000X-0.625000X0*%
%TD*%
%TA.AperFunction,ComponentPad*%
%ADD14O,1.200000X1.750000*%
%TD*%
%TA.AperFunction,ComponentPad*%
%ADD15C,1.778000*%
%TD*%
%TA.AperFunction,ComponentPad*%
%ADD16C,2.286000*%
%TD*%
%TA.AperFunction,ComponentPad*%
%ADD17O,1.000000X2.100000*%
%TD*%
%TA.AperFunction,ComponentPad*%
%ADD18O,1.000000X1.600000*%
%TD*%
%TA.AperFunction,ComponentPad*%
%ADD19C,2.050000*%
%TD*%
%TA.AperFunction,ComponentPad*%
%ADD20C,2.250000*%
%TD*%
%TA.AperFunction,ViaPad*%
%ADD21C,0.600000*%
%TD*%
%TA.AperFunction,Conductor*%
%ADD22C,0.200000*%
%TD*%
G04 APERTURE END LIST*
D10*
%TO.P,U6,9,EPAD_9*%
%TO.N,GND*%
X118665000Y-92805000D03*
X118665000Y-91605000D03*
X118665000Y-90405000D03*
D11*
X117965000Y-91605000D03*
D10*
X117265000Y-92805000D03*
X117265000Y-91605000D03*
X117265000Y-90405000D03*
%TD*%
D12*
%TO.P,U9,41,GND_41*%
%TO.N,GND*%
X142200000Y-90400000D03*
X142200000Y-91800000D03*
X142900000Y-89700000D03*
X142900000Y-91100000D03*
X142900000Y-92500000D03*
X143600000Y-90400000D03*
X143600000Y-91800000D03*
X144300000Y-89700000D03*
X144300000Y-91100000D03*
X144300000Y-92500000D03*
X145000000Y-90400000D03*
X145000000Y-91800000D03*
%TD*%
D13*
%TO.P,J4,1,Pin_1_1*%
%TO.N,GND*%
X118600000Y-85500000D03*
D14*
%TO.P,J4,2,Pin_2_2*%
%TO.N,/BAT*%
X116600000Y-85500000D03*
%TD*%
D15*
%TO.P,U3,B1A,SEL+_B1A*%
%TO.N,GND*%
X101305000Y-96467500D03*
%TO.P,U3,B1B*%
X107655000Y-96467500D03*
%TO.P,U3,B2A,SEL-_B2A*%
%TO.N,/BS*%
X101305000Y-101547500D03*
%TO.P,U3,B2B*%
X107655000Y-101547500D03*
%TO.P,U3,H1,H+_H1*%
%TO.N,VDD*%
X101940000Y-119327500D03*
%TO.P,U3,H2,H_H2*%
%TO.N,/SX*%
X104480000Y-119327500D03*
%TO.P,U3,H3,H-_H3*%
%TO.N,GND*%
X107020000Y-119327500D03*
D16*
%TO.P,U3,S1,SHIELD_S1*%
X96860000Y-102500000D03*
%TO.P,U3,S2,SHIELD_S2*%
X96860000Y-115835000D03*
%TO.P,U3,S3,SHIELD_S3*%
X112100000Y-115835000D03*
%TO.P,U3,S4,SHIELD_S4*%
X112100000Y-102500000D03*
D15*
%TO.P,U3,V1,V+_V1*%
%TO.N,VDD*%
X94320000Y-106627500D03*
%TO.P,U3,V2,V_V2*%
%TO.N,/SY*%
X94320000Y-109167500D03*
%TO.P,U3,V3,V-_V3*%
%TO.N,GND*%
X94320000Y-111707500D03*
%TD*%
D17*
%TO.P,J2,SH,SHIELD_SH*%
%TO.N,GND*%
X134690000Y-121970000D03*
D18*
X134690000Y-126150000D03*
D17*
X143330000Y-121970000D03*
D18*
X143330000Y-126150000D03*
%TD*%
D19*
%TO.P,J3,1,In_1*%
%TO.N,/RF_50_OHM*%
X178770000Y-86630000D03*
D20*
%TO.P,J3,2,Ext_2*%
%TO.N,GND*%
X176230000Y-84090000D03*
X176230000Y-89170000D03*
X181310000Y-84090000D03*
X181310000Y-89170000D03*
%TD*%
D15*
%TO.P,U2,B1A,SEL+_B1A*%
%TO.N,GND*%
X182410000Y-96581281D03*
%TO.P,U2,B1B*%
X188760000Y-96581281D03*
%TO.P,U2,B2A,SEL-_B2A*%
%TO.N,/BD*%
X182410000Y-101661281D03*
%TO.P,U2,B2B*%
X188760000Y-101661281D03*
%TO.P,U2,H1,H+_H1*%
%TO.N,VDD*%
X183045000Y-119441281D03*
%TO.P,U2,H2,H_H2*%
%TO.N,/DX*%
X185585000Y-119441281D03*
%TO.P,U2,H3,H-_H3*%
%TO.N,GND*%
X188125000Y-119441281D03*
D16*
%TO.P,U2,S1,SHIELD_S1*%
X177965000Y-102613781D03*
%TO.P,U2,S2,SHIELD_S2*%
X177965000Y-115948781D03*
%TO.P,U2,S3,SHIELD_S3*%
X193205000Y-115948781D03*
%TO.P,U2,S4,SHIELD_S4*%
X193205000Y-102613781D03*
D15*
%TO.P,U2,V1,V+_V1*%
%TO.N,VDD*%
X175425000Y-106741281D03*
%TO.P,U2,V2,V_V2*%
%TO.N,/DY*%
X175425000Y-109281281D03*
%TO.P,U2,V3,V-_V3*%
%TO.N,GND*%
X175425000Y-111821281D03*
%TD*%
D17*
%TO.P,J1,SH,SHIELD_SH*%
%TO.N,GND*%
X146180000Y-121930000D03*
D18*
X146180000Y-126110000D03*
D17*
X154820000Y-121930000D03*
D18*
X154820000Y-126110000D03*
%TD*%
D21*
%TO.N,/USB VBUS*%
X137870000Y-115830000D03*
X153870000Y-114560000D03*
X113770000Y-93510000D03*
X106050000Y-87650000D03*
X124480000Y-89690000D03*
X144130000Y-117790000D03*
X109420000Y-89170000D03*
%TO.N,/CE*%
X156070000Y-86760000D03*
X140670000Y-102500000D03*
X171400000Y-92040000D03*
%TO.N,/5V STABLE*%
X137110000Y-114070000D03*
X109490000Y-84130000D03*
X139600000Y-113280000D03*
X107870000Y-91980000D03*
X107700000Y-90400000D03*
X111100000Y-84560000D03*
X113040000Y-84580000D03*
%TO.N,GND*%
X122870000Y-85360000D03*
X164240000Y-91060000D03*
X129700000Y-92880000D03*
X150230000Y-111160000D03*
X163440000Y-96000000D03*
X172660000Y-89040000D03*
X127160000Y-86050000D03*
X165240000Y-91050000D03*
X142200000Y-108790000D03*
X113530000Y-85870000D03*
X123780000Y-90970000D03*
X157800000Y-95300000D03*
X169017242Y-86162758D03*
X174240000Y-85450000D03*
X151295025Y-116145025D03*
X124460000Y-82500000D03*
X174170000Y-87870000D03*
X122200000Y-93520000D03*
X122200000Y-91000000D03*
X130147057Y-90060000D03*
X137860000Y-82910000D03*
X139400000Y-117380000D03*
X132370000Y-96700000D03*
X164160000Y-82620000D03*
X107820000Y-86740000D03*
X130910000Y-82480000D03*
X145340000Y-110710000D03*
X169010000Y-85340000D03*
X137700000Y-111710000D03*
X143830000Y-116050000D03*
X158780000Y-83050000D03*
X149371484Y-116034178D03*
%TO.N,VDD*%
X131120000Y-84540000D03*
X171480000Y-106730000D03*
X140770000Y-110440000D03*
X133650000Y-90060000D03*
X170900000Y-83760000D03*
X160800000Y-90575799D03*
X183060000Y-123180000D03*
X146890000Y-117455000D03*
X111090000Y-79530000D03*
X90370000Y-106590000D03*
X101940000Y-123310000D03*
X163900000Y-85600000D03*
X160690000Y-82190000D03*
X130090000Y-85280000D03*
%TO.N,/BAT*%
X113880000Y-89230000D03*
X114330000Y-86990000D03*
%TO.N,/VDD_PA*%
X170028712Y-88871288D03*
X166960000Y-88180000D03*
%TO.N,/EN*%
X125670000Y-92840000D03*
X153610000Y-104920000D03*
X130260000Y-86440000D03*
X137870000Y-85950000D03*
%TO.N,/DTR*%
X143602428Y-107103683D03*
X143850000Y-103070000D03*
%TO.N,Net-(D1-A)*%
X147840000Y-119040000D03*
X152529902Y-122203784D03*
%TO.N,/SX*%
X137690000Y-87230000D03*
X104440000Y-120930000D03*
%TO.N,/SY*%
X134980000Y-88110000D03*
X92690000Y-109160000D03*
%TO.N,/BD*%
X137830000Y-89760000D03*
%TO.N,/BS*%
X134090000Y-97000000D03*
X110800000Y-100210000D03*
%TO.N,/CSN*%
X155810130Y-88623033D03*
X140050000Y-97350000D03*
%TO.N,/GPIO 19*%
X134740000Y-98700000D03*
X139500000Y-119270000D03*
%TO.N,/GPIO 20*%
X139250000Y-122600000D03*
X134140000Y-99900000D03*
%TO.N,/MISO*%
X141730000Y-102409431D03*
X158209619Y-88657486D03*
%TO.N,/MOSI*%
X143066316Y-102489244D03*
X157409628Y-88661357D03*
%TO.N,/SCK*%
X144730000Y-102590000D03*
X156609731Y-88648372D03*
%TO.N,/IRQ*%
X158400000Y-91000000D03*
X145935000Y-102520000D03*
%TO.N,/GPIO0*%
X130170000Y-91260000D03*
X135740000Y-104920000D03*
X152450000Y-99860000D03*
%TO.N,/RXD*%
X152590000Y-88510000D03*
X146000000Y-107510000D03*
%TO.N,/TXD*%
X152570000Y-87220000D03*
X145202428Y-107572311D03*
%TO.N,/DX*%
X185580000Y-121070000D03*
X155400000Y-85930000D03*
%TO.N,/DY*%
X155400000Y-84680000D03*
%TO.N,/DATA+*%
X151071889Y-118583113D03*
X142220000Y-110079997D03*
%TO.N,/DATA-*%
X150630000Y-119250000D03*
X142220000Y-110880000D03*
%TD*%
%TO.N,/CE*%
D22*
X179697358Y-122070000D02*
X160200000Y-102572642D01*
X144628845Y-110110000D02*
X152662642Y-110110000D01*
X189314000Y-119933781D02*
X187177781Y-122070000D01*
X158423695Y-88023033D02*
X157333033Y-88023033D01*
X158423695Y-88023033D02*
X160200000Y-89799338D01*
X189314000Y-117216282D02*
X189314000Y-119933781D01*
X152662642Y-110110000D02*
X160200000Y-102572642D01*
X140670000Y-102500000D02*
X140670000Y-106151155D01*
X157333033Y-88023033D02*
X156070000Y-86760000D01*
X171400000Y-92040000D02*
X171400000Y-99302282D01*
X187177781Y-122070000D02*
X179697358Y-122070000D01*
X160200000Y-89799338D02*
X160200000Y-102572642D01*
X140670000Y-106151155D02*
X144628845Y-110110000D01*
X171400000Y-99302282D02*
X189314000Y-117216282D01*
%TO.N,/EN*%
X153050000Y-100108529D02*
X153050000Y-99611471D01*
X139130000Y-87210000D02*
X137870000Y-85950000D01*
X139130000Y-99250000D02*
X139130000Y-87210000D01*
X152914264Y-100244264D02*
X153050000Y-100108529D01*
X151920000Y-99250000D02*
X139130000Y-99250000D01*
X153050000Y-99611471D02*
X152698529Y-99260000D01*
X153610000Y-104920000D02*
X153610000Y-100940000D01*
X130100000Y-88410000D02*
X125670000Y-92840000D01*
X153610000Y-100940000D02*
X152914264Y-100244264D01*
X152698529Y-99260000D02*
X152201471Y-99260000D01*
X130100000Y-86600000D02*
X130100000Y-88410000D01*
X152201471Y-99260000D02*
X152065735Y-99395735D01*
X130260000Y-86440000D02*
X130100000Y-86600000D01*
X152065735Y-99395735D02*
X151920000Y-99250000D01*
%TO.N,/DTR*%
X143602428Y-103317572D02*
X143602428Y-107103683D01*
X143850000Y-103070000D02*
X143602428Y-103317572D01*
%TO.N,Net-(D1-A)*%
X151003786Y-122203784D02*
X152529902Y-122203784D01*
X147840000Y-119040000D02*
X151003786Y-122203784D01*
%TO.N,/SX*%
X104440000Y-116141471D02*
X129921471Y-90660000D01*
X104440000Y-120930000D02*
X104440000Y-116141471D01*
X129921471Y-90660000D02*
X134260000Y-90660000D01*
X134260000Y-90660000D02*
X137690000Y-87230000D01*
%TO.N,/SY*%
X131248529Y-88110000D02*
X134980000Y-88110000D01*
X92690000Y-109160000D02*
X110198529Y-109160000D01*
X110198529Y-109160000D02*
X131248529Y-88110000D01*
%TO.N,/BD*%
X180542977Y-98537023D02*
X180737023Y-98537023D01*
X137270000Y-86198529D02*
X137270000Y-85701471D01*
X166085954Y-84080000D02*
X180542977Y-98537023D01*
X180750000Y-98550000D02*
X187440000Y-98550000D01*
X187440000Y-98550000D02*
X188760000Y-99870000D01*
X138730000Y-87375686D02*
X137904314Y-86550000D01*
X180542977Y-98537023D02*
X182410000Y-100404046D01*
X137621471Y-86550000D02*
X137270000Y-86198529D01*
X182410000Y-100404046D02*
X182410000Y-101661281D01*
X180737023Y-98537023D02*
X180750000Y-98550000D01*
X137904314Y-86550000D02*
X137621471Y-86550000D01*
X138891471Y-84080000D02*
X166085954Y-84080000D01*
X137270000Y-85701471D02*
X138891471Y-84080000D01*
X188760000Y-99870000D02*
X188760000Y-101661281D01*
X137830000Y-89760000D02*
X138730000Y-88860000D01*
X138730000Y-88860000D02*
X138730000Y-87375686D01*
%TO.N,/BS*%
X103291000Y-118835000D02*
X103291000Y-120629529D01*
X92090000Y-109408529D02*
X93037971Y-110356500D01*
X109560000Y-121530000D02*
X134090000Y-97000000D01*
X93037971Y-110356500D02*
X94812500Y-110356500D01*
X110800000Y-100210000D02*
X103031500Y-107978500D01*
X93022971Y-107978500D02*
X92090000Y-108911471D01*
X104191471Y-121530000D02*
X109560000Y-121530000D01*
X103031500Y-107978500D02*
X93022971Y-107978500D01*
X103291000Y-120629529D02*
X104191471Y-121530000D01*
X92090000Y-108911471D02*
X92090000Y-109408529D01*
X94812500Y-110356500D02*
X103291000Y-118835000D01*
%TO.N,/CSN*%
X141591471Y-97350000D02*
X152321471Y-86620000D01*
X153807097Y-86620000D02*
X155810130Y-88623033D01*
X140050000Y-97350000D02*
X141591471Y-97350000D01*
X152321471Y-86620000D02*
X153807097Y-86620000D01*
%TO.N,/GPIO 19*%
X139500000Y-119270000D02*
X134740000Y-114510000D01*
X134740000Y-114510000D02*
X134740000Y-98700000D01*
%TO.N,/GPIO 20*%
X139250000Y-122600000D02*
X134140000Y-117490000D01*
X134140000Y-117490000D02*
X134140000Y-99900000D01*
%TO.N,/MISO*%
X141930000Y-102609431D02*
X141930000Y-106845469D01*
X141930000Y-106845469D02*
X144794531Y-109710000D01*
X158388856Y-88657486D02*
X158209619Y-88657486D01*
X159800000Y-90068630D02*
X158388856Y-88657486D01*
X141730000Y-102409431D02*
X141930000Y-102609431D01*
X159800000Y-102406956D02*
X159800000Y-90068630D01*
X152496956Y-109710000D02*
X159800000Y-102406956D01*
X144794531Y-109710000D02*
X152496956Y-109710000D01*
%TO.N,/MOSI*%
X157409628Y-88879628D02*
X157409628Y-88661357D01*
X152331271Y-109310000D02*
X159400000Y-102241270D01*
X159165685Y-90000000D02*
X158530000Y-90000000D01*
X159400000Y-102241270D02*
X159400000Y-90234315D01*
X142590756Y-102489244D02*
X142330000Y-102750000D01*
X142330000Y-106679783D02*
X144960217Y-109310000D01*
X144960217Y-109310000D02*
X152331271Y-109310000D01*
X159400000Y-90234315D02*
X159165685Y-90000000D01*
X158530000Y-90000000D02*
X157409628Y-88879628D01*
X142330000Y-102750000D02*
X142330000Y-106679783D01*
X143066316Y-102489244D02*
X142590756Y-102489244D01*
%TO.N,/SCK*%
X144730000Y-102590000D02*
X144730000Y-105744315D01*
X144730000Y-105744315D02*
X144202428Y-106271887D01*
X159000000Y-102075585D02*
X159000000Y-90400000D01*
X145125903Y-108910000D02*
X152165585Y-108910000D01*
X152165585Y-108910000D02*
X159000000Y-102075585D01*
X156609731Y-88709989D02*
X156609731Y-88648372D01*
X158299742Y-90400000D02*
X156609731Y-88709989D01*
X159000000Y-90400000D02*
X158299742Y-90400000D01*
X144202428Y-107986526D02*
X145125903Y-108910000D01*
X144202428Y-106271887D02*
X144202428Y-107986526D01*
%TO.N,/IRQ*%
X145291588Y-108510000D02*
X151999899Y-108510000D01*
X145735000Y-102720000D02*
X145735000Y-105305000D01*
X144602428Y-107820840D02*
X145291588Y-108510000D01*
X145935000Y-102520000D02*
X145735000Y-102720000D01*
X145735000Y-105305000D02*
X144602428Y-106437572D01*
X144602428Y-106437572D02*
X144602428Y-107820840D01*
X158400000Y-102109899D02*
X158400000Y-91000000D01*
X151999899Y-108510000D02*
X158400000Y-102109899D01*
%TO.N,/GPIO0*%
X138770000Y-99860000D02*
X138880000Y-99750000D01*
X135740000Y-102890000D02*
X138770000Y-99860000D01*
X138880000Y-99750000D02*
X151854314Y-99750000D01*
X151900049Y-99795735D02*
X152231420Y-99795736D01*
X130170000Y-91850000D02*
X138180000Y-99860000D01*
X152277156Y-99750000D02*
X152340000Y-99750000D01*
X151854314Y-99750000D02*
X151900049Y-99795735D01*
X130170000Y-91260000D02*
X130170000Y-91850000D01*
X138180000Y-99860000D02*
X138770000Y-99860000D01*
X152231420Y-99795736D02*
X152277156Y-99750000D01*
X135740000Y-104920000D02*
X135740000Y-102890000D01*
X152340000Y-99750000D02*
X152450000Y-99860000D01*
%TO.N,/RXD*%
X154210000Y-105168529D02*
X154210000Y-90130000D01*
X151868529Y-107510000D02*
X154210000Y-105168529D01*
X146000000Y-107510000D02*
X151868529Y-107510000D01*
X154210000Y-90130000D02*
X152590000Y-88510000D01*
%TO.N,/TXD*%
X151834214Y-108110000D02*
X154610000Y-105334214D01*
X154610000Y-89260000D02*
X152570000Y-87220000D01*
X145740117Y-108110000D02*
X151834214Y-108110000D01*
X145202428Y-107572311D02*
X145740117Y-108110000D01*
X154610000Y-105334214D02*
X154610000Y-89260000D01*
%TO.N,/DX*%
X170600000Y-99633652D02*
X170600000Y-98835686D01*
X185580000Y-121070000D02*
X185580000Y-114613654D01*
X185580000Y-114613654D02*
X170600000Y-99633652D01*
X157694314Y-85930000D02*
X155400000Y-85930000D01*
X170600000Y-98835686D02*
X157694314Y-85930000D01*
%TO.N,/DY*%
X174717219Y-109270000D02*
X184396000Y-118948781D01*
X185331471Y-121670000D02*
X185828529Y-121670000D01*
X157010000Y-84680000D02*
X155400000Y-84680000D01*
X171000000Y-99467967D02*
X171000000Y-98670000D01*
X186774000Y-120724529D02*
X186774000Y-115241968D01*
X186774000Y-115241968D02*
X171000000Y-99467967D01*
X185828529Y-121670000D02*
X186774000Y-120724529D01*
X171000000Y-98670000D02*
X157010000Y-84680000D01*
X184396000Y-120734529D02*
X185331471Y-121670000D01*
X184396000Y-118948781D02*
X184396000Y-120734529D01*
%TO.N,/DATA+*%
X142568773Y-110079997D02*
X151071889Y-118583113D01*
X142220000Y-110079997D02*
X142568773Y-110079997D01*
%TO.N,/DATA-*%
X142220000Y-110880000D02*
X150590000Y-119250000D01*
X150590000Y-119250000D02*
X150630000Y-119250000D01*
%TD*%
M02*
