%TF.GenerationSoftware,KiCad,Pcbnew,10.0.4*%
%TF.CreationDate,2026-07-27T23:32:27-04:00*%
%TF.ProjectId,swervecontrollerPCBv1,73776572-7665-4636-9f6e-74726f6c6c65,rev?*%
%TF.SameCoordinates,Original*%
%TF.FileFunction,Paste,Top*%
%TF.FilePolarity,Positive*%
%FSLAX46Y46*%
G04 Gerber Fmt 4.6, Leading zero omitted, Abs format (unit mm)*
G04 Created by KiCad (PCBNEW 10.0.4) date 2026-07-27 23:32:27*
%MOMM*%
%LPD*%
G01*
G04 APERTURE LIST*
G04 Aperture macros list*
%AMRoundRect*
0 Rectangle with rounded corners*
0 $1 Rounding radius*
0 $2 $3 $4 $5 $6 $7 $8 $9 X,Y pos of 4 corners*
0 Add a 4 corners polygon primitive as box body*
4,1,4,$2,$3,$4,$5,$6,$7,$8,$9,$2,$3,0*
0 Add four circle primitives for the rounded corners*
1,1,$1+$1,$2,$3*
1,1,$1+$1,$4,$5*
1,1,$1+$1,$6,$7*
1,1,$1+$1,$8,$9*
0 Add four rect primitives between the rounded corners*
20,1,$1+$1,$2,$3,$4,$5,0*
20,1,$1+$1,$4,$5,$6,$7,0*
20,1,$1+$1,$6,$7,$8,$9,0*
20,1,$1+$1,$8,$9,$2,$3,0*%
G04 Aperture macros list end*
%ADD10C,0.010000*%
%ADD11RoundRect,0.200000X0.275000X-0.200000X0.275000X0.200000X-0.275000X0.200000X-0.275000X-0.200000X0*%
%ADD12RoundRect,0.200000X-0.275000X0.200000X-0.275000X-0.200000X0.275000X-0.200000X0.275000X0.200000X0*%
%ADD13RoundRect,0.250000X-0.325000X-0.650000X0.325000X-0.650000X0.325000X0.650000X-0.325000X0.650000X0*%
%ADD14RoundRect,0.218750X-0.218750X-0.256250X0.218750X-0.256250X0.218750X0.256250X-0.218750X0.256250X0*%
%ADD15RoundRect,0.225000X0.250000X-0.225000X0.250000X0.225000X-0.250000X0.225000X-0.250000X-0.225000X0*%
%ADD16RoundRect,0.250000X0.255000X0.440000X-0.255000X0.440000X-0.255000X-0.440000X0.255000X-0.440000X0*%
%ADD17RoundRect,0.150000X0.825000X0.150000X-0.825000X0.150000X-0.825000X-0.150000X0.825000X-0.150000X0*%
%ADD18RoundRect,0.140000X-0.140000X-0.170000X0.140000X-0.170000X0.140000X0.170000X-0.140000X0.170000X0*%
%ADD19RoundRect,0.140000X0.170000X-0.140000X0.170000X0.140000X-0.170000X0.140000X-0.170000X-0.140000X0*%
%ADD20RoundRect,0.200000X0.200000X0.275000X-0.200000X0.275000X-0.200000X-0.275000X0.200000X-0.275000X0*%
%ADD21RoundRect,0.033750X-0.371250X-0.101250X0.371250X-0.101250X0.371250X0.101250X-0.371250X0.101250X0*%
%ADD22RoundRect,0.033750X-0.101250X-0.371250X0.101250X-0.371250X0.101250X0.371250X-0.101250X0.371250X0*%
%ADD23RoundRect,0.150000X0.150000X-0.512500X0.150000X0.512500X-0.150000X0.512500X-0.150000X-0.512500X0*%
%ADD24RoundRect,0.225000X0.225000X0.375000X-0.225000X0.375000X-0.225000X-0.375000X0.225000X-0.375000X0*%
%ADD25RoundRect,0.200000X-0.200000X-0.275000X0.200000X-0.275000X0.200000X0.275000X-0.200000X0.275000X0*%
%ADD26RoundRect,0.225000X-0.225000X-0.250000X0.225000X-0.250000X0.225000X0.250000X-0.225000X0.250000X0*%
%ADD27RoundRect,0.225000X-0.375000X0.225000X-0.375000X-0.225000X0.375000X-0.225000X0.375000X0.225000X0*%
%ADD28RoundRect,0.250000X0.650000X-0.325000X0.650000X0.325000X-0.650000X0.325000X-0.650000X-0.325000X0*%
%ADD29RoundRect,0.218750X0.218750X0.256250X-0.218750X0.256250X-0.218750X-0.256250X0.218750X-0.256250X0*%
%ADD30R,0.900000X0.900000*%
%ADD31R,1.500000X0.900000*%
%ADD32R,0.900000X1.500000*%
%ADD33RoundRect,0.200000X0.800000X-0.200000X0.800000X0.200000X-0.800000X0.200000X-0.800000X-0.200000X0*%
%ADD34RoundRect,0.140000X-0.170000X0.140000X-0.170000X-0.140000X0.170000X-0.140000X0.170000X0.140000X0*%
%ADD35RoundRect,0.200000X-0.800000X0.200000X-0.800000X-0.200000X0.800000X-0.200000X0.800000X0.200000X0*%
%ADD36RoundRect,0.250000X-0.255000X-0.255000X0.255000X-0.255000X0.255000X0.255000X-0.255000X0.255000X0*%
%ADD37RoundRect,0.062500X-0.350000X-0.062500X0.350000X-0.062500X0.350000X0.062500X-0.350000X0.062500X0*%
%ADD38RoundRect,0.062500X-0.062500X-0.350000X0.062500X-0.350000X0.062500X0.350000X-0.062500X0.350000X0*%
%ADD39RoundRect,0.250000X-0.275000X-0.275000X0.275000X-0.275000X0.275000X0.275000X-0.275000X0.275000X0*%
%ADD40RoundRect,0.150000X-0.150000X-0.575000X0.150000X-0.575000X0.150000X0.575000X-0.150000X0.575000X0*%
%ADD41RoundRect,0.075000X-0.075000X-0.650000X0.075000X-0.650000X0.075000X0.650000X-0.075000X0.650000X0*%
%ADD42RoundRect,0.250000X-0.650000X0.325000X-0.650000X-0.325000X0.650000X-0.325000X0.650000X0.325000X0*%
%ADD43RoundRect,0.150000X-0.587500X-0.150000X0.587500X-0.150000X0.587500X0.150000X-0.587500X0.150000X0*%
%ADD44RoundRect,0.250000X-0.450000X-0.350000X0.450000X-0.350000X0.450000X0.350000X-0.450000X0.350000X0*%
%ADD45RoundRect,0.147500X0.172500X-0.147500X0.172500X0.147500X-0.172500X0.147500X-0.172500X-0.147500X0*%
%ADD46RoundRect,0.150000X0.587500X0.150000X-0.587500X0.150000X-0.587500X-0.150000X0.587500X-0.150000X0*%
%ADD47RoundRect,0.147500X0.147500X0.172500X-0.147500X0.172500X-0.147500X-0.172500X0.147500X-0.172500X0*%
%ADD48RoundRect,0.147500X-0.147500X-0.172500X0.147500X-0.172500X0.147500X0.172500X-0.147500X0.172500X0*%
%ADD49RoundRect,0.225000X0.225000X0.250000X-0.225000X0.250000X-0.225000X-0.250000X0.225000X-0.250000X0*%
G04 APERTURE END LIST*
D10*
%TO.C,U5*%
X171105000Y-85850000D02*
X172185000Y-85850000D01*
X172185000Y-86930000D01*
X171105000Y-86930000D01*
X171105000Y-85850000D01*
G36*
X172185000Y-86930000D02*
G01*
X171105000Y-86930000D01*
X171105000Y-85850000D01*
X172185000Y-85850000D01*
X172185000Y-86930000D01*
G37*
%TD*%
D11*
%TO.C,R5*%
X145390000Y-117825000D03*
X145390000Y-116175000D03*
%TD*%
D12*
%TO.C,R7*%
X171400000Y-89190000D03*
X171400000Y-90840000D03*
%TD*%
D13*
%TO.C,C10*%
X139325000Y-115200000D03*
X142275000Y-115200000D03*
%TD*%
D14*
%TO.C,D9*%
X125812500Y-83600000D03*
X127387500Y-83600000D03*
%TD*%
D15*
%TO.C,C18*%
X132180000Y-85120000D03*
X132180000Y-83570000D03*
%TD*%
D16*
%TO.C,U6*%
X118565000Y-92430000D03*
X118565000Y-90780000D03*
X117365000Y-92430000D03*
X117365000Y-90780000D03*
D17*
X120440000Y-93510000D03*
X120440000Y-92240000D03*
X120440000Y-90970000D03*
X120440000Y-89700000D03*
X115490000Y-89700000D03*
X115490000Y-90970000D03*
X115490000Y-92240000D03*
X115490000Y-93510000D03*
%TD*%
D18*
%TO.C,C2*%
X160700000Y-82990000D03*
X161660000Y-82990000D03*
%TD*%
D19*
%TO.C,C16*%
X168030000Y-86220000D03*
X168030000Y-85260000D03*
%TD*%
D20*
%TO.C,R21*%
X109445000Y-87910000D03*
X107795000Y-87910000D03*
%TD*%
D21*
%TO.C,U5*%
X170200000Y-85640000D03*
X170200000Y-86140000D03*
X170200000Y-86640000D03*
X170200000Y-87140000D03*
D22*
X170895000Y-87835000D03*
X171395000Y-87835000D03*
X171895000Y-87835000D03*
X172395000Y-87835000D03*
D21*
X173090000Y-87140000D03*
X173090000Y-86640000D03*
X173090000Y-86140000D03*
X173090000Y-85640000D03*
D22*
X172395000Y-84945000D03*
X171895000Y-84945000D03*
X171395000Y-84945000D03*
X170895000Y-84945000D03*
%TD*%
D18*
%TO.C,C3*%
X160740000Y-83990000D03*
X161700000Y-83990000D03*
%TD*%
D23*
%TO.C,U7*%
X111087500Y-83147500D03*
X112037500Y-83147500D03*
X112987500Y-83147500D03*
X112987500Y-80872500D03*
X111087500Y-80872500D03*
%TD*%
D24*
%TO.C,D7*%
X109367500Y-85990000D03*
X106067500Y-85990000D03*
%TD*%
D20*
%TO.C,R19*%
X152425000Y-104900000D03*
X150775000Y-104900000D03*
%TD*%
D25*
%TO.C,R16*%
X143875000Y-104000000D03*
X145525000Y-104000000D03*
%TD*%
D26*
%TO.C,C11*%
X140850000Y-113300000D03*
X142400000Y-113300000D03*
%TD*%
D27*
%TO.C,D1*%
X153860000Y-115750000D03*
X153860000Y-119050000D03*
%TD*%
D11*
%TO.C,R8*%
X146890000Y-116325000D03*
X146890000Y-114675000D03*
%TD*%
D28*
%TO.C,C14*%
X122870000Y-89670000D03*
X122870000Y-86720000D03*
%TD*%
%TO.C,C19*%
X134140000Y-85025000D03*
X134140000Y-82075000D03*
%TD*%
D25*
%TO.C,R11*%
X148600000Y-109900000D03*
X150250000Y-109900000D03*
%TD*%
D29*
%TO.C,D5*%
X113440000Y-91990000D03*
X111865000Y-91990000D03*
%TD*%
D30*
%TO.C,U9*%
X142200000Y-89700000D03*
X142200000Y-91100000D03*
X142200000Y-92500000D03*
X143600000Y-89700000D03*
X143600000Y-91100000D03*
X143600000Y-92500000D03*
X145000000Y-89700000D03*
X145000000Y-91100000D03*
X145000000Y-92500000D03*
D31*
X136350000Y-83380000D03*
X136350000Y-84650000D03*
X136350000Y-85920000D03*
X136350000Y-87190000D03*
X136350000Y-88460000D03*
X136350000Y-89730000D03*
X136350000Y-91000000D03*
X136350000Y-92270000D03*
X136350000Y-93540000D03*
X136350000Y-94810000D03*
X136350000Y-96080000D03*
X136350000Y-97350000D03*
X136350000Y-98620000D03*
X136350000Y-99890000D03*
D32*
X138115000Y-101140000D03*
X139385000Y-101140000D03*
X140655000Y-101140000D03*
X141925000Y-101140000D03*
X143195000Y-101140000D03*
X144465000Y-101140000D03*
X145735000Y-101140000D03*
X147005000Y-101140000D03*
X148275000Y-101140000D03*
X149545000Y-101140000D03*
X150815000Y-101140000D03*
X152085000Y-101140000D03*
D31*
X153850000Y-99890000D03*
X153850000Y-98620000D03*
X153850000Y-97350000D03*
X153850000Y-96080000D03*
X153850000Y-94810000D03*
X153850000Y-93540000D03*
X153850000Y-92270000D03*
X153850000Y-91000000D03*
X153850000Y-89730000D03*
X153850000Y-88460000D03*
X153850000Y-87190000D03*
X153850000Y-85920000D03*
X153850000Y-84650000D03*
X153850000Y-83380000D03*
%TD*%
D33*
%TO.C,SW4*%
X132400000Y-95500000D03*
X132400000Y-91300000D03*
%TD*%
D34*
%TO.C,C8*%
X162120000Y-96540000D03*
X162120000Y-97500000D03*
%TD*%
D27*
%TO.C,D2*%
X136210000Y-115800000D03*
X136210000Y-119100000D03*
%TD*%
D35*
%TO.C,SW3*%
X127700000Y-87200000D03*
X127700000Y-91400000D03*
%TD*%
D12*
%TO.C,R9*%
X138110000Y-117475000D03*
X138110000Y-119125000D03*
%TD*%
%TO.C,R23*%
X133680000Y-86570000D03*
X133680000Y-88220000D03*
%TD*%
D36*
%TO.C,U1*%
X160510000Y-86950000D03*
X160510000Y-88200000D03*
X161760000Y-86950000D03*
X161760000Y-88200000D03*
D37*
X159197500Y-86575000D03*
X159197500Y-87075000D03*
X159197500Y-87575000D03*
X159197500Y-88075000D03*
X159197500Y-88575000D03*
D38*
X160135000Y-89512500D03*
X160635000Y-89512500D03*
X161135000Y-89512500D03*
X161635000Y-89512500D03*
X162135000Y-89512500D03*
D37*
X163072500Y-88575000D03*
X163072500Y-88075000D03*
X163072500Y-87575000D03*
X163072500Y-87075000D03*
X163072500Y-86575000D03*
D38*
X162135000Y-85637500D03*
X161635000Y-85637500D03*
X161135000Y-85637500D03*
X160635000Y-85637500D03*
X160135000Y-85637500D03*
%TD*%
D12*
%TO.C,R2*%
X151960000Y-117475000D03*
X151960000Y-119125000D03*
%TD*%
%TO.C,R3*%
X149260000Y-117475000D03*
X149260000Y-119125000D03*
%TD*%
D18*
%TO.C,C15*%
X167100000Y-87170000D03*
X168060000Y-87170000D03*
%TD*%
D25*
%TO.C,R20*%
X122380000Y-92260000D03*
X124030000Y-92260000D03*
%TD*%
D39*
%TO.C,U4*%
X144700000Y-109987500D03*
X144700000Y-111287500D03*
X146000000Y-109987500D03*
X146000000Y-111287500D03*
D37*
X143412500Y-109387500D03*
X143412500Y-109887500D03*
X143412500Y-110387500D03*
X143412500Y-110887500D03*
X143412500Y-111387500D03*
X143412500Y-111887500D03*
D38*
X144100000Y-112575000D03*
X144600000Y-112575000D03*
X145100000Y-112575000D03*
X145600000Y-112575000D03*
X146100000Y-112575000D03*
X146600000Y-112575000D03*
D37*
X147287500Y-111887500D03*
X147287500Y-111387500D03*
X147287500Y-110887500D03*
X147287500Y-110387500D03*
X147287500Y-109887500D03*
X147287500Y-109387500D03*
D38*
X146600000Y-108700000D03*
X146100000Y-108700000D03*
X145600000Y-108700000D03*
X145100000Y-108700000D03*
X144600000Y-108700000D03*
X144100000Y-108700000D03*
%TD*%
D25*
%TO.C,R18*%
X108865000Y-90430000D03*
X110515000Y-90430000D03*
%TD*%
D40*
%TO.C,J2*%
X135760000Y-121055000D03*
X136560000Y-121055000D03*
D41*
X137760000Y-121055000D03*
X138760000Y-121055000D03*
X139260000Y-121055000D03*
X140260000Y-121055000D03*
D40*
X141460000Y-121055000D03*
X142260000Y-121055000D03*
X142260000Y-121055000D03*
X141460000Y-121055000D03*
D41*
X140760000Y-121055000D03*
X139760000Y-121055000D03*
X138260000Y-121055000D03*
X137260000Y-121055000D03*
D40*
X136560000Y-121055000D03*
X135760000Y-121055000D03*
%TD*%
D20*
%TO.C,R4*%
X161940000Y-95300000D03*
X160290000Y-95300000D03*
%TD*%
D42*
%TO.C,C20*%
X131740000Y-86730000D03*
X131740000Y-89680000D03*
%TD*%
D26*
%TO.C,C17*%
X126925000Y-92800000D03*
X128475000Y-92800000D03*
%TD*%
D43*
%TO.C,Q3*%
X111100000Y-86000000D03*
X111100000Y-87900000D03*
X112975000Y-86950000D03*
%TD*%
D44*
%TO.C,X1*%
X160030000Y-93580000D03*
X162230000Y-93580000D03*
X162230000Y-91880000D03*
X160030000Y-91880000D03*
%TD*%
D12*
%TO.C,R10*%
X140810000Y-117450000D03*
X140810000Y-119100000D03*
%TD*%
D20*
%TO.C,R6*%
X145490000Y-114775000D03*
X143840000Y-114775000D03*
%TD*%
%TO.C,R13*%
X145525000Y-105800000D03*
X143875000Y-105800000D03*
%TD*%
D34*
%TO.C,C4*%
X164240000Y-89120000D03*
X164240000Y-90080000D03*
%TD*%
D45*
%TO.C,L1*%
X164230000Y-88220000D03*
X164230000Y-87250000D03*
%TD*%
D25*
%TO.C,R17*%
X108875000Y-91980000D03*
X110525000Y-91980000D03*
%TD*%
D46*
%TO.C,Q1*%
X142175000Y-105850000D03*
X142175000Y-103950000D03*
X140300000Y-104900000D03*
%TD*%
D47*
%TO.C,L3*%
X166175000Y-87170000D03*
X165205000Y-87170000D03*
%TD*%
D34*
%TO.C,C5*%
X165220000Y-89110000D03*
X165220000Y-90070000D03*
%TD*%
%TO.C,C9*%
X160110000Y-96530000D03*
X160110000Y-97490000D03*
%TD*%
D29*
%TO.C,D6*%
X113440000Y-90410000D03*
X111865000Y-90410000D03*
%TD*%
D48*
%TO.C,L2*%
X165205000Y-88180000D03*
X166175000Y-88180000D03*
%TD*%
D12*
%TO.C,R24*%
X128900000Y-83600000D03*
X128900000Y-85250000D03*
%TD*%
D43*
%TO.C,Q2*%
X147175000Y-104000000D03*
X147175000Y-105900000D03*
X149050000Y-104950000D03*
%TD*%
D19*
%TO.C,C1*%
X159800000Y-83990000D03*
X159800000Y-83030000D03*
%TD*%
D49*
%TO.C,C12*%
X140510000Y-111680000D03*
X138960000Y-111680000D03*
%TD*%
D40*
%TO.C,J1*%
X147250000Y-121015000D03*
X148050000Y-121015000D03*
D41*
X149250000Y-121015000D03*
X150250000Y-121015000D03*
X150750000Y-121015000D03*
X151750000Y-121015000D03*
D40*
X152950000Y-121015000D03*
X153750000Y-121015000D03*
X153750000Y-121015000D03*
X152950000Y-121015000D03*
D41*
X152250000Y-121015000D03*
X151250000Y-121015000D03*
X149750000Y-121015000D03*
X148750000Y-121015000D03*
D40*
X148050000Y-121015000D03*
X147250000Y-121015000D03*
%TD*%
D20*
%TO.C,R12*%
X138600000Y-104900000D03*
X136950000Y-104900000D03*
%TD*%
D11*
%TO.C,R1*%
X162910000Y-84255000D03*
X162910000Y-82605000D03*
%TD*%
M02*
