%TF.GenerationSoftware,KiCad,Pcbnew,10.0.4*%
%TF.CreationDate,2026-07-27T23:32:27-04:00*%
%TF.ProjectId,swervecontrollerPCBv1,73776572-7665-4636-9f6e-74726f6c6c65,rev?*%
%TF.SameCoordinates,Original*%
%TF.FileFunction,Legend,Top*%
%TF.FilePolarity,Positive*%
%FSLAX46Y46*%
G04 Gerber Fmt 4.6, Leading zero omitted, Abs format (unit mm)*
G04 Created by KiCad (PCBNEW 10.0.4) date 2026-07-27 23:32:27*
%MOMM*%
%LPD*%
G01*
G04 APERTURE LIST*
%ADD10C,0.150000*%
%ADD11C,0.120000*%
%ADD12C,0.127000*%
%ADD13C,0.200000*%
G04 APERTURE END LIST*
D10*
X144414819Y-117166666D02*
X143938628Y-117499999D01*
X144414819Y-117738094D02*
X143414819Y-117738094D01*
X143414819Y-117738094D02*
X143414819Y-117357142D01*
X143414819Y-117357142D02*
X143462438Y-117261904D01*
X143462438Y-117261904D02*
X143510057Y-117214285D01*
X143510057Y-117214285D02*
X143605295Y-117166666D01*
X143605295Y-117166666D02*
X143748152Y-117166666D01*
X143748152Y-117166666D02*
X143843390Y-117214285D01*
X143843390Y-117214285D02*
X143891009Y-117261904D01*
X143891009Y-117261904D02*
X143938628Y-117357142D01*
X143938628Y-117357142D02*
X143938628Y-117738094D01*
X143414819Y-116261904D02*
X143414819Y-116738094D01*
X143414819Y-116738094D02*
X143891009Y-116785713D01*
X143891009Y-116785713D02*
X143843390Y-116738094D01*
X143843390Y-116738094D02*
X143795771Y-116642856D01*
X143795771Y-116642856D02*
X143795771Y-116404761D01*
X143795771Y-116404761D02*
X143843390Y-116309523D01*
X143843390Y-116309523D02*
X143891009Y-116261904D01*
X143891009Y-116261904D02*
X143986247Y-116214285D01*
X143986247Y-116214285D02*
X144224342Y-116214285D01*
X144224342Y-116214285D02*
X144319580Y-116261904D01*
X144319580Y-116261904D02*
X144367200Y-116309523D01*
X144367200Y-116309523D02*
X144414819Y-116404761D01*
X144414819Y-116404761D02*
X144414819Y-116642856D01*
X144414819Y-116642856D02*
X144367200Y-116738094D01*
X144367200Y-116738094D02*
X144319580Y-116785713D01*
X173284819Y-90181666D02*
X172808628Y-90514999D01*
X173284819Y-90753094D02*
X172284819Y-90753094D01*
X172284819Y-90753094D02*
X172284819Y-90372142D01*
X172284819Y-90372142D02*
X172332438Y-90276904D01*
X172332438Y-90276904D02*
X172380057Y-90229285D01*
X172380057Y-90229285D02*
X172475295Y-90181666D01*
X172475295Y-90181666D02*
X172618152Y-90181666D01*
X172618152Y-90181666D02*
X172713390Y-90229285D01*
X172713390Y-90229285D02*
X172761009Y-90276904D01*
X172761009Y-90276904D02*
X172808628Y-90372142D01*
X172808628Y-90372142D02*
X172808628Y-90753094D01*
X172284819Y-89848332D02*
X172284819Y-89181666D01*
X172284819Y-89181666D02*
X173284819Y-89610237D01*
X140157142Y-113709580D02*
X140109523Y-113757200D01*
X140109523Y-113757200D02*
X139966666Y-113804819D01*
X139966666Y-113804819D02*
X139871428Y-113804819D01*
X139871428Y-113804819D02*
X139728571Y-113757200D01*
X139728571Y-113757200D02*
X139633333Y-113661961D01*
X139633333Y-113661961D02*
X139585714Y-113566723D01*
X139585714Y-113566723D02*
X139538095Y-113376247D01*
X139538095Y-113376247D02*
X139538095Y-113233390D01*
X139538095Y-113233390D02*
X139585714Y-113042914D01*
X139585714Y-113042914D02*
X139633333Y-112947676D01*
X139633333Y-112947676D02*
X139728571Y-112852438D01*
X139728571Y-112852438D02*
X139871428Y-112804819D01*
X139871428Y-112804819D02*
X139966666Y-112804819D01*
X139966666Y-112804819D02*
X140109523Y-112852438D01*
X140109523Y-112852438D02*
X140157142Y-112900057D01*
X141109523Y-113804819D02*
X140538095Y-113804819D01*
X140823809Y-113804819D02*
X140823809Y-112804819D01*
X140823809Y-112804819D02*
X140728571Y-112947676D01*
X140728571Y-112947676D02*
X140633333Y-113042914D01*
X140633333Y-113042914D02*
X140538095Y-113090533D01*
X141728571Y-112804819D02*
X141823809Y-112804819D01*
X141823809Y-112804819D02*
X141919047Y-112852438D01*
X141919047Y-112852438D02*
X141966666Y-112900057D01*
X141966666Y-112900057D02*
X142014285Y-112995295D01*
X142014285Y-112995295D02*
X142061904Y-113185771D01*
X142061904Y-113185771D02*
X142061904Y-113423866D01*
X142061904Y-113423866D02*
X142014285Y-113614342D01*
X142014285Y-113614342D02*
X141966666Y-113709580D01*
X141966666Y-113709580D02*
X141919047Y-113757200D01*
X141919047Y-113757200D02*
X141823809Y-113804819D01*
X141823809Y-113804819D02*
X141728571Y-113804819D01*
X141728571Y-113804819D02*
X141633333Y-113757200D01*
X141633333Y-113757200D02*
X141585714Y-113709580D01*
X141585714Y-113709580D02*
X141538095Y-113614342D01*
X141538095Y-113614342D02*
X141490476Y-113423866D01*
X141490476Y-113423866D02*
X141490476Y-113185771D01*
X141490476Y-113185771D02*
X141538095Y-112995295D01*
X141538095Y-112995295D02*
X141585714Y-112900057D01*
X141585714Y-112900057D02*
X141633333Y-112852438D01*
X141633333Y-112852438D02*
X141728571Y-112804819D01*
X125861905Y-82624819D02*
X125861905Y-81624819D01*
X125861905Y-81624819D02*
X126100000Y-81624819D01*
X126100000Y-81624819D02*
X126242857Y-81672438D01*
X126242857Y-81672438D02*
X126338095Y-81767676D01*
X126338095Y-81767676D02*
X126385714Y-81862914D01*
X126385714Y-81862914D02*
X126433333Y-82053390D01*
X126433333Y-82053390D02*
X126433333Y-82196247D01*
X126433333Y-82196247D02*
X126385714Y-82386723D01*
X126385714Y-82386723D02*
X126338095Y-82481961D01*
X126338095Y-82481961D02*
X126242857Y-82577200D01*
X126242857Y-82577200D02*
X126100000Y-82624819D01*
X126100000Y-82624819D02*
X125861905Y-82624819D01*
X126909524Y-82624819D02*
X127100000Y-82624819D01*
X127100000Y-82624819D02*
X127195238Y-82577200D01*
X127195238Y-82577200D02*
X127242857Y-82529580D01*
X127242857Y-82529580D02*
X127338095Y-82386723D01*
X127338095Y-82386723D02*
X127385714Y-82196247D01*
X127385714Y-82196247D02*
X127385714Y-81815295D01*
X127385714Y-81815295D02*
X127338095Y-81720057D01*
X127338095Y-81720057D02*
X127290476Y-81672438D01*
X127290476Y-81672438D02*
X127195238Y-81624819D01*
X127195238Y-81624819D02*
X127004762Y-81624819D01*
X127004762Y-81624819D02*
X126909524Y-81672438D01*
X126909524Y-81672438D02*
X126861905Y-81720057D01*
X126861905Y-81720057D02*
X126814286Y-81815295D01*
X126814286Y-81815295D02*
X126814286Y-82053390D01*
X126814286Y-82053390D02*
X126861905Y-82148628D01*
X126861905Y-82148628D02*
X126909524Y-82196247D01*
X126909524Y-82196247D02*
X127004762Y-82243866D01*
X127004762Y-82243866D02*
X127195238Y-82243866D01*
X127195238Y-82243866D02*
X127290476Y-82196247D01*
X127290476Y-82196247D02*
X127338095Y-82148628D01*
X127338095Y-82148628D02*
X127385714Y-82053390D01*
X131109580Y-84987857D02*
X131157200Y-85035476D01*
X131157200Y-85035476D02*
X131204819Y-85178333D01*
X131204819Y-85178333D02*
X131204819Y-85273571D01*
X131204819Y-85273571D02*
X131157200Y-85416428D01*
X131157200Y-85416428D02*
X131061961Y-85511666D01*
X131061961Y-85511666D02*
X130966723Y-85559285D01*
X130966723Y-85559285D02*
X130776247Y-85606904D01*
X130776247Y-85606904D02*
X130633390Y-85606904D01*
X130633390Y-85606904D02*
X130442914Y-85559285D01*
X130442914Y-85559285D02*
X130347676Y-85511666D01*
X130347676Y-85511666D02*
X130252438Y-85416428D01*
X130252438Y-85416428D02*
X130204819Y-85273571D01*
X130204819Y-85273571D02*
X130204819Y-85178333D01*
X130204819Y-85178333D02*
X130252438Y-85035476D01*
X130252438Y-85035476D02*
X130300057Y-84987857D01*
X131204819Y-84035476D02*
X131204819Y-84606904D01*
X131204819Y-84321190D02*
X130204819Y-84321190D01*
X130204819Y-84321190D02*
X130347676Y-84416428D01*
X130347676Y-84416428D02*
X130442914Y-84511666D01*
X130442914Y-84511666D02*
X130490533Y-84606904D01*
X130633390Y-83464047D02*
X130585771Y-83559285D01*
X130585771Y-83559285D02*
X130538152Y-83606904D01*
X130538152Y-83606904D02*
X130442914Y-83654523D01*
X130442914Y-83654523D02*
X130395295Y-83654523D01*
X130395295Y-83654523D02*
X130300057Y-83606904D01*
X130300057Y-83606904D02*
X130252438Y-83559285D01*
X130252438Y-83559285D02*
X130204819Y-83464047D01*
X130204819Y-83464047D02*
X130204819Y-83273571D01*
X130204819Y-83273571D02*
X130252438Y-83178333D01*
X130252438Y-83178333D02*
X130300057Y-83130714D01*
X130300057Y-83130714D02*
X130395295Y-83083095D01*
X130395295Y-83083095D02*
X130442914Y-83083095D01*
X130442914Y-83083095D02*
X130538152Y-83130714D01*
X130538152Y-83130714D02*
X130585771Y-83178333D01*
X130585771Y-83178333D02*
X130633390Y-83273571D01*
X130633390Y-83273571D02*
X130633390Y-83464047D01*
X130633390Y-83464047D02*
X130681009Y-83559285D01*
X130681009Y-83559285D02*
X130728628Y-83606904D01*
X130728628Y-83606904D02*
X130823866Y-83654523D01*
X130823866Y-83654523D02*
X131014342Y-83654523D01*
X131014342Y-83654523D02*
X131109580Y-83606904D01*
X131109580Y-83606904D02*
X131157200Y-83559285D01*
X131157200Y-83559285D02*
X131204819Y-83464047D01*
X131204819Y-83464047D02*
X131204819Y-83273571D01*
X131204819Y-83273571D02*
X131157200Y-83178333D01*
X131157200Y-83178333D02*
X131109580Y-83130714D01*
X131109580Y-83130714D02*
X131014342Y-83083095D01*
X131014342Y-83083095D02*
X130823866Y-83083095D01*
X130823866Y-83083095D02*
X130728628Y-83130714D01*
X130728628Y-83130714D02*
X130681009Y-83178333D01*
X130681009Y-83178333D02*
X130633390Y-83273571D01*
X117203095Y-94459819D02*
X117203095Y-95269342D01*
X117203095Y-95269342D02*
X117250714Y-95364580D01*
X117250714Y-95364580D02*
X117298333Y-95412200D01*
X117298333Y-95412200D02*
X117393571Y-95459819D01*
X117393571Y-95459819D02*
X117584047Y-95459819D01*
X117584047Y-95459819D02*
X117679285Y-95412200D01*
X117679285Y-95412200D02*
X117726904Y-95364580D01*
X117726904Y-95364580D02*
X117774523Y-95269342D01*
X117774523Y-95269342D02*
X117774523Y-94459819D01*
X118679285Y-94459819D02*
X118488809Y-94459819D01*
X118488809Y-94459819D02*
X118393571Y-94507438D01*
X118393571Y-94507438D02*
X118345952Y-94555057D01*
X118345952Y-94555057D02*
X118250714Y-94697914D01*
X118250714Y-94697914D02*
X118203095Y-94888390D01*
X118203095Y-94888390D02*
X118203095Y-95269342D01*
X118203095Y-95269342D02*
X118250714Y-95364580D01*
X118250714Y-95364580D02*
X118298333Y-95412200D01*
X118298333Y-95412200D02*
X118393571Y-95459819D01*
X118393571Y-95459819D02*
X118584047Y-95459819D01*
X118584047Y-95459819D02*
X118679285Y-95412200D01*
X118679285Y-95412200D02*
X118726904Y-95364580D01*
X118726904Y-95364580D02*
X118774523Y-95269342D01*
X118774523Y-95269342D02*
X118774523Y-95031247D01*
X118774523Y-95031247D02*
X118726904Y-94936009D01*
X118726904Y-94936009D02*
X118679285Y-94888390D01*
X118679285Y-94888390D02*
X118584047Y-94840771D01*
X118584047Y-94840771D02*
X118393571Y-94840771D01*
X118393571Y-94840771D02*
X118298333Y-94888390D01*
X118298333Y-94888390D02*
X118250714Y-94936009D01*
X118250714Y-94936009D02*
X118203095Y-95031247D01*
X161013333Y-82189580D02*
X160965714Y-82237200D01*
X160965714Y-82237200D02*
X160822857Y-82284819D01*
X160822857Y-82284819D02*
X160727619Y-82284819D01*
X160727619Y-82284819D02*
X160584762Y-82237200D01*
X160584762Y-82237200D02*
X160489524Y-82141961D01*
X160489524Y-82141961D02*
X160441905Y-82046723D01*
X160441905Y-82046723D02*
X160394286Y-81856247D01*
X160394286Y-81856247D02*
X160394286Y-81713390D01*
X160394286Y-81713390D02*
X160441905Y-81522914D01*
X160441905Y-81522914D02*
X160489524Y-81427676D01*
X160489524Y-81427676D02*
X160584762Y-81332438D01*
X160584762Y-81332438D02*
X160727619Y-81284819D01*
X160727619Y-81284819D02*
X160822857Y-81284819D01*
X160822857Y-81284819D02*
X160965714Y-81332438D01*
X160965714Y-81332438D02*
X161013333Y-81380057D01*
X161394286Y-81380057D02*
X161441905Y-81332438D01*
X161441905Y-81332438D02*
X161537143Y-81284819D01*
X161537143Y-81284819D02*
X161775238Y-81284819D01*
X161775238Y-81284819D02*
X161870476Y-81332438D01*
X161870476Y-81332438D02*
X161918095Y-81380057D01*
X161918095Y-81380057D02*
X161965714Y-81475295D01*
X161965714Y-81475295D02*
X161965714Y-81570533D01*
X161965714Y-81570533D02*
X161918095Y-81713390D01*
X161918095Y-81713390D02*
X161346667Y-82284819D01*
X161346667Y-82284819D02*
X161965714Y-82284819D01*
X167229580Y-86382857D02*
X167277200Y-86430476D01*
X167277200Y-86430476D02*
X167324819Y-86573333D01*
X167324819Y-86573333D02*
X167324819Y-86668571D01*
X167324819Y-86668571D02*
X167277200Y-86811428D01*
X167277200Y-86811428D02*
X167181961Y-86906666D01*
X167181961Y-86906666D02*
X167086723Y-86954285D01*
X167086723Y-86954285D02*
X166896247Y-87001904D01*
X166896247Y-87001904D02*
X166753390Y-87001904D01*
X166753390Y-87001904D02*
X166562914Y-86954285D01*
X166562914Y-86954285D02*
X166467676Y-86906666D01*
X166467676Y-86906666D02*
X166372438Y-86811428D01*
X166372438Y-86811428D02*
X166324819Y-86668571D01*
X166324819Y-86668571D02*
X166324819Y-86573333D01*
X166324819Y-86573333D02*
X166372438Y-86430476D01*
X166372438Y-86430476D02*
X166420057Y-86382857D01*
X167324819Y-85430476D02*
X167324819Y-86001904D01*
X167324819Y-85716190D02*
X166324819Y-85716190D01*
X166324819Y-85716190D02*
X166467676Y-85811428D01*
X166467676Y-85811428D02*
X166562914Y-85906666D01*
X166562914Y-85906666D02*
X166610533Y-86001904D01*
X166324819Y-84573333D02*
X166324819Y-84763809D01*
X166324819Y-84763809D02*
X166372438Y-84859047D01*
X166372438Y-84859047D02*
X166420057Y-84906666D01*
X166420057Y-84906666D02*
X166562914Y-85001904D01*
X166562914Y-85001904D02*
X166753390Y-85049523D01*
X166753390Y-85049523D02*
X167134342Y-85049523D01*
X167134342Y-85049523D02*
X167229580Y-85001904D01*
X167229580Y-85001904D02*
X167277200Y-84954285D01*
X167277200Y-84954285D02*
X167324819Y-84859047D01*
X167324819Y-84859047D02*
X167324819Y-84668571D01*
X167324819Y-84668571D02*
X167277200Y-84573333D01*
X167277200Y-84573333D02*
X167229580Y-84525714D01*
X167229580Y-84525714D02*
X167134342Y-84478095D01*
X167134342Y-84478095D02*
X166896247Y-84478095D01*
X166896247Y-84478095D02*
X166801009Y-84525714D01*
X166801009Y-84525714D02*
X166753390Y-84573333D01*
X166753390Y-84573333D02*
X166705771Y-84668571D01*
X166705771Y-84668571D02*
X166705771Y-84859047D01*
X166705771Y-84859047D02*
X166753390Y-84954285D01*
X166753390Y-84954285D02*
X166801009Y-85001904D01*
X166801009Y-85001904D02*
X166896247Y-85049523D01*
X105477142Y-88404819D02*
X105143809Y-87928628D01*
X104905714Y-88404819D02*
X104905714Y-87404819D01*
X104905714Y-87404819D02*
X105286666Y-87404819D01*
X105286666Y-87404819D02*
X105381904Y-87452438D01*
X105381904Y-87452438D02*
X105429523Y-87500057D01*
X105429523Y-87500057D02*
X105477142Y-87595295D01*
X105477142Y-87595295D02*
X105477142Y-87738152D01*
X105477142Y-87738152D02*
X105429523Y-87833390D01*
X105429523Y-87833390D02*
X105381904Y-87881009D01*
X105381904Y-87881009D02*
X105286666Y-87928628D01*
X105286666Y-87928628D02*
X104905714Y-87928628D01*
X105858095Y-87500057D02*
X105905714Y-87452438D01*
X105905714Y-87452438D02*
X106000952Y-87404819D01*
X106000952Y-87404819D02*
X106239047Y-87404819D01*
X106239047Y-87404819D02*
X106334285Y-87452438D01*
X106334285Y-87452438D02*
X106381904Y-87500057D01*
X106381904Y-87500057D02*
X106429523Y-87595295D01*
X106429523Y-87595295D02*
X106429523Y-87690533D01*
X106429523Y-87690533D02*
X106381904Y-87833390D01*
X106381904Y-87833390D02*
X105810476Y-88404819D01*
X105810476Y-88404819D02*
X106429523Y-88404819D01*
X107381904Y-88404819D02*
X106810476Y-88404819D01*
X107096190Y-88404819D02*
X107096190Y-87404819D01*
X107096190Y-87404819D02*
X107000952Y-87547676D01*
X107000952Y-87547676D02*
X106905714Y-87642914D01*
X106905714Y-87642914D02*
X106810476Y-87690533D01*
X171423095Y-82909819D02*
X171423095Y-83719342D01*
X171423095Y-83719342D02*
X171470714Y-83814580D01*
X171470714Y-83814580D02*
X171518333Y-83862200D01*
X171518333Y-83862200D02*
X171613571Y-83909819D01*
X171613571Y-83909819D02*
X171804047Y-83909819D01*
X171804047Y-83909819D02*
X171899285Y-83862200D01*
X171899285Y-83862200D02*
X171946904Y-83814580D01*
X171946904Y-83814580D02*
X171994523Y-83719342D01*
X171994523Y-83719342D02*
X171994523Y-82909819D01*
X172946904Y-82909819D02*
X172470714Y-82909819D01*
X172470714Y-82909819D02*
X172423095Y-83386009D01*
X172423095Y-83386009D02*
X172470714Y-83338390D01*
X172470714Y-83338390D02*
X172565952Y-83290771D01*
X172565952Y-83290771D02*
X172804047Y-83290771D01*
X172804047Y-83290771D02*
X172899285Y-83338390D01*
X172899285Y-83338390D02*
X172946904Y-83386009D01*
X172946904Y-83386009D02*
X172994523Y-83481247D01*
X172994523Y-83481247D02*
X172994523Y-83719342D01*
X172994523Y-83719342D02*
X172946904Y-83814580D01*
X172946904Y-83814580D02*
X172899285Y-83862200D01*
X172899285Y-83862200D02*
X172804047Y-83909819D01*
X172804047Y-83909819D02*
X172565952Y-83909819D01*
X172565952Y-83909819D02*
X172470714Y-83862200D01*
X172470714Y-83862200D02*
X172423095Y-83814580D01*
X161053333Y-83189580D02*
X161005714Y-83237200D01*
X161005714Y-83237200D02*
X160862857Y-83284819D01*
X160862857Y-83284819D02*
X160767619Y-83284819D01*
X160767619Y-83284819D02*
X160624762Y-83237200D01*
X160624762Y-83237200D02*
X160529524Y-83141961D01*
X160529524Y-83141961D02*
X160481905Y-83046723D01*
X160481905Y-83046723D02*
X160434286Y-82856247D01*
X160434286Y-82856247D02*
X160434286Y-82713390D01*
X160434286Y-82713390D02*
X160481905Y-82522914D01*
X160481905Y-82522914D02*
X160529524Y-82427676D01*
X160529524Y-82427676D02*
X160624762Y-82332438D01*
X160624762Y-82332438D02*
X160767619Y-82284819D01*
X160767619Y-82284819D02*
X160862857Y-82284819D01*
X160862857Y-82284819D02*
X161005714Y-82332438D01*
X161005714Y-82332438D02*
X161053333Y-82380057D01*
X161386667Y-82284819D02*
X162005714Y-82284819D01*
X162005714Y-82284819D02*
X161672381Y-82665771D01*
X161672381Y-82665771D02*
X161815238Y-82665771D01*
X161815238Y-82665771D02*
X161910476Y-82713390D01*
X161910476Y-82713390D02*
X161958095Y-82761009D01*
X161958095Y-82761009D02*
X162005714Y-82856247D01*
X162005714Y-82856247D02*
X162005714Y-83094342D01*
X162005714Y-83094342D02*
X161958095Y-83189580D01*
X161958095Y-83189580D02*
X161910476Y-83237200D01*
X161910476Y-83237200D02*
X161815238Y-83284819D01*
X161815238Y-83284819D02*
X161529524Y-83284819D01*
X161529524Y-83284819D02*
X161434286Y-83237200D01*
X161434286Y-83237200D02*
X161386667Y-83189580D01*
X109092319Y-82771904D02*
X109901842Y-82771904D01*
X109901842Y-82771904D02*
X109997080Y-82724285D01*
X109997080Y-82724285D02*
X110044700Y-82676666D01*
X110044700Y-82676666D02*
X110092319Y-82581428D01*
X110092319Y-82581428D02*
X110092319Y-82390952D01*
X110092319Y-82390952D02*
X110044700Y-82295714D01*
X110044700Y-82295714D02*
X109997080Y-82248095D01*
X109997080Y-82248095D02*
X109901842Y-82200476D01*
X109901842Y-82200476D02*
X109092319Y-82200476D01*
X109092319Y-81819523D02*
X109092319Y-81152857D01*
X109092319Y-81152857D02*
X110092319Y-81581428D01*
X103789405Y-86454819D02*
X103789405Y-85454819D01*
X103789405Y-85454819D02*
X104027500Y-85454819D01*
X104027500Y-85454819D02*
X104170357Y-85502438D01*
X104170357Y-85502438D02*
X104265595Y-85597676D01*
X104265595Y-85597676D02*
X104313214Y-85692914D01*
X104313214Y-85692914D02*
X104360833Y-85883390D01*
X104360833Y-85883390D02*
X104360833Y-86026247D01*
X104360833Y-86026247D02*
X104313214Y-86216723D01*
X104313214Y-86216723D02*
X104265595Y-86311961D01*
X104265595Y-86311961D02*
X104170357Y-86407200D01*
X104170357Y-86407200D02*
X104027500Y-86454819D01*
X104027500Y-86454819D02*
X103789405Y-86454819D01*
X104694167Y-85454819D02*
X105360833Y-85454819D01*
X105360833Y-85454819D02*
X104932262Y-86454819D01*
X150957142Y-106784819D02*
X150623809Y-106308628D01*
X150385714Y-106784819D02*
X150385714Y-105784819D01*
X150385714Y-105784819D02*
X150766666Y-105784819D01*
X150766666Y-105784819D02*
X150861904Y-105832438D01*
X150861904Y-105832438D02*
X150909523Y-105880057D01*
X150909523Y-105880057D02*
X150957142Y-105975295D01*
X150957142Y-105975295D02*
X150957142Y-106118152D01*
X150957142Y-106118152D02*
X150909523Y-106213390D01*
X150909523Y-106213390D02*
X150861904Y-106261009D01*
X150861904Y-106261009D02*
X150766666Y-106308628D01*
X150766666Y-106308628D02*
X150385714Y-106308628D01*
X151909523Y-106784819D02*
X151338095Y-106784819D01*
X151623809Y-106784819D02*
X151623809Y-105784819D01*
X151623809Y-105784819D02*
X151528571Y-105927676D01*
X151528571Y-105927676D02*
X151433333Y-106022914D01*
X151433333Y-106022914D02*
X151338095Y-106070533D01*
X152385714Y-106784819D02*
X152576190Y-106784819D01*
X152576190Y-106784819D02*
X152671428Y-106737200D01*
X152671428Y-106737200D02*
X152719047Y-106689580D01*
X152719047Y-106689580D02*
X152814285Y-106546723D01*
X152814285Y-106546723D02*
X152861904Y-106356247D01*
X152861904Y-106356247D02*
X152861904Y-105975295D01*
X152861904Y-105975295D02*
X152814285Y-105880057D01*
X152814285Y-105880057D02*
X152766666Y-105832438D01*
X152766666Y-105832438D02*
X152671428Y-105784819D01*
X152671428Y-105784819D02*
X152480952Y-105784819D01*
X152480952Y-105784819D02*
X152385714Y-105832438D01*
X152385714Y-105832438D02*
X152338095Y-105880057D01*
X152338095Y-105880057D02*
X152290476Y-105975295D01*
X152290476Y-105975295D02*
X152290476Y-106213390D01*
X152290476Y-106213390D02*
X152338095Y-106308628D01*
X152338095Y-106308628D02*
X152385714Y-106356247D01*
X152385714Y-106356247D02*
X152480952Y-106403866D01*
X152480952Y-106403866D02*
X152671428Y-106403866D01*
X152671428Y-106403866D02*
X152766666Y-106356247D01*
X152766666Y-106356247D02*
X152814285Y-106308628D01*
X152814285Y-106308628D02*
X152861904Y-106213390D01*
X144057142Y-103024819D02*
X143723809Y-102548628D01*
X143485714Y-103024819D02*
X143485714Y-102024819D01*
X143485714Y-102024819D02*
X143866666Y-102024819D01*
X143866666Y-102024819D02*
X143961904Y-102072438D01*
X143961904Y-102072438D02*
X144009523Y-102120057D01*
X144009523Y-102120057D02*
X144057142Y-102215295D01*
X144057142Y-102215295D02*
X144057142Y-102358152D01*
X144057142Y-102358152D02*
X144009523Y-102453390D01*
X144009523Y-102453390D02*
X143961904Y-102501009D01*
X143961904Y-102501009D02*
X143866666Y-102548628D01*
X143866666Y-102548628D02*
X143485714Y-102548628D01*
X145009523Y-103024819D02*
X144438095Y-103024819D01*
X144723809Y-103024819D02*
X144723809Y-102024819D01*
X144723809Y-102024819D02*
X144628571Y-102167676D01*
X144628571Y-102167676D02*
X144533333Y-102262914D01*
X144533333Y-102262914D02*
X144438095Y-102310533D01*
X145866666Y-102024819D02*
X145676190Y-102024819D01*
X145676190Y-102024819D02*
X145580952Y-102072438D01*
X145580952Y-102072438D02*
X145533333Y-102120057D01*
X145533333Y-102120057D02*
X145438095Y-102262914D01*
X145438095Y-102262914D02*
X145390476Y-102453390D01*
X145390476Y-102453390D02*
X145390476Y-102834342D01*
X145390476Y-102834342D02*
X145438095Y-102929580D01*
X145438095Y-102929580D02*
X145485714Y-102977200D01*
X145485714Y-102977200D02*
X145580952Y-103024819D01*
X145580952Y-103024819D02*
X145771428Y-103024819D01*
X145771428Y-103024819D02*
X145866666Y-102977200D01*
X145866666Y-102977200D02*
X145914285Y-102929580D01*
X145914285Y-102929580D02*
X145961904Y-102834342D01*
X145961904Y-102834342D02*
X145961904Y-102596247D01*
X145961904Y-102596247D02*
X145914285Y-102501009D01*
X145914285Y-102501009D02*
X145866666Y-102453390D01*
X145866666Y-102453390D02*
X145771428Y-102405771D01*
X145771428Y-102405771D02*
X145580952Y-102405771D01*
X145580952Y-102405771D02*
X145485714Y-102453390D01*
X145485714Y-102453390D02*
X145438095Y-102501009D01*
X145438095Y-102501009D02*
X145390476Y-102596247D01*
X140982142Y-112229580D02*
X140934523Y-112277200D01*
X140934523Y-112277200D02*
X140791666Y-112324819D01*
X140791666Y-112324819D02*
X140696428Y-112324819D01*
X140696428Y-112324819D02*
X140553571Y-112277200D01*
X140553571Y-112277200D02*
X140458333Y-112181961D01*
X140458333Y-112181961D02*
X140410714Y-112086723D01*
X140410714Y-112086723D02*
X140363095Y-111896247D01*
X140363095Y-111896247D02*
X140363095Y-111753390D01*
X140363095Y-111753390D02*
X140410714Y-111562914D01*
X140410714Y-111562914D02*
X140458333Y-111467676D01*
X140458333Y-111467676D02*
X140553571Y-111372438D01*
X140553571Y-111372438D02*
X140696428Y-111324819D01*
X140696428Y-111324819D02*
X140791666Y-111324819D01*
X140791666Y-111324819D02*
X140934523Y-111372438D01*
X140934523Y-111372438D02*
X140982142Y-111420057D01*
X141934523Y-112324819D02*
X141363095Y-112324819D01*
X141648809Y-112324819D02*
X141648809Y-111324819D01*
X141648809Y-111324819D02*
X141553571Y-111467676D01*
X141553571Y-111467676D02*
X141458333Y-111562914D01*
X141458333Y-111562914D02*
X141363095Y-111610533D01*
X142886904Y-112324819D02*
X142315476Y-112324819D01*
X142601190Y-112324819D02*
X142601190Y-111324819D01*
X142601190Y-111324819D02*
X142505952Y-111467676D01*
X142505952Y-111467676D02*
X142410714Y-111562914D01*
X142410714Y-111562914D02*
X142315476Y-111610533D01*
X156314819Y-118138094D02*
X155314819Y-118138094D01*
X155314819Y-118138094D02*
X155314819Y-117899999D01*
X155314819Y-117899999D02*
X155362438Y-117757142D01*
X155362438Y-117757142D02*
X155457676Y-117661904D01*
X155457676Y-117661904D02*
X155552914Y-117614285D01*
X155552914Y-117614285D02*
X155743390Y-117566666D01*
X155743390Y-117566666D02*
X155886247Y-117566666D01*
X155886247Y-117566666D02*
X156076723Y-117614285D01*
X156076723Y-117614285D02*
X156171961Y-117661904D01*
X156171961Y-117661904D02*
X156267200Y-117757142D01*
X156267200Y-117757142D02*
X156314819Y-117899999D01*
X156314819Y-117899999D02*
X156314819Y-118138094D01*
X156314819Y-116614285D02*
X156314819Y-117185713D01*
X156314819Y-116899999D02*
X155314819Y-116899999D01*
X155314819Y-116899999D02*
X155457676Y-116995237D01*
X155457676Y-116995237D02*
X155552914Y-117090475D01*
X155552914Y-117090475D02*
X155600533Y-117185713D01*
X145914819Y-115666666D02*
X145438628Y-115999999D01*
X145914819Y-116238094D02*
X144914819Y-116238094D01*
X144914819Y-116238094D02*
X144914819Y-115857142D01*
X144914819Y-115857142D02*
X144962438Y-115761904D01*
X144962438Y-115761904D02*
X145010057Y-115714285D01*
X145010057Y-115714285D02*
X145105295Y-115666666D01*
X145105295Y-115666666D02*
X145248152Y-115666666D01*
X145248152Y-115666666D02*
X145343390Y-115714285D01*
X145343390Y-115714285D02*
X145391009Y-115761904D01*
X145391009Y-115761904D02*
X145438628Y-115857142D01*
X145438628Y-115857142D02*
X145438628Y-116238094D01*
X145343390Y-115095237D02*
X145295771Y-115190475D01*
X145295771Y-115190475D02*
X145248152Y-115238094D01*
X145248152Y-115238094D02*
X145152914Y-115285713D01*
X145152914Y-115285713D02*
X145105295Y-115285713D01*
X145105295Y-115285713D02*
X145010057Y-115238094D01*
X145010057Y-115238094D02*
X144962438Y-115190475D01*
X144962438Y-115190475D02*
X144914819Y-115095237D01*
X144914819Y-115095237D02*
X144914819Y-114904761D01*
X144914819Y-114904761D02*
X144962438Y-114809523D01*
X144962438Y-114809523D02*
X145010057Y-114761904D01*
X145010057Y-114761904D02*
X145105295Y-114714285D01*
X145105295Y-114714285D02*
X145152914Y-114714285D01*
X145152914Y-114714285D02*
X145248152Y-114761904D01*
X145248152Y-114761904D02*
X145295771Y-114809523D01*
X145295771Y-114809523D02*
X145343390Y-114904761D01*
X145343390Y-114904761D02*
X145343390Y-115095237D01*
X145343390Y-115095237D02*
X145391009Y-115190475D01*
X145391009Y-115190475D02*
X145438628Y-115238094D01*
X145438628Y-115238094D02*
X145533866Y-115285713D01*
X145533866Y-115285713D02*
X145724342Y-115285713D01*
X145724342Y-115285713D02*
X145819580Y-115238094D01*
X145819580Y-115238094D02*
X145867200Y-115190475D01*
X145867200Y-115190475D02*
X145914819Y-115095237D01*
X145914819Y-115095237D02*
X145914819Y-114904761D01*
X145914819Y-114904761D02*
X145867200Y-114809523D01*
X145867200Y-114809523D02*
X145819580Y-114761904D01*
X145819580Y-114761904D02*
X145724342Y-114714285D01*
X145724342Y-114714285D02*
X145533866Y-114714285D01*
X145533866Y-114714285D02*
X145438628Y-114761904D01*
X145438628Y-114761904D02*
X145391009Y-114809523D01*
X145391009Y-114809523D02*
X145343390Y-114904761D01*
X121379580Y-88837857D02*
X121427200Y-88885476D01*
X121427200Y-88885476D02*
X121474819Y-89028333D01*
X121474819Y-89028333D02*
X121474819Y-89123571D01*
X121474819Y-89123571D02*
X121427200Y-89266428D01*
X121427200Y-89266428D02*
X121331961Y-89361666D01*
X121331961Y-89361666D02*
X121236723Y-89409285D01*
X121236723Y-89409285D02*
X121046247Y-89456904D01*
X121046247Y-89456904D02*
X120903390Y-89456904D01*
X120903390Y-89456904D02*
X120712914Y-89409285D01*
X120712914Y-89409285D02*
X120617676Y-89361666D01*
X120617676Y-89361666D02*
X120522438Y-89266428D01*
X120522438Y-89266428D02*
X120474819Y-89123571D01*
X120474819Y-89123571D02*
X120474819Y-89028333D01*
X120474819Y-89028333D02*
X120522438Y-88885476D01*
X120522438Y-88885476D02*
X120570057Y-88837857D01*
X121474819Y-87885476D02*
X121474819Y-88456904D01*
X121474819Y-88171190D02*
X120474819Y-88171190D01*
X120474819Y-88171190D02*
X120617676Y-88266428D01*
X120617676Y-88266428D02*
X120712914Y-88361666D01*
X120712914Y-88361666D02*
X120760533Y-88456904D01*
X120808152Y-87028333D02*
X121474819Y-87028333D01*
X120427200Y-87266428D02*
X121141485Y-87504523D01*
X121141485Y-87504523D02*
X121141485Y-86885476D01*
X132649580Y-84192857D02*
X132697200Y-84240476D01*
X132697200Y-84240476D02*
X132744819Y-84383333D01*
X132744819Y-84383333D02*
X132744819Y-84478571D01*
X132744819Y-84478571D02*
X132697200Y-84621428D01*
X132697200Y-84621428D02*
X132601961Y-84716666D01*
X132601961Y-84716666D02*
X132506723Y-84764285D01*
X132506723Y-84764285D02*
X132316247Y-84811904D01*
X132316247Y-84811904D02*
X132173390Y-84811904D01*
X132173390Y-84811904D02*
X131982914Y-84764285D01*
X131982914Y-84764285D02*
X131887676Y-84716666D01*
X131887676Y-84716666D02*
X131792438Y-84621428D01*
X131792438Y-84621428D02*
X131744819Y-84478571D01*
X131744819Y-84478571D02*
X131744819Y-84383333D01*
X131744819Y-84383333D02*
X131792438Y-84240476D01*
X131792438Y-84240476D02*
X131840057Y-84192857D01*
X132744819Y-83240476D02*
X132744819Y-83811904D01*
X132744819Y-83526190D02*
X131744819Y-83526190D01*
X131744819Y-83526190D02*
X131887676Y-83621428D01*
X131887676Y-83621428D02*
X131982914Y-83716666D01*
X131982914Y-83716666D02*
X132030533Y-83811904D01*
X132744819Y-82764285D02*
X132744819Y-82573809D01*
X132744819Y-82573809D02*
X132697200Y-82478571D01*
X132697200Y-82478571D02*
X132649580Y-82430952D01*
X132649580Y-82430952D02*
X132506723Y-82335714D01*
X132506723Y-82335714D02*
X132316247Y-82288095D01*
X132316247Y-82288095D02*
X131935295Y-82288095D01*
X131935295Y-82288095D02*
X131840057Y-82335714D01*
X131840057Y-82335714D02*
X131792438Y-82383333D01*
X131792438Y-82383333D02*
X131744819Y-82478571D01*
X131744819Y-82478571D02*
X131744819Y-82669047D01*
X131744819Y-82669047D02*
X131792438Y-82764285D01*
X131792438Y-82764285D02*
X131840057Y-82811904D01*
X131840057Y-82811904D02*
X131935295Y-82859523D01*
X131935295Y-82859523D02*
X132173390Y-82859523D01*
X132173390Y-82859523D02*
X132268628Y-82811904D01*
X132268628Y-82811904D02*
X132316247Y-82764285D01*
X132316247Y-82764285D02*
X132363866Y-82669047D01*
X132363866Y-82669047D02*
X132363866Y-82478571D01*
X132363866Y-82478571D02*
X132316247Y-82383333D01*
X132316247Y-82383333D02*
X132268628Y-82335714D01*
X132268628Y-82335714D02*
X132173390Y-82288095D01*
X148782142Y-108924819D02*
X148448809Y-108448628D01*
X148210714Y-108924819D02*
X148210714Y-107924819D01*
X148210714Y-107924819D02*
X148591666Y-107924819D01*
X148591666Y-107924819D02*
X148686904Y-107972438D01*
X148686904Y-107972438D02*
X148734523Y-108020057D01*
X148734523Y-108020057D02*
X148782142Y-108115295D01*
X148782142Y-108115295D02*
X148782142Y-108258152D01*
X148782142Y-108258152D02*
X148734523Y-108353390D01*
X148734523Y-108353390D02*
X148686904Y-108401009D01*
X148686904Y-108401009D02*
X148591666Y-108448628D01*
X148591666Y-108448628D02*
X148210714Y-108448628D01*
X149734523Y-108924819D02*
X149163095Y-108924819D01*
X149448809Y-108924819D02*
X149448809Y-107924819D01*
X149448809Y-107924819D02*
X149353571Y-108067676D01*
X149353571Y-108067676D02*
X149258333Y-108162914D01*
X149258333Y-108162914D02*
X149163095Y-108210533D01*
X150686904Y-108924819D02*
X150115476Y-108924819D01*
X150401190Y-108924819D02*
X150401190Y-107924819D01*
X150401190Y-107924819D02*
X150305952Y-108067676D01*
X150305952Y-108067676D02*
X150210714Y-108162914D01*
X150210714Y-108162914D02*
X150115476Y-108210533D01*
X114324405Y-92494819D02*
X114324405Y-91494819D01*
X114324405Y-91494819D02*
X114562500Y-91494819D01*
X114562500Y-91494819D02*
X114705357Y-91542438D01*
X114705357Y-91542438D02*
X114800595Y-91637676D01*
X114800595Y-91637676D02*
X114848214Y-91732914D01*
X114848214Y-91732914D02*
X114895833Y-91923390D01*
X114895833Y-91923390D02*
X114895833Y-92066247D01*
X114895833Y-92066247D02*
X114848214Y-92256723D01*
X114848214Y-92256723D02*
X114800595Y-92351961D01*
X114800595Y-92351961D02*
X114705357Y-92447200D01*
X114705357Y-92447200D02*
X114562500Y-92494819D01*
X114562500Y-92494819D02*
X114324405Y-92494819D01*
X115800595Y-91494819D02*
X115324405Y-91494819D01*
X115324405Y-91494819D02*
X115276786Y-91971009D01*
X115276786Y-91971009D02*
X115324405Y-91923390D01*
X115324405Y-91923390D02*
X115419643Y-91875771D01*
X115419643Y-91875771D02*
X115657738Y-91875771D01*
X115657738Y-91875771D02*
X115752976Y-91923390D01*
X115752976Y-91923390D02*
X115800595Y-91971009D01*
X115800595Y-91971009D02*
X115848214Y-92066247D01*
X115848214Y-92066247D02*
X115848214Y-92304342D01*
X115848214Y-92304342D02*
X115800595Y-92399580D01*
X115800595Y-92399580D02*
X115752976Y-92447200D01*
X115752976Y-92447200D02*
X115657738Y-92494819D01*
X115657738Y-92494819D02*
X115419643Y-92494819D01*
X115419643Y-92494819D02*
X115324405Y-92447200D01*
X115324405Y-92447200D02*
X115276786Y-92399580D01*
X134054819Y-100801904D02*
X134864342Y-100801904D01*
X134864342Y-100801904D02*
X134959580Y-100754285D01*
X134959580Y-100754285D02*
X135007200Y-100706666D01*
X135007200Y-100706666D02*
X135054819Y-100611428D01*
X135054819Y-100611428D02*
X135054819Y-100420952D01*
X135054819Y-100420952D02*
X135007200Y-100325714D01*
X135007200Y-100325714D02*
X134959580Y-100278095D01*
X134959580Y-100278095D02*
X134864342Y-100230476D01*
X134864342Y-100230476D02*
X134054819Y-100230476D01*
X135054819Y-99706666D02*
X135054819Y-99516190D01*
X135054819Y-99516190D02*
X135007200Y-99420952D01*
X135007200Y-99420952D02*
X134959580Y-99373333D01*
X134959580Y-99373333D02*
X134816723Y-99278095D01*
X134816723Y-99278095D02*
X134626247Y-99230476D01*
X134626247Y-99230476D02*
X134245295Y-99230476D01*
X134245295Y-99230476D02*
X134150057Y-99278095D01*
X134150057Y-99278095D02*
X134102438Y-99325714D01*
X134102438Y-99325714D02*
X134054819Y-99420952D01*
X134054819Y-99420952D02*
X134054819Y-99611428D01*
X134054819Y-99611428D02*
X134102438Y-99706666D01*
X134102438Y-99706666D02*
X134150057Y-99754285D01*
X134150057Y-99754285D02*
X134245295Y-99801904D01*
X134245295Y-99801904D02*
X134483390Y-99801904D01*
X134483390Y-99801904D02*
X134578628Y-99754285D01*
X134578628Y-99754285D02*
X134626247Y-99706666D01*
X134626247Y-99706666D02*
X134673866Y-99611428D01*
X134673866Y-99611428D02*
X134673866Y-99420952D01*
X134673866Y-99420952D02*
X134626247Y-99325714D01*
X134626247Y-99325714D02*
X134578628Y-99278095D01*
X134578628Y-99278095D02*
X134483390Y-99230476D01*
X130557200Y-94733332D02*
X130604819Y-94590475D01*
X130604819Y-94590475D02*
X130604819Y-94352380D01*
X130604819Y-94352380D02*
X130557200Y-94257142D01*
X130557200Y-94257142D02*
X130509580Y-94209523D01*
X130509580Y-94209523D02*
X130414342Y-94161904D01*
X130414342Y-94161904D02*
X130319104Y-94161904D01*
X130319104Y-94161904D02*
X130223866Y-94209523D01*
X130223866Y-94209523D02*
X130176247Y-94257142D01*
X130176247Y-94257142D02*
X130128628Y-94352380D01*
X130128628Y-94352380D02*
X130081009Y-94542856D01*
X130081009Y-94542856D02*
X130033390Y-94638094D01*
X130033390Y-94638094D02*
X129985771Y-94685713D01*
X129985771Y-94685713D02*
X129890533Y-94733332D01*
X129890533Y-94733332D02*
X129795295Y-94733332D01*
X129795295Y-94733332D02*
X129700057Y-94685713D01*
X129700057Y-94685713D02*
X129652438Y-94638094D01*
X129652438Y-94638094D02*
X129604819Y-94542856D01*
X129604819Y-94542856D02*
X129604819Y-94304761D01*
X129604819Y-94304761D02*
X129652438Y-94161904D01*
X129604819Y-93828570D02*
X130604819Y-93590475D01*
X130604819Y-93590475D02*
X129890533Y-93399999D01*
X129890533Y-93399999D02*
X130604819Y-93209523D01*
X130604819Y-93209523D02*
X129604819Y-92971428D01*
X129938152Y-92161904D02*
X130604819Y-92161904D01*
X129557200Y-92399999D02*
X130271485Y-92638094D01*
X130271485Y-92638094D02*
X130271485Y-92019047D01*
X163639580Y-97186666D02*
X163687200Y-97234285D01*
X163687200Y-97234285D02*
X163734819Y-97377142D01*
X163734819Y-97377142D02*
X163734819Y-97472380D01*
X163734819Y-97472380D02*
X163687200Y-97615237D01*
X163687200Y-97615237D02*
X163591961Y-97710475D01*
X163591961Y-97710475D02*
X163496723Y-97758094D01*
X163496723Y-97758094D02*
X163306247Y-97805713D01*
X163306247Y-97805713D02*
X163163390Y-97805713D01*
X163163390Y-97805713D02*
X162972914Y-97758094D01*
X162972914Y-97758094D02*
X162877676Y-97710475D01*
X162877676Y-97710475D02*
X162782438Y-97615237D01*
X162782438Y-97615237D02*
X162734819Y-97472380D01*
X162734819Y-97472380D02*
X162734819Y-97377142D01*
X162734819Y-97377142D02*
X162782438Y-97234285D01*
X162782438Y-97234285D02*
X162830057Y-97186666D01*
X163163390Y-96615237D02*
X163115771Y-96710475D01*
X163115771Y-96710475D02*
X163068152Y-96758094D01*
X163068152Y-96758094D02*
X162972914Y-96805713D01*
X162972914Y-96805713D02*
X162925295Y-96805713D01*
X162925295Y-96805713D02*
X162830057Y-96758094D01*
X162830057Y-96758094D02*
X162782438Y-96710475D01*
X162782438Y-96710475D02*
X162734819Y-96615237D01*
X162734819Y-96615237D02*
X162734819Y-96424761D01*
X162734819Y-96424761D02*
X162782438Y-96329523D01*
X162782438Y-96329523D02*
X162830057Y-96281904D01*
X162830057Y-96281904D02*
X162925295Y-96234285D01*
X162925295Y-96234285D02*
X162972914Y-96234285D01*
X162972914Y-96234285D02*
X163068152Y-96281904D01*
X163068152Y-96281904D02*
X163115771Y-96329523D01*
X163115771Y-96329523D02*
X163163390Y-96424761D01*
X163163390Y-96424761D02*
X163163390Y-96615237D01*
X163163390Y-96615237D02*
X163211009Y-96710475D01*
X163211009Y-96710475D02*
X163258628Y-96758094D01*
X163258628Y-96758094D02*
X163353866Y-96805713D01*
X163353866Y-96805713D02*
X163544342Y-96805713D01*
X163544342Y-96805713D02*
X163639580Y-96758094D01*
X163639580Y-96758094D02*
X163687200Y-96710475D01*
X163687200Y-96710475D02*
X163734819Y-96615237D01*
X163734819Y-96615237D02*
X163734819Y-96424761D01*
X163734819Y-96424761D02*
X163687200Y-96329523D01*
X163687200Y-96329523D02*
X163639580Y-96281904D01*
X163639580Y-96281904D02*
X163544342Y-96234285D01*
X163544342Y-96234285D02*
X163353866Y-96234285D01*
X163353866Y-96234285D02*
X163258628Y-96281904D01*
X163258628Y-96281904D02*
X163211009Y-96329523D01*
X163211009Y-96329523D02*
X163163390Y-96424761D01*
X138664819Y-118188094D02*
X137664819Y-118188094D01*
X137664819Y-118188094D02*
X137664819Y-117949999D01*
X137664819Y-117949999D02*
X137712438Y-117807142D01*
X137712438Y-117807142D02*
X137807676Y-117711904D01*
X137807676Y-117711904D02*
X137902914Y-117664285D01*
X137902914Y-117664285D02*
X138093390Y-117616666D01*
X138093390Y-117616666D02*
X138236247Y-117616666D01*
X138236247Y-117616666D02*
X138426723Y-117664285D01*
X138426723Y-117664285D02*
X138521961Y-117711904D01*
X138521961Y-117711904D02*
X138617200Y-117807142D01*
X138617200Y-117807142D02*
X138664819Y-117949999D01*
X138664819Y-117949999D02*
X138664819Y-118188094D01*
X137760057Y-117235713D02*
X137712438Y-117188094D01*
X137712438Y-117188094D02*
X137664819Y-117092856D01*
X137664819Y-117092856D02*
X137664819Y-116854761D01*
X137664819Y-116854761D02*
X137712438Y-116759523D01*
X137712438Y-116759523D02*
X137760057Y-116711904D01*
X137760057Y-116711904D02*
X137855295Y-116664285D01*
X137855295Y-116664285D02*
X137950533Y-116664285D01*
X137950533Y-116664285D02*
X138093390Y-116711904D01*
X138093390Y-116711904D02*
X138664819Y-117283332D01*
X138664819Y-117283332D02*
X138664819Y-116664285D01*
X130357200Y-90633332D02*
X130404819Y-90490475D01*
X130404819Y-90490475D02*
X130404819Y-90252380D01*
X130404819Y-90252380D02*
X130357200Y-90157142D01*
X130357200Y-90157142D02*
X130309580Y-90109523D01*
X130309580Y-90109523D02*
X130214342Y-90061904D01*
X130214342Y-90061904D02*
X130119104Y-90061904D01*
X130119104Y-90061904D02*
X130023866Y-90109523D01*
X130023866Y-90109523D02*
X129976247Y-90157142D01*
X129976247Y-90157142D02*
X129928628Y-90252380D01*
X129928628Y-90252380D02*
X129881009Y-90442856D01*
X129881009Y-90442856D02*
X129833390Y-90538094D01*
X129833390Y-90538094D02*
X129785771Y-90585713D01*
X129785771Y-90585713D02*
X129690533Y-90633332D01*
X129690533Y-90633332D02*
X129595295Y-90633332D01*
X129595295Y-90633332D02*
X129500057Y-90585713D01*
X129500057Y-90585713D02*
X129452438Y-90538094D01*
X129452438Y-90538094D02*
X129404819Y-90442856D01*
X129404819Y-90442856D02*
X129404819Y-90204761D01*
X129404819Y-90204761D02*
X129452438Y-90061904D01*
X129404819Y-89728570D02*
X130404819Y-89490475D01*
X130404819Y-89490475D02*
X129690533Y-89299999D01*
X129690533Y-89299999D02*
X130404819Y-89109523D01*
X130404819Y-89109523D02*
X129404819Y-88871428D01*
X129404819Y-88585713D02*
X129404819Y-87966666D01*
X129404819Y-87966666D02*
X129785771Y-88299999D01*
X129785771Y-88299999D02*
X129785771Y-88157142D01*
X129785771Y-88157142D02*
X129833390Y-88061904D01*
X129833390Y-88061904D02*
X129881009Y-88014285D01*
X129881009Y-88014285D02*
X129976247Y-87966666D01*
X129976247Y-87966666D02*
X130214342Y-87966666D01*
X130214342Y-87966666D02*
X130309580Y-88014285D01*
X130309580Y-88014285D02*
X130357200Y-88061904D01*
X130357200Y-88061904D02*
X130404819Y-88157142D01*
X130404819Y-88157142D02*
X130404819Y-88442856D01*
X130404819Y-88442856D02*
X130357200Y-88538094D01*
X130357200Y-88538094D02*
X130309580Y-88585713D01*
X139994819Y-118466666D02*
X139518628Y-118799999D01*
X139994819Y-119038094D02*
X138994819Y-119038094D01*
X138994819Y-119038094D02*
X138994819Y-118657142D01*
X138994819Y-118657142D02*
X139042438Y-118561904D01*
X139042438Y-118561904D02*
X139090057Y-118514285D01*
X139090057Y-118514285D02*
X139185295Y-118466666D01*
X139185295Y-118466666D02*
X139328152Y-118466666D01*
X139328152Y-118466666D02*
X139423390Y-118514285D01*
X139423390Y-118514285D02*
X139471009Y-118561904D01*
X139471009Y-118561904D02*
X139518628Y-118657142D01*
X139518628Y-118657142D02*
X139518628Y-119038094D01*
X139994819Y-117990475D02*
X139994819Y-117799999D01*
X139994819Y-117799999D02*
X139947200Y-117704761D01*
X139947200Y-117704761D02*
X139899580Y-117657142D01*
X139899580Y-117657142D02*
X139756723Y-117561904D01*
X139756723Y-117561904D02*
X139566247Y-117514285D01*
X139566247Y-117514285D02*
X139185295Y-117514285D01*
X139185295Y-117514285D02*
X139090057Y-117561904D01*
X139090057Y-117561904D02*
X139042438Y-117609523D01*
X139042438Y-117609523D02*
X138994819Y-117704761D01*
X138994819Y-117704761D02*
X138994819Y-117895237D01*
X138994819Y-117895237D02*
X139042438Y-117990475D01*
X139042438Y-117990475D02*
X139090057Y-118038094D01*
X139090057Y-118038094D02*
X139185295Y-118085713D01*
X139185295Y-118085713D02*
X139423390Y-118085713D01*
X139423390Y-118085713D02*
X139518628Y-118038094D01*
X139518628Y-118038094D02*
X139566247Y-117990475D01*
X139566247Y-117990475D02*
X139613866Y-117895237D01*
X139613866Y-117895237D02*
X139613866Y-117704761D01*
X139613866Y-117704761D02*
X139566247Y-117609523D01*
X139566247Y-117609523D02*
X139518628Y-117561904D01*
X139518628Y-117561904D02*
X139423390Y-117514285D01*
X135564819Y-88037857D02*
X135088628Y-88371190D01*
X135564819Y-88609285D02*
X134564819Y-88609285D01*
X134564819Y-88609285D02*
X134564819Y-88228333D01*
X134564819Y-88228333D02*
X134612438Y-88133095D01*
X134612438Y-88133095D02*
X134660057Y-88085476D01*
X134660057Y-88085476D02*
X134755295Y-88037857D01*
X134755295Y-88037857D02*
X134898152Y-88037857D01*
X134898152Y-88037857D02*
X134993390Y-88085476D01*
X134993390Y-88085476D02*
X135041009Y-88133095D01*
X135041009Y-88133095D02*
X135088628Y-88228333D01*
X135088628Y-88228333D02*
X135088628Y-88609285D01*
X134660057Y-87656904D02*
X134612438Y-87609285D01*
X134612438Y-87609285D02*
X134564819Y-87514047D01*
X134564819Y-87514047D02*
X134564819Y-87275952D01*
X134564819Y-87275952D02*
X134612438Y-87180714D01*
X134612438Y-87180714D02*
X134660057Y-87133095D01*
X134660057Y-87133095D02*
X134755295Y-87085476D01*
X134755295Y-87085476D02*
X134850533Y-87085476D01*
X134850533Y-87085476D02*
X134993390Y-87133095D01*
X134993390Y-87133095D02*
X135564819Y-87704523D01*
X135564819Y-87704523D02*
X135564819Y-87085476D01*
X134564819Y-86752142D02*
X134564819Y-86133095D01*
X134564819Y-86133095D02*
X134945771Y-86466428D01*
X134945771Y-86466428D02*
X134945771Y-86323571D01*
X134945771Y-86323571D02*
X134993390Y-86228333D01*
X134993390Y-86228333D02*
X135041009Y-86180714D01*
X135041009Y-86180714D02*
X135136247Y-86133095D01*
X135136247Y-86133095D02*
X135374342Y-86133095D01*
X135374342Y-86133095D02*
X135469580Y-86180714D01*
X135469580Y-86180714D02*
X135517200Y-86228333D01*
X135517200Y-86228333D02*
X135564819Y-86323571D01*
X135564819Y-86323571D02*
X135564819Y-86609285D01*
X135564819Y-86609285D02*
X135517200Y-86704523D01*
X135517200Y-86704523D02*
X135469580Y-86752142D01*
X117266666Y-87504819D02*
X117266666Y-88219104D01*
X117266666Y-88219104D02*
X117219047Y-88361961D01*
X117219047Y-88361961D02*
X117123809Y-88457200D01*
X117123809Y-88457200D02*
X116980952Y-88504819D01*
X116980952Y-88504819D02*
X116885714Y-88504819D01*
X118171428Y-87838152D02*
X118171428Y-88504819D01*
X117933333Y-87457200D02*
X117695238Y-88171485D01*
X117695238Y-88171485D02*
X118314285Y-88171485D01*
X156823095Y-83729819D02*
X156823095Y-84539342D01*
X156823095Y-84539342D02*
X156870714Y-84634580D01*
X156870714Y-84634580D02*
X156918333Y-84682200D01*
X156918333Y-84682200D02*
X157013571Y-84729819D01*
X157013571Y-84729819D02*
X157204047Y-84729819D01*
X157204047Y-84729819D02*
X157299285Y-84682200D01*
X157299285Y-84682200D02*
X157346904Y-84634580D01*
X157346904Y-84634580D02*
X157394523Y-84539342D01*
X157394523Y-84539342D02*
X157394523Y-83729819D01*
X158394523Y-84729819D02*
X157823095Y-84729819D01*
X158108809Y-84729819D02*
X158108809Y-83729819D01*
X158108809Y-83729819D02*
X158013571Y-83872676D01*
X158013571Y-83872676D02*
X157918333Y-83967914D01*
X157918333Y-83967914D02*
X157823095Y-84015533D01*
X101093095Y-93387319D02*
X101093095Y-94196842D01*
X101093095Y-94196842D02*
X101140714Y-94292080D01*
X101140714Y-94292080D02*
X101188333Y-94339700D01*
X101188333Y-94339700D02*
X101283571Y-94387319D01*
X101283571Y-94387319D02*
X101474047Y-94387319D01*
X101474047Y-94387319D02*
X101569285Y-94339700D01*
X101569285Y-94339700D02*
X101616904Y-94292080D01*
X101616904Y-94292080D02*
X101664523Y-94196842D01*
X101664523Y-94196842D02*
X101664523Y-93387319D01*
X102045476Y-93387319D02*
X102664523Y-93387319D01*
X102664523Y-93387319D02*
X102331190Y-93768271D01*
X102331190Y-93768271D02*
X102474047Y-93768271D01*
X102474047Y-93768271D02*
X102569285Y-93815890D01*
X102569285Y-93815890D02*
X102616904Y-93863509D01*
X102616904Y-93863509D02*
X102664523Y-93958747D01*
X102664523Y-93958747D02*
X102664523Y-94196842D01*
X102664523Y-94196842D02*
X102616904Y-94292080D01*
X102616904Y-94292080D02*
X102569285Y-94339700D01*
X102569285Y-94339700D02*
X102474047Y-94387319D01*
X102474047Y-94387319D02*
X102188333Y-94387319D01*
X102188333Y-94387319D02*
X102093095Y-94339700D01*
X102093095Y-94339700D02*
X102045476Y-94292080D01*
X153844819Y-118466666D02*
X153368628Y-118799999D01*
X153844819Y-119038094D02*
X152844819Y-119038094D01*
X152844819Y-119038094D02*
X152844819Y-118657142D01*
X152844819Y-118657142D02*
X152892438Y-118561904D01*
X152892438Y-118561904D02*
X152940057Y-118514285D01*
X152940057Y-118514285D02*
X153035295Y-118466666D01*
X153035295Y-118466666D02*
X153178152Y-118466666D01*
X153178152Y-118466666D02*
X153273390Y-118514285D01*
X153273390Y-118514285D02*
X153321009Y-118561904D01*
X153321009Y-118561904D02*
X153368628Y-118657142D01*
X153368628Y-118657142D02*
X153368628Y-119038094D01*
X152940057Y-118085713D02*
X152892438Y-118038094D01*
X152892438Y-118038094D02*
X152844819Y-117942856D01*
X152844819Y-117942856D02*
X152844819Y-117704761D01*
X152844819Y-117704761D02*
X152892438Y-117609523D01*
X152892438Y-117609523D02*
X152940057Y-117561904D01*
X152940057Y-117561904D02*
X153035295Y-117514285D01*
X153035295Y-117514285D02*
X153130533Y-117514285D01*
X153130533Y-117514285D02*
X153273390Y-117561904D01*
X153273390Y-117561904D02*
X153844819Y-118133332D01*
X153844819Y-118133332D02*
X153844819Y-117514285D01*
X151144819Y-118466666D02*
X150668628Y-118799999D01*
X151144819Y-119038094D02*
X150144819Y-119038094D01*
X150144819Y-119038094D02*
X150144819Y-118657142D01*
X150144819Y-118657142D02*
X150192438Y-118561904D01*
X150192438Y-118561904D02*
X150240057Y-118514285D01*
X150240057Y-118514285D02*
X150335295Y-118466666D01*
X150335295Y-118466666D02*
X150478152Y-118466666D01*
X150478152Y-118466666D02*
X150573390Y-118514285D01*
X150573390Y-118514285D02*
X150621009Y-118561904D01*
X150621009Y-118561904D02*
X150668628Y-118657142D01*
X150668628Y-118657142D02*
X150668628Y-119038094D01*
X150144819Y-118133332D02*
X150144819Y-117514285D01*
X150144819Y-117514285D02*
X150525771Y-117847618D01*
X150525771Y-117847618D02*
X150525771Y-117704761D01*
X150525771Y-117704761D02*
X150573390Y-117609523D01*
X150573390Y-117609523D02*
X150621009Y-117561904D01*
X150621009Y-117561904D02*
X150716247Y-117514285D01*
X150716247Y-117514285D02*
X150954342Y-117514285D01*
X150954342Y-117514285D02*
X151049580Y-117561904D01*
X151049580Y-117561904D02*
X151097200Y-117609523D01*
X151097200Y-117609523D02*
X151144819Y-117704761D01*
X151144819Y-117704761D02*
X151144819Y-117990475D01*
X151144819Y-117990475D02*
X151097200Y-118085713D01*
X151097200Y-118085713D02*
X151049580Y-118133332D01*
X166937142Y-86369580D02*
X166889523Y-86417200D01*
X166889523Y-86417200D02*
X166746666Y-86464819D01*
X166746666Y-86464819D02*
X166651428Y-86464819D01*
X166651428Y-86464819D02*
X166508571Y-86417200D01*
X166508571Y-86417200D02*
X166413333Y-86321961D01*
X166413333Y-86321961D02*
X166365714Y-86226723D01*
X166365714Y-86226723D02*
X166318095Y-86036247D01*
X166318095Y-86036247D02*
X166318095Y-85893390D01*
X166318095Y-85893390D02*
X166365714Y-85702914D01*
X166365714Y-85702914D02*
X166413333Y-85607676D01*
X166413333Y-85607676D02*
X166508571Y-85512438D01*
X166508571Y-85512438D02*
X166651428Y-85464819D01*
X166651428Y-85464819D02*
X166746666Y-85464819D01*
X166746666Y-85464819D02*
X166889523Y-85512438D01*
X166889523Y-85512438D02*
X166937142Y-85560057D01*
X167889523Y-86464819D02*
X167318095Y-86464819D01*
X167603809Y-86464819D02*
X167603809Y-85464819D01*
X167603809Y-85464819D02*
X167508571Y-85607676D01*
X167508571Y-85607676D02*
X167413333Y-85702914D01*
X167413333Y-85702914D02*
X167318095Y-85750533D01*
X168794285Y-85464819D02*
X168318095Y-85464819D01*
X168318095Y-85464819D02*
X168270476Y-85941009D01*
X168270476Y-85941009D02*
X168318095Y-85893390D01*
X168318095Y-85893390D02*
X168413333Y-85845771D01*
X168413333Y-85845771D02*
X168651428Y-85845771D01*
X168651428Y-85845771D02*
X168746666Y-85893390D01*
X168746666Y-85893390D02*
X168794285Y-85941009D01*
X168794285Y-85941009D02*
X168841904Y-86036247D01*
X168841904Y-86036247D02*
X168841904Y-86274342D01*
X168841904Y-86274342D02*
X168794285Y-86369580D01*
X168794285Y-86369580D02*
X168746666Y-86417200D01*
X168746666Y-86417200D02*
X168651428Y-86464819D01*
X168651428Y-86464819D02*
X168413333Y-86464819D01*
X168413333Y-86464819D02*
X168318095Y-86417200D01*
X168318095Y-86417200D02*
X168270476Y-86369580D01*
X122562142Y-91284819D02*
X122228809Y-90808628D01*
X121990714Y-91284819D02*
X121990714Y-90284819D01*
X121990714Y-90284819D02*
X122371666Y-90284819D01*
X122371666Y-90284819D02*
X122466904Y-90332438D01*
X122466904Y-90332438D02*
X122514523Y-90380057D01*
X122514523Y-90380057D02*
X122562142Y-90475295D01*
X122562142Y-90475295D02*
X122562142Y-90618152D01*
X122562142Y-90618152D02*
X122514523Y-90713390D01*
X122514523Y-90713390D02*
X122466904Y-90761009D01*
X122466904Y-90761009D02*
X122371666Y-90808628D01*
X122371666Y-90808628D02*
X121990714Y-90808628D01*
X122943095Y-90380057D02*
X122990714Y-90332438D01*
X122990714Y-90332438D02*
X123085952Y-90284819D01*
X123085952Y-90284819D02*
X123324047Y-90284819D01*
X123324047Y-90284819D02*
X123419285Y-90332438D01*
X123419285Y-90332438D02*
X123466904Y-90380057D01*
X123466904Y-90380057D02*
X123514523Y-90475295D01*
X123514523Y-90475295D02*
X123514523Y-90570533D01*
X123514523Y-90570533D02*
X123466904Y-90713390D01*
X123466904Y-90713390D02*
X122895476Y-91284819D01*
X122895476Y-91284819D02*
X123514523Y-91284819D01*
X124133571Y-90284819D02*
X124228809Y-90284819D01*
X124228809Y-90284819D02*
X124324047Y-90332438D01*
X124324047Y-90332438D02*
X124371666Y-90380057D01*
X124371666Y-90380057D02*
X124419285Y-90475295D01*
X124419285Y-90475295D02*
X124466904Y-90665771D01*
X124466904Y-90665771D02*
X124466904Y-90903866D01*
X124466904Y-90903866D02*
X124419285Y-91094342D01*
X124419285Y-91094342D02*
X124371666Y-91189580D01*
X124371666Y-91189580D02*
X124324047Y-91237200D01*
X124324047Y-91237200D02*
X124228809Y-91284819D01*
X124228809Y-91284819D02*
X124133571Y-91284819D01*
X124133571Y-91284819D02*
X124038333Y-91237200D01*
X124038333Y-91237200D02*
X123990714Y-91189580D01*
X123990714Y-91189580D02*
X123943095Y-91094342D01*
X123943095Y-91094342D02*
X123895476Y-90903866D01*
X123895476Y-90903866D02*
X123895476Y-90665771D01*
X123895476Y-90665771D02*
X123943095Y-90475295D01*
X123943095Y-90475295D02*
X123990714Y-90380057D01*
X123990714Y-90380057D02*
X124038333Y-90332438D01*
X124038333Y-90332438D02*
X124133571Y-90284819D01*
X144588095Y-106792319D02*
X144588095Y-107601842D01*
X144588095Y-107601842D02*
X144635714Y-107697080D01*
X144635714Y-107697080D02*
X144683333Y-107744700D01*
X144683333Y-107744700D02*
X144778571Y-107792319D01*
X144778571Y-107792319D02*
X144969047Y-107792319D01*
X144969047Y-107792319D02*
X145064285Y-107744700D01*
X145064285Y-107744700D02*
X145111904Y-107697080D01*
X145111904Y-107697080D02*
X145159523Y-107601842D01*
X145159523Y-107601842D02*
X145159523Y-106792319D01*
X146064285Y-107125652D02*
X146064285Y-107792319D01*
X145826190Y-106744700D02*
X145588095Y-107458985D01*
X145588095Y-107458985D02*
X146207142Y-107458985D01*
X109077142Y-89734819D02*
X108743809Y-89258628D01*
X108505714Y-89734819D02*
X108505714Y-88734819D01*
X108505714Y-88734819D02*
X108886666Y-88734819D01*
X108886666Y-88734819D02*
X108981904Y-88782438D01*
X108981904Y-88782438D02*
X109029523Y-88830057D01*
X109029523Y-88830057D02*
X109077142Y-88925295D01*
X109077142Y-88925295D02*
X109077142Y-89068152D01*
X109077142Y-89068152D02*
X109029523Y-89163390D01*
X109029523Y-89163390D02*
X108981904Y-89211009D01*
X108981904Y-89211009D02*
X108886666Y-89258628D01*
X108886666Y-89258628D02*
X108505714Y-89258628D01*
X110029523Y-89734819D02*
X109458095Y-89734819D01*
X109743809Y-89734819D02*
X109743809Y-88734819D01*
X109743809Y-88734819D02*
X109648571Y-88877676D01*
X109648571Y-88877676D02*
X109553333Y-88972914D01*
X109553333Y-88972914D02*
X109458095Y-89020533D01*
X110600952Y-89163390D02*
X110505714Y-89115771D01*
X110505714Y-89115771D02*
X110458095Y-89068152D01*
X110458095Y-89068152D02*
X110410476Y-88972914D01*
X110410476Y-88972914D02*
X110410476Y-88925295D01*
X110410476Y-88925295D02*
X110458095Y-88830057D01*
X110458095Y-88830057D02*
X110505714Y-88782438D01*
X110505714Y-88782438D02*
X110600952Y-88734819D01*
X110600952Y-88734819D02*
X110791428Y-88734819D01*
X110791428Y-88734819D02*
X110886666Y-88782438D01*
X110886666Y-88782438D02*
X110934285Y-88830057D01*
X110934285Y-88830057D02*
X110981904Y-88925295D01*
X110981904Y-88925295D02*
X110981904Y-88972914D01*
X110981904Y-88972914D02*
X110934285Y-89068152D01*
X110934285Y-89068152D02*
X110886666Y-89115771D01*
X110886666Y-89115771D02*
X110791428Y-89163390D01*
X110791428Y-89163390D02*
X110600952Y-89163390D01*
X110600952Y-89163390D02*
X110505714Y-89211009D01*
X110505714Y-89211009D02*
X110458095Y-89258628D01*
X110458095Y-89258628D02*
X110410476Y-89353866D01*
X110410476Y-89353866D02*
X110410476Y-89544342D01*
X110410476Y-89544342D02*
X110458095Y-89639580D01*
X110458095Y-89639580D02*
X110505714Y-89687200D01*
X110505714Y-89687200D02*
X110600952Y-89734819D01*
X110600952Y-89734819D02*
X110791428Y-89734819D01*
X110791428Y-89734819D02*
X110886666Y-89687200D01*
X110886666Y-89687200D02*
X110934285Y-89639580D01*
X110934285Y-89639580D02*
X110981904Y-89544342D01*
X110981904Y-89544342D02*
X110981904Y-89353866D01*
X110981904Y-89353866D02*
X110934285Y-89258628D01*
X110934285Y-89258628D02*
X110886666Y-89211009D01*
X110886666Y-89211009D02*
X110791428Y-89163390D01*
X138676666Y-118909819D02*
X138676666Y-119624104D01*
X138676666Y-119624104D02*
X138629047Y-119766961D01*
X138629047Y-119766961D02*
X138533809Y-119862200D01*
X138533809Y-119862200D02*
X138390952Y-119909819D01*
X138390952Y-119909819D02*
X138295714Y-119909819D01*
X139105238Y-119005057D02*
X139152857Y-118957438D01*
X139152857Y-118957438D02*
X139248095Y-118909819D01*
X139248095Y-118909819D02*
X139486190Y-118909819D01*
X139486190Y-118909819D02*
X139581428Y-118957438D01*
X139581428Y-118957438D02*
X139629047Y-119005057D01*
X139629047Y-119005057D02*
X139676666Y-119100295D01*
X139676666Y-119100295D02*
X139676666Y-119195533D01*
X139676666Y-119195533D02*
X139629047Y-119338390D01*
X139629047Y-119338390D02*
X139057619Y-119909819D01*
X139057619Y-119909819D02*
X139676666Y-119909819D01*
X162923333Y-98209819D02*
X162590000Y-97733628D01*
X162351905Y-98209819D02*
X162351905Y-97209819D01*
X162351905Y-97209819D02*
X162732857Y-97209819D01*
X162732857Y-97209819D02*
X162828095Y-97257438D01*
X162828095Y-97257438D02*
X162875714Y-97305057D01*
X162875714Y-97305057D02*
X162923333Y-97400295D01*
X162923333Y-97400295D02*
X162923333Y-97543152D01*
X162923333Y-97543152D02*
X162875714Y-97638390D01*
X162875714Y-97638390D02*
X162828095Y-97686009D01*
X162828095Y-97686009D02*
X162732857Y-97733628D01*
X162732857Y-97733628D02*
X162351905Y-97733628D01*
X163780476Y-97543152D02*
X163780476Y-98209819D01*
X163542381Y-97162200D02*
X163304286Y-97876485D01*
X163304286Y-97876485D02*
X163923333Y-97876485D01*
X133949580Y-88847857D02*
X133997200Y-88895476D01*
X133997200Y-88895476D02*
X134044819Y-89038333D01*
X134044819Y-89038333D02*
X134044819Y-89133571D01*
X134044819Y-89133571D02*
X133997200Y-89276428D01*
X133997200Y-89276428D02*
X133901961Y-89371666D01*
X133901961Y-89371666D02*
X133806723Y-89419285D01*
X133806723Y-89419285D02*
X133616247Y-89466904D01*
X133616247Y-89466904D02*
X133473390Y-89466904D01*
X133473390Y-89466904D02*
X133282914Y-89419285D01*
X133282914Y-89419285D02*
X133187676Y-89371666D01*
X133187676Y-89371666D02*
X133092438Y-89276428D01*
X133092438Y-89276428D02*
X133044819Y-89133571D01*
X133044819Y-89133571D02*
X133044819Y-89038333D01*
X133044819Y-89038333D02*
X133092438Y-88895476D01*
X133092438Y-88895476D02*
X133140057Y-88847857D01*
X133140057Y-88466904D02*
X133092438Y-88419285D01*
X133092438Y-88419285D02*
X133044819Y-88324047D01*
X133044819Y-88324047D02*
X133044819Y-88085952D01*
X133044819Y-88085952D02*
X133092438Y-87990714D01*
X133092438Y-87990714D02*
X133140057Y-87943095D01*
X133140057Y-87943095D02*
X133235295Y-87895476D01*
X133235295Y-87895476D02*
X133330533Y-87895476D01*
X133330533Y-87895476D02*
X133473390Y-87943095D01*
X133473390Y-87943095D02*
X134044819Y-88514523D01*
X134044819Y-88514523D02*
X134044819Y-87895476D01*
X133044819Y-87276428D02*
X133044819Y-87181190D01*
X133044819Y-87181190D02*
X133092438Y-87085952D01*
X133092438Y-87085952D02*
X133140057Y-87038333D01*
X133140057Y-87038333D02*
X133235295Y-86990714D01*
X133235295Y-86990714D02*
X133425771Y-86943095D01*
X133425771Y-86943095D02*
X133663866Y-86943095D01*
X133663866Y-86943095D02*
X133854342Y-86990714D01*
X133854342Y-86990714D02*
X133949580Y-87038333D01*
X133949580Y-87038333D02*
X133997200Y-87085952D01*
X133997200Y-87085952D02*
X134044819Y-87181190D01*
X134044819Y-87181190D02*
X134044819Y-87276428D01*
X134044819Y-87276428D02*
X133997200Y-87371666D01*
X133997200Y-87371666D02*
X133949580Y-87419285D01*
X133949580Y-87419285D02*
X133854342Y-87466904D01*
X133854342Y-87466904D02*
X133663866Y-87514523D01*
X133663866Y-87514523D02*
X133425771Y-87514523D01*
X133425771Y-87514523D02*
X133235295Y-87466904D01*
X133235295Y-87466904D02*
X133140057Y-87419285D01*
X133140057Y-87419285D02*
X133092438Y-87371666D01*
X133092438Y-87371666D02*
X133044819Y-87276428D01*
X127057142Y-91729580D02*
X127009523Y-91777200D01*
X127009523Y-91777200D02*
X126866666Y-91824819D01*
X126866666Y-91824819D02*
X126771428Y-91824819D01*
X126771428Y-91824819D02*
X126628571Y-91777200D01*
X126628571Y-91777200D02*
X126533333Y-91681961D01*
X126533333Y-91681961D02*
X126485714Y-91586723D01*
X126485714Y-91586723D02*
X126438095Y-91396247D01*
X126438095Y-91396247D02*
X126438095Y-91253390D01*
X126438095Y-91253390D02*
X126485714Y-91062914D01*
X126485714Y-91062914D02*
X126533333Y-90967676D01*
X126533333Y-90967676D02*
X126628571Y-90872438D01*
X126628571Y-90872438D02*
X126771428Y-90824819D01*
X126771428Y-90824819D02*
X126866666Y-90824819D01*
X126866666Y-90824819D02*
X127009523Y-90872438D01*
X127009523Y-90872438D02*
X127057142Y-90920057D01*
X128009523Y-91824819D02*
X127438095Y-91824819D01*
X127723809Y-91824819D02*
X127723809Y-90824819D01*
X127723809Y-90824819D02*
X127628571Y-90967676D01*
X127628571Y-90967676D02*
X127533333Y-91062914D01*
X127533333Y-91062914D02*
X127438095Y-91110533D01*
X128342857Y-90824819D02*
X129009523Y-90824819D01*
X129009523Y-90824819D02*
X128580952Y-91824819D01*
X111854761Y-85210057D02*
X111759523Y-85162438D01*
X111759523Y-85162438D02*
X111664285Y-85067200D01*
X111664285Y-85067200D02*
X111521428Y-84924342D01*
X111521428Y-84924342D02*
X111426190Y-84876723D01*
X111426190Y-84876723D02*
X111330952Y-84876723D01*
X111378571Y-85114819D02*
X111283333Y-85067200D01*
X111283333Y-85067200D02*
X111188095Y-84971961D01*
X111188095Y-84971961D02*
X111140476Y-84781485D01*
X111140476Y-84781485D02*
X111140476Y-84448152D01*
X111140476Y-84448152D02*
X111188095Y-84257676D01*
X111188095Y-84257676D02*
X111283333Y-84162438D01*
X111283333Y-84162438D02*
X111378571Y-84114819D01*
X111378571Y-84114819D02*
X111569047Y-84114819D01*
X111569047Y-84114819D02*
X111664285Y-84162438D01*
X111664285Y-84162438D02*
X111759523Y-84257676D01*
X111759523Y-84257676D02*
X111807142Y-84448152D01*
X111807142Y-84448152D02*
X111807142Y-84781485D01*
X111807142Y-84781485D02*
X111759523Y-84971961D01*
X111759523Y-84971961D02*
X111664285Y-85067200D01*
X111664285Y-85067200D02*
X111569047Y-85114819D01*
X111569047Y-85114819D02*
X111378571Y-85114819D01*
X112140476Y-84114819D02*
X112759523Y-84114819D01*
X112759523Y-84114819D02*
X112426190Y-84495771D01*
X112426190Y-84495771D02*
X112569047Y-84495771D01*
X112569047Y-84495771D02*
X112664285Y-84543390D01*
X112664285Y-84543390D02*
X112711904Y-84591009D01*
X112711904Y-84591009D02*
X112759523Y-84686247D01*
X112759523Y-84686247D02*
X112759523Y-84924342D01*
X112759523Y-84924342D02*
X112711904Y-85019580D01*
X112711904Y-85019580D02*
X112664285Y-85067200D01*
X112664285Y-85067200D02*
X112569047Y-85114819D01*
X112569047Y-85114819D02*
X112283333Y-85114819D01*
X112283333Y-85114819D02*
X112188095Y-85067200D01*
X112188095Y-85067200D02*
X112140476Y-85019580D01*
X160320476Y-89734819D02*
X160987142Y-90734819D01*
X160987142Y-89734819D02*
X160320476Y-90734819D01*
X161891904Y-90734819D02*
X161320476Y-90734819D01*
X161606190Y-90734819D02*
X161606190Y-89734819D01*
X161606190Y-89734819D02*
X161510952Y-89877676D01*
X161510952Y-89877676D02*
X161415714Y-89972914D01*
X161415714Y-89972914D02*
X161320476Y-90020533D01*
X142964819Y-118842857D02*
X142488628Y-119176190D01*
X142964819Y-119414285D02*
X141964819Y-119414285D01*
X141964819Y-119414285D02*
X141964819Y-119033333D01*
X141964819Y-119033333D02*
X142012438Y-118938095D01*
X142012438Y-118938095D02*
X142060057Y-118890476D01*
X142060057Y-118890476D02*
X142155295Y-118842857D01*
X142155295Y-118842857D02*
X142298152Y-118842857D01*
X142298152Y-118842857D02*
X142393390Y-118890476D01*
X142393390Y-118890476D02*
X142441009Y-118938095D01*
X142441009Y-118938095D02*
X142488628Y-119033333D01*
X142488628Y-119033333D02*
X142488628Y-119414285D01*
X142964819Y-117890476D02*
X142964819Y-118461904D01*
X142964819Y-118176190D02*
X141964819Y-118176190D01*
X141964819Y-118176190D02*
X142107676Y-118271428D01*
X142107676Y-118271428D02*
X142202914Y-118366666D01*
X142202914Y-118366666D02*
X142250533Y-118461904D01*
X141964819Y-117271428D02*
X141964819Y-117176190D01*
X141964819Y-117176190D02*
X142012438Y-117080952D01*
X142012438Y-117080952D02*
X142060057Y-117033333D01*
X142060057Y-117033333D02*
X142155295Y-116985714D01*
X142155295Y-116985714D02*
X142345771Y-116938095D01*
X142345771Y-116938095D02*
X142583866Y-116938095D01*
X142583866Y-116938095D02*
X142774342Y-116985714D01*
X142774342Y-116985714D02*
X142869580Y-117033333D01*
X142869580Y-117033333D02*
X142917200Y-117080952D01*
X142917200Y-117080952D02*
X142964819Y-117176190D01*
X142964819Y-117176190D02*
X142964819Y-117271428D01*
X142964819Y-117271428D02*
X142917200Y-117366666D01*
X142917200Y-117366666D02*
X142869580Y-117414285D01*
X142869580Y-117414285D02*
X142774342Y-117461904D01*
X142774342Y-117461904D02*
X142583866Y-117509523D01*
X142583866Y-117509523D02*
X142345771Y-117509523D01*
X142345771Y-117509523D02*
X142155295Y-117461904D01*
X142155295Y-117461904D02*
X142060057Y-117414285D01*
X142060057Y-117414285D02*
X142012438Y-117366666D01*
X142012438Y-117366666D02*
X141964819Y-117271428D01*
X144498333Y-116659819D02*
X144165000Y-116183628D01*
X143926905Y-116659819D02*
X143926905Y-115659819D01*
X143926905Y-115659819D02*
X144307857Y-115659819D01*
X144307857Y-115659819D02*
X144403095Y-115707438D01*
X144403095Y-115707438D02*
X144450714Y-115755057D01*
X144450714Y-115755057D02*
X144498333Y-115850295D01*
X144498333Y-115850295D02*
X144498333Y-115993152D01*
X144498333Y-115993152D02*
X144450714Y-116088390D01*
X144450714Y-116088390D02*
X144403095Y-116136009D01*
X144403095Y-116136009D02*
X144307857Y-116183628D01*
X144307857Y-116183628D02*
X143926905Y-116183628D01*
X145355476Y-115659819D02*
X145165000Y-115659819D01*
X145165000Y-115659819D02*
X145069762Y-115707438D01*
X145069762Y-115707438D02*
X145022143Y-115755057D01*
X145022143Y-115755057D02*
X144926905Y-115897914D01*
X144926905Y-115897914D02*
X144879286Y-116088390D01*
X144879286Y-116088390D02*
X144879286Y-116469342D01*
X144879286Y-116469342D02*
X144926905Y-116564580D01*
X144926905Y-116564580D02*
X144974524Y-116612200D01*
X144974524Y-116612200D02*
X145069762Y-116659819D01*
X145069762Y-116659819D02*
X145260238Y-116659819D01*
X145260238Y-116659819D02*
X145355476Y-116612200D01*
X145355476Y-116612200D02*
X145403095Y-116564580D01*
X145403095Y-116564580D02*
X145450714Y-116469342D01*
X145450714Y-116469342D02*
X145450714Y-116231247D01*
X145450714Y-116231247D02*
X145403095Y-116136009D01*
X145403095Y-116136009D02*
X145355476Y-116088390D01*
X145355476Y-116088390D02*
X145260238Y-116040771D01*
X145260238Y-116040771D02*
X145069762Y-116040771D01*
X145069762Y-116040771D02*
X144974524Y-116088390D01*
X144974524Y-116088390D02*
X144926905Y-116136009D01*
X144926905Y-116136009D02*
X144879286Y-116231247D01*
X144057142Y-107684819D02*
X143723809Y-107208628D01*
X143485714Y-107684819D02*
X143485714Y-106684819D01*
X143485714Y-106684819D02*
X143866666Y-106684819D01*
X143866666Y-106684819D02*
X143961904Y-106732438D01*
X143961904Y-106732438D02*
X144009523Y-106780057D01*
X144009523Y-106780057D02*
X144057142Y-106875295D01*
X144057142Y-106875295D02*
X144057142Y-107018152D01*
X144057142Y-107018152D02*
X144009523Y-107113390D01*
X144009523Y-107113390D02*
X143961904Y-107161009D01*
X143961904Y-107161009D02*
X143866666Y-107208628D01*
X143866666Y-107208628D02*
X143485714Y-107208628D01*
X145009523Y-107684819D02*
X144438095Y-107684819D01*
X144723809Y-107684819D02*
X144723809Y-106684819D01*
X144723809Y-106684819D02*
X144628571Y-106827676D01*
X144628571Y-106827676D02*
X144533333Y-106922914D01*
X144533333Y-106922914D02*
X144438095Y-106970533D01*
X145342857Y-106684819D02*
X145961904Y-106684819D01*
X145961904Y-106684819D02*
X145628571Y-107065771D01*
X145628571Y-107065771D02*
X145771428Y-107065771D01*
X145771428Y-107065771D02*
X145866666Y-107113390D01*
X145866666Y-107113390D02*
X145914285Y-107161009D01*
X145914285Y-107161009D02*
X145961904Y-107256247D01*
X145961904Y-107256247D02*
X145961904Y-107494342D01*
X145961904Y-107494342D02*
X145914285Y-107589580D01*
X145914285Y-107589580D02*
X145866666Y-107637200D01*
X145866666Y-107637200D02*
X145771428Y-107684819D01*
X145771428Y-107684819D02*
X145485714Y-107684819D01*
X145485714Y-107684819D02*
X145390476Y-107637200D01*
X145390476Y-107637200D02*
X145342857Y-107589580D01*
X165759580Y-89766666D02*
X165807200Y-89814285D01*
X165807200Y-89814285D02*
X165854819Y-89957142D01*
X165854819Y-89957142D02*
X165854819Y-90052380D01*
X165854819Y-90052380D02*
X165807200Y-90195237D01*
X165807200Y-90195237D02*
X165711961Y-90290475D01*
X165711961Y-90290475D02*
X165616723Y-90338094D01*
X165616723Y-90338094D02*
X165426247Y-90385713D01*
X165426247Y-90385713D02*
X165283390Y-90385713D01*
X165283390Y-90385713D02*
X165092914Y-90338094D01*
X165092914Y-90338094D02*
X164997676Y-90290475D01*
X164997676Y-90290475D02*
X164902438Y-90195237D01*
X164902438Y-90195237D02*
X164854819Y-90052380D01*
X164854819Y-90052380D02*
X164854819Y-89957142D01*
X164854819Y-89957142D02*
X164902438Y-89814285D01*
X164902438Y-89814285D02*
X164950057Y-89766666D01*
X165188152Y-88909523D02*
X165854819Y-88909523D01*
X164807200Y-89147618D02*
X165521485Y-89385713D01*
X165521485Y-89385713D02*
X165521485Y-88766666D01*
X163514819Y-87901666D02*
X163514819Y-88377856D01*
X163514819Y-88377856D02*
X162514819Y-88377856D01*
X163514819Y-87044523D02*
X163514819Y-87615951D01*
X163514819Y-87330237D02*
X162514819Y-87330237D01*
X162514819Y-87330237D02*
X162657676Y-87425475D01*
X162657676Y-87425475D02*
X162752914Y-87520713D01*
X162752914Y-87520713D02*
X162800533Y-87615951D01*
X109007142Y-93654819D02*
X108673809Y-93178628D01*
X108435714Y-93654819D02*
X108435714Y-92654819D01*
X108435714Y-92654819D02*
X108816666Y-92654819D01*
X108816666Y-92654819D02*
X108911904Y-92702438D01*
X108911904Y-92702438D02*
X108959523Y-92750057D01*
X108959523Y-92750057D02*
X109007142Y-92845295D01*
X109007142Y-92845295D02*
X109007142Y-92988152D01*
X109007142Y-92988152D02*
X108959523Y-93083390D01*
X108959523Y-93083390D02*
X108911904Y-93131009D01*
X108911904Y-93131009D02*
X108816666Y-93178628D01*
X108816666Y-93178628D02*
X108435714Y-93178628D01*
X109959523Y-93654819D02*
X109388095Y-93654819D01*
X109673809Y-93654819D02*
X109673809Y-92654819D01*
X109673809Y-92654819D02*
X109578571Y-92797676D01*
X109578571Y-92797676D02*
X109483333Y-92892914D01*
X109483333Y-92892914D02*
X109388095Y-92940533D01*
X110292857Y-92654819D02*
X110959523Y-92654819D01*
X110959523Y-92654819D02*
X110530952Y-93654819D01*
X141142261Y-107850057D02*
X141047023Y-107802438D01*
X141047023Y-107802438D02*
X140951785Y-107707200D01*
X140951785Y-107707200D02*
X140808928Y-107564342D01*
X140808928Y-107564342D02*
X140713690Y-107516723D01*
X140713690Y-107516723D02*
X140618452Y-107516723D01*
X140666071Y-107754819D02*
X140570833Y-107707200D01*
X140570833Y-107707200D02*
X140475595Y-107611961D01*
X140475595Y-107611961D02*
X140427976Y-107421485D01*
X140427976Y-107421485D02*
X140427976Y-107088152D01*
X140427976Y-107088152D02*
X140475595Y-106897676D01*
X140475595Y-106897676D02*
X140570833Y-106802438D01*
X140570833Y-106802438D02*
X140666071Y-106754819D01*
X140666071Y-106754819D02*
X140856547Y-106754819D01*
X140856547Y-106754819D02*
X140951785Y-106802438D01*
X140951785Y-106802438D02*
X141047023Y-106897676D01*
X141047023Y-106897676D02*
X141094642Y-107088152D01*
X141094642Y-107088152D02*
X141094642Y-107421485D01*
X141094642Y-107421485D02*
X141047023Y-107611961D01*
X141047023Y-107611961D02*
X140951785Y-107707200D01*
X140951785Y-107707200D02*
X140856547Y-107754819D01*
X140856547Y-107754819D02*
X140666071Y-107754819D01*
X142047023Y-107754819D02*
X141475595Y-107754819D01*
X141761309Y-107754819D02*
X141761309Y-106754819D01*
X141761309Y-106754819D02*
X141666071Y-106897676D01*
X141666071Y-106897676D02*
X141570833Y-106992914D01*
X141570833Y-106992914D02*
X141475595Y-107040533D01*
X178446666Y-81374819D02*
X178446666Y-82089104D01*
X178446666Y-82089104D02*
X178399047Y-82231961D01*
X178399047Y-82231961D02*
X178303809Y-82327200D01*
X178303809Y-82327200D02*
X178160952Y-82374819D01*
X178160952Y-82374819D02*
X178065714Y-82374819D01*
X178827619Y-81374819D02*
X179446666Y-81374819D01*
X179446666Y-81374819D02*
X179113333Y-81755771D01*
X179113333Y-81755771D02*
X179256190Y-81755771D01*
X179256190Y-81755771D02*
X179351428Y-81803390D01*
X179351428Y-81803390D02*
X179399047Y-81851009D01*
X179399047Y-81851009D02*
X179446666Y-81946247D01*
X179446666Y-81946247D02*
X179446666Y-82184342D01*
X179446666Y-82184342D02*
X179399047Y-82279580D01*
X179399047Y-82279580D02*
X179351428Y-82327200D01*
X179351428Y-82327200D02*
X179256190Y-82374819D01*
X179256190Y-82374819D02*
X178970476Y-82374819D01*
X178970476Y-82374819D02*
X178875238Y-82327200D01*
X178875238Y-82327200D02*
X178827619Y-82279580D01*
X165523333Y-88794819D02*
X165047143Y-88794819D01*
X165047143Y-88794819D02*
X165047143Y-87794819D01*
X165761429Y-87794819D02*
X166380476Y-87794819D01*
X166380476Y-87794819D02*
X166047143Y-88175771D01*
X166047143Y-88175771D02*
X166190000Y-88175771D01*
X166190000Y-88175771D02*
X166285238Y-88223390D01*
X166285238Y-88223390D02*
X166332857Y-88271009D01*
X166332857Y-88271009D02*
X166380476Y-88366247D01*
X166380476Y-88366247D02*
X166380476Y-88604342D01*
X166380476Y-88604342D02*
X166332857Y-88699580D01*
X166332857Y-88699580D02*
X166285238Y-88747200D01*
X166285238Y-88747200D02*
X166190000Y-88794819D01*
X166190000Y-88794819D02*
X165904286Y-88794819D01*
X165904286Y-88794819D02*
X165809048Y-88747200D01*
X165809048Y-88747200D02*
X165761429Y-88699580D01*
X166739580Y-89756666D02*
X166787200Y-89804285D01*
X166787200Y-89804285D02*
X166834819Y-89947142D01*
X166834819Y-89947142D02*
X166834819Y-90042380D01*
X166834819Y-90042380D02*
X166787200Y-90185237D01*
X166787200Y-90185237D02*
X166691961Y-90280475D01*
X166691961Y-90280475D02*
X166596723Y-90328094D01*
X166596723Y-90328094D02*
X166406247Y-90375713D01*
X166406247Y-90375713D02*
X166263390Y-90375713D01*
X166263390Y-90375713D02*
X166072914Y-90328094D01*
X166072914Y-90328094D02*
X165977676Y-90280475D01*
X165977676Y-90280475D02*
X165882438Y-90185237D01*
X165882438Y-90185237D02*
X165834819Y-90042380D01*
X165834819Y-90042380D02*
X165834819Y-89947142D01*
X165834819Y-89947142D02*
X165882438Y-89804285D01*
X165882438Y-89804285D02*
X165930057Y-89756666D01*
X165834819Y-88851904D02*
X165834819Y-89328094D01*
X165834819Y-89328094D02*
X166311009Y-89375713D01*
X166311009Y-89375713D02*
X166263390Y-89328094D01*
X166263390Y-89328094D02*
X166215771Y-89232856D01*
X166215771Y-89232856D02*
X166215771Y-88994761D01*
X166215771Y-88994761D02*
X166263390Y-88899523D01*
X166263390Y-88899523D02*
X166311009Y-88851904D01*
X166311009Y-88851904D02*
X166406247Y-88804285D01*
X166406247Y-88804285D02*
X166644342Y-88804285D01*
X166644342Y-88804285D02*
X166739580Y-88851904D01*
X166739580Y-88851904D02*
X166787200Y-88899523D01*
X166787200Y-88899523D02*
X166834819Y-88994761D01*
X166834819Y-88994761D02*
X166834819Y-89232856D01*
X166834819Y-89232856D02*
X166787200Y-89328094D01*
X166787200Y-89328094D02*
X166739580Y-89375713D01*
X161629580Y-97176666D02*
X161677200Y-97224285D01*
X161677200Y-97224285D02*
X161724819Y-97367142D01*
X161724819Y-97367142D02*
X161724819Y-97462380D01*
X161724819Y-97462380D02*
X161677200Y-97605237D01*
X161677200Y-97605237D02*
X161581961Y-97700475D01*
X161581961Y-97700475D02*
X161486723Y-97748094D01*
X161486723Y-97748094D02*
X161296247Y-97795713D01*
X161296247Y-97795713D02*
X161153390Y-97795713D01*
X161153390Y-97795713D02*
X160962914Y-97748094D01*
X160962914Y-97748094D02*
X160867676Y-97700475D01*
X160867676Y-97700475D02*
X160772438Y-97605237D01*
X160772438Y-97605237D02*
X160724819Y-97462380D01*
X160724819Y-97462380D02*
X160724819Y-97367142D01*
X160724819Y-97367142D02*
X160772438Y-97224285D01*
X160772438Y-97224285D02*
X160820057Y-97176666D01*
X161724819Y-96700475D02*
X161724819Y-96509999D01*
X161724819Y-96509999D02*
X161677200Y-96414761D01*
X161677200Y-96414761D02*
X161629580Y-96367142D01*
X161629580Y-96367142D02*
X161486723Y-96271904D01*
X161486723Y-96271904D02*
X161296247Y-96224285D01*
X161296247Y-96224285D02*
X160915295Y-96224285D01*
X160915295Y-96224285D02*
X160820057Y-96271904D01*
X160820057Y-96271904D02*
X160772438Y-96319523D01*
X160772438Y-96319523D02*
X160724819Y-96414761D01*
X160724819Y-96414761D02*
X160724819Y-96605237D01*
X160724819Y-96605237D02*
X160772438Y-96700475D01*
X160772438Y-96700475D02*
X160820057Y-96748094D01*
X160820057Y-96748094D02*
X160915295Y-96795713D01*
X160915295Y-96795713D02*
X161153390Y-96795713D01*
X161153390Y-96795713D02*
X161248628Y-96748094D01*
X161248628Y-96748094D02*
X161296247Y-96700475D01*
X161296247Y-96700475D02*
X161343866Y-96605237D01*
X161343866Y-96605237D02*
X161343866Y-96414761D01*
X161343866Y-96414761D02*
X161296247Y-96319523D01*
X161296247Y-96319523D02*
X161248628Y-96271904D01*
X161248628Y-96271904D02*
X161153390Y-96224285D01*
X114364405Y-90944819D02*
X114364405Y-89944819D01*
X114364405Y-89944819D02*
X114602500Y-89944819D01*
X114602500Y-89944819D02*
X114745357Y-89992438D01*
X114745357Y-89992438D02*
X114840595Y-90087676D01*
X114840595Y-90087676D02*
X114888214Y-90182914D01*
X114888214Y-90182914D02*
X114935833Y-90373390D01*
X114935833Y-90373390D02*
X114935833Y-90516247D01*
X114935833Y-90516247D02*
X114888214Y-90706723D01*
X114888214Y-90706723D02*
X114840595Y-90801961D01*
X114840595Y-90801961D02*
X114745357Y-90897200D01*
X114745357Y-90897200D02*
X114602500Y-90944819D01*
X114602500Y-90944819D02*
X114364405Y-90944819D01*
X115792976Y-89944819D02*
X115602500Y-89944819D01*
X115602500Y-89944819D02*
X115507262Y-89992438D01*
X115507262Y-89992438D02*
X115459643Y-90040057D01*
X115459643Y-90040057D02*
X115364405Y-90182914D01*
X115364405Y-90182914D02*
X115316786Y-90373390D01*
X115316786Y-90373390D02*
X115316786Y-90754342D01*
X115316786Y-90754342D02*
X115364405Y-90849580D01*
X115364405Y-90849580D02*
X115412024Y-90897200D01*
X115412024Y-90897200D02*
X115507262Y-90944819D01*
X115507262Y-90944819D02*
X115697738Y-90944819D01*
X115697738Y-90944819D02*
X115792976Y-90897200D01*
X115792976Y-90897200D02*
X115840595Y-90849580D01*
X115840595Y-90849580D02*
X115888214Y-90754342D01*
X115888214Y-90754342D02*
X115888214Y-90516247D01*
X115888214Y-90516247D02*
X115840595Y-90421009D01*
X115840595Y-90421009D02*
X115792976Y-90373390D01*
X115792976Y-90373390D02*
X115697738Y-90325771D01*
X115697738Y-90325771D02*
X115507262Y-90325771D01*
X115507262Y-90325771D02*
X115412024Y-90373390D01*
X115412024Y-90373390D02*
X115364405Y-90421009D01*
X115364405Y-90421009D02*
X115316786Y-90516247D01*
X165523333Y-87464819D02*
X165047143Y-87464819D01*
X165047143Y-87464819D02*
X165047143Y-86464819D01*
X165809048Y-86560057D02*
X165856667Y-86512438D01*
X165856667Y-86512438D02*
X165951905Y-86464819D01*
X165951905Y-86464819D02*
X166190000Y-86464819D01*
X166190000Y-86464819D02*
X166285238Y-86512438D01*
X166285238Y-86512438D02*
X166332857Y-86560057D01*
X166332857Y-86560057D02*
X166380476Y-86655295D01*
X166380476Y-86655295D02*
X166380476Y-86750533D01*
X166380476Y-86750533D02*
X166332857Y-86893390D01*
X166332857Y-86893390D02*
X165761429Y-87464819D01*
X165761429Y-87464819D02*
X166380476Y-87464819D01*
X130784819Y-85067857D02*
X130308628Y-85401190D01*
X130784819Y-85639285D02*
X129784819Y-85639285D01*
X129784819Y-85639285D02*
X129784819Y-85258333D01*
X129784819Y-85258333D02*
X129832438Y-85163095D01*
X129832438Y-85163095D02*
X129880057Y-85115476D01*
X129880057Y-85115476D02*
X129975295Y-85067857D01*
X129975295Y-85067857D02*
X130118152Y-85067857D01*
X130118152Y-85067857D02*
X130213390Y-85115476D01*
X130213390Y-85115476D02*
X130261009Y-85163095D01*
X130261009Y-85163095D02*
X130308628Y-85258333D01*
X130308628Y-85258333D02*
X130308628Y-85639285D01*
X129880057Y-84686904D02*
X129832438Y-84639285D01*
X129832438Y-84639285D02*
X129784819Y-84544047D01*
X129784819Y-84544047D02*
X129784819Y-84305952D01*
X129784819Y-84305952D02*
X129832438Y-84210714D01*
X129832438Y-84210714D02*
X129880057Y-84163095D01*
X129880057Y-84163095D02*
X129975295Y-84115476D01*
X129975295Y-84115476D02*
X130070533Y-84115476D01*
X130070533Y-84115476D02*
X130213390Y-84163095D01*
X130213390Y-84163095D02*
X130784819Y-84734523D01*
X130784819Y-84734523D02*
X130784819Y-84115476D01*
X130118152Y-83258333D02*
X130784819Y-83258333D01*
X129737200Y-83496428D02*
X130451485Y-83734523D01*
X130451485Y-83734523D02*
X130451485Y-83115476D01*
X148017261Y-103100057D02*
X147922023Y-103052438D01*
X147922023Y-103052438D02*
X147826785Y-102957200D01*
X147826785Y-102957200D02*
X147683928Y-102814342D01*
X147683928Y-102814342D02*
X147588690Y-102766723D01*
X147588690Y-102766723D02*
X147493452Y-102766723D01*
X147541071Y-103004819D02*
X147445833Y-102957200D01*
X147445833Y-102957200D02*
X147350595Y-102861961D01*
X147350595Y-102861961D02*
X147302976Y-102671485D01*
X147302976Y-102671485D02*
X147302976Y-102338152D01*
X147302976Y-102338152D02*
X147350595Y-102147676D01*
X147350595Y-102147676D02*
X147445833Y-102052438D01*
X147445833Y-102052438D02*
X147541071Y-102004819D01*
X147541071Y-102004819D02*
X147731547Y-102004819D01*
X147731547Y-102004819D02*
X147826785Y-102052438D01*
X147826785Y-102052438D02*
X147922023Y-102147676D01*
X147922023Y-102147676D02*
X147969642Y-102338152D01*
X147969642Y-102338152D02*
X147969642Y-102671485D01*
X147969642Y-102671485D02*
X147922023Y-102861961D01*
X147922023Y-102861961D02*
X147826785Y-102957200D01*
X147826785Y-102957200D02*
X147731547Y-103004819D01*
X147731547Y-103004819D02*
X147541071Y-103004819D01*
X148350595Y-102100057D02*
X148398214Y-102052438D01*
X148398214Y-102052438D02*
X148493452Y-102004819D01*
X148493452Y-102004819D02*
X148731547Y-102004819D01*
X148731547Y-102004819D02*
X148826785Y-102052438D01*
X148826785Y-102052438D02*
X148874404Y-102100057D01*
X148874404Y-102100057D02*
X148922023Y-102195295D01*
X148922023Y-102195295D02*
X148922023Y-102290533D01*
X148922023Y-102290533D02*
X148874404Y-102433390D01*
X148874404Y-102433390D02*
X148302976Y-103004819D01*
X148302976Y-103004819D02*
X148922023Y-103004819D01*
X158999580Y-83676666D02*
X159047200Y-83724285D01*
X159047200Y-83724285D02*
X159094819Y-83867142D01*
X159094819Y-83867142D02*
X159094819Y-83962380D01*
X159094819Y-83962380D02*
X159047200Y-84105237D01*
X159047200Y-84105237D02*
X158951961Y-84200475D01*
X158951961Y-84200475D02*
X158856723Y-84248094D01*
X158856723Y-84248094D02*
X158666247Y-84295713D01*
X158666247Y-84295713D02*
X158523390Y-84295713D01*
X158523390Y-84295713D02*
X158332914Y-84248094D01*
X158332914Y-84248094D02*
X158237676Y-84200475D01*
X158237676Y-84200475D02*
X158142438Y-84105237D01*
X158142438Y-84105237D02*
X158094819Y-83962380D01*
X158094819Y-83962380D02*
X158094819Y-83867142D01*
X158094819Y-83867142D02*
X158142438Y-83724285D01*
X158142438Y-83724285D02*
X158190057Y-83676666D01*
X159094819Y-82724285D02*
X159094819Y-83295713D01*
X159094819Y-83009999D02*
X158094819Y-83009999D01*
X158094819Y-83009999D02*
X158237676Y-83105237D01*
X158237676Y-83105237D02*
X158332914Y-83200475D01*
X158332914Y-83200475D02*
X158380533Y-83295713D01*
X182198095Y-93501100D02*
X182198095Y-94310623D01*
X182198095Y-94310623D02*
X182245714Y-94405861D01*
X182245714Y-94405861D02*
X182293333Y-94453481D01*
X182293333Y-94453481D02*
X182388571Y-94501100D01*
X182388571Y-94501100D02*
X182579047Y-94501100D01*
X182579047Y-94501100D02*
X182674285Y-94453481D01*
X182674285Y-94453481D02*
X182721904Y-94405861D01*
X182721904Y-94405861D02*
X182769523Y-94310623D01*
X182769523Y-94310623D02*
X182769523Y-93501100D01*
X183198095Y-93596338D02*
X183245714Y-93548719D01*
X183245714Y-93548719D02*
X183340952Y-93501100D01*
X183340952Y-93501100D02*
X183579047Y-93501100D01*
X183579047Y-93501100D02*
X183674285Y-93548719D01*
X183674285Y-93548719D02*
X183721904Y-93596338D01*
X183721904Y-93596338D02*
X183769523Y-93691576D01*
X183769523Y-93691576D02*
X183769523Y-93786814D01*
X183769523Y-93786814D02*
X183721904Y-93929671D01*
X183721904Y-93929671D02*
X183150476Y-94501100D01*
X183150476Y-94501100D02*
X183769523Y-94501100D01*
X139092142Y-113469580D02*
X139044523Y-113517200D01*
X139044523Y-113517200D02*
X138901666Y-113564819D01*
X138901666Y-113564819D02*
X138806428Y-113564819D01*
X138806428Y-113564819D02*
X138663571Y-113517200D01*
X138663571Y-113517200D02*
X138568333Y-113421961D01*
X138568333Y-113421961D02*
X138520714Y-113326723D01*
X138520714Y-113326723D02*
X138473095Y-113136247D01*
X138473095Y-113136247D02*
X138473095Y-112993390D01*
X138473095Y-112993390D02*
X138520714Y-112802914D01*
X138520714Y-112802914D02*
X138568333Y-112707676D01*
X138568333Y-112707676D02*
X138663571Y-112612438D01*
X138663571Y-112612438D02*
X138806428Y-112564819D01*
X138806428Y-112564819D02*
X138901666Y-112564819D01*
X138901666Y-112564819D02*
X139044523Y-112612438D01*
X139044523Y-112612438D02*
X139092142Y-112660057D01*
X140044523Y-113564819D02*
X139473095Y-113564819D01*
X139758809Y-113564819D02*
X139758809Y-112564819D01*
X139758809Y-112564819D02*
X139663571Y-112707676D01*
X139663571Y-112707676D02*
X139568333Y-112802914D01*
X139568333Y-112802914D02*
X139473095Y-112850533D01*
X140425476Y-112660057D02*
X140473095Y-112612438D01*
X140473095Y-112612438D02*
X140568333Y-112564819D01*
X140568333Y-112564819D02*
X140806428Y-112564819D01*
X140806428Y-112564819D02*
X140901666Y-112612438D01*
X140901666Y-112612438D02*
X140949285Y-112660057D01*
X140949285Y-112660057D02*
X140996904Y-112755295D01*
X140996904Y-112755295D02*
X140996904Y-112850533D01*
X140996904Y-112850533D02*
X140949285Y-112993390D01*
X140949285Y-112993390D02*
X140377857Y-113564819D01*
X140377857Y-113564819D02*
X140996904Y-113564819D01*
X148216666Y-130769819D02*
X148216666Y-131484104D01*
X148216666Y-131484104D02*
X148169047Y-131626961D01*
X148169047Y-131626961D02*
X148073809Y-131722200D01*
X148073809Y-131722200D02*
X147930952Y-131769819D01*
X147930952Y-131769819D02*
X147835714Y-131769819D01*
X149216666Y-131769819D02*
X148645238Y-131769819D01*
X148930952Y-131769819D02*
X148930952Y-130769819D01*
X148930952Y-130769819D02*
X148835714Y-130912676D01*
X148835714Y-130912676D02*
X148740476Y-131007914D01*
X148740476Y-131007914D02*
X148645238Y-131055533D01*
X137132142Y-106784819D02*
X136798809Y-106308628D01*
X136560714Y-106784819D02*
X136560714Y-105784819D01*
X136560714Y-105784819D02*
X136941666Y-105784819D01*
X136941666Y-105784819D02*
X137036904Y-105832438D01*
X137036904Y-105832438D02*
X137084523Y-105880057D01*
X137084523Y-105880057D02*
X137132142Y-105975295D01*
X137132142Y-105975295D02*
X137132142Y-106118152D01*
X137132142Y-106118152D02*
X137084523Y-106213390D01*
X137084523Y-106213390D02*
X137036904Y-106261009D01*
X137036904Y-106261009D02*
X136941666Y-106308628D01*
X136941666Y-106308628D02*
X136560714Y-106308628D01*
X138084523Y-106784819D02*
X137513095Y-106784819D01*
X137798809Y-106784819D02*
X137798809Y-105784819D01*
X137798809Y-105784819D02*
X137703571Y-105927676D01*
X137703571Y-105927676D02*
X137608333Y-106022914D01*
X137608333Y-106022914D02*
X137513095Y-106070533D01*
X138465476Y-105880057D02*
X138513095Y-105832438D01*
X138513095Y-105832438D02*
X138608333Y-105784819D01*
X138608333Y-105784819D02*
X138846428Y-105784819D01*
X138846428Y-105784819D02*
X138941666Y-105832438D01*
X138941666Y-105832438D02*
X138989285Y-105880057D01*
X138989285Y-105880057D02*
X139036904Y-105975295D01*
X139036904Y-105975295D02*
X139036904Y-106070533D01*
X139036904Y-106070533D02*
X138989285Y-106213390D01*
X138989285Y-106213390D02*
X138417857Y-106784819D01*
X138417857Y-106784819D02*
X139036904Y-106784819D01*
X161934819Y-83596666D02*
X161458628Y-83929999D01*
X161934819Y-84168094D02*
X160934819Y-84168094D01*
X160934819Y-84168094D02*
X160934819Y-83787142D01*
X160934819Y-83787142D02*
X160982438Y-83691904D01*
X160982438Y-83691904D02*
X161030057Y-83644285D01*
X161030057Y-83644285D02*
X161125295Y-83596666D01*
X161125295Y-83596666D02*
X161268152Y-83596666D01*
X161268152Y-83596666D02*
X161363390Y-83644285D01*
X161363390Y-83644285D02*
X161411009Y-83691904D01*
X161411009Y-83691904D02*
X161458628Y-83787142D01*
X161458628Y-83787142D02*
X161458628Y-84168094D01*
X161934819Y-82644285D02*
X161934819Y-83215713D01*
X161934819Y-82929999D02*
X160934819Y-82929999D01*
X160934819Y-82929999D02*
X161077676Y-83025237D01*
X161077676Y-83025237D02*
X161172914Y-83120475D01*
X161172914Y-83120475D02*
X161220533Y-83215713D01*
%TO.C,R5*%
D11*
X144867500Y-117237258D02*
X144867500Y-116762742D01*
X145912500Y-117237258D02*
X145912500Y-116762742D01*
%TO.C,R7*%
X170877500Y-89777742D02*
X170877500Y-90252258D01*
X171922500Y-89777742D02*
X171922500Y-90252258D01*
%TO.C,C10*%
X140088748Y-114290000D02*
X141511252Y-114290000D01*
X140088748Y-116110000D02*
X141511252Y-116110000D01*
%TO.C,D9*%
X125115000Y-82865000D02*
X125115000Y-84335000D01*
X125115000Y-84335000D02*
X127400000Y-84335000D01*
X127400000Y-82865000D02*
X125115000Y-82865000D01*
%TO.C,C18*%
X131670000Y-84485580D02*
X131670000Y-84204420D01*
X132690000Y-84485580D02*
X132690000Y-84204420D01*
%TO.C,U6*%
X115905000Y-89045000D02*
X120025000Y-89045000D01*
X115905000Y-89140000D02*
X115905000Y-89045000D01*
X115905000Y-94165000D02*
X115905000Y-94070000D01*
X120025000Y-89045000D02*
X120025000Y-89140000D01*
X120025000Y-94070000D02*
X120025000Y-94165000D01*
X120025000Y-94165000D02*
X115905000Y-94165000D01*
X120565000Y-94075000D02*
X120805000Y-94405000D01*
X120325000Y-94405000D01*
X120565000Y-94075000D01*
G36*
X120805000Y-94405000D02*
G01*
X120325000Y-94405000D01*
X120565000Y-94075000D01*
X120805000Y-94405000D01*
G37*
%TO.C,C2*%
X161072164Y-82630000D02*
X161287836Y-82630000D01*
X161072164Y-83350000D02*
X161287836Y-83350000D01*
%TO.C,C16*%
X167670000Y-85847836D02*
X167670000Y-85632164D01*
X168390000Y-85847836D02*
X168390000Y-85632164D01*
%TO.C,R21*%
X108857258Y-87387500D02*
X108382742Y-87387500D01*
X108857258Y-88432500D02*
X108382742Y-88432500D01*
%TO.C,U5*%
D12*
X170145000Y-84890000D02*
X170145000Y-85185000D01*
X170145000Y-84890000D02*
X170440000Y-84890000D01*
X170145000Y-87890000D02*
X170145000Y-87595000D01*
X170145000Y-87890000D02*
X170440000Y-87890000D01*
X173145000Y-84890000D02*
X172850000Y-84890000D01*
X173145000Y-84890000D02*
X173145000Y-85185000D01*
X173145000Y-87890000D02*
X172850000Y-87890000D01*
X173145000Y-87890000D02*
X173145000Y-87595000D01*
D13*
X169290000Y-85640000D02*
G75*
G02*
X169090000Y-85640000I-100000J0D01*
G01*
X169090000Y-85640000D02*
G75*
G02*
X169290000Y-85640000I100000J0D01*
G01*
%TO.C,C3*%
D11*
X161112164Y-83630000D02*
X161327836Y-83630000D01*
X161112164Y-84350000D02*
X161327836Y-84350000D01*
%TO.C,U7*%
X110477500Y-81100000D02*
X110527500Y-81100000D01*
X110477500Y-82920000D02*
X110477500Y-81100000D01*
X110527500Y-82920000D02*
X110477500Y-82920000D01*
X111647500Y-81100000D02*
X112427500Y-81100000D01*
X113547500Y-81100000D02*
X113597500Y-81100000D01*
X113597500Y-81100000D02*
X113597500Y-82920000D01*
X113597500Y-82920000D02*
X113547500Y-82920000D01*
X110527500Y-83460000D02*
X110197500Y-83700000D01*
X110197500Y-83220000D01*
X110527500Y-83460000D01*
G36*
X110527500Y-83460000D02*
G01*
X110197500Y-83700000D01*
X110197500Y-83220000D01*
X110527500Y-83460000D01*
G37*
%TO.C,D7*%
X110077500Y-84990000D02*
X106067500Y-84990000D01*
X110077500Y-86990000D02*
X106067500Y-86990000D01*
X110077500Y-86990000D02*
X110077500Y-84990000D01*
%TO.C,R19*%
X151837258Y-104377500D02*
X151362742Y-104377500D01*
X151837258Y-105422500D02*
X151362742Y-105422500D01*
%TO.C,R16*%
X144462742Y-103477500D02*
X144937258Y-103477500D01*
X144462742Y-104522500D02*
X144937258Y-104522500D01*
%TO.C,C11*%
X141484420Y-112790000D02*
X141765580Y-112790000D01*
X141484420Y-113810000D02*
X141765580Y-113810000D01*
%TO.C,D1*%
X152860000Y-115040000D02*
X152860000Y-119050000D01*
X154860000Y-115040000D02*
X152860000Y-115040000D01*
X154860000Y-115040000D02*
X154860000Y-119050000D01*
%TO.C,R8*%
X146367500Y-115737258D02*
X146367500Y-115262742D01*
X147412500Y-115737258D02*
X147412500Y-115262742D01*
%TO.C,C14*%
X121960000Y-88906252D02*
X121960000Y-87483748D01*
X123780000Y-88906252D02*
X123780000Y-87483748D01*
%TO.C,C19*%
X133230000Y-84261252D02*
X133230000Y-82838748D01*
X135050000Y-84261252D02*
X135050000Y-82838748D01*
%TO.C,R11*%
X149187742Y-109377500D02*
X149662258Y-109377500D01*
X149187742Y-110422500D02*
X149662258Y-110422500D01*
%TO.C,D5*%
X111852500Y-92725000D02*
X114137500Y-92725000D01*
X114137500Y-91255000D02*
X111852500Y-91255000D01*
X114137500Y-92725000D02*
X114137500Y-91255000D01*
%TO.C,U9*%
X135900000Y-75740000D02*
X135900000Y-81940000D01*
X135900000Y-75740000D02*
X154300000Y-75740000D01*
X135900000Y-100590000D02*
X135900000Y-101590000D01*
X135900000Y-101590000D02*
X137400000Y-101590000D01*
X154300000Y-75740000D02*
X154300000Y-81940000D01*
X154300000Y-101590000D02*
X152800000Y-101590000D01*
X154300000Y-101590000D02*
X154300000Y-100590000D01*
X135900000Y-82615000D02*
X135400000Y-82615000D01*
X135900000Y-82115000D01*
X135900000Y-82615000D01*
G36*
X135900000Y-82615000D02*
G01*
X135400000Y-82615000D01*
X135900000Y-82115000D01*
X135900000Y-82615000D01*
G37*
%TO.C,SW4*%
X130830000Y-91330000D02*
X131130000Y-91330000D01*
X130830000Y-95470000D02*
X130830000Y-91330000D01*
X131130000Y-95470000D02*
X130830000Y-95470000D01*
X133670000Y-91330000D02*
X133970000Y-91330000D01*
X133970000Y-91330000D02*
X133970000Y-95470000D01*
X133970000Y-95470000D02*
X133670000Y-95470000D01*
%TO.C,C8*%
X161760000Y-96912164D02*
X161760000Y-97127836D01*
X162480000Y-96912164D02*
X162480000Y-97127836D01*
%TO.C,D2*%
X135210000Y-115090000D02*
X135210000Y-119100000D01*
X137210000Y-115090000D02*
X135210000Y-115090000D01*
X137210000Y-115090000D02*
X137210000Y-119100000D01*
%TO.C,SW3*%
X126130000Y-87230000D02*
X126430000Y-87230000D01*
X126130000Y-91370000D02*
X126130000Y-87230000D01*
X126430000Y-91370000D02*
X126130000Y-91370000D01*
X128970000Y-87230000D02*
X129270000Y-87230000D01*
X129270000Y-87230000D02*
X129270000Y-91370000D01*
X129270000Y-91370000D02*
X128970000Y-91370000D01*
%TO.C,R9*%
X137587500Y-118062742D02*
X137587500Y-118537258D01*
X138632500Y-118062742D02*
X138632500Y-118537258D01*
%TO.C,R23*%
X133157500Y-87157742D02*
X133157500Y-87632258D01*
X134202500Y-87157742D02*
X134202500Y-87632258D01*
%TO.C,J4*%
X114540000Y-79140000D02*
X114540000Y-86960000D01*
X114540000Y-85360000D02*
X115460000Y-85360000D01*
X114540000Y-86960000D02*
X115460000Y-86960000D01*
X115460000Y-85360000D02*
X115740000Y-85360000D01*
X115460000Y-86960000D02*
X115460000Y-85360000D01*
X117100000Y-83500000D02*
X117100000Y-79140000D01*
X118100000Y-79140000D02*
X118100000Y-83500000D01*
X118100000Y-83500000D02*
X117100000Y-83500000D01*
X118900000Y-81400000D02*
X118900000Y-79140000D01*
X119400000Y-81400000D02*
X119400000Y-79140000D01*
X119460000Y-85360000D02*
X119460000Y-86575000D01*
X119460000Y-85360000D02*
X119740000Y-85360000D01*
X119740000Y-85360000D02*
X119740000Y-86960000D01*
X119740000Y-86960000D02*
X120660000Y-86960000D01*
X120660000Y-79140000D02*
X114540000Y-79140000D01*
X120660000Y-85360000D02*
X119740000Y-85360000D01*
X120660000Y-86960000D02*
X120660000Y-79140000D01*
X115300000Y-81400000D02*
X116300000Y-81400000D01*
X116300000Y-83000000D01*
X115300000Y-83000000D01*
X115300000Y-81400000D01*
X118900000Y-81400000D02*
X119900000Y-81400000D01*
X119900000Y-83000000D01*
X118900000Y-83000000D01*
X118900000Y-81400000D01*
%TO.C,U1*%
X159025000Y-85465000D02*
X159750000Y-85465000D01*
X159025000Y-86190000D02*
X159025000Y-85465000D01*
X159025000Y-89685000D02*
X159025000Y-88960000D01*
X159750000Y-89685000D02*
X159025000Y-89685000D01*
X162520000Y-85465000D02*
X163245000Y-85465000D01*
X163245000Y-85465000D02*
X163245000Y-86190000D01*
X163245000Y-88960000D02*
X163245000Y-89685000D01*
X163245000Y-89685000D02*
X162520000Y-89685000D01*
X158525000Y-86575000D02*
X158195000Y-86815000D01*
X158195000Y-86335000D01*
X158525000Y-86575000D01*
G36*
X158525000Y-86575000D02*
G01*
X158195000Y-86815000D01*
X158195000Y-86335000D01*
X158525000Y-86575000D01*
G37*
%TO.C,U3*%
D12*
X93380000Y-104267500D02*
X96530000Y-104267500D01*
X93380000Y-114067500D02*
X93380000Y-104267500D01*
X96530000Y-114067500D02*
X93380000Y-114067500D01*
X96530000Y-114337500D02*
X96530000Y-114067500D01*
X98410000Y-101167500D02*
X99030000Y-101167500D01*
X99030000Y-94867500D02*
X109930000Y-94867500D01*
X99030000Y-101167500D02*
X99030000Y-94867500D01*
X99630000Y-117067500D02*
X98410000Y-117067500D01*
X99630000Y-120267500D02*
X99630000Y-117067500D01*
X109330000Y-117067500D02*
X109330000Y-120267500D01*
X109930000Y-94867500D02*
X109930000Y-101167500D01*
X109930000Y-101167500D02*
X110560000Y-101167500D01*
X110560000Y-117067500D02*
X109330000Y-117067500D01*
X112430000Y-105067500D02*
X113980000Y-105067500D01*
X112430000Y-113167500D02*
X112430000Y-114287500D01*
X113980000Y-105067500D02*
X113980000Y-113167500D01*
X113980000Y-113167500D02*
X112430000Y-113167500D01*
D13*
X98530000Y-95817500D02*
G75*
G02*
X98330000Y-95817500I-100000J0D01*
G01*
X98330000Y-95817500D02*
G75*
G02*
X98530000Y-95817500I100000J0D01*
G01*
%TO.C,R2*%
D11*
X151437500Y-118062742D02*
X151437500Y-118537258D01*
X152482500Y-118062742D02*
X152482500Y-118537258D01*
%TO.C,R3*%
X148737500Y-118062742D02*
X148737500Y-118537258D01*
X149782500Y-118062742D02*
X149782500Y-118537258D01*
%TO.C,C15*%
X167472164Y-86810000D02*
X167687836Y-86810000D01*
X167472164Y-87530000D02*
X167687836Y-87530000D01*
%TO.C,R20*%
X122967742Y-91737500D02*
X123442258Y-91737500D01*
X122967742Y-92782500D02*
X123442258Y-92782500D01*
%TO.C,U4*%
X143240000Y-108527500D02*
X143715000Y-108527500D01*
X143240000Y-109002500D02*
X143240000Y-108527500D01*
X143240000Y-112747500D02*
X143240000Y-112272500D01*
X143715000Y-112747500D02*
X143240000Y-112747500D01*
X146985000Y-108527500D02*
X147460000Y-108527500D01*
X147460000Y-108527500D02*
X147460000Y-109002500D01*
X147460000Y-112272500D02*
X147460000Y-112747500D01*
X147460000Y-112747500D02*
X146985000Y-112747500D01*
X142740000Y-109387500D02*
X142410000Y-109627500D01*
X142410000Y-109147500D01*
X142740000Y-109387500D01*
G36*
X142740000Y-109387500D02*
G01*
X142410000Y-109627500D01*
X142410000Y-109147500D01*
X142740000Y-109387500D01*
G37*
%TO.C,R18*%
X109452742Y-89907500D02*
X109927258Y-89907500D01*
X109452742Y-90952500D02*
X109927258Y-90952500D01*
%TO.C,J2*%
X134310000Y-123200000D02*
X134310000Y-125200000D01*
X134310000Y-127100000D02*
X134310000Y-129000000D01*
X134310000Y-129000000D02*
X143710000Y-129000000D01*
X143710000Y-123200000D02*
X143710000Y-125200000D01*
X143710000Y-127100000D02*
X143710000Y-129000000D01*
%TO.C,R4*%
X161352258Y-94777500D02*
X160877742Y-94777500D01*
X161352258Y-95822500D02*
X160877742Y-95822500D01*
%TO.C,C20*%
X130830000Y-87493748D02*
X130830000Y-88916252D01*
X132650000Y-87493748D02*
X132650000Y-88916252D01*
%TO.C,C17*%
X127559420Y-92290000D02*
X127840580Y-92290000D01*
X127559420Y-93310000D02*
X127840580Y-93310000D01*
%TO.C,Q3*%
X111277500Y-85390000D02*
X112797500Y-85390000D01*
X111277500Y-85440000D02*
X111277500Y-85390000D01*
X111277500Y-87340000D02*
X111277500Y-86560000D01*
X111277500Y-88510000D02*
X111277500Y-88460000D01*
X112797500Y-85390000D02*
X112797500Y-86390000D01*
X112797500Y-87510000D02*
X112797500Y-88510000D01*
X112797500Y-88510000D02*
X111277500Y-88510000D01*
X110737500Y-86570000D02*
X110977500Y-86900000D01*
X110497500Y-86900000D01*
X110737500Y-86570000D01*
G36*
X110977500Y-86900000D02*
G01*
X110497500Y-86900000D01*
X110737500Y-86570000D01*
X110977500Y-86900000D01*
G37*
%TO.C,X1*%
X159070000Y-91020000D02*
X159070000Y-94440000D01*
X159070000Y-94440000D02*
X163190000Y-94440000D01*
%TO.C,R10*%
X140287500Y-118037742D02*
X140287500Y-118512258D01*
X141332500Y-118037742D02*
X141332500Y-118512258D01*
%TO.C,R6*%
X144902258Y-114252500D02*
X144427742Y-114252500D01*
X144902258Y-115297500D02*
X144427742Y-115297500D01*
%TO.C,R13*%
X144937258Y-105277500D02*
X144462742Y-105277500D01*
X144937258Y-106322500D02*
X144462742Y-106322500D01*
%TO.C,C4*%
X163880000Y-89492164D02*
X163880000Y-89707836D01*
X164600000Y-89492164D02*
X164600000Y-89707836D01*
%TO.C,R17*%
X109462742Y-91457500D02*
X109937258Y-91457500D01*
X109462742Y-92502500D02*
X109937258Y-92502500D01*
%TO.C,Q1*%
X140477500Y-103340000D02*
X141997500Y-103340000D01*
X140477500Y-104340000D02*
X140477500Y-103340000D01*
X140477500Y-106460000D02*
X140477500Y-105460000D01*
X141997500Y-103340000D02*
X141997500Y-103390000D01*
X141997500Y-104510000D02*
X141997500Y-105290000D01*
X141997500Y-106410000D02*
X141997500Y-106460000D01*
X141997500Y-106460000D02*
X140477500Y-106460000D01*
X142537500Y-105280000D02*
X142297500Y-104950000D01*
X142777500Y-104950000D01*
X142537500Y-105280000D01*
G36*
X142537500Y-105280000D02*
G01*
X142297500Y-104950000D01*
X142777500Y-104950000D01*
X142537500Y-105280000D01*
G37*
%TO.C,J3*%
X175425000Y-85220000D02*
X175425000Y-88120000D01*
X177330000Y-83315000D02*
X180230000Y-83315000D01*
X177330000Y-90025000D02*
X180230000Y-90025000D01*
X182135000Y-85220000D02*
X182135000Y-88120000D01*
%TO.C,C5*%
X164860000Y-89482164D02*
X164860000Y-89697836D01*
X165580000Y-89482164D02*
X165580000Y-89697836D01*
%TO.C,C9*%
X159750000Y-96902164D02*
X159750000Y-97117836D01*
X160470000Y-96902164D02*
X160470000Y-97117836D01*
%TO.C,D6*%
X111852500Y-91145000D02*
X114137500Y-91145000D01*
X114137500Y-89675000D02*
X111852500Y-89675000D01*
X114137500Y-91145000D02*
X114137500Y-89675000D01*
%TO.C,R24*%
X128377500Y-84187742D02*
X128377500Y-84662258D01*
X129422500Y-84187742D02*
X129422500Y-84662258D01*
%TO.C,Q2*%
X147352500Y-103390000D02*
X148872500Y-103390000D01*
X147352500Y-103440000D02*
X147352500Y-103390000D01*
X147352500Y-105340000D02*
X147352500Y-104560000D01*
X147352500Y-106510000D02*
X147352500Y-106460000D01*
X148872500Y-103390000D02*
X148872500Y-104390000D01*
X148872500Y-105510000D02*
X148872500Y-106510000D01*
X148872500Y-106510000D02*
X147352500Y-106510000D01*
X146812500Y-104570000D02*
X147052500Y-104900000D01*
X146572500Y-104900000D01*
X146812500Y-104570000D01*
G36*
X147052500Y-104900000D02*
G01*
X146572500Y-104900000D01*
X146812500Y-104570000D01*
X147052500Y-104900000D01*
G37*
%TO.C,C1*%
X159440000Y-83617836D02*
X159440000Y-83402164D01*
X160160000Y-83617836D02*
X160160000Y-83402164D01*
%TO.C,U2*%
D12*
X174485000Y-104381281D02*
X177635000Y-104381281D01*
X174485000Y-114181281D02*
X174485000Y-104381281D01*
X177635000Y-114181281D02*
X174485000Y-114181281D01*
X177635000Y-114451281D02*
X177635000Y-114181281D01*
X179515000Y-101281281D02*
X180135000Y-101281281D01*
X180135000Y-94981281D02*
X191035000Y-94981281D01*
X180135000Y-101281281D02*
X180135000Y-94981281D01*
X180735000Y-117181281D02*
X179515000Y-117181281D01*
X180735000Y-120381281D02*
X180735000Y-117181281D01*
X190435000Y-117181281D02*
X190435000Y-120381281D01*
X191035000Y-94981281D02*
X191035000Y-101281281D01*
X191035000Y-101281281D02*
X191665000Y-101281281D01*
X191665000Y-117181281D02*
X190435000Y-117181281D01*
X193535000Y-105181281D02*
X195085000Y-105181281D01*
X193535000Y-113281281D02*
X193535000Y-114401281D01*
X195085000Y-105181281D02*
X195085000Y-113281281D01*
X195085000Y-113281281D02*
X193535000Y-113281281D01*
D13*
X179635000Y-95931281D02*
G75*
G02*
X179435000Y-95931281I-100000J0D01*
G01*
X179435000Y-95931281D02*
G75*
G02*
X179635000Y-95931281I100000J0D01*
G01*
%TO.C,C12*%
D11*
X139875580Y-111170000D02*
X139594420Y-111170000D01*
X139875580Y-112190000D02*
X139594420Y-112190000D01*
%TO.C,J1*%
X145800000Y-123160000D02*
X145800000Y-125160000D01*
X145800000Y-127060000D02*
X145800000Y-128960000D01*
X145800000Y-128960000D02*
X155200000Y-128960000D01*
X155200000Y-123160000D02*
X155200000Y-125160000D01*
X155200000Y-127060000D02*
X155200000Y-128960000D01*
%TO.C,R12*%
X138012258Y-104377500D02*
X137537742Y-104377500D01*
X138012258Y-105422500D02*
X137537742Y-105422500D01*
%TO.C,R1*%
X162387500Y-83667258D02*
X162387500Y-83192742D01*
X163432500Y-83667258D02*
X163432500Y-83192742D01*
%TD*%
M02*
