%TF.GenerationSoftware,KiCad,Pcbnew,10.0.4*%
%TF.CreationDate,2026-07-23T14:40:07-04:00*%
%TF.ProjectId,swervecontrollerPCBv1,73776572-7665-4636-9f6e-74726f6c6c65,rev?*%
%TF.SameCoordinates,Original*%
%TF.FileFunction,Copper,L3,Inr*%
%TF.FilePolarity,Positive*%
%FSLAX46Y46*%
G04 Gerber Fmt 4.6, Leading zero omitted, Abs format (unit mm)*
G04 Created by KiCad (PCBNEW 10.0.4) date 2026-07-23 14:40:07*
%MOMM*%
%LPD*%
G01*
G04 APERTURE LIST*
G04 Aperture macros list*
%AMRoundRect*
0 Rectangle with rounded corners*
0 $1 Rounding radius*
0 $2 $3 $4 $5 $6 $7 $8 $9 X,Y pos of 4 corners*
0 Add a 4 corners polygon primitive as box body*
4,1,4,$2,$3,$4,$5,$6,$7,$8,$9,$2,$3,0*
0 Add four circle primitives for the rounded corners*
1,1,$1+$1,$2,$3*
1,1,$1+$1,$4,$5*
1,1,$1+$1,$6,$7*
1,1,$1+$1,$8,$9*
0 Add four rect primitives between the rounded corners*
20,1,$1+$1,$2,$3,$4,$5,0*
20,1,$1+$1,$4,$5,$6,$7,0*
20,1,$1+$1,$6,$7,$8,$9,0*
20,1,$1+$1,$8,$9,$2,$3,0*%
G04 Aperture macros list end*
%TA.AperFunction,HeatsinkPad*%
%ADD10C,0.500000*%
%TD*%
%TA.AperFunction,HeatsinkPad*%
%ADD11C,0.600000*%
%TD*%
%TA.AperFunction,ComponentPad*%
%ADD12RoundRect,0.250000X0.350000X0.625000X-0.350000X0.625000X-0.350000X-0.625000X0.350000X-0.625000X0*%
%TD*%
%TA.AperFunction,ComponentPad*%
%ADD13O,1.200000X1.750000*%
%TD*%
%TA.AperFunction,ComponentPad*%
%ADD14C,1.778000*%
%TD*%
%TA.AperFunction,ComponentPad*%
%ADD15C,2.286000*%
%TD*%
%TA.AperFunction,ComponentPad*%
%ADD16O,1.000000X2.100000*%
%TD*%
%TA.AperFunction,ComponentPad*%
%ADD17O,1.000000X1.600000*%
%TD*%
%TA.AperFunction,ComponentPad*%
%ADD18C,2.050000*%
%TD*%
%TA.AperFunction,ComponentPad*%
%ADD19C,2.250000*%
%TD*%
G04 APERTURE END LIST*
D10*
%TO.N,Net-(J4-Pin_1)*%
%TO.C,U6*%
X118400000Y-92400000D03*
X118400000Y-91200000D03*
X118400000Y-90000000D03*
X117000000Y-92400000D03*
X117000000Y-91200000D03*
X117000000Y-90000000D03*
%TD*%
D11*
%TO.N,GND*%
%TO.C,U9*%
X142200000Y-90400000D03*
X142200000Y-91800000D03*
X142900000Y-89700000D03*
X142900000Y-91100000D03*
X142900000Y-92500000D03*
X143600000Y-90400000D03*
X143600000Y-91800000D03*
X144300000Y-89700000D03*
X144300000Y-91100000D03*
X144300000Y-92500000D03*
X145000000Y-90400000D03*
X145000000Y-91800000D03*
%TD*%
D12*
%TO.N,Net-(J4-Pin_1)*%
%TO.C,J4*%
X118000000Y-85450000D03*
D13*
%TO.N,/BAT*%
X116000000Y-85450000D03*
%TD*%
D14*
%TO.N,GND*%
%TO.C,U3*%
X111705000Y-97967500D03*
X118055000Y-97967500D03*
%TO.N,/BS*%
X111705000Y-103047500D03*
X118055000Y-103047500D03*
%TO.N,VDD*%
X112340000Y-120827500D03*
%TO.N,/SX*%
X114880000Y-120827500D03*
%TO.N,GND*%
X117420000Y-120827500D03*
D15*
X107260000Y-104000000D03*
X107260000Y-117335000D03*
X122500000Y-117335000D03*
X122500000Y-104000000D03*
D14*
%TO.N,VDD*%
X104720000Y-108127500D03*
%TO.N,/SY*%
X104720000Y-110667500D03*
%TO.N,GND*%
X104720000Y-113207500D03*
%TD*%
D16*
%TO.N,GND*%
%TO.C,J2*%
X130680000Y-123870000D03*
D17*
X130680000Y-128050000D03*
D16*
X139320000Y-123870000D03*
D17*
X139320000Y-128050000D03*
%TD*%
D18*
%TO.N,Net-(J3-In)*%
%TO.C,J3*%
X179960000Y-89040000D03*
D19*
%TO.N,GND*%
X177420000Y-86500000D03*
X177420000Y-91580000D03*
X182500000Y-86500000D03*
X182500000Y-91580000D03*
%TD*%
D14*
%TO.N,GND*%
%TO.C,U2*%
X171325000Y-97800000D03*
X177675000Y-97800000D03*
%TO.N,/BD*%
X171325000Y-102880000D03*
X177675000Y-102880000D03*
%TO.N,VDD*%
X171960000Y-120660000D03*
%TO.N,/DX*%
X174500000Y-120660000D03*
%TO.N,GND*%
X177040000Y-120660000D03*
D15*
X166880000Y-103832500D03*
X166880000Y-117167500D03*
X182120000Y-117167500D03*
X182120000Y-103832500D03*
D14*
%TO.N,VDD*%
X164340000Y-107960000D03*
%TO.N,/DY*%
X164340000Y-110500000D03*
%TO.N,GND*%
X164340000Y-113040000D03*
%TD*%
D16*
%TO.N,GND*%
%TO.C,J1*%
X151180000Y-123870000D03*
D17*
X151180000Y-128050000D03*
D16*
X159820000Y-123870000D03*
D17*
X159820000Y-128050000D03*
%TD*%
M02*
