%TF.GenerationSoftware,KiCad,Pcbnew,10.0.4*%
%TF.CreationDate,2026-07-23T14:40:07-04:00*%
%TF.ProjectId,swervecontrollerPCBv1,73776572-7665-4636-9f6e-74726f6c6c65,rev?*%
%TF.SameCoordinates,Original*%
%TF.FileFunction,Soldermask,Top*%
%TF.FilePolarity,Negative*%
%FSLAX46Y46*%
G04 Gerber Fmt 4.6, Leading zero omitted, Abs format (unit mm)*
G04 Created by KiCad (PCBNEW 10.0.4) date 2026-07-23 14:40:07*
%MOMM*%
%LPD*%
G01*
G04 APERTURE LIST*
G04 Aperture macros list*
%AMRoundRect*
0 Rectangle with rounded corners*
0 $1 Rounding radius*
0 $2 $3 $4 $5 $6 $7 $8 $9 X,Y pos of 4 corners*
0 Add a 4 corners polygon primitive as box body*
4,1,4,$2,$3,$4,$5,$6,$7,$8,$9,$2,$3,0*
0 Add four circle primitives for the rounded corners*
1,1,$1+$1,$2,$3*
1,1,$1+$1,$4,$5*
1,1,$1+$1,$6,$7*
1,1,$1+$1,$8,$9*
0 Add four rect primitives between the rounded corners*
20,1,$1+$1,$2,$3,$4,$5,0*
20,1,$1+$1,$4,$5,$6,$7,0*
20,1,$1+$1,$6,$7,$8,$9,0*
20,1,$1+$1,$8,$9,$2,$3,0*%
G04 Aperture macros list end*
%ADD10RoundRect,0.200000X0.275000X-0.200000X0.275000X0.200000X-0.275000X0.200000X-0.275000X-0.200000X0*%
%ADD11RoundRect,0.200000X-0.275000X0.200000X-0.275000X-0.200000X0.275000X-0.200000X0.275000X0.200000X0*%
%ADD12RoundRect,0.250000X-0.325000X-0.650000X0.325000X-0.650000X0.325000X0.650000X-0.325000X0.650000X0*%
%ADD13RoundRect,0.225000X0.225000X0.250000X-0.225000X0.250000X-0.225000X-0.250000X0.225000X-0.250000X0*%
%ADD14RoundRect,0.150000X0.825000X0.150000X-0.825000X0.150000X-0.825000X-0.150000X0.825000X-0.150000X0*%
%ADD15R,2.410000X3.300000*%
%ADD16RoundRect,0.140000X0.140000X0.170000X-0.140000X0.170000X-0.140000X-0.170000X0.140000X-0.170000X0*%
%ADD17RoundRect,0.140000X-0.170000X0.140000X-0.170000X-0.140000X0.170000X-0.140000X0.170000X0.140000X0*%
%ADD18RoundRect,0.135750X-0.371250X-0.101250X0.371250X-0.101250X0.371250X0.101250X-0.371250X0.101250X0*%
%ADD19RoundRect,0.135750X-0.101250X-0.371250X0.101250X-0.371250X0.101250X0.371250X-0.101250X0.371250X0*%
%ADD20RoundRect,0.102000X-0.850000X-0.850000X0.850000X-0.850000X0.850000X0.850000X-0.850000X0.850000X0*%
%ADD21RoundRect,0.150000X0.512500X0.150000X-0.512500X0.150000X-0.512500X-0.150000X0.512500X-0.150000X0*%
%ADD22RoundRect,0.225000X0.225000X0.375000X-0.225000X0.375000X-0.225000X-0.375000X0.225000X-0.375000X0*%
%ADD23RoundRect,0.200000X0.200000X0.275000X-0.200000X0.275000X-0.200000X-0.275000X0.200000X-0.275000X0*%
%ADD24RoundRect,0.200000X-0.200000X-0.275000X0.200000X-0.275000X0.200000X0.275000X-0.200000X0.275000X0*%
%ADD25RoundRect,0.225000X-0.225000X-0.250000X0.225000X-0.250000X0.225000X0.250000X-0.225000X0.250000X0*%
%ADD26RoundRect,0.225000X-0.375000X0.225000X-0.375000X-0.225000X0.375000X-0.225000X0.375000X0.225000X0*%
%ADD27RoundRect,0.250000X-0.650000X0.325000X-0.650000X-0.325000X0.650000X-0.325000X0.650000X0.325000X0*%
%ADD28RoundRect,0.250000X0.325000X0.650000X-0.325000X0.650000X-0.325000X-0.650000X0.325000X-0.650000X0*%
%ADD29RoundRect,0.218750X0.218750X0.256250X-0.218750X0.256250X-0.218750X-0.256250X0.218750X-0.256250X0*%
%ADD30R,1.500000X0.900000*%
%ADD31R,0.900000X1.500000*%
%ADD32C,0.600000*%
%ADD33R,3.900000X3.900000*%
%ADD34RoundRect,0.218750X0.256250X-0.218750X0.256250X0.218750X-0.256250X0.218750X-0.256250X-0.218750X0*%
%ADD35RoundRect,0.250000X0.350000X0.625000X-0.350000X0.625000X-0.350000X-0.625000X0.350000X-0.625000X0*%
%ADD36O,1.200000X1.750000*%
%ADD37RoundRect,0.062500X-0.350000X-0.062500X0.350000X-0.062500X0.350000X0.062500X-0.350000X0.062500X0*%
%ADD38RoundRect,0.062500X-0.062500X-0.350000X0.062500X-0.350000X0.062500X0.350000X-0.062500X0.350000X0*%
%ADD39R,2.500000X2.500000*%
%ADD40C,1.982000*%
%ADD41C,2.490000*%
%ADD42RoundRect,0.140000X-0.140000X-0.170000X0.140000X-0.170000X0.140000X0.170000X-0.140000X0.170000X0*%
%ADD43R,2.600000X2.600000*%
%ADD44C,0.650000*%
%ADD45RoundRect,0.150000X-0.150000X-0.575000X0.150000X-0.575000X0.150000X0.575000X-0.150000X0.575000X0*%
%ADD46RoundRect,0.075000X-0.075000X-0.650000X0.075000X-0.650000X0.075000X0.650000X-0.075000X0.650000X0*%
%ADD47O,1.000000X2.100000*%
%ADD48O,1.000000X1.600000*%
%ADD49RoundRect,0.150000X-0.587500X-0.150000X0.587500X-0.150000X0.587500X0.150000X-0.587500X0.150000X0*%
%ADD50RoundRect,0.250000X-0.450000X-0.350000X0.450000X-0.350000X0.450000X0.350000X-0.450000X0.350000X0*%
%ADD51RoundRect,0.200000X-0.200000X-0.800000X0.200000X-0.800000X0.200000X0.800000X-0.200000X0.800000X0*%
%ADD52RoundRect,0.147500X-0.172500X0.147500X-0.172500X-0.147500X0.172500X-0.147500X0.172500X0.147500X0*%
%ADD53RoundRect,0.150000X0.587500X0.150000X-0.587500X0.150000X-0.587500X-0.150000X0.587500X-0.150000X0*%
%ADD54C,2.050000*%
%ADD55C,2.250000*%
%ADD56RoundRect,0.147500X0.147500X0.172500X-0.147500X0.172500X-0.147500X-0.172500X0.147500X-0.172500X0*%
%ADD57RoundRect,0.147500X-0.147500X-0.172500X0.147500X-0.172500X0.147500X0.172500X-0.147500X0.172500X0*%
%ADD58RoundRect,0.140000X0.170000X-0.140000X0.170000X0.140000X-0.170000X0.140000X-0.170000X-0.140000X0*%
G04 APERTURE END LIST*
D10*
%TO.C,R5*%
X145500000Y-113325000D03*
X145500000Y-111675000D03*
%TD*%
D11*
%TO.C,R7*%
X171000000Y-91000000D03*
X171000000Y-92650000D03*
%TD*%
D12*
%TO.C,C10*%
X140525000Y-113000000D03*
X143475000Y-113000000D03*
%TD*%
D13*
%TO.C,C18*%
X133275000Y-85500000D03*
X131725000Y-85500000D03*
%TD*%
D14*
%TO.C,U6*%
X120175000Y-93105000D03*
X120175000Y-91835000D03*
X120175000Y-90565000D03*
X120175000Y-89295000D03*
X115225000Y-89295000D03*
X115225000Y-90565000D03*
X115225000Y-91835000D03*
X115225000Y-93105000D03*
D15*
X117700000Y-91200000D03*
%TD*%
D16*
%TO.C,C2*%
X157500000Y-84000000D03*
X156540000Y-84000000D03*
%TD*%
D17*
%TO.C,C16*%
X168000000Y-89500000D03*
X168000000Y-90460000D03*
%TD*%
D11*
%TO.C,R21*%
X129500000Y-96000000D03*
X129500000Y-97650000D03*
%TD*%
D18*
%TO.C,U5*%
X169610000Y-87195000D03*
X169610000Y-87695000D03*
X169610000Y-88195000D03*
X169610000Y-88695000D03*
D19*
X170305000Y-89390000D03*
X170805000Y-89390000D03*
X171305000Y-89390000D03*
X171805000Y-89390000D03*
D18*
X172500000Y-88695000D03*
X172500000Y-88195000D03*
X172500000Y-87695000D03*
X172500000Y-87195000D03*
D19*
X171805000Y-86500000D03*
X171305000Y-86500000D03*
X170805000Y-86500000D03*
X170305000Y-86500000D03*
D20*
X171055000Y-87945000D03*
%TD*%
D16*
%TO.C,C3*%
X157500000Y-85000000D03*
X156540000Y-85000000D03*
%TD*%
D21*
%TO.C,U7*%
X129775000Y-91900000D03*
X129775000Y-90950000D03*
X129775000Y-90000000D03*
X127500000Y-90000000D03*
X127500000Y-91900000D03*
%TD*%
D22*
%TO.C,D7*%
X129650000Y-93825000D03*
X126350000Y-93825000D03*
%TD*%
D23*
%TO.C,R19*%
X154325000Y-117500000D03*
X152675000Y-117500000D03*
%TD*%
D24*
%TO.C,R16*%
X144675000Y-116500000D03*
X146325000Y-116500000D03*
%TD*%
D25*
%TO.C,C11*%
X141225000Y-111000000D03*
X142775000Y-111000000D03*
%TD*%
D26*
%TO.C,D1*%
X158500000Y-117500000D03*
X158500000Y-120800000D03*
%TD*%
D10*
%TO.C,R8*%
X148500000Y-113325000D03*
X148500000Y-111675000D03*
%TD*%
D27*
%TO.C,C14*%
X127500000Y-95825000D03*
X127500000Y-98775000D03*
%TD*%
D28*
%TO.C,C19*%
X134000000Y-83500000D03*
X131050000Y-83500000D03*
%TD*%
D24*
%TO.C,R11*%
X149350000Y-107000000D03*
X151000000Y-107000000D03*
%TD*%
D29*
%TO.C,D5*%
X113287500Y-92100000D03*
X111712500Y-92100000D03*
%TD*%
D30*
%TO.C,U9*%
X136350000Y-83380000D03*
X136350000Y-84650000D03*
X136350000Y-85920000D03*
X136350000Y-87190000D03*
X136350000Y-88460000D03*
X136350000Y-89730000D03*
X136350000Y-91000000D03*
X136350000Y-92270000D03*
X136350000Y-93540000D03*
X136350000Y-94810000D03*
X136350000Y-96080000D03*
X136350000Y-97350000D03*
X136350000Y-98620000D03*
X136350000Y-99890000D03*
D31*
X138115000Y-101140000D03*
X139385000Y-101140000D03*
X140655000Y-101140000D03*
X141925000Y-101140000D03*
X143195000Y-101140000D03*
X144465000Y-101140000D03*
X145735000Y-101140000D03*
X147005000Y-101140000D03*
X148275000Y-101140000D03*
X149545000Y-101140000D03*
X150815000Y-101140000D03*
X152085000Y-101140000D03*
D30*
X153850000Y-99890000D03*
X153850000Y-98620000D03*
X153850000Y-97350000D03*
X153850000Y-96080000D03*
X153850000Y-94810000D03*
X153850000Y-93540000D03*
X153850000Y-92270000D03*
X153850000Y-91000000D03*
X153850000Y-89730000D03*
X153850000Y-88460000D03*
X153850000Y-87190000D03*
X153850000Y-85920000D03*
X153850000Y-84650000D03*
X153850000Y-83380000D03*
D32*
X142200000Y-90400000D03*
X142200000Y-91800000D03*
X142900000Y-89700000D03*
X142900000Y-91100000D03*
X142900000Y-92500000D03*
X143600000Y-90400000D03*
D33*
X143600000Y-91100000D03*
D32*
X143600000Y-91800000D03*
X144300000Y-89700000D03*
X144300000Y-91100000D03*
X144300000Y-92500000D03*
X145000000Y-90400000D03*
X145000000Y-91800000D03*
%TD*%
D34*
%TO.C,D3*%
X131100000Y-109075000D03*
X131100000Y-107500000D03*
%TD*%
D17*
%TO.C,C8*%
X158500000Y-95520000D03*
X158500000Y-96480000D03*
%TD*%
D26*
%TO.C,D2*%
X132500000Y-117500000D03*
X132500000Y-120800000D03*
%TD*%
D11*
%TO.C,R14*%
X131100000Y-104500000D03*
X131100000Y-106150000D03*
%TD*%
%TO.C,R9*%
X134500000Y-119175000D03*
X134500000Y-120825000D03*
%TD*%
%TO.C,R23*%
X134500000Y-87175000D03*
X134500000Y-88825000D03*
%TD*%
D35*
%TO.C,J4*%
X118000000Y-85450000D03*
D36*
X116000000Y-85450000D03*
%TD*%
D37*
%TO.C,U1*%
X158562500Y-87500000D03*
X158562500Y-88000000D03*
X158562500Y-88500000D03*
X158562500Y-89000000D03*
X158562500Y-89500000D03*
D38*
X159500000Y-90437500D03*
X160000000Y-90437500D03*
X160500000Y-90437500D03*
X161000000Y-90437500D03*
X161500000Y-90437500D03*
D37*
X162437500Y-89500000D03*
X162437500Y-89000000D03*
X162437500Y-88500000D03*
X162437500Y-88000000D03*
X162437500Y-87500000D03*
D38*
X161500000Y-86562500D03*
X161000000Y-86562500D03*
X160500000Y-86562500D03*
X160000000Y-86562500D03*
X159500000Y-86562500D03*
D39*
X160500000Y-88500000D03*
%TD*%
D40*
%TO.C,U3*%
X111705000Y-97967500D03*
X118055000Y-97967500D03*
X111705000Y-103047500D03*
X118055000Y-103047500D03*
X112340000Y-120827500D03*
X114880000Y-120827500D03*
X117420000Y-120827500D03*
D41*
X107260000Y-104000000D03*
X107260000Y-117335000D03*
X122500000Y-117335000D03*
X122500000Y-104000000D03*
D40*
X104720000Y-108127500D03*
X104720000Y-110667500D03*
X104720000Y-113207500D03*
%TD*%
D11*
%TO.C,R2*%
X156500000Y-119175000D03*
X156500000Y-120825000D03*
%TD*%
%TO.C,R3*%
X154500000Y-119175000D03*
X154500000Y-120825000D03*
%TD*%
D42*
%TO.C,C15*%
X167000000Y-88500000D03*
X167960000Y-88500000D03*
%TD*%
D11*
%TO.C,R20*%
X122500000Y-92175000D03*
X122500000Y-93825000D03*
%TD*%
D37*
%TO.C,U4*%
X143812500Y-106187500D03*
X143812500Y-106687500D03*
X143812500Y-107187500D03*
X143812500Y-107687500D03*
X143812500Y-108187500D03*
X143812500Y-108687500D03*
D38*
X144500000Y-109375000D03*
X145000000Y-109375000D03*
X145500000Y-109375000D03*
X146000000Y-109375000D03*
X146500000Y-109375000D03*
X147000000Y-109375000D03*
D37*
X147687500Y-108687500D03*
X147687500Y-108187500D03*
X147687500Y-107687500D03*
X147687500Y-107187500D03*
X147687500Y-106687500D03*
X147687500Y-106187500D03*
D38*
X147000000Y-105500000D03*
X146500000Y-105500000D03*
X146000000Y-105500000D03*
X145500000Y-105500000D03*
X145000000Y-105500000D03*
X144500000Y-105500000D03*
D43*
X145750000Y-107437500D03*
%TD*%
D24*
%TO.C,R18*%
X108675000Y-90600000D03*
X110325000Y-90600000D03*
%TD*%
D44*
%TO.C,J2*%
X132110000Y-124400000D03*
X137890000Y-124400000D03*
D45*
X131750000Y-122955000D03*
X132550000Y-122955000D03*
D46*
X133750000Y-122955000D03*
X134750000Y-122955000D03*
X135250000Y-122955000D03*
X136250000Y-122955000D03*
D45*
X137450000Y-122955000D03*
X138250000Y-122955000D03*
X138250000Y-122955000D03*
X137450000Y-122955000D03*
D46*
X136750000Y-122955000D03*
X135750000Y-122955000D03*
X134250000Y-122955000D03*
X133250000Y-122955000D03*
D45*
X132550000Y-122955000D03*
X131750000Y-122955000D03*
D47*
X130680000Y-123870000D03*
D48*
X130680000Y-128050000D03*
D47*
X139320000Y-123870000D03*
D48*
X139320000Y-128050000D03*
%TD*%
D24*
%TO.C,R4*%
X159675000Y-96000000D03*
X161325000Y-96000000D03*
%TD*%
D27*
%TO.C,C20*%
X132500000Y-87525000D03*
X132500000Y-90475000D03*
%TD*%
D49*
%TO.C,Q3*%
X131500000Y-93925000D03*
X131500000Y-95825000D03*
X133375000Y-94875000D03*
%TD*%
D50*
%TO.C,X1*%
X159400000Y-94000000D03*
X161600000Y-94000000D03*
X161600000Y-92300000D03*
X159400000Y-92300000D03*
%TD*%
D51*
%TO.C,SW1*%
X132900000Y-108500000D03*
X137100000Y-108500000D03*
%TD*%
D11*
%TO.C,R10*%
X136500000Y-119175000D03*
X136500000Y-120825000D03*
%TD*%
%TO.C,R6*%
X147000000Y-111675000D03*
X147000000Y-113325000D03*
%TD*%
D23*
%TO.C,R13*%
X146325000Y-118400000D03*
X144675000Y-118400000D03*
%TD*%
D17*
%TO.C,C4*%
X164000000Y-89500000D03*
X164000000Y-90460000D03*
%TD*%
D51*
%TO.C,SW2*%
X153900000Y-108500000D03*
X158100000Y-108500000D03*
%TD*%
D52*
%TO.C,L1*%
X163960000Y-87500000D03*
X163960000Y-88470000D03*
%TD*%
D24*
%TO.C,R17*%
X108675000Y-92100000D03*
X110325000Y-92100000D03*
%TD*%
D53*
%TO.C,Q1*%
X142500000Y-118350000D03*
X142500000Y-116450000D03*
X140625000Y-117400000D03*
%TD*%
D25*
%TO.C,C13*%
X134325000Y-111000000D03*
X135875000Y-111000000D03*
%TD*%
D34*
%TO.C,D4*%
X160000000Y-109075000D03*
X160000000Y-107500000D03*
%TD*%
D54*
%TO.C,J3*%
X179960000Y-89040000D03*
D55*
X177420000Y-86500000D03*
X177420000Y-91580000D03*
X182500000Y-86500000D03*
X182500000Y-91580000D03*
%TD*%
D56*
%TO.C,L3*%
X165960000Y-88500000D03*
X164990000Y-88500000D03*
%TD*%
D17*
%TO.C,C5*%
X165000000Y-89520000D03*
X165000000Y-90480000D03*
%TD*%
D11*
%TO.C,R15*%
X160000000Y-104462500D03*
X160000000Y-106112500D03*
%TD*%
D17*
%TO.C,C9*%
X162500000Y-95520000D03*
X162500000Y-96480000D03*
%TD*%
D29*
%TO.C,D6*%
X113287500Y-90600000D03*
X111712500Y-90600000D03*
%TD*%
D57*
%TO.C,L2*%
X164975000Y-87500000D03*
X165945000Y-87500000D03*
%TD*%
D49*
%TO.C,Q2*%
X148625000Y-116500000D03*
X148625000Y-118400000D03*
X150500000Y-117450000D03*
%TD*%
D58*
%TO.C,C1*%
X160000000Y-85460000D03*
X160000000Y-84500000D03*
%TD*%
D40*
%TO.C,U2*%
X171325000Y-97800000D03*
X177675000Y-97800000D03*
X171325000Y-102880000D03*
X177675000Y-102880000D03*
X171960000Y-120660000D03*
X174500000Y-120660000D03*
X177040000Y-120660000D03*
D41*
X166880000Y-103832500D03*
X166880000Y-117167500D03*
X182120000Y-117167500D03*
X182120000Y-103832500D03*
D40*
X164340000Y-107960000D03*
X164340000Y-110500000D03*
X164340000Y-113040000D03*
%TD*%
D13*
%TO.C,C12*%
X142275000Y-108500000D03*
X140725000Y-108500000D03*
%TD*%
D44*
%TO.C,J1*%
X152610000Y-124400000D03*
X158390000Y-124400000D03*
D45*
X152250000Y-122955000D03*
X153050000Y-122955000D03*
D46*
X154250000Y-122955000D03*
X155250000Y-122955000D03*
X155750000Y-122955000D03*
X156750000Y-122955000D03*
D45*
X157950000Y-122955000D03*
X158750000Y-122955000D03*
X158750000Y-122955000D03*
X157950000Y-122955000D03*
D46*
X157250000Y-122955000D03*
X156250000Y-122955000D03*
X154750000Y-122955000D03*
X153750000Y-122955000D03*
D45*
X153050000Y-122955000D03*
X152250000Y-122955000D03*
D47*
X151180000Y-123870000D03*
D48*
X151180000Y-128050000D03*
D47*
X159820000Y-123870000D03*
D48*
X159820000Y-128050000D03*
%TD*%
D23*
%TO.C,R12*%
X138500000Y-117400000D03*
X136850000Y-117400000D03*
%TD*%
D10*
%TO.C,R1*%
X161500000Y-85150000D03*
X161500000Y-83500000D03*
%TD*%
M02*
