%TF.GenerationSoftware,KiCad,Pcbnew,10.0.4*%
%TF.CreationDate,2026-07-23T14:40:07-04:00*%
%TF.ProjectId,swervecontrollerPCBv1,73776572-7665-4636-9f6e-74726f6c6c65,rev?*%
%TF.SameCoordinates,Original*%
%TF.FileFunction,Copper,L1,Top*%
%TF.FilePolarity,Positive*%
%FSLAX46Y46*%
G04 Gerber Fmt 4.6, Leading zero omitted, Abs format (unit mm)*
G04 Created by KiCad (PCBNEW 10.0.4) date 2026-07-23 14:40:07*
%MOMM*%
%LPD*%
G01*
G04 APERTURE LIST*
G04 Aperture macros list*
%AMRoundRect*
0 Rectangle with rounded corners*
0 $1 Rounding radius*
0 $2 $3 $4 $5 $6 $7 $8 $9 X,Y pos of 4 corners*
0 Add a 4 corners polygon primitive as box body*
4,1,4,$2,$3,$4,$5,$6,$7,$8,$9,$2,$3,0*
0 Add four circle primitives for the rounded corners*
1,1,$1+$1,$2,$3*
1,1,$1+$1,$4,$5*
1,1,$1+$1,$6,$7*
1,1,$1+$1,$8,$9*
0 Add four rect primitives between the rounded corners*
20,1,$1+$1,$2,$3,$4,$5,0*
20,1,$1+$1,$4,$5,$6,$7,0*
20,1,$1+$1,$6,$7,$8,$9,0*
20,1,$1+$1,$8,$9,$2,$3,0*%
G04 Aperture macros list end*
%TA.AperFunction,SMDPad,CuDef*%
%ADD10RoundRect,0.200000X0.275000X-0.200000X0.275000X0.200000X-0.275000X0.200000X-0.275000X-0.200000X0*%
%TD*%
%TA.AperFunction,SMDPad,CuDef*%
%ADD11RoundRect,0.200000X-0.275000X0.200000X-0.275000X-0.200000X0.275000X-0.200000X0.275000X0.200000X0*%
%TD*%
%TA.AperFunction,SMDPad,CuDef*%
%ADD12RoundRect,0.250000X-0.325000X-0.650000X0.325000X-0.650000X0.325000X0.650000X-0.325000X0.650000X0*%
%TD*%
%TA.AperFunction,SMDPad,CuDef*%
%ADD13RoundRect,0.225000X0.225000X0.250000X-0.225000X0.250000X-0.225000X-0.250000X0.225000X-0.250000X0*%
%TD*%
%TA.AperFunction,SMDPad,CuDef*%
%ADD14RoundRect,0.150000X0.825000X0.150000X-0.825000X0.150000X-0.825000X-0.150000X0.825000X-0.150000X0*%
%TD*%
%TA.AperFunction,HeatsinkPad*%
%ADD15C,0.500000*%
%TD*%
%TA.AperFunction,HeatsinkPad*%
%ADD16R,2.410000X3.300000*%
%TD*%
%TA.AperFunction,SMDPad,CuDef*%
%ADD17RoundRect,0.140000X0.140000X0.170000X-0.140000X0.170000X-0.140000X-0.170000X0.140000X-0.170000X0*%
%TD*%
%TA.AperFunction,SMDPad,CuDef*%
%ADD18RoundRect,0.140000X-0.170000X0.140000X-0.170000X-0.140000X0.170000X-0.140000X0.170000X0.140000X0*%
%TD*%
%TA.AperFunction,SMDPad,CuDef*%
%ADD19RoundRect,0.033750X-0.371250X-0.101250X0.371250X-0.101250X0.371250X0.101250X-0.371250X0.101250X0*%
%TD*%
%TA.AperFunction,SMDPad,CuDef*%
%ADD20RoundRect,0.033750X-0.101250X-0.371250X0.101250X-0.371250X0.101250X0.371250X-0.101250X0.371250X0*%
%TD*%
%TA.AperFunction,SMDPad,CuDef*%
%ADD21R,1.700000X1.700000*%
%TD*%
%TA.AperFunction,SMDPad,CuDef*%
%ADD22RoundRect,0.150000X0.512500X0.150000X-0.512500X0.150000X-0.512500X-0.150000X0.512500X-0.150000X0*%
%TD*%
%TA.AperFunction,SMDPad,CuDef*%
%ADD23RoundRect,0.225000X0.225000X0.375000X-0.225000X0.375000X-0.225000X-0.375000X0.225000X-0.375000X0*%
%TD*%
%TA.AperFunction,SMDPad,CuDef*%
%ADD24RoundRect,0.200000X0.200000X0.275000X-0.200000X0.275000X-0.200000X-0.275000X0.200000X-0.275000X0*%
%TD*%
%TA.AperFunction,SMDPad,CuDef*%
%ADD25RoundRect,0.200000X-0.200000X-0.275000X0.200000X-0.275000X0.200000X0.275000X-0.200000X0.275000X0*%
%TD*%
%TA.AperFunction,SMDPad,CuDef*%
%ADD26RoundRect,0.225000X-0.225000X-0.250000X0.225000X-0.250000X0.225000X0.250000X-0.225000X0.250000X0*%
%TD*%
%TA.AperFunction,SMDPad,CuDef*%
%ADD27RoundRect,0.225000X-0.375000X0.225000X-0.375000X-0.225000X0.375000X-0.225000X0.375000X0.225000X0*%
%TD*%
%TA.AperFunction,SMDPad,CuDef*%
%ADD28RoundRect,0.250000X-0.650000X0.325000X-0.650000X-0.325000X0.650000X-0.325000X0.650000X0.325000X0*%
%TD*%
%TA.AperFunction,SMDPad,CuDef*%
%ADD29RoundRect,0.250000X0.325000X0.650000X-0.325000X0.650000X-0.325000X-0.650000X0.325000X-0.650000X0*%
%TD*%
%TA.AperFunction,SMDPad,CuDef*%
%ADD30RoundRect,0.218750X0.218750X0.256250X-0.218750X0.256250X-0.218750X-0.256250X0.218750X-0.256250X0*%
%TD*%
%TA.AperFunction,SMDPad,CuDef*%
%ADD31R,1.500000X0.900000*%
%TD*%
%TA.AperFunction,SMDPad,CuDef*%
%ADD32R,0.900000X1.500000*%
%TD*%
%TA.AperFunction,HeatsinkPad*%
%ADD33C,0.600000*%
%TD*%
%TA.AperFunction,HeatsinkPad*%
%ADD34R,3.900000X3.900000*%
%TD*%
%TA.AperFunction,SMDPad,CuDef*%
%ADD35RoundRect,0.218750X0.256250X-0.218750X0.256250X0.218750X-0.256250X0.218750X-0.256250X-0.218750X0*%
%TD*%
%TA.AperFunction,ComponentPad*%
%ADD36RoundRect,0.250000X0.350000X0.625000X-0.350000X0.625000X-0.350000X-0.625000X0.350000X-0.625000X0*%
%TD*%
%TA.AperFunction,ComponentPad*%
%ADD37O,1.200000X1.750000*%
%TD*%
%TA.AperFunction,SMDPad,CuDef*%
%ADD38RoundRect,0.062500X-0.350000X-0.062500X0.350000X-0.062500X0.350000X0.062500X-0.350000X0.062500X0*%
%TD*%
%TA.AperFunction,SMDPad,CuDef*%
%ADD39RoundRect,0.062500X-0.062500X-0.350000X0.062500X-0.350000X0.062500X0.350000X-0.062500X0.350000X0*%
%TD*%
%TA.AperFunction,HeatsinkPad*%
%ADD40R,2.500000X2.500000*%
%TD*%
%TA.AperFunction,ComponentPad*%
%ADD41C,1.778000*%
%TD*%
%TA.AperFunction,ComponentPad*%
%ADD42C,2.286000*%
%TD*%
%TA.AperFunction,SMDPad,CuDef*%
%ADD43RoundRect,0.140000X-0.140000X-0.170000X0.140000X-0.170000X0.140000X0.170000X-0.140000X0.170000X0*%
%TD*%
%TA.AperFunction,HeatsinkPad*%
%ADD44R,2.600000X2.600000*%
%TD*%
%TA.AperFunction,SMDPad,CuDef*%
%ADD45RoundRect,0.150000X-0.150000X-0.575000X0.150000X-0.575000X0.150000X0.575000X-0.150000X0.575000X0*%
%TD*%
%TA.AperFunction,SMDPad,CuDef*%
%ADD46RoundRect,0.075000X-0.075000X-0.650000X0.075000X-0.650000X0.075000X0.650000X-0.075000X0.650000X0*%
%TD*%
%TA.AperFunction,ComponentPad*%
%ADD47O,1.000000X2.100000*%
%TD*%
%TA.AperFunction,ComponentPad*%
%ADD48O,1.000000X1.600000*%
%TD*%
%TA.AperFunction,SMDPad,CuDef*%
%ADD49RoundRect,0.150000X-0.587500X-0.150000X0.587500X-0.150000X0.587500X0.150000X-0.587500X0.150000X0*%
%TD*%
%TA.AperFunction,SMDPad,CuDef*%
%ADD50RoundRect,0.250000X-0.450000X-0.350000X0.450000X-0.350000X0.450000X0.350000X-0.450000X0.350000X0*%
%TD*%
%TA.AperFunction,SMDPad,CuDef*%
%ADD51RoundRect,0.200000X-0.200000X-0.800000X0.200000X-0.800000X0.200000X0.800000X-0.200000X0.800000X0*%
%TD*%
%TA.AperFunction,SMDPad,CuDef*%
%ADD52RoundRect,0.147500X-0.172500X0.147500X-0.172500X-0.147500X0.172500X-0.147500X0.172500X0.147500X0*%
%TD*%
%TA.AperFunction,SMDPad,CuDef*%
%ADD53RoundRect,0.150000X0.587500X0.150000X-0.587500X0.150000X-0.587500X-0.150000X0.587500X-0.150000X0*%
%TD*%
%TA.AperFunction,ComponentPad*%
%ADD54C,2.050000*%
%TD*%
%TA.AperFunction,ComponentPad*%
%ADD55C,2.250000*%
%TD*%
%TA.AperFunction,SMDPad,CuDef*%
%ADD56RoundRect,0.147500X0.147500X0.172500X-0.147500X0.172500X-0.147500X-0.172500X0.147500X-0.172500X0*%
%TD*%
%TA.AperFunction,SMDPad,CuDef*%
%ADD57RoundRect,0.147500X-0.147500X-0.172500X0.147500X-0.172500X0.147500X0.172500X-0.147500X0.172500X0*%
%TD*%
%TA.AperFunction,SMDPad,CuDef*%
%ADD58RoundRect,0.140000X0.170000X-0.140000X0.170000X0.140000X-0.170000X0.140000X-0.170000X-0.140000X0*%
%TD*%
G04 APERTURE END LIST*
D10*
%TO.P,R5,1*%
%TO.N,/USB VBUS*%
X145500000Y-113325000D03*
%TO.P,R5,2*%
%TO.N,Net-(U4-VBUS)*%
X145500000Y-111675000D03*
%TD*%
D11*
%TO.P,R7,1*%
%TO.N,Net-(U5-RXEN)*%
X171000000Y-91000000D03*
%TO.P,R7,2*%
%TO.N,/CE*%
X171000000Y-92650000D03*
%TD*%
D12*
%TO.P,C10,1*%
%TO.N,/5V STABLE*%
X140525000Y-113000000D03*
%TO.P,C10,2*%
%TO.N,Net-(U4-VREGIN)*%
X143475000Y-113000000D03*
%TD*%
D13*
%TO.P,C18,1*%
%TO.N,VDD*%
X133275000Y-85500000D03*
%TO.P,C18,2*%
%TO.N,GND*%
X131725000Y-85500000D03*
%TD*%
D14*
%TO.P,U6,1,TEMP_1*%
%TO.N,GND*%
X120175000Y-93105000D03*
%TO.P,U6,2,PROG_2*%
%TO.N,Net-(U6-PROG)*%
X120175000Y-91835000D03*
%TO.P,U6,3,GND_3*%
%TO.N,Net-(J4-Pin_1)*%
X120175000Y-90565000D03*
%TO.P,U6,4,V_{CC}_4*%
%TO.N,/USB VBUS*%
X120175000Y-89295000D03*
%TO.P,U6,5,BAT_5*%
%TO.N,/BAT*%
X115225000Y-89295000D03*
%TO.P,U6,6,~{STDBY}_6*%
%TO.N,Net-(D6-K)*%
X115225000Y-90565000D03*
%TO.P,U6,7,~{CHRG}_7*%
%TO.N,Net-(D5-K)*%
X115225000Y-91835000D03*
%TO.P,U6,8,CE_8*%
%TO.N,/USB VBUS*%
X115225000Y-93105000D03*
D15*
%TO.P,U6,9,EPAD_9*%
%TO.N,Net-(J4-Pin_1)*%
X118400000Y-92400000D03*
X118400000Y-91200000D03*
X118400000Y-90000000D03*
D16*
X117700000Y-91200000D03*
D15*
X117000000Y-92400000D03*
X117000000Y-91200000D03*
X117000000Y-90000000D03*
%TD*%
D17*
%TO.P,C2,1*%
%TO.N,VDD*%
X157500000Y-84000000D03*
%TO.P,C2,2*%
%TO.N,GND*%
X156540000Y-84000000D03*
%TD*%
D18*
%TO.P,C16,1*%
%TO.N,/RF I{slash}O 50 OHM*%
X168000000Y-89500000D03*
%TO.P,C16,2*%
%TO.N,GND*%
X168000000Y-90460000D03*
%TD*%
D11*
%TO.P,R21,1*%
%TO.N,/USB VBUS*%
X129500000Y-96000000D03*
%TO.P,R21,2*%
%TO.N,GND*%
X129500000Y-97650000D03*
%TD*%
D19*
%TO.P,U5,1,NC_1*%
%TO.N,unconnected-(U5-NC-Pad1)*%
X169610000Y-87195000D03*
%TO.P,U5,2,GND_2*%
%TO.N,GND*%
X169610000Y-87695000D03*
%TO.P,U5,3,GND_3*%
X169610000Y-88195000D03*
%TO.P,U5,4,TXRX_4*%
%TO.N,/RF I{slash}O 50 OHM*%
X169610000Y-88695000D03*
D20*
%TO.P,U5,5,TXEN_5*%
%TO.N,/VDD_PA*%
X170305000Y-89390000D03*
%TO.P,U5,6,RXEN_6*%
%TO.N,Net-(U5-RXEN)*%
X170805000Y-89390000D03*
%TO.P,U5,7,NC_7*%
%TO.N,unconnected-(U5-NC-Pad7)*%
X171305000Y-89390000D03*
%TO.P,U5,8,GND_8*%
%TO.N,GND*%
X171805000Y-89390000D03*
D19*
%TO.P,U5,9,GND_9*%
X172500000Y-88695000D03*
%TO.P,U5,10,ANT_10*%
%TO.N,Net-(J3-In)*%
X172500000Y-88195000D03*
%TO.P,U5,11,GND_11*%
%TO.N,GND*%
X172500000Y-87695000D03*
%TO.P,U5,12,NC_12*%
%TO.N,unconnected-(U5-NC-Pad12)*%
X172500000Y-87195000D03*
D20*
%TO.P,U5,13,NC_13*%
%TO.N,unconnected-(U5-NC-Pad13)*%
X171805000Y-86500000D03*
%TO.P,U5,14,VDD_14*%
%TO.N,VDD*%
X171305000Y-86500000D03*
%TO.P,U5,15,NC_15*%
%TO.N,unconnected-(U5-NC-Pad15)*%
X170805000Y-86500000D03*
%TO.P,U5,16,VDD_16*%
%TO.N,VDD*%
X170305000Y-86500000D03*
D21*
%TO.P,U5,17,GND_17*%
%TO.N,GND*%
X171055000Y-87945000D03*
%TD*%
D17*
%TO.P,C3,1*%
%TO.N,VDD*%
X157500000Y-85000000D03*
%TO.P,C3,2*%
%TO.N,GND*%
X156540000Y-85000000D03*
%TD*%
D22*
%TO.P,U7,1,IN_1*%
%TO.N,/5V STABLE*%
X129775000Y-91900000D03*
%TO.P,U7,2,GND_2*%
%TO.N,GND*%
X129775000Y-90950000D03*
%TO.P,U7,3,EN_3*%
%TO.N,/5V STABLE*%
X129775000Y-90000000D03*
%TO.P,U7,4,NC_4*%
%TO.N,unconnected-(U7-NC-Pad4)*%
X127500000Y-90000000D03*
%TO.P,U7,5,OUT_5*%
%TO.N,VDD*%
X127500000Y-91900000D03*
%TD*%
D23*
%TO.P,D7,1,K_1*%
%TO.N,/5V STABLE*%
X129650000Y-93825000D03*
%TO.P,D7,2,A_2*%
%TO.N,/USB VBUS*%
X126350000Y-93825000D03*
%TD*%
D24*
%TO.P,R19,1*%
%TO.N,/EN*%
X154325000Y-117500000D03*
%TO.P,R19,2*%
%TO.N,Net-(Q2-C)*%
X152675000Y-117500000D03*
%TD*%
D25*
%TO.P,R16,1*%
%TO.N,/DTR*%
X144675000Y-116500000D03*
%TO.P,R16,2*%
%TO.N,Net-(Q2-B)*%
X146325000Y-116500000D03*
%TD*%
D26*
%TO.P,C11,1*%
%TO.N,/5V STABLE*%
X141225000Y-111000000D03*
%TO.P,C11,2*%
%TO.N,Net-(U4-VREGIN)*%
X142775000Y-111000000D03*
%TD*%
D27*
%TO.P,D1,1,K_1*%
%TO.N,/USB VBUS*%
X158500000Y-117500000D03*
%TO.P,D1,2,A_2*%
%TO.N,Net-(D1-A)*%
X158500000Y-120800000D03*
%TD*%
D10*
%TO.P,R8,1*%
%TO.N,VDD*%
X148500000Y-113325000D03*
%TO.P,R8,2*%
%TO.N,Net-(U4-~{RST})*%
X148500000Y-111675000D03*
%TD*%
D28*
%TO.P,C14,1*%
%TO.N,/USB VBUS*%
X127500000Y-95825000D03*
%TO.P,C14,2*%
%TO.N,GND*%
X127500000Y-98775000D03*
%TD*%
D29*
%TO.P,C19,1*%
%TO.N,VDD*%
X134000000Y-83500000D03*
%TO.P,C19,2*%
%TO.N,GND*%
X131050000Y-83500000D03*
%TD*%
D25*
%TO.P,R11,1*%
%TO.N,Net-(U4-SUSPEND)*%
X149350000Y-107000000D03*
%TO.P,R11,2*%
%TO.N,GND*%
X151000000Y-107000000D03*
%TD*%
D30*
%TO.P,D5,1,K_1*%
%TO.N,Net-(D5-K)*%
X113287500Y-92100000D03*
%TO.P,D5,2,A_2*%
%TO.N,Net-(D5-A)*%
X111712500Y-92100000D03*
%TD*%
D31*
%TO.P,U9,1,GND_1*%
%TO.N,GND*%
X136350000Y-83380000D03*
%TO.P,U9,2,3V3_2*%
%TO.N,VDD*%
X136350000Y-84650000D03*
%TO.P,U9,3,EN_3*%
%TO.N,/EN*%
X136350000Y-85920000D03*
%TO.P,U9,4,IO4_4*%
%TO.N,/SX*%
X136350000Y-87190000D03*
%TO.P,U9,5,IO5_5*%
%TO.N,/SY*%
X136350000Y-88460000D03*
%TO.P,U9,6,IO6_6*%
%TO.N,/BD*%
X136350000Y-89730000D03*
%TO.P,U9,7,IO7_7*%
%TO.N,/BS*%
X136350000Y-91000000D03*
%TO.P,U9,8,IO15_8*%
%TO.N,unconnected-(U9-IO15-Pad8)*%
X136350000Y-92270000D03*
%TO.P,U9,9,IO16_9*%
%TO.N,unconnected-(U9-IO16-Pad9)*%
X136350000Y-93540000D03*
%TO.P,U9,10,IO17_10*%
%TO.N,unconnected-(U9-IO17-Pad10)*%
X136350000Y-94810000D03*
%TO.P,U9,11,IO18_11*%
%TO.N,unconnected-(U9-IO18-Pad11)*%
X136350000Y-96080000D03*
%TO.P,U9,12,IO8_12*%
%TO.N,/CSN*%
X136350000Y-97350000D03*
%TO.P,U9,13,USB_D-_13*%
%TO.N,/GPIO 19*%
X136350000Y-98620000D03*
%TO.P,U9,14,USB_D+_14*%
%TO.N,/GPIO 20*%
X136350000Y-99890000D03*
D32*
%TO.P,U9,15,IO3_15*%
%TO.N,unconnected-(U9-IO3-Pad15)*%
X138115000Y-101140000D03*
%TO.P,U9,16,IO46_16*%
%TO.N,unconnected-(U9-IO46-Pad16)*%
X139385000Y-101140000D03*
%TO.P,U9,17,IO9_17*%
%TO.N,/CE*%
X140655000Y-101140000D03*
%TO.P,U9,18,IO10_18*%
%TO.N,/MISO*%
X141925000Y-101140000D03*
%TO.P,U9,19,IO11_19*%
%TO.N,/MOSI*%
X143195000Y-101140000D03*
%TO.P,U9,20,IO12_20*%
%TO.N,/SCK*%
X144465000Y-101140000D03*
%TO.P,U9,21,IO13_21*%
%TO.N,/IRQ*%
X145735000Y-101140000D03*
%TO.P,U9,22,IO14_22*%
%TO.N,unconnected-(U9-IO14-Pad22)*%
X147005000Y-101140000D03*
%TO.P,U9,23,IO21_23*%
%TO.N,unconnected-(U9-IO21-Pad23)*%
X148275000Y-101140000D03*
%TO.P,U9,24,IO47_24*%
%TO.N,unconnected-(U9-IO47-Pad24)*%
X149545000Y-101140000D03*
%TO.P,U9,25,IO48_25*%
%TO.N,unconnected-(U9-IO48-Pad25)*%
X150815000Y-101140000D03*
%TO.P,U9,26,IO45_26*%
%TO.N,unconnected-(U9-IO45-Pad26)*%
X152085000Y-101140000D03*
D31*
%TO.P,U9,27,IO0_27*%
%TO.N,GND*%
X153850000Y-99890000D03*
%TO.P,U9,28,IO35_28*%
%TO.N,unconnected-(U9-IO35-Pad28)*%
X153850000Y-98620000D03*
%TO.P,U9,29,IO36_29*%
%TO.N,unconnected-(U9-IO36-Pad29)*%
X153850000Y-97350000D03*
%TO.P,U9,30,IO37_30*%
%TO.N,unconnected-(U9-IO37-Pad30)*%
X153850000Y-96080000D03*
%TO.P,U9,31,IO38_31*%
%TO.N,unconnected-(U9-IO38-Pad31)*%
X153850000Y-94810000D03*
%TO.P,U9,32,IO39_32*%
%TO.N,unconnected-(U9-IO39-Pad32)*%
X153850000Y-93540000D03*
%TO.P,U9,33,IO40_33*%
%TO.N,unconnected-(U9-IO40-Pad33)*%
X153850000Y-92270000D03*
%TO.P,U9,34,IO41_34*%
%TO.N,unconnected-(U9-IO41-Pad34)*%
X153850000Y-91000000D03*
%TO.P,U9,35,IO42_35*%
%TO.N,unconnected-(U9-IO42-Pad35)*%
X153850000Y-89730000D03*
%TO.P,U9,36,RXD0_36*%
%TO.N,/RXD*%
X153850000Y-88460000D03*
%TO.P,U9,37,TXD0_37*%
%TO.N,/TXD*%
X153850000Y-87190000D03*
%TO.P,U9,38,IO2_38*%
%TO.N,/DX*%
X153850000Y-85920000D03*
%TO.P,U9,39,IO1_39*%
%TO.N,/DY*%
X153850000Y-84650000D03*
%TO.P,U9,40,GND_40*%
%TO.N,GND*%
X153850000Y-83380000D03*
D33*
%TO.P,U9,41,GND_41*%
X142200000Y-90400000D03*
X142200000Y-91800000D03*
X142900000Y-89700000D03*
X142900000Y-91100000D03*
X142900000Y-92500000D03*
X143600000Y-90400000D03*
D34*
X143600000Y-91100000D03*
D33*
X143600000Y-91800000D03*
X144300000Y-89700000D03*
X144300000Y-91100000D03*
X144300000Y-92500000D03*
X145000000Y-90400000D03*
X145000000Y-91800000D03*
%TD*%
D35*
%TO.P,D3,1,K_1*%
%TO.N,/EN*%
X131100000Y-109075000D03*
%TO.P,D3,2,A_2*%
%TO.N,Net-(D3-A)*%
X131100000Y-107500000D03*
%TD*%
D18*
%TO.P,C8,1*%
%TO.N,Net-(U1-XC1)*%
X158500000Y-95520000D03*
%TO.P,C8,2*%
%TO.N,GND*%
X158500000Y-96480000D03*
%TD*%
D27*
%TO.P,D2,1,K_1*%
%TO.N,/USB VBUS*%
X132500000Y-117500000D03*
%TO.P,D2,2,A_2*%
%TO.N,Net-(D2-A)*%
X132500000Y-120800000D03*
%TD*%
D11*
%TO.P,R14,1*%
%TO.N,VDD*%
X131100000Y-104500000D03*
%TO.P,R14,2*%
%TO.N,Net-(D3-A)*%
X131100000Y-106150000D03*
%TD*%
%TO.P,R9,1*%
%TO.N,GND*%
X134500000Y-119175000D03*
%TO.P,R9,2*%
%TO.N,Net-(J2-CC1)*%
X134500000Y-120825000D03*
%TD*%
%TO.P,R23,1*%
%TO.N,/EN*%
X134500000Y-87175000D03*
%TO.P,R23,2*%
%TO.N,VDD*%
X134500000Y-88825000D03*
%TD*%
D36*
%TO.P,J4,1,Pin_1_1*%
%TO.N,Net-(J4-Pin_1)*%
X118000000Y-85450000D03*
D37*
%TO.P,J4,2,Pin_2_2*%
%TO.N,/BAT*%
X116000000Y-85450000D03*
%TD*%
D38*
%TO.P,U1,1,CE_1*%
%TO.N,/CE*%
X158562500Y-87500000D03*
%TO.P,U1,2,CSN_2*%
%TO.N,/CSN*%
X158562500Y-88000000D03*
%TO.P,U1,3,SCK_3*%
%TO.N,/SCK*%
X158562500Y-88500000D03*
%TO.P,U1,4,MOSI_4*%
%TO.N,/MOSI*%
X158562500Y-89000000D03*
%TO.P,U1,5,MISO_5*%
%TO.N,/MISO*%
X158562500Y-89500000D03*
D39*
%TO.P,U1,6,IRQ_6*%
%TO.N,/IRQ*%
X159500000Y-90437500D03*
%TO.P,U1,7,VDD_7*%
%TO.N,VDD*%
X160000000Y-90437500D03*
%TO.P,U1,8,VSS_8*%
%TO.N,GND*%
X160500000Y-90437500D03*
%TO.P,U1,9,XC2_9*%
%TO.N,Net-(U1-XC2)*%
X161000000Y-90437500D03*
%TO.P,U1,10,XC1_10*%
%TO.N,Net-(U1-XC1)*%
X161500000Y-90437500D03*
D38*
%TO.P,U1,11,VDD_PA_11*%
%TO.N,/VDD_PA*%
X162437500Y-89500000D03*
%TO.P,U1,12,ANT1_12*%
%TO.N,Net-(U1-ANT1)*%
X162437500Y-89000000D03*
%TO.P,U1,13,ANT2_13*%
%TO.N,Net-(U1-ANT2)*%
X162437500Y-88500000D03*
%TO.P,U1,14,VSS_14*%
%TO.N,GND*%
X162437500Y-88000000D03*
%TO.P,U1,15,VDD_15*%
%TO.N,VDD*%
X162437500Y-87500000D03*
D39*
%TO.P,U1,16,IREF_16*%
%TO.N,Net-(U1-IREF)*%
X161500000Y-86562500D03*
%TO.P,U1,17,VSS_17*%
%TO.N,GND*%
X161000000Y-86562500D03*
%TO.P,U1,18,VDD_18*%
%TO.N,VDD*%
X160500000Y-86562500D03*
%TO.P,U1,19,DVDD_19*%
%TO.N,Net-(U1-DVDD)*%
X160000000Y-86562500D03*
%TO.P,U1,20,VSS_20*%
%TO.N,GND*%
X159500000Y-86562500D03*
D40*
%TO.P,U1,21,EPAD_21*%
X160500000Y-88500000D03*
%TD*%
D41*
%TO.P,U3,B1A,SEL+_B1A*%
%TO.N,GND*%
X111705000Y-97967500D03*
%TO.P,U3,B1B*%
X118055000Y-97967500D03*
%TO.P,U3,B2A,SEL-_B2A*%
%TO.N,/BS*%
X111705000Y-103047500D03*
%TO.P,U3,B2B*%
X118055000Y-103047500D03*
%TO.P,U3,H1,H+_H1*%
%TO.N,VDD*%
X112340000Y-120827500D03*
%TO.P,U3,H2,H_H2*%
%TO.N,/SX*%
X114880000Y-120827500D03*
%TO.P,U3,H3,H-_H3*%
%TO.N,GND*%
X117420000Y-120827500D03*
D42*
%TO.P,U3,S1,SHIELD_S1*%
X107260000Y-104000000D03*
%TO.P,U3,S2,SHIELD_S2*%
X107260000Y-117335000D03*
%TO.P,U3,S3,SHIELD_S3*%
X122500000Y-117335000D03*
%TO.P,U3,S4,SHIELD_S4*%
X122500000Y-104000000D03*
D41*
%TO.P,U3,V1,V+_V1*%
%TO.N,VDD*%
X104720000Y-108127500D03*
%TO.P,U3,V2,V_V2*%
%TO.N,/SY*%
X104720000Y-110667500D03*
%TO.P,U3,V3,V-_V3*%
%TO.N,GND*%
X104720000Y-113207500D03*
%TD*%
D11*
%TO.P,R2,1*%
%TO.N,GND*%
X156500000Y-119175000D03*
%TO.P,R2,2*%
%TO.N,Net-(J1-CC2)*%
X156500000Y-120825000D03*
%TD*%
%TO.P,R3,1*%
%TO.N,GND*%
X154500000Y-119175000D03*
%TO.P,R3,2*%
%TO.N,Net-(J1-CC1)*%
X154500000Y-120825000D03*
%TD*%
D43*
%TO.P,C15,1*%
%TO.N,Net-(C15-Pad1)*%
X167000000Y-88500000D03*
%TO.P,C15,2*%
%TO.N,/RF I{slash}O 50 OHM*%
X167960000Y-88500000D03*
%TD*%
D11*
%TO.P,R20,1*%
%TO.N,Net-(U6-PROG)*%
X122500000Y-92175000D03*
%TO.P,R20,2*%
%TO.N,GND*%
X122500000Y-93825000D03*
%TD*%
D38*
%TO.P,U4,1,~{RI}/CLK_1*%
%TO.N,unconnected-(U4-~{RI}{slash}CLK-Pad1)*%
X143812500Y-106187500D03*
%TO.P,U4,2,GND_2*%
%TO.N,GND*%
X143812500Y-106687500D03*
%TO.P,U4,3,D+_3*%
%TO.N,/DATA+*%
X143812500Y-107187500D03*
%TO.P,U4,4,D-_4*%
%TO.N,/DATA-*%
X143812500Y-107687500D03*
%TO.P,U4,5,VIO_5*%
%TO.N,VDD*%
X143812500Y-108187500D03*
%TO.P,U4,6,VDD_6*%
X143812500Y-108687500D03*
D39*
%TO.P,U4,7,VREGIN_7*%
%TO.N,Net-(U4-VREGIN)*%
X144500000Y-109375000D03*
%TO.P,U4,8,VBUS_8*%
%TO.N,Net-(U4-VBUS)*%
X145000000Y-109375000D03*
%TO.P,U4,9,~{RST}_9*%
%TO.N,Net-(U4-~{RST})*%
X145500000Y-109375000D03*
%TO.P,U4,10,NC_10*%
%TO.N,unconnected-(U4-NC-Pad10)*%
X146000000Y-109375000D03*
%TO.P,U4,11,~{WAKEUP}/GPIO.3_11*%
%TO.N,unconnected-(U4-~{WAKEUP}{slash}GPIO.3-Pad11)*%
X146500000Y-109375000D03*
%TO.P,U4,12,RS485/GPIO.2_12*%
%TO.N,unconnected-(U4-RS485{slash}GPIO.2-Pad12)*%
X147000000Y-109375000D03*
D38*
%TO.P,U4,13,~{RXT}/GPIO.1_13*%
%TO.N,unconnected-(U4-~{RXT}{slash}GPIO.1-Pad13)*%
X147687500Y-108687500D03*
%TO.P,U4,14,~{TXT}/GPIO.0_14*%
%TO.N,unconnected-(U4-~{TXT}{slash}GPIO.0-Pad14)*%
X147687500Y-108187500D03*
%TO.P,U4,15,~{SUSPEND}_15*%
%TO.N,unconnected-(U4-~{SUSPEND}-Pad15)*%
X147687500Y-107687500D03*
%TO.P,U4,16,NC_16*%
%TO.N,unconnected-(U4-NC-Pad16)*%
X147687500Y-107187500D03*
%TO.P,U4,17,SUSPEND_17*%
%TO.N,Net-(U4-SUSPEND)*%
X147687500Y-106687500D03*
%TO.P,U4,18,~{CTS}_18*%
%TO.N,unconnected-(U4-~{CTS}-Pad18)*%
X147687500Y-106187500D03*
D39*
%TO.P,U4,19,~{RTS}_19*%
%TO.N,/RTS*%
X147000000Y-105500000D03*
%TO.P,U4,20,RXD_20*%
%TO.N,/RXD*%
X146500000Y-105500000D03*
%TO.P,U4,21,TXD_21*%
%TO.N,/TXD*%
X146000000Y-105500000D03*
%TO.P,U4,22,~{DSR}_22*%
%TO.N,unconnected-(U4-~{DSR}-Pad22)*%
X145500000Y-105500000D03*
%TO.P,U4,23,~{DTR}_23*%
%TO.N,/DTR*%
X145000000Y-105500000D03*
%TO.P,U4,24,~{DCD}_24*%
%TO.N,unconnected-(U4-~{DCD}-Pad24)*%
X144500000Y-105500000D03*
D44*
%TO.P,U4,25,GND_25*%
%TO.N,GND*%
X145750000Y-107437500D03*
%TD*%
D25*
%TO.P,R18,1*%
%TO.N,/5V STABLE*%
X108675000Y-90600000D03*
%TO.P,R18,2*%
%TO.N,Net-(D6-A)*%
X110325000Y-90600000D03*
%TD*%
D45*
%TO.P,J2,A1,GND_A1*%
%TO.N,GND*%
X131750000Y-122955000D03*
%TO.P,J2,A4,VBUS_A4*%
%TO.N,Net-(D2-A)*%
X132550000Y-122955000D03*
D46*
%TO.P,J2,A5,CC1_A5*%
%TO.N,Net-(J2-CC1)*%
X133750000Y-122955000D03*
%TO.P,J2,A6,D+_A6*%
%TO.N,/GPIO 20*%
X134750000Y-122955000D03*
%TO.P,J2,A7,D-_A7*%
%TO.N,/GPIO 19*%
X135250000Y-122955000D03*
%TO.P,J2,A8,SBU1_A8*%
%TO.N,unconnected-(J2-SBU1-PadA8)*%
X136250000Y-122955000D03*
D45*
%TO.P,J2,A9,VBUS_A9*%
%TO.N,Net-(D2-A)*%
X137450000Y-122955000D03*
%TO.P,J2,A12,GND_A12*%
%TO.N,GND*%
X138250000Y-122955000D03*
%TO.P,J2,B1,GND_B1*%
X138250000Y-122955000D03*
%TO.P,J2,B4,VBUS_B4*%
%TO.N,Net-(D2-A)*%
X137450000Y-122955000D03*
D46*
%TO.P,J2,B5,CC2_B5*%
%TO.N,Net-(J2-CC2)*%
X136750000Y-122955000D03*
%TO.P,J2,B6,D+_B6*%
%TO.N,/GPIO 20*%
X135750000Y-122955000D03*
%TO.P,J2,B7,D-_B7*%
%TO.N,/GPIO 19*%
X134250000Y-122955000D03*
%TO.P,J2,B8,SBU2_B8*%
%TO.N,unconnected-(J2-SBU2-PadB8)*%
X133250000Y-122955000D03*
D45*
%TO.P,J2,B9,VBUS_B9*%
%TO.N,Net-(D2-A)*%
X132550000Y-122955000D03*
%TO.P,J2,B12,GND_B12*%
%TO.N,GND*%
X131750000Y-122955000D03*
D47*
%TO.P,J2,SH,SHIELD_SH*%
X130680000Y-123870000D03*
D48*
X130680000Y-128050000D03*
D47*
X139320000Y-123870000D03*
D48*
X139320000Y-128050000D03*
%TD*%
D25*
%TO.P,R4,1*%
%TO.N,Net-(U1-XC1)*%
X159675000Y-96000000D03*
%TO.P,R4,2*%
%TO.N,Net-(U1-XC2)*%
X161325000Y-96000000D03*
%TD*%
D28*
%TO.P,C20,1*%
%TO.N,/EN*%
X132500000Y-87525000D03*
%TO.P,C20,2*%
%TO.N,GND*%
X132500000Y-90475000D03*
%TD*%
D49*
%TO.P,Q3,1,D_1*%
%TO.N,/5V STABLE*%
X131500000Y-93925000D03*
%TO.P,Q3,2,G_2*%
%TO.N,/USB VBUS*%
X131500000Y-95825000D03*
%TO.P,Q3,3,S_3*%
%TO.N,/BAT*%
X133375000Y-94875000D03*
%TD*%
D50*
%TO.P,X1,1,1_1*%
%TO.N,Net-(U1-XC2)*%
X159400000Y-94000000D03*
%TO.P,X1,2,G_2*%
%TO.N,GND*%
X161600000Y-94000000D03*
%TO.P,X1,3,3_3*%
%TO.N,Net-(U1-XC1)*%
X161600000Y-92300000D03*
%TO.P,X1,4,G_4*%
%TO.N,GND*%
X159400000Y-92300000D03*
%TD*%
D51*
%TO.P,SW1,1,1_1*%
%TO.N,/EN*%
X132900000Y-108500000D03*
%TO.P,SW1,2,2_2*%
%TO.N,GND*%
X137100000Y-108500000D03*
%TD*%
D11*
%TO.P,R10,1*%
%TO.N,GND*%
X136500000Y-119175000D03*
%TO.P,R10,2*%
%TO.N,Net-(J2-CC2)*%
X136500000Y-120825000D03*
%TD*%
%TO.P,R6,1*%
%TO.N,Net-(U4-VBUS)*%
X147000000Y-111675000D03*
%TO.P,R6,2*%
%TO.N,GND*%
X147000000Y-113325000D03*
%TD*%
D24*
%TO.P,R13,1*%
%TO.N,/RTS*%
X146325000Y-118400000D03*
%TO.P,R13,2*%
%TO.N,Net-(Q1-B)*%
X144675000Y-118400000D03*
%TD*%
D18*
%TO.P,C4,1*%
%TO.N,/VDD_PA*%
X164000000Y-89500000D03*
%TO.P,C4,2*%
%TO.N,GND*%
X164000000Y-90460000D03*
%TD*%
D51*
%TO.P,SW2,1,1_1*%
%TO.N,GND*%
X153900000Y-108500000D03*
%TO.P,SW2,2,2_2*%
X158100000Y-108500000D03*
%TD*%
D52*
%TO.P,L1,1*%
%TO.N,Net-(U1-ANT1)*%
X163960000Y-87500000D03*
%TO.P,L1,2*%
%TO.N,Net-(U1-ANT2)*%
X163960000Y-88470000D03*
%TD*%
D25*
%TO.P,R17,1*%
%TO.N,/5V STABLE*%
X108675000Y-92100000D03*
%TO.P,R17,2*%
%TO.N,Net-(D5-A)*%
X110325000Y-92100000D03*
%TD*%
D53*
%TO.P,Q1,1,B_1*%
%TO.N,Net-(Q1-B)*%
X142500000Y-118350000D03*
%TO.P,Q1,2,E_2*%
%TO.N,/DTR*%
X142500000Y-116450000D03*
%TO.P,Q1,3,C_3*%
%TO.N,Net-(Q1-C)*%
X140625000Y-117400000D03*
%TD*%
D26*
%TO.P,C13,1*%
%TO.N,/EN*%
X134325000Y-111000000D03*
%TO.P,C13,2*%
%TO.N,GND*%
X135875000Y-111000000D03*
%TD*%
D35*
%TO.P,D4,1,K_1*%
%TO.N,GND*%
X160000000Y-109075000D03*
%TO.P,D4,2,A_2*%
%TO.N,Net-(D4-A)*%
X160000000Y-107500000D03*
%TD*%
D54*
%TO.P,J3,1,In_1*%
%TO.N,Net-(J3-In)*%
X179960000Y-89040000D03*
D55*
%TO.P,J3,2,Ext_2*%
%TO.N,GND*%
X177420000Y-86500000D03*
X177420000Y-91580000D03*
X182500000Y-86500000D03*
X182500000Y-91580000D03*
%TD*%
D56*
%TO.P,L3,1*%
%TO.N,Net-(C15-Pad1)*%
X165960000Y-88500000D03*
%TO.P,L3,2*%
%TO.N,Net-(U1-ANT2)*%
X164990000Y-88500000D03*
%TD*%
D18*
%TO.P,C5,1*%
%TO.N,/VDD_PA*%
X165000000Y-89520000D03*
%TO.P,C5,2*%
%TO.N,GND*%
X165000000Y-90480000D03*
%TD*%
D11*
%TO.P,R15,1*%
%TO.N,VDD*%
X160000000Y-104462500D03*
%TO.P,R15,2*%
%TO.N,Net-(D4-A)*%
X160000000Y-106112500D03*
%TD*%
D18*
%TO.P,C9,1*%
%TO.N,Net-(U1-XC2)*%
X162500000Y-95520000D03*
%TO.P,C9,2*%
%TO.N,GND*%
X162500000Y-96480000D03*
%TD*%
D30*
%TO.P,D6,1,K_1*%
%TO.N,Net-(D6-K)*%
X113287500Y-90600000D03*
%TO.P,D6,2,A_2*%
%TO.N,Net-(D6-A)*%
X111712500Y-90600000D03*
%TD*%
D57*
%TO.P,L2,1*%
%TO.N,Net-(U1-ANT1)*%
X164975000Y-87500000D03*
%TO.P,L2,2*%
%TO.N,/VDD_PA*%
X165945000Y-87500000D03*
%TD*%
D49*
%TO.P,Q2,1,B_1*%
%TO.N,Net-(Q2-B)*%
X148625000Y-116500000D03*
%TO.P,Q2,2,E_2*%
%TO.N,/RTS*%
X148625000Y-118400000D03*
%TO.P,Q2,3,C_3*%
%TO.N,Net-(Q2-C)*%
X150500000Y-117450000D03*
%TD*%
D58*
%TO.P,C1,1*%
%TO.N,Net-(U1-DVDD)*%
X160000000Y-85460000D03*
%TO.P,C1,2*%
%TO.N,GND*%
X160000000Y-84500000D03*
%TD*%
D41*
%TO.P,U2,B1A,SEL+_B1A*%
%TO.N,GND*%
X171325000Y-97800000D03*
%TO.P,U2,B1B*%
X177675000Y-97800000D03*
%TO.P,U2,B2A,SEL-_B2A*%
%TO.N,/BD*%
X171325000Y-102880000D03*
%TO.P,U2,B2B*%
X177675000Y-102880000D03*
%TO.P,U2,H1,H+_H1*%
%TO.N,VDD*%
X171960000Y-120660000D03*
%TO.P,U2,H2,H_H2*%
%TO.N,/DX*%
X174500000Y-120660000D03*
%TO.P,U2,H3,H-_H3*%
%TO.N,GND*%
X177040000Y-120660000D03*
D42*
%TO.P,U2,S1,SHIELD_S1*%
X166880000Y-103832500D03*
%TO.P,U2,S2,SHIELD_S2*%
X166880000Y-117167500D03*
%TO.P,U2,S3,SHIELD_S3*%
X182120000Y-117167500D03*
%TO.P,U2,S4,SHIELD_S4*%
X182120000Y-103832500D03*
D41*
%TO.P,U2,V1,V+_V1*%
%TO.N,VDD*%
X164340000Y-107960000D03*
%TO.P,U2,V2,V_V2*%
%TO.N,/DY*%
X164340000Y-110500000D03*
%TO.P,U2,V3,V-_V3*%
%TO.N,GND*%
X164340000Y-113040000D03*
%TD*%
D13*
%TO.P,C12,1*%
%TO.N,VDD*%
X142275000Y-108500000D03*
%TO.P,C12,2*%
%TO.N,GND*%
X140725000Y-108500000D03*
%TD*%
D45*
%TO.P,J1,A1,GND_A1*%
%TO.N,GND*%
X152250000Y-122955000D03*
%TO.P,J1,A4,VBUS_A4*%
%TO.N,Net-(D1-A)*%
X153050000Y-122955000D03*
D46*
%TO.P,J1,A5,CC1_A5*%
%TO.N,Net-(J1-CC1)*%
X154250000Y-122955000D03*
%TO.P,J1,A6,D+_A6*%
%TO.N,/DATA+*%
X155250000Y-122955000D03*
%TO.P,J1,A7,D-_A7*%
%TO.N,/DATA-*%
X155750000Y-122955000D03*
%TO.P,J1,A8,SBU1_A8*%
%TO.N,unconnected-(J1-SBU1-PadA8)*%
X156750000Y-122955000D03*
D45*
%TO.P,J1,A9,VBUS_A9*%
%TO.N,Net-(D1-A)*%
X157950000Y-122955000D03*
%TO.P,J1,A12,GND_A12*%
%TO.N,GND*%
X158750000Y-122955000D03*
%TO.P,J1,B1,GND_B1*%
X158750000Y-122955000D03*
%TO.P,J1,B4,VBUS_B4*%
%TO.N,Net-(D1-A)*%
X157950000Y-122955000D03*
D46*
%TO.P,J1,B5,CC2_B5*%
%TO.N,Net-(J1-CC2)*%
X157250000Y-122955000D03*
%TO.P,J1,B6,D+_B6*%
%TO.N,/DATA+*%
X156250000Y-122955000D03*
%TO.P,J1,B7,D-_B7*%
%TO.N,/DATA-*%
X154750000Y-122955000D03*
%TO.P,J1,B8,SBU2_B8*%
%TO.N,unconnected-(J1-SBU2-PadB8)*%
X153750000Y-122955000D03*
D45*
%TO.P,J1,B9,VBUS_B9*%
%TO.N,Net-(D1-A)*%
X153050000Y-122955000D03*
%TO.P,J1,B12,GND_B12*%
%TO.N,GND*%
X152250000Y-122955000D03*
D47*
%TO.P,J1,SH,SHIELD_SH*%
X151180000Y-123870000D03*
D48*
X151180000Y-128050000D03*
D47*
X159820000Y-123870000D03*
D48*
X159820000Y-128050000D03*
%TD*%
D24*
%TO.P,R12,1*%
%TO.N,Net-(Q1-C)*%
X138500000Y-117400000D03*
%TO.P,R12,2*%
%TO.N,GND*%
X136850000Y-117400000D03*
%TD*%
D10*
%TO.P,R1,1*%
%TO.N,Net-(U1-IREF)*%
X161500000Y-85150000D03*
%TO.P,R1,2*%
%TO.N,GND*%
X161500000Y-83500000D03*
%TD*%
M02*
