%TF.GenerationSoftware,KiCad,Pcbnew,10.0.4*%
%TF.CreationDate,2026-07-23T14:40:07-04:00*%
%TF.ProjectId,swervecontrollerPCBv1,73776572-7665-4636-9f6e-74726f6c6c65,rev?*%
%TF.SameCoordinates,Original*%
%TF.FileFunction,Legend,Top*%
%TF.FilePolarity,Positive*%
%FSLAX46Y46*%
G04 Gerber Fmt 4.6, Leading zero omitted, Abs format (unit mm)*
G04 Created by KiCad (PCBNEW 10.0.4) date 2026-07-23 14:40:07*
%MOMM*%
%LPD*%
G01*
G04 APERTURE LIST*
%ADD10C,0.150000*%
%ADD11C,0.120000*%
%ADD12C,0.127000*%
%ADD13C,0.200000*%
G04 APERTURE END LIST*
D10*
X144524819Y-112666666D02*
X144048628Y-112999999D01*
X144524819Y-113238094D02*
X143524819Y-113238094D01*
X143524819Y-113238094D02*
X143524819Y-112857142D01*
X143524819Y-112857142D02*
X143572438Y-112761904D01*
X143572438Y-112761904D02*
X143620057Y-112714285D01*
X143620057Y-112714285D02*
X143715295Y-112666666D01*
X143715295Y-112666666D02*
X143858152Y-112666666D01*
X143858152Y-112666666D02*
X143953390Y-112714285D01*
X143953390Y-112714285D02*
X144001009Y-112761904D01*
X144001009Y-112761904D02*
X144048628Y-112857142D01*
X144048628Y-112857142D02*
X144048628Y-113238094D01*
X143524819Y-111761904D02*
X143524819Y-112238094D01*
X143524819Y-112238094D02*
X144001009Y-112285713D01*
X144001009Y-112285713D02*
X143953390Y-112238094D01*
X143953390Y-112238094D02*
X143905771Y-112142856D01*
X143905771Y-112142856D02*
X143905771Y-111904761D01*
X143905771Y-111904761D02*
X143953390Y-111809523D01*
X143953390Y-111809523D02*
X144001009Y-111761904D01*
X144001009Y-111761904D02*
X144096247Y-111714285D01*
X144096247Y-111714285D02*
X144334342Y-111714285D01*
X144334342Y-111714285D02*
X144429580Y-111761904D01*
X144429580Y-111761904D02*
X144477200Y-111809523D01*
X144477200Y-111809523D02*
X144524819Y-111904761D01*
X144524819Y-111904761D02*
X144524819Y-112142856D01*
X144524819Y-112142856D02*
X144477200Y-112238094D01*
X144477200Y-112238094D02*
X144429580Y-112285713D01*
X172884819Y-91991666D02*
X172408628Y-92324999D01*
X172884819Y-92563094D02*
X171884819Y-92563094D01*
X171884819Y-92563094D02*
X171884819Y-92182142D01*
X171884819Y-92182142D02*
X171932438Y-92086904D01*
X171932438Y-92086904D02*
X171980057Y-92039285D01*
X171980057Y-92039285D02*
X172075295Y-91991666D01*
X172075295Y-91991666D02*
X172218152Y-91991666D01*
X172218152Y-91991666D02*
X172313390Y-92039285D01*
X172313390Y-92039285D02*
X172361009Y-92086904D01*
X172361009Y-92086904D02*
X172408628Y-92182142D01*
X172408628Y-92182142D02*
X172408628Y-92563094D01*
X171884819Y-91658332D02*
X171884819Y-90991666D01*
X171884819Y-90991666D02*
X172884819Y-91420237D01*
X141357142Y-111509580D02*
X141309523Y-111557200D01*
X141309523Y-111557200D02*
X141166666Y-111604819D01*
X141166666Y-111604819D02*
X141071428Y-111604819D01*
X141071428Y-111604819D02*
X140928571Y-111557200D01*
X140928571Y-111557200D02*
X140833333Y-111461961D01*
X140833333Y-111461961D02*
X140785714Y-111366723D01*
X140785714Y-111366723D02*
X140738095Y-111176247D01*
X140738095Y-111176247D02*
X140738095Y-111033390D01*
X140738095Y-111033390D02*
X140785714Y-110842914D01*
X140785714Y-110842914D02*
X140833333Y-110747676D01*
X140833333Y-110747676D02*
X140928571Y-110652438D01*
X140928571Y-110652438D02*
X141071428Y-110604819D01*
X141071428Y-110604819D02*
X141166666Y-110604819D01*
X141166666Y-110604819D02*
X141309523Y-110652438D01*
X141309523Y-110652438D02*
X141357142Y-110700057D01*
X142309523Y-111604819D02*
X141738095Y-111604819D01*
X142023809Y-111604819D02*
X142023809Y-110604819D01*
X142023809Y-110604819D02*
X141928571Y-110747676D01*
X141928571Y-110747676D02*
X141833333Y-110842914D01*
X141833333Y-110842914D02*
X141738095Y-110890533D01*
X142928571Y-110604819D02*
X143023809Y-110604819D01*
X143023809Y-110604819D02*
X143119047Y-110652438D01*
X143119047Y-110652438D02*
X143166666Y-110700057D01*
X143166666Y-110700057D02*
X143214285Y-110795295D01*
X143214285Y-110795295D02*
X143261904Y-110985771D01*
X143261904Y-110985771D02*
X143261904Y-111223866D01*
X143261904Y-111223866D02*
X143214285Y-111414342D01*
X143214285Y-111414342D02*
X143166666Y-111509580D01*
X143166666Y-111509580D02*
X143119047Y-111557200D01*
X143119047Y-111557200D02*
X143023809Y-111604819D01*
X143023809Y-111604819D02*
X142928571Y-111604819D01*
X142928571Y-111604819D02*
X142833333Y-111557200D01*
X142833333Y-111557200D02*
X142785714Y-111509580D01*
X142785714Y-111509580D02*
X142738095Y-111414342D01*
X142738095Y-111414342D02*
X142690476Y-111223866D01*
X142690476Y-111223866D02*
X142690476Y-110985771D01*
X142690476Y-110985771D02*
X142738095Y-110795295D01*
X142738095Y-110795295D02*
X142785714Y-110700057D01*
X142785714Y-110700057D02*
X142833333Y-110652438D01*
X142833333Y-110652438D02*
X142928571Y-110604819D01*
X131857142Y-87289580D02*
X131809523Y-87337200D01*
X131809523Y-87337200D02*
X131666666Y-87384819D01*
X131666666Y-87384819D02*
X131571428Y-87384819D01*
X131571428Y-87384819D02*
X131428571Y-87337200D01*
X131428571Y-87337200D02*
X131333333Y-87241961D01*
X131333333Y-87241961D02*
X131285714Y-87146723D01*
X131285714Y-87146723D02*
X131238095Y-86956247D01*
X131238095Y-86956247D02*
X131238095Y-86813390D01*
X131238095Y-86813390D02*
X131285714Y-86622914D01*
X131285714Y-86622914D02*
X131333333Y-86527676D01*
X131333333Y-86527676D02*
X131428571Y-86432438D01*
X131428571Y-86432438D02*
X131571428Y-86384819D01*
X131571428Y-86384819D02*
X131666666Y-86384819D01*
X131666666Y-86384819D02*
X131809523Y-86432438D01*
X131809523Y-86432438D02*
X131857142Y-86480057D01*
X132809523Y-87384819D02*
X132238095Y-87384819D01*
X132523809Y-87384819D02*
X132523809Y-86384819D01*
X132523809Y-86384819D02*
X132428571Y-86527676D01*
X132428571Y-86527676D02*
X132333333Y-86622914D01*
X132333333Y-86622914D02*
X132238095Y-86670533D01*
X133380952Y-86813390D02*
X133285714Y-86765771D01*
X133285714Y-86765771D02*
X133238095Y-86718152D01*
X133238095Y-86718152D02*
X133190476Y-86622914D01*
X133190476Y-86622914D02*
X133190476Y-86575295D01*
X133190476Y-86575295D02*
X133238095Y-86480057D01*
X133238095Y-86480057D02*
X133285714Y-86432438D01*
X133285714Y-86432438D02*
X133380952Y-86384819D01*
X133380952Y-86384819D02*
X133571428Y-86384819D01*
X133571428Y-86384819D02*
X133666666Y-86432438D01*
X133666666Y-86432438D02*
X133714285Y-86480057D01*
X133714285Y-86480057D02*
X133761904Y-86575295D01*
X133761904Y-86575295D02*
X133761904Y-86622914D01*
X133761904Y-86622914D02*
X133714285Y-86718152D01*
X133714285Y-86718152D02*
X133666666Y-86765771D01*
X133666666Y-86765771D02*
X133571428Y-86813390D01*
X133571428Y-86813390D02*
X133380952Y-86813390D01*
X133380952Y-86813390D02*
X133285714Y-86861009D01*
X133285714Y-86861009D02*
X133238095Y-86908628D01*
X133238095Y-86908628D02*
X133190476Y-87003866D01*
X133190476Y-87003866D02*
X133190476Y-87194342D01*
X133190476Y-87194342D02*
X133238095Y-87289580D01*
X133238095Y-87289580D02*
X133285714Y-87337200D01*
X133285714Y-87337200D02*
X133380952Y-87384819D01*
X133380952Y-87384819D02*
X133571428Y-87384819D01*
X133571428Y-87384819D02*
X133666666Y-87337200D01*
X133666666Y-87337200D02*
X133714285Y-87289580D01*
X133714285Y-87289580D02*
X133761904Y-87194342D01*
X133761904Y-87194342D02*
X133761904Y-87003866D01*
X133761904Y-87003866D02*
X133714285Y-86908628D01*
X133714285Y-86908628D02*
X133666666Y-86861009D01*
X133666666Y-86861009D02*
X133571428Y-86813390D01*
X116938095Y-94054819D02*
X116938095Y-94864342D01*
X116938095Y-94864342D02*
X116985714Y-94959580D01*
X116985714Y-94959580D02*
X117033333Y-95007200D01*
X117033333Y-95007200D02*
X117128571Y-95054819D01*
X117128571Y-95054819D02*
X117319047Y-95054819D01*
X117319047Y-95054819D02*
X117414285Y-95007200D01*
X117414285Y-95007200D02*
X117461904Y-94959580D01*
X117461904Y-94959580D02*
X117509523Y-94864342D01*
X117509523Y-94864342D02*
X117509523Y-94054819D01*
X118414285Y-94054819D02*
X118223809Y-94054819D01*
X118223809Y-94054819D02*
X118128571Y-94102438D01*
X118128571Y-94102438D02*
X118080952Y-94150057D01*
X118080952Y-94150057D02*
X117985714Y-94292914D01*
X117985714Y-94292914D02*
X117938095Y-94483390D01*
X117938095Y-94483390D02*
X117938095Y-94864342D01*
X117938095Y-94864342D02*
X117985714Y-94959580D01*
X117985714Y-94959580D02*
X118033333Y-95007200D01*
X118033333Y-95007200D02*
X118128571Y-95054819D01*
X118128571Y-95054819D02*
X118319047Y-95054819D01*
X118319047Y-95054819D02*
X118414285Y-95007200D01*
X118414285Y-95007200D02*
X118461904Y-94959580D01*
X118461904Y-94959580D02*
X118509523Y-94864342D01*
X118509523Y-94864342D02*
X118509523Y-94626247D01*
X118509523Y-94626247D02*
X118461904Y-94531009D01*
X118461904Y-94531009D02*
X118414285Y-94483390D01*
X118414285Y-94483390D02*
X118319047Y-94435771D01*
X118319047Y-94435771D02*
X118128571Y-94435771D01*
X118128571Y-94435771D02*
X118033333Y-94483390D01*
X118033333Y-94483390D02*
X117985714Y-94531009D01*
X117985714Y-94531009D02*
X117938095Y-94626247D01*
X156853333Y-85519580D02*
X156805714Y-85567200D01*
X156805714Y-85567200D02*
X156662857Y-85614819D01*
X156662857Y-85614819D02*
X156567619Y-85614819D01*
X156567619Y-85614819D02*
X156424762Y-85567200D01*
X156424762Y-85567200D02*
X156329524Y-85471961D01*
X156329524Y-85471961D02*
X156281905Y-85376723D01*
X156281905Y-85376723D02*
X156234286Y-85186247D01*
X156234286Y-85186247D02*
X156234286Y-85043390D01*
X156234286Y-85043390D02*
X156281905Y-84852914D01*
X156281905Y-84852914D02*
X156329524Y-84757676D01*
X156329524Y-84757676D02*
X156424762Y-84662438D01*
X156424762Y-84662438D02*
X156567619Y-84614819D01*
X156567619Y-84614819D02*
X156662857Y-84614819D01*
X156662857Y-84614819D02*
X156805714Y-84662438D01*
X156805714Y-84662438D02*
X156853333Y-84710057D01*
X157234286Y-84710057D02*
X157281905Y-84662438D01*
X157281905Y-84662438D02*
X157377143Y-84614819D01*
X157377143Y-84614819D02*
X157615238Y-84614819D01*
X157615238Y-84614819D02*
X157710476Y-84662438D01*
X157710476Y-84662438D02*
X157758095Y-84710057D01*
X157758095Y-84710057D02*
X157805714Y-84805295D01*
X157805714Y-84805295D02*
X157805714Y-84900533D01*
X157805714Y-84900533D02*
X157758095Y-85043390D01*
X157758095Y-85043390D02*
X157186667Y-85614819D01*
X157186667Y-85614819D02*
X157805714Y-85614819D01*
X169519580Y-90622857D02*
X169567200Y-90670476D01*
X169567200Y-90670476D02*
X169614819Y-90813333D01*
X169614819Y-90813333D02*
X169614819Y-90908571D01*
X169614819Y-90908571D02*
X169567200Y-91051428D01*
X169567200Y-91051428D02*
X169471961Y-91146666D01*
X169471961Y-91146666D02*
X169376723Y-91194285D01*
X169376723Y-91194285D02*
X169186247Y-91241904D01*
X169186247Y-91241904D02*
X169043390Y-91241904D01*
X169043390Y-91241904D02*
X168852914Y-91194285D01*
X168852914Y-91194285D02*
X168757676Y-91146666D01*
X168757676Y-91146666D02*
X168662438Y-91051428D01*
X168662438Y-91051428D02*
X168614819Y-90908571D01*
X168614819Y-90908571D02*
X168614819Y-90813333D01*
X168614819Y-90813333D02*
X168662438Y-90670476D01*
X168662438Y-90670476D02*
X168710057Y-90622857D01*
X169614819Y-89670476D02*
X169614819Y-90241904D01*
X169614819Y-89956190D02*
X168614819Y-89956190D01*
X168614819Y-89956190D02*
X168757676Y-90051428D01*
X168757676Y-90051428D02*
X168852914Y-90146666D01*
X168852914Y-90146666D02*
X168900533Y-90241904D01*
X168614819Y-88813333D02*
X168614819Y-89003809D01*
X168614819Y-89003809D02*
X168662438Y-89099047D01*
X168662438Y-89099047D02*
X168710057Y-89146666D01*
X168710057Y-89146666D02*
X168852914Y-89241904D01*
X168852914Y-89241904D02*
X169043390Y-89289523D01*
X169043390Y-89289523D02*
X169424342Y-89289523D01*
X169424342Y-89289523D02*
X169519580Y-89241904D01*
X169519580Y-89241904D02*
X169567200Y-89194285D01*
X169567200Y-89194285D02*
X169614819Y-89099047D01*
X169614819Y-89099047D02*
X169614819Y-88908571D01*
X169614819Y-88908571D02*
X169567200Y-88813333D01*
X169567200Y-88813333D02*
X169519580Y-88765714D01*
X169519580Y-88765714D02*
X169424342Y-88718095D01*
X169424342Y-88718095D02*
X169186247Y-88718095D01*
X169186247Y-88718095D02*
X169091009Y-88765714D01*
X169091009Y-88765714D02*
X169043390Y-88813333D01*
X169043390Y-88813333D02*
X168995771Y-88908571D01*
X168995771Y-88908571D02*
X168995771Y-89099047D01*
X168995771Y-89099047D02*
X169043390Y-89194285D01*
X169043390Y-89194285D02*
X169091009Y-89241904D01*
X169091009Y-89241904D02*
X169186247Y-89289523D01*
X131384819Y-97467857D02*
X130908628Y-97801190D01*
X131384819Y-98039285D02*
X130384819Y-98039285D01*
X130384819Y-98039285D02*
X130384819Y-97658333D01*
X130384819Y-97658333D02*
X130432438Y-97563095D01*
X130432438Y-97563095D02*
X130480057Y-97515476D01*
X130480057Y-97515476D02*
X130575295Y-97467857D01*
X130575295Y-97467857D02*
X130718152Y-97467857D01*
X130718152Y-97467857D02*
X130813390Y-97515476D01*
X130813390Y-97515476D02*
X130861009Y-97563095D01*
X130861009Y-97563095D02*
X130908628Y-97658333D01*
X130908628Y-97658333D02*
X130908628Y-98039285D01*
X130480057Y-97086904D02*
X130432438Y-97039285D01*
X130432438Y-97039285D02*
X130384819Y-96944047D01*
X130384819Y-96944047D02*
X130384819Y-96705952D01*
X130384819Y-96705952D02*
X130432438Y-96610714D01*
X130432438Y-96610714D02*
X130480057Y-96563095D01*
X130480057Y-96563095D02*
X130575295Y-96515476D01*
X130575295Y-96515476D02*
X130670533Y-96515476D01*
X130670533Y-96515476D02*
X130813390Y-96563095D01*
X130813390Y-96563095D02*
X131384819Y-97134523D01*
X131384819Y-97134523D02*
X131384819Y-96515476D01*
X131384819Y-95563095D02*
X131384819Y-96134523D01*
X131384819Y-95848809D02*
X130384819Y-95848809D01*
X130384819Y-95848809D02*
X130527676Y-95944047D01*
X130527676Y-95944047D02*
X130622914Y-96039285D01*
X130622914Y-96039285D02*
X130670533Y-96134523D01*
X170833095Y-84464819D02*
X170833095Y-85274342D01*
X170833095Y-85274342D02*
X170880714Y-85369580D01*
X170880714Y-85369580D02*
X170928333Y-85417200D01*
X170928333Y-85417200D02*
X171023571Y-85464819D01*
X171023571Y-85464819D02*
X171214047Y-85464819D01*
X171214047Y-85464819D02*
X171309285Y-85417200D01*
X171309285Y-85417200D02*
X171356904Y-85369580D01*
X171356904Y-85369580D02*
X171404523Y-85274342D01*
X171404523Y-85274342D02*
X171404523Y-84464819D01*
X172356904Y-84464819D02*
X171880714Y-84464819D01*
X171880714Y-84464819D02*
X171833095Y-84941009D01*
X171833095Y-84941009D02*
X171880714Y-84893390D01*
X171880714Y-84893390D02*
X171975952Y-84845771D01*
X171975952Y-84845771D02*
X172214047Y-84845771D01*
X172214047Y-84845771D02*
X172309285Y-84893390D01*
X172309285Y-84893390D02*
X172356904Y-84941009D01*
X172356904Y-84941009D02*
X172404523Y-85036247D01*
X172404523Y-85036247D02*
X172404523Y-85274342D01*
X172404523Y-85274342D02*
X172356904Y-85369580D01*
X172356904Y-85369580D02*
X172309285Y-85417200D01*
X172309285Y-85417200D02*
X172214047Y-85464819D01*
X172214047Y-85464819D02*
X171975952Y-85464819D01*
X171975952Y-85464819D02*
X171880714Y-85417200D01*
X171880714Y-85417200D02*
X171833095Y-85369580D01*
X156853333Y-86519580D02*
X156805714Y-86567200D01*
X156805714Y-86567200D02*
X156662857Y-86614819D01*
X156662857Y-86614819D02*
X156567619Y-86614819D01*
X156567619Y-86614819D02*
X156424762Y-86567200D01*
X156424762Y-86567200D02*
X156329524Y-86471961D01*
X156329524Y-86471961D02*
X156281905Y-86376723D01*
X156281905Y-86376723D02*
X156234286Y-86186247D01*
X156234286Y-86186247D02*
X156234286Y-86043390D01*
X156234286Y-86043390D02*
X156281905Y-85852914D01*
X156281905Y-85852914D02*
X156329524Y-85757676D01*
X156329524Y-85757676D02*
X156424762Y-85662438D01*
X156424762Y-85662438D02*
X156567619Y-85614819D01*
X156567619Y-85614819D02*
X156662857Y-85614819D01*
X156662857Y-85614819D02*
X156805714Y-85662438D01*
X156805714Y-85662438D02*
X156853333Y-85710057D01*
X157186667Y-85614819D02*
X157805714Y-85614819D01*
X157805714Y-85614819D02*
X157472381Y-85995771D01*
X157472381Y-85995771D02*
X157615238Y-85995771D01*
X157615238Y-85995771D02*
X157710476Y-86043390D01*
X157710476Y-86043390D02*
X157758095Y-86091009D01*
X157758095Y-86091009D02*
X157805714Y-86186247D01*
X157805714Y-86186247D02*
X157805714Y-86424342D01*
X157805714Y-86424342D02*
X157758095Y-86519580D01*
X157758095Y-86519580D02*
X157710476Y-86567200D01*
X157710476Y-86567200D02*
X157615238Y-86614819D01*
X157615238Y-86614819D02*
X157329524Y-86614819D01*
X157329524Y-86614819D02*
X157234286Y-86567200D01*
X157234286Y-86567200D02*
X157186667Y-86519580D01*
X127875595Y-92804819D02*
X127875595Y-93614342D01*
X127875595Y-93614342D02*
X127923214Y-93709580D01*
X127923214Y-93709580D02*
X127970833Y-93757200D01*
X127970833Y-93757200D02*
X128066071Y-93804819D01*
X128066071Y-93804819D02*
X128256547Y-93804819D01*
X128256547Y-93804819D02*
X128351785Y-93757200D01*
X128351785Y-93757200D02*
X128399404Y-93709580D01*
X128399404Y-93709580D02*
X128447023Y-93614342D01*
X128447023Y-93614342D02*
X128447023Y-92804819D01*
X128827976Y-92804819D02*
X129494642Y-92804819D01*
X129494642Y-92804819D02*
X129066071Y-93804819D01*
X127261905Y-96279819D02*
X127261905Y-95279819D01*
X127261905Y-95279819D02*
X127500000Y-95279819D01*
X127500000Y-95279819D02*
X127642857Y-95327438D01*
X127642857Y-95327438D02*
X127738095Y-95422676D01*
X127738095Y-95422676D02*
X127785714Y-95517914D01*
X127785714Y-95517914D02*
X127833333Y-95708390D01*
X127833333Y-95708390D02*
X127833333Y-95851247D01*
X127833333Y-95851247D02*
X127785714Y-96041723D01*
X127785714Y-96041723D02*
X127738095Y-96136961D01*
X127738095Y-96136961D02*
X127642857Y-96232200D01*
X127642857Y-96232200D02*
X127500000Y-96279819D01*
X127500000Y-96279819D02*
X127261905Y-96279819D01*
X128166667Y-95279819D02*
X128833333Y-95279819D01*
X128833333Y-95279819D02*
X128404762Y-96279819D01*
X152857142Y-119384819D02*
X152523809Y-118908628D01*
X152285714Y-119384819D02*
X152285714Y-118384819D01*
X152285714Y-118384819D02*
X152666666Y-118384819D01*
X152666666Y-118384819D02*
X152761904Y-118432438D01*
X152761904Y-118432438D02*
X152809523Y-118480057D01*
X152809523Y-118480057D02*
X152857142Y-118575295D01*
X152857142Y-118575295D02*
X152857142Y-118718152D01*
X152857142Y-118718152D02*
X152809523Y-118813390D01*
X152809523Y-118813390D02*
X152761904Y-118861009D01*
X152761904Y-118861009D02*
X152666666Y-118908628D01*
X152666666Y-118908628D02*
X152285714Y-118908628D01*
X153809523Y-119384819D02*
X153238095Y-119384819D01*
X153523809Y-119384819D02*
X153523809Y-118384819D01*
X153523809Y-118384819D02*
X153428571Y-118527676D01*
X153428571Y-118527676D02*
X153333333Y-118622914D01*
X153333333Y-118622914D02*
X153238095Y-118670533D01*
X154285714Y-119384819D02*
X154476190Y-119384819D01*
X154476190Y-119384819D02*
X154571428Y-119337200D01*
X154571428Y-119337200D02*
X154619047Y-119289580D01*
X154619047Y-119289580D02*
X154714285Y-119146723D01*
X154714285Y-119146723D02*
X154761904Y-118956247D01*
X154761904Y-118956247D02*
X154761904Y-118575295D01*
X154761904Y-118575295D02*
X154714285Y-118480057D01*
X154714285Y-118480057D02*
X154666666Y-118432438D01*
X154666666Y-118432438D02*
X154571428Y-118384819D01*
X154571428Y-118384819D02*
X154380952Y-118384819D01*
X154380952Y-118384819D02*
X154285714Y-118432438D01*
X154285714Y-118432438D02*
X154238095Y-118480057D01*
X154238095Y-118480057D02*
X154190476Y-118575295D01*
X154190476Y-118575295D02*
X154190476Y-118813390D01*
X154190476Y-118813390D02*
X154238095Y-118908628D01*
X154238095Y-118908628D02*
X154285714Y-118956247D01*
X154285714Y-118956247D02*
X154380952Y-119003866D01*
X154380952Y-119003866D02*
X154571428Y-119003866D01*
X154571428Y-119003866D02*
X154666666Y-118956247D01*
X154666666Y-118956247D02*
X154714285Y-118908628D01*
X154714285Y-118908628D02*
X154761904Y-118813390D01*
X144857142Y-115524819D02*
X144523809Y-115048628D01*
X144285714Y-115524819D02*
X144285714Y-114524819D01*
X144285714Y-114524819D02*
X144666666Y-114524819D01*
X144666666Y-114524819D02*
X144761904Y-114572438D01*
X144761904Y-114572438D02*
X144809523Y-114620057D01*
X144809523Y-114620057D02*
X144857142Y-114715295D01*
X144857142Y-114715295D02*
X144857142Y-114858152D01*
X144857142Y-114858152D02*
X144809523Y-114953390D01*
X144809523Y-114953390D02*
X144761904Y-115001009D01*
X144761904Y-115001009D02*
X144666666Y-115048628D01*
X144666666Y-115048628D02*
X144285714Y-115048628D01*
X145809523Y-115524819D02*
X145238095Y-115524819D01*
X145523809Y-115524819D02*
X145523809Y-114524819D01*
X145523809Y-114524819D02*
X145428571Y-114667676D01*
X145428571Y-114667676D02*
X145333333Y-114762914D01*
X145333333Y-114762914D02*
X145238095Y-114810533D01*
X146666666Y-114524819D02*
X146476190Y-114524819D01*
X146476190Y-114524819D02*
X146380952Y-114572438D01*
X146380952Y-114572438D02*
X146333333Y-114620057D01*
X146333333Y-114620057D02*
X146238095Y-114762914D01*
X146238095Y-114762914D02*
X146190476Y-114953390D01*
X146190476Y-114953390D02*
X146190476Y-115334342D01*
X146190476Y-115334342D02*
X146238095Y-115429580D01*
X146238095Y-115429580D02*
X146285714Y-115477200D01*
X146285714Y-115477200D02*
X146380952Y-115524819D01*
X146380952Y-115524819D02*
X146571428Y-115524819D01*
X146571428Y-115524819D02*
X146666666Y-115477200D01*
X146666666Y-115477200D02*
X146714285Y-115429580D01*
X146714285Y-115429580D02*
X146761904Y-115334342D01*
X146761904Y-115334342D02*
X146761904Y-115096247D01*
X146761904Y-115096247D02*
X146714285Y-115001009D01*
X146714285Y-115001009D02*
X146666666Y-114953390D01*
X146666666Y-114953390D02*
X146571428Y-114905771D01*
X146571428Y-114905771D02*
X146380952Y-114905771D01*
X146380952Y-114905771D02*
X146285714Y-114953390D01*
X146285714Y-114953390D02*
X146238095Y-115001009D01*
X146238095Y-115001009D02*
X146190476Y-115096247D01*
X141357142Y-109929580D02*
X141309523Y-109977200D01*
X141309523Y-109977200D02*
X141166666Y-110024819D01*
X141166666Y-110024819D02*
X141071428Y-110024819D01*
X141071428Y-110024819D02*
X140928571Y-109977200D01*
X140928571Y-109977200D02*
X140833333Y-109881961D01*
X140833333Y-109881961D02*
X140785714Y-109786723D01*
X140785714Y-109786723D02*
X140738095Y-109596247D01*
X140738095Y-109596247D02*
X140738095Y-109453390D01*
X140738095Y-109453390D02*
X140785714Y-109262914D01*
X140785714Y-109262914D02*
X140833333Y-109167676D01*
X140833333Y-109167676D02*
X140928571Y-109072438D01*
X140928571Y-109072438D02*
X141071428Y-109024819D01*
X141071428Y-109024819D02*
X141166666Y-109024819D01*
X141166666Y-109024819D02*
X141309523Y-109072438D01*
X141309523Y-109072438D02*
X141357142Y-109120057D01*
X142309523Y-110024819D02*
X141738095Y-110024819D01*
X142023809Y-110024819D02*
X142023809Y-109024819D01*
X142023809Y-109024819D02*
X141928571Y-109167676D01*
X141928571Y-109167676D02*
X141833333Y-109262914D01*
X141833333Y-109262914D02*
X141738095Y-109310533D01*
X143261904Y-110024819D02*
X142690476Y-110024819D01*
X142976190Y-110024819D02*
X142976190Y-109024819D01*
X142976190Y-109024819D02*
X142880952Y-109167676D01*
X142880952Y-109167676D02*
X142785714Y-109262914D01*
X142785714Y-109262914D02*
X142690476Y-109310533D01*
X160954819Y-119888094D02*
X159954819Y-119888094D01*
X159954819Y-119888094D02*
X159954819Y-119649999D01*
X159954819Y-119649999D02*
X160002438Y-119507142D01*
X160002438Y-119507142D02*
X160097676Y-119411904D01*
X160097676Y-119411904D02*
X160192914Y-119364285D01*
X160192914Y-119364285D02*
X160383390Y-119316666D01*
X160383390Y-119316666D02*
X160526247Y-119316666D01*
X160526247Y-119316666D02*
X160716723Y-119364285D01*
X160716723Y-119364285D02*
X160811961Y-119411904D01*
X160811961Y-119411904D02*
X160907200Y-119507142D01*
X160907200Y-119507142D02*
X160954819Y-119649999D01*
X160954819Y-119649999D02*
X160954819Y-119888094D01*
X160954819Y-118364285D02*
X160954819Y-118935713D01*
X160954819Y-118649999D02*
X159954819Y-118649999D01*
X159954819Y-118649999D02*
X160097676Y-118745237D01*
X160097676Y-118745237D02*
X160192914Y-118840475D01*
X160192914Y-118840475D02*
X160240533Y-118935713D01*
X147524819Y-112666666D02*
X147048628Y-112999999D01*
X147524819Y-113238094D02*
X146524819Y-113238094D01*
X146524819Y-113238094D02*
X146524819Y-112857142D01*
X146524819Y-112857142D02*
X146572438Y-112761904D01*
X146572438Y-112761904D02*
X146620057Y-112714285D01*
X146620057Y-112714285D02*
X146715295Y-112666666D01*
X146715295Y-112666666D02*
X146858152Y-112666666D01*
X146858152Y-112666666D02*
X146953390Y-112714285D01*
X146953390Y-112714285D02*
X147001009Y-112761904D01*
X147001009Y-112761904D02*
X147048628Y-112857142D01*
X147048628Y-112857142D02*
X147048628Y-113238094D01*
X146953390Y-112095237D02*
X146905771Y-112190475D01*
X146905771Y-112190475D02*
X146858152Y-112238094D01*
X146858152Y-112238094D02*
X146762914Y-112285713D01*
X146762914Y-112285713D02*
X146715295Y-112285713D01*
X146715295Y-112285713D02*
X146620057Y-112238094D01*
X146620057Y-112238094D02*
X146572438Y-112190475D01*
X146572438Y-112190475D02*
X146524819Y-112095237D01*
X146524819Y-112095237D02*
X146524819Y-111904761D01*
X146524819Y-111904761D02*
X146572438Y-111809523D01*
X146572438Y-111809523D02*
X146620057Y-111761904D01*
X146620057Y-111761904D02*
X146715295Y-111714285D01*
X146715295Y-111714285D02*
X146762914Y-111714285D01*
X146762914Y-111714285D02*
X146858152Y-111761904D01*
X146858152Y-111761904D02*
X146905771Y-111809523D01*
X146905771Y-111809523D02*
X146953390Y-111904761D01*
X146953390Y-111904761D02*
X146953390Y-112095237D01*
X146953390Y-112095237D02*
X147001009Y-112190475D01*
X147001009Y-112190475D02*
X147048628Y-112238094D01*
X147048628Y-112238094D02*
X147143866Y-112285713D01*
X147143866Y-112285713D02*
X147334342Y-112285713D01*
X147334342Y-112285713D02*
X147429580Y-112238094D01*
X147429580Y-112238094D02*
X147477200Y-112190475D01*
X147477200Y-112190475D02*
X147524819Y-112095237D01*
X147524819Y-112095237D02*
X147524819Y-111904761D01*
X147524819Y-111904761D02*
X147477200Y-111809523D01*
X147477200Y-111809523D02*
X147429580Y-111761904D01*
X147429580Y-111761904D02*
X147334342Y-111714285D01*
X147334342Y-111714285D02*
X147143866Y-111714285D01*
X147143866Y-111714285D02*
X147048628Y-111761904D01*
X147048628Y-111761904D02*
X147001009Y-111809523D01*
X147001009Y-111809523D02*
X146953390Y-111904761D01*
X129709580Y-97942857D02*
X129757200Y-97990476D01*
X129757200Y-97990476D02*
X129804819Y-98133333D01*
X129804819Y-98133333D02*
X129804819Y-98228571D01*
X129804819Y-98228571D02*
X129757200Y-98371428D01*
X129757200Y-98371428D02*
X129661961Y-98466666D01*
X129661961Y-98466666D02*
X129566723Y-98514285D01*
X129566723Y-98514285D02*
X129376247Y-98561904D01*
X129376247Y-98561904D02*
X129233390Y-98561904D01*
X129233390Y-98561904D02*
X129042914Y-98514285D01*
X129042914Y-98514285D02*
X128947676Y-98466666D01*
X128947676Y-98466666D02*
X128852438Y-98371428D01*
X128852438Y-98371428D02*
X128804819Y-98228571D01*
X128804819Y-98228571D02*
X128804819Y-98133333D01*
X128804819Y-98133333D02*
X128852438Y-97990476D01*
X128852438Y-97990476D02*
X128900057Y-97942857D01*
X129804819Y-96990476D02*
X129804819Y-97561904D01*
X129804819Y-97276190D02*
X128804819Y-97276190D01*
X128804819Y-97276190D02*
X128947676Y-97371428D01*
X128947676Y-97371428D02*
X129042914Y-97466666D01*
X129042914Y-97466666D02*
X129090533Y-97561904D01*
X129138152Y-96133333D02*
X129804819Y-96133333D01*
X128757200Y-96371428D02*
X129471485Y-96609523D01*
X129471485Y-96609523D02*
X129471485Y-95990476D01*
X131882142Y-85709580D02*
X131834523Y-85757200D01*
X131834523Y-85757200D02*
X131691666Y-85804819D01*
X131691666Y-85804819D02*
X131596428Y-85804819D01*
X131596428Y-85804819D02*
X131453571Y-85757200D01*
X131453571Y-85757200D02*
X131358333Y-85661961D01*
X131358333Y-85661961D02*
X131310714Y-85566723D01*
X131310714Y-85566723D02*
X131263095Y-85376247D01*
X131263095Y-85376247D02*
X131263095Y-85233390D01*
X131263095Y-85233390D02*
X131310714Y-85042914D01*
X131310714Y-85042914D02*
X131358333Y-84947676D01*
X131358333Y-84947676D02*
X131453571Y-84852438D01*
X131453571Y-84852438D02*
X131596428Y-84804819D01*
X131596428Y-84804819D02*
X131691666Y-84804819D01*
X131691666Y-84804819D02*
X131834523Y-84852438D01*
X131834523Y-84852438D02*
X131882142Y-84900057D01*
X132834523Y-85804819D02*
X132263095Y-85804819D01*
X132548809Y-85804819D02*
X132548809Y-84804819D01*
X132548809Y-84804819D02*
X132453571Y-84947676D01*
X132453571Y-84947676D02*
X132358333Y-85042914D01*
X132358333Y-85042914D02*
X132263095Y-85090533D01*
X133310714Y-85804819D02*
X133501190Y-85804819D01*
X133501190Y-85804819D02*
X133596428Y-85757200D01*
X133596428Y-85757200D02*
X133644047Y-85709580D01*
X133644047Y-85709580D02*
X133739285Y-85566723D01*
X133739285Y-85566723D02*
X133786904Y-85376247D01*
X133786904Y-85376247D02*
X133786904Y-84995295D01*
X133786904Y-84995295D02*
X133739285Y-84900057D01*
X133739285Y-84900057D02*
X133691666Y-84852438D01*
X133691666Y-84852438D02*
X133596428Y-84804819D01*
X133596428Y-84804819D02*
X133405952Y-84804819D01*
X133405952Y-84804819D02*
X133310714Y-84852438D01*
X133310714Y-84852438D02*
X133263095Y-84900057D01*
X133263095Y-84900057D02*
X133215476Y-84995295D01*
X133215476Y-84995295D02*
X133215476Y-85233390D01*
X133215476Y-85233390D02*
X133263095Y-85328628D01*
X133263095Y-85328628D02*
X133310714Y-85376247D01*
X133310714Y-85376247D02*
X133405952Y-85423866D01*
X133405952Y-85423866D02*
X133596428Y-85423866D01*
X133596428Y-85423866D02*
X133691666Y-85376247D01*
X133691666Y-85376247D02*
X133739285Y-85328628D01*
X133739285Y-85328628D02*
X133786904Y-85233390D01*
X149532142Y-106024819D02*
X149198809Y-105548628D01*
X148960714Y-106024819D02*
X148960714Y-105024819D01*
X148960714Y-105024819D02*
X149341666Y-105024819D01*
X149341666Y-105024819D02*
X149436904Y-105072438D01*
X149436904Y-105072438D02*
X149484523Y-105120057D01*
X149484523Y-105120057D02*
X149532142Y-105215295D01*
X149532142Y-105215295D02*
X149532142Y-105358152D01*
X149532142Y-105358152D02*
X149484523Y-105453390D01*
X149484523Y-105453390D02*
X149436904Y-105501009D01*
X149436904Y-105501009D02*
X149341666Y-105548628D01*
X149341666Y-105548628D02*
X148960714Y-105548628D01*
X150484523Y-106024819D02*
X149913095Y-106024819D01*
X150198809Y-106024819D02*
X150198809Y-105024819D01*
X150198809Y-105024819D02*
X150103571Y-105167676D01*
X150103571Y-105167676D02*
X150008333Y-105262914D01*
X150008333Y-105262914D02*
X149913095Y-105310533D01*
X151436904Y-106024819D02*
X150865476Y-106024819D01*
X151151190Y-106024819D02*
X151151190Y-105024819D01*
X151151190Y-105024819D02*
X151055952Y-105167676D01*
X151055952Y-105167676D02*
X150960714Y-105262914D01*
X150960714Y-105262914D02*
X150865476Y-105310533D01*
X111761905Y-93984819D02*
X111761905Y-92984819D01*
X111761905Y-92984819D02*
X112000000Y-92984819D01*
X112000000Y-92984819D02*
X112142857Y-93032438D01*
X112142857Y-93032438D02*
X112238095Y-93127676D01*
X112238095Y-93127676D02*
X112285714Y-93222914D01*
X112285714Y-93222914D02*
X112333333Y-93413390D01*
X112333333Y-93413390D02*
X112333333Y-93556247D01*
X112333333Y-93556247D02*
X112285714Y-93746723D01*
X112285714Y-93746723D02*
X112238095Y-93841961D01*
X112238095Y-93841961D02*
X112142857Y-93937200D01*
X112142857Y-93937200D02*
X112000000Y-93984819D01*
X112000000Y-93984819D02*
X111761905Y-93984819D01*
X113238095Y-92984819D02*
X112761905Y-92984819D01*
X112761905Y-92984819D02*
X112714286Y-93461009D01*
X112714286Y-93461009D02*
X112761905Y-93413390D01*
X112761905Y-93413390D02*
X112857143Y-93365771D01*
X112857143Y-93365771D02*
X113095238Y-93365771D01*
X113095238Y-93365771D02*
X113190476Y-93413390D01*
X113190476Y-93413390D02*
X113238095Y-93461009D01*
X113238095Y-93461009D02*
X113285714Y-93556247D01*
X113285714Y-93556247D02*
X113285714Y-93794342D01*
X113285714Y-93794342D02*
X113238095Y-93889580D01*
X113238095Y-93889580D02*
X113190476Y-93937200D01*
X113190476Y-93937200D02*
X113095238Y-93984819D01*
X113095238Y-93984819D02*
X112857143Y-93984819D01*
X112857143Y-93984819D02*
X112761905Y-93937200D01*
X112761905Y-93937200D02*
X112714286Y-93889580D01*
X134054819Y-100801904D02*
X134864342Y-100801904D01*
X134864342Y-100801904D02*
X134959580Y-100754285D01*
X134959580Y-100754285D02*
X135007200Y-100706666D01*
X135007200Y-100706666D02*
X135054819Y-100611428D01*
X135054819Y-100611428D02*
X135054819Y-100420952D01*
X135054819Y-100420952D02*
X135007200Y-100325714D01*
X135007200Y-100325714D02*
X134959580Y-100278095D01*
X134959580Y-100278095D02*
X134864342Y-100230476D01*
X134864342Y-100230476D02*
X134054819Y-100230476D01*
X135054819Y-99706666D02*
X135054819Y-99516190D01*
X135054819Y-99516190D02*
X135007200Y-99420952D01*
X135007200Y-99420952D02*
X134959580Y-99373333D01*
X134959580Y-99373333D02*
X134816723Y-99278095D01*
X134816723Y-99278095D02*
X134626247Y-99230476D01*
X134626247Y-99230476D02*
X134245295Y-99230476D01*
X134245295Y-99230476D02*
X134150057Y-99278095D01*
X134150057Y-99278095D02*
X134102438Y-99325714D01*
X134102438Y-99325714D02*
X134054819Y-99420952D01*
X134054819Y-99420952D02*
X134054819Y-99611428D01*
X134054819Y-99611428D02*
X134102438Y-99706666D01*
X134102438Y-99706666D02*
X134150057Y-99754285D01*
X134150057Y-99754285D02*
X134245295Y-99801904D01*
X134245295Y-99801904D02*
X134483390Y-99801904D01*
X134483390Y-99801904D02*
X134578628Y-99754285D01*
X134578628Y-99754285D02*
X134626247Y-99706666D01*
X134626247Y-99706666D02*
X134673866Y-99611428D01*
X134673866Y-99611428D02*
X134673866Y-99420952D01*
X134673866Y-99420952D02*
X134626247Y-99325714D01*
X134626247Y-99325714D02*
X134578628Y-99278095D01*
X134578628Y-99278095D02*
X134483390Y-99230476D01*
X130124819Y-109025594D02*
X129124819Y-109025594D01*
X129124819Y-109025594D02*
X129124819Y-108787499D01*
X129124819Y-108787499D02*
X129172438Y-108644642D01*
X129172438Y-108644642D02*
X129267676Y-108549404D01*
X129267676Y-108549404D02*
X129362914Y-108501785D01*
X129362914Y-108501785D02*
X129553390Y-108454166D01*
X129553390Y-108454166D02*
X129696247Y-108454166D01*
X129696247Y-108454166D02*
X129886723Y-108501785D01*
X129886723Y-108501785D02*
X129981961Y-108549404D01*
X129981961Y-108549404D02*
X130077200Y-108644642D01*
X130077200Y-108644642D02*
X130124819Y-108787499D01*
X130124819Y-108787499D02*
X130124819Y-109025594D01*
X129124819Y-108120832D02*
X129124819Y-107501785D01*
X129124819Y-107501785D02*
X129505771Y-107835118D01*
X129505771Y-107835118D02*
X129505771Y-107692261D01*
X129505771Y-107692261D02*
X129553390Y-107597023D01*
X129553390Y-107597023D02*
X129601009Y-107549404D01*
X129601009Y-107549404D02*
X129696247Y-107501785D01*
X129696247Y-107501785D02*
X129934342Y-107501785D01*
X129934342Y-107501785D02*
X130029580Y-107549404D01*
X130029580Y-107549404D02*
X130077200Y-107597023D01*
X130077200Y-107597023D02*
X130124819Y-107692261D01*
X130124819Y-107692261D02*
X130124819Y-107977975D01*
X130124819Y-107977975D02*
X130077200Y-108073213D01*
X130077200Y-108073213D02*
X130029580Y-108120832D01*
X160019580Y-96166666D02*
X160067200Y-96214285D01*
X160067200Y-96214285D02*
X160114819Y-96357142D01*
X160114819Y-96357142D02*
X160114819Y-96452380D01*
X160114819Y-96452380D02*
X160067200Y-96595237D01*
X160067200Y-96595237D02*
X159971961Y-96690475D01*
X159971961Y-96690475D02*
X159876723Y-96738094D01*
X159876723Y-96738094D02*
X159686247Y-96785713D01*
X159686247Y-96785713D02*
X159543390Y-96785713D01*
X159543390Y-96785713D02*
X159352914Y-96738094D01*
X159352914Y-96738094D02*
X159257676Y-96690475D01*
X159257676Y-96690475D02*
X159162438Y-96595237D01*
X159162438Y-96595237D02*
X159114819Y-96452380D01*
X159114819Y-96452380D02*
X159114819Y-96357142D01*
X159114819Y-96357142D02*
X159162438Y-96214285D01*
X159162438Y-96214285D02*
X159210057Y-96166666D01*
X159543390Y-95595237D02*
X159495771Y-95690475D01*
X159495771Y-95690475D02*
X159448152Y-95738094D01*
X159448152Y-95738094D02*
X159352914Y-95785713D01*
X159352914Y-95785713D02*
X159305295Y-95785713D01*
X159305295Y-95785713D02*
X159210057Y-95738094D01*
X159210057Y-95738094D02*
X159162438Y-95690475D01*
X159162438Y-95690475D02*
X159114819Y-95595237D01*
X159114819Y-95595237D02*
X159114819Y-95404761D01*
X159114819Y-95404761D02*
X159162438Y-95309523D01*
X159162438Y-95309523D02*
X159210057Y-95261904D01*
X159210057Y-95261904D02*
X159305295Y-95214285D01*
X159305295Y-95214285D02*
X159352914Y-95214285D01*
X159352914Y-95214285D02*
X159448152Y-95261904D01*
X159448152Y-95261904D02*
X159495771Y-95309523D01*
X159495771Y-95309523D02*
X159543390Y-95404761D01*
X159543390Y-95404761D02*
X159543390Y-95595237D01*
X159543390Y-95595237D02*
X159591009Y-95690475D01*
X159591009Y-95690475D02*
X159638628Y-95738094D01*
X159638628Y-95738094D02*
X159733866Y-95785713D01*
X159733866Y-95785713D02*
X159924342Y-95785713D01*
X159924342Y-95785713D02*
X160019580Y-95738094D01*
X160019580Y-95738094D02*
X160067200Y-95690475D01*
X160067200Y-95690475D02*
X160114819Y-95595237D01*
X160114819Y-95595237D02*
X160114819Y-95404761D01*
X160114819Y-95404761D02*
X160067200Y-95309523D01*
X160067200Y-95309523D02*
X160019580Y-95261904D01*
X160019580Y-95261904D02*
X159924342Y-95214285D01*
X159924342Y-95214285D02*
X159733866Y-95214285D01*
X159733866Y-95214285D02*
X159638628Y-95261904D01*
X159638628Y-95261904D02*
X159591009Y-95309523D01*
X159591009Y-95309523D02*
X159543390Y-95404761D01*
X134954819Y-119888094D02*
X133954819Y-119888094D01*
X133954819Y-119888094D02*
X133954819Y-119649999D01*
X133954819Y-119649999D02*
X134002438Y-119507142D01*
X134002438Y-119507142D02*
X134097676Y-119411904D01*
X134097676Y-119411904D02*
X134192914Y-119364285D01*
X134192914Y-119364285D02*
X134383390Y-119316666D01*
X134383390Y-119316666D02*
X134526247Y-119316666D01*
X134526247Y-119316666D02*
X134716723Y-119364285D01*
X134716723Y-119364285D02*
X134811961Y-119411904D01*
X134811961Y-119411904D02*
X134907200Y-119507142D01*
X134907200Y-119507142D02*
X134954819Y-119649999D01*
X134954819Y-119649999D02*
X134954819Y-119888094D01*
X134050057Y-118935713D02*
X134002438Y-118888094D01*
X134002438Y-118888094D02*
X133954819Y-118792856D01*
X133954819Y-118792856D02*
X133954819Y-118554761D01*
X133954819Y-118554761D02*
X134002438Y-118459523D01*
X134002438Y-118459523D02*
X134050057Y-118411904D01*
X134050057Y-118411904D02*
X134145295Y-118364285D01*
X134145295Y-118364285D02*
X134240533Y-118364285D01*
X134240533Y-118364285D02*
X134383390Y-118411904D01*
X134383390Y-118411904D02*
X134954819Y-118983332D01*
X134954819Y-118983332D02*
X134954819Y-118364285D01*
X132984819Y-105967857D02*
X132508628Y-106301190D01*
X132984819Y-106539285D02*
X131984819Y-106539285D01*
X131984819Y-106539285D02*
X131984819Y-106158333D01*
X131984819Y-106158333D02*
X132032438Y-106063095D01*
X132032438Y-106063095D02*
X132080057Y-106015476D01*
X132080057Y-106015476D02*
X132175295Y-105967857D01*
X132175295Y-105967857D02*
X132318152Y-105967857D01*
X132318152Y-105967857D02*
X132413390Y-106015476D01*
X132413390Y-106015476D02*
X132461009Y-106063095D01*
X132461009Y-106063095D02*
X132508628Y-106158333D01*
X132508628Y-106158333D02*
X132508628Y-106539285D01*
X132984819Y-105015476D02*
X132984819Y-105586904D01*
X132984819Y-105301190D02*
X131984819Y-105301190D01*
X131984819Y-105301190D02*
X132127676Y-105396428D01*
X132127676Y-105396428D02*
X132222914Y-105491666D01*
X132222914Y-105491666D02*
X132270533Y-105586904D01*
X132318152Y-104158333D02*
X132984819Y-104158333D01*
X131937200Y-104396428D02*
X132651485Y-104634523D01*
X132651485Y-104634523D02*
X132651485Y-104015476D01*
X136384819Y-120166666D02*
X135908628Y-120499999D01*
X136384819Y-120738094D02*
X135384819Y-120738094D01*
X135384819Y-120738094D02*
X135384819Y-120357142D01*
X135384819Y-120357142D02*
X135432438Y-120261904D01*
X135432438Y-120261904D02*
X135480057Y-120214285D01*
X135480057Y-120214285D02*
X135575295Y-120166666D01*
X135575295Y-120166666D02*
X135718152Y-120166666D01*
X135718152Y-120166666D02*
X135813390Y-120214285D01*
X135813390Y-120214285D02*
X135861009Y-120261904D01*
X135861009Y-120261904D02*
X135908628Y-120357142D01*
X135908628Y-120357142D02*
X135908628Y-120738094D01*
X136384819Y-119690475D02*
X136384819Y-119499999D01*
X136384819Y-119499999D02*
X136337200Y-119404761D01*
X136337200Y-119404761D02*
X136289580Y-119357142D01*
X136289580Y-119357142D02*
X136146723Y-119261904D01*
X136146723Y-119261904D02*
X135956247Y-119214285D01*
X135956247Y-119214285D02*
X135575295Y-119214285D01*
X135575295Y-119214285D02*
X135480057Y-119261904D01*
X135480057Y-119261904D02*
X135432438Y-119309523D01*
X135432438Y-119309523D02*
X135384819Y-119404761D01*
X135384819Y-119404761D02*
X135384819Y-119595237D01*
X135384819Y-119595237D02*
X135432438Y-119690475D01*
X135432438Y-119690475D02*
X135480057Y-119738094D01*
X135480057Y-119738094D02*
X135575295Y-119785713D01*
X135575295Y-119785713D02*
X135813390Y-119785713D01*
X135813390Y-119785713D02*
X135908628Y-119738094D01*
X135908628Y-119738094D02*
X135956247Y-119690475D01*
X135956247Y-119690475D02*
X136003866Y-119595237D01*
X136003866Y-119595237D02*
X136003866Y-119404761D01*
X136003866Y-119404761D02*
X135956247Y-119309523D01*
X135956247Y-119309523D02*
X135908628Y-119261904D01*
X135908628Y-119261904D02*
X135813390Y-119214285D01*
X136384819Y-88642857D02*
X135908628Y-88976190D01*
X136384819Y-89214285D02*
X135384819Y-89214285D01*
X135384819Y-89214285D02*
X135384819Y-88833333D01*
X135384819Y-88833333D02*
X135432438Y-88738095D01*
X135432438Y-88738095D02*
X135480057Y-88690476D01*
X135480057Y-88690476D02*
X135575295Y-88642857D01*
X135575295Y-88642857D02*
X135718152Y-88642857D01*
X135718152Y-88642857D02*
X135813390Y-88690476D01*
X135813390Y-88690476D02*
X135861009Y-88738095D01*
X135861009Y-88738095D02*
X135908628Y-88833333D01*
X135908628Y-88833333D02*
X135908628Y-89214285D01*
X135480057Y-88261904D02*
X135432438Y-88214285D01*
X135432438Y-88214285D02*
X135384819Y-88119047D01*
X135384819Y-88119047D02*
X135384819Y-87880952D01*
X135384819Y-87880952D02*
X135432438Y-87785714D01*
X135432438Y-87785714D02*
X135480057Y-87738095D01*
X135480057Y-87738095D02*
X135575295Y-87690476D01*
X135575295Y-87690476D02*
X135670533Y-87690476D01*
X135670533Y-87690476D02*
X135813390Y-87738095D01*
X135813390Y-87738095D02*
X136384819Y-88309523D01*
X136384819Y-88309523D02*
X136384819Y-87690476D01*
X135384819Y-87357142D02*
X135384819Y-86738095D01*
X135384819Y-86738095D02*
X135765771Y-87071428D01*
X135765771Y-87071428D02*
X135765771Y-86928571D01*
X135765771Y-86928571D02*
X135813390Y-86833333D01*
X135813390Y-86833333D02*
X135861009Y-86785714D01*
X135861009Y-86785714D02*
X135956247Y-86738095D01*
X135956247Y-86738095D02*
X136194342Y-86738095D01*
X136194342Y-86738095D02*
X136289580Y-86785714D01*
X136289580Y-86785714D02*
X136337200Y-86833333D01*
X136337200Y-86833333D02*
X136384819Y-86928571D01*
X136384819Y-86928571D02*
X136384819Y-87214285D01*
X136384819Y-87214285D02*
X136337200Y-87309523D01*
X136337200Y-87309523D02*
X136289580Y-87357142D01*
X116666666Y-87454819D02*
X116666666Y-88169104D01*
X116666666Y-88169104D02*
X116619047Y-88311961D01*
X116619047Y-88311961D02*
X116523809Y-88407200D01*
X116523809Y-88407200D02*
X116380952Y-88454819D01*
X116380952Y-88454819D02*
X116285714Y-88454819D01*
X117571428Y-87788152D02*
X117571428Y-88454819D01*
X117333333Y-87407200D02*
X117095238Y-88121485D01*
X117095238Y-88121485D02*
X117714285Y-88121485D01*
X156188095Y-84654819D02*
X156188095Y-85464342D01*
X156188095Y-85464342D02*
X156235714Y-85559580D01*
X156235714Y-85559580D02*
X156283333Y-85607200D01*
X156283333Y-85607200D02*
X156378571Y-85654819D01*
X156378571Y-85654819D02*
X156569047Y-85654819D01*
X156569047Y-85654819D02*
X156664285Y-85607200D01*
X156664285Y-85607200D02*
X156711904Y-85559580D01*
X156711904Y-85559580D02*
X156759523Y-85464342D01*
X156759523Y-85464342D02*
X156759523Y-84654819D01*
X157759523Y-85654819D02*
X157188095Y-85654819D01*
X157473809Y-85654819D02*
X157473809Y-84654819D01*
X157473809Y-84654819D02*
X157378571Y-84797676D01*
X157378571Y-84797676D02*
X157283333Y-84892914D01*
X157283333Y-84892914D02*
X157188095Y-84940533D01*
X111493095Y-94887319D02*
X111493095Y-95696842D01*
X111493095Y-95696842D02*
X111540714Y-95792080D01*
X111540714Y-95792080D02*
X111588333Y-95839700D01*
X111588333Y-95839700D02*
X111683571Y-95887319D01*
X111683571Y-95887319D02*
X111874047Y-95887319D01*
X111874047Y-95887319D02*
X111969285Y-95839700D01*
X111969285Y-95839700D02*
X112016904Y-95792080D01*
X112016904Y-95792080D02*
X112064523Y-95696842D01*
X112064523Y-95696842D02*
X112064523Y-94887319D01*
X112445476Y-94887319D02*
X113064523Y-94887319D01*
X113064523Y-94887319D02*
X112731190Y-95268271D01*
X112731190Y-95268271D02*
X112874047Y-95268271D01*
X112874047Y-95268271D02*
X112969285Y-95315890D01*
X112969285Y-95315890D02*
X113016904Y-95363509D01*
X113016904Y-95363509D02*
X113064523Y-95458747D01*
X113064523Y-95458747D02*
X113064523Y-95696842D01*
X113064523Y-95696842D02*
X113016904Y-95792080D01*
X113016904Y-95792080D02*
X112969285Y-95839700D01*
X112969285Y-95839700D02*
X112874047Y-95887319D01*
X112874047Y-95887319D02*
X112588333Y-95887319D01*
X112588333Y-95887319D02*
X112493095Y-95839700D01*
X112493095Y-95839700D02*
X112445476Y-95792080D01*
X158384819Y-120166666D02*
X157908628Y-120499999D01*
X158384819Y-120738094D02*
X157384819Y-120738094D01*
X157384819Y-120738094D02*
X157384819Y-120357142D01*
X157384819Y-120357142D02*
X157432438Y-120261904D01*
X157432438Y-120261904D02*
X157480057Y-120214285D01*
X157480057Y-120214285D02*
X157575295Y-120166666D01*
X157575295Y-120166666D02*
X157718152Y-120166666D01*
X157718152Y-120166666D02*
X157813390Y-120214285D01*
X157813390Y-120214285D02*
X157861009Y-120261904D01*
X157861009Y-120261904D02*
X157908628Y-120357142D01*
X157908628Y-120357142D02*
X157908628Y-120738094D01*
X157480057Y-119785713D02*
X157432438Y-119738094D01*
X157432438Y-119738094D02*
X157384819Y-119642856D01*
X157384819Y-119642856D02*
X157384819Y-119404761D01*
X157384819Y-119404761D02*
X157432438Y-119309523D01*
X157432438Y-119309523D02*
X157480057Y-119261904D01*
X157480057Y-119261904D02*
X157575295Y-119214285D01*
X157575295Y-119214285D02*
X157670533Y-119214285D01*
X157670533Y-119214285D02*
X157813390Y-119261904D01*
X157813390Y-119261904D02*
X158384819Y-119833332D01*
X158384819Y-119833332D02*
X158384819Y-119214285D01*
X156384819Y-120166666D02*
X155908628Y-120499999D01*
X156384819Y-120738094D02*
X155384819Y-120738094D01*
X155384819Y-120738094D02*
X155384819Y-120357142D01*
X155384819Y-120357142D02*
X155432438Y-120261904D01*
X155432438Y-120261904D02*
X155480057Y-120214285D01*
X155480057Y-120214285D02*
X155575295Y-120166666D01*
X155575295Y-120166666D02*
X155718152Y-120166666D01*
X155718152Y-120166666D02*
X155813390Y-120214285D01*
X155813390Y-120214285D02*
X155861009Y-120261904D01*
X155861009Y-120261904D02*
X155908628Y-120357142D01*
X155908628Y-120357142D02*
X155908628Y-120738094D01*
X155384819Y-119833332D02*
X155384819Y-119214285D01*
X155384819Y-119214285D02*
X155765771Y-119547618D01*
X155765771Y-119547618D02*
X155765771Y-119404761D01*
X155765771Y-119404761D02*
X155813390Y-119309523D01*
X155813390Y-119309523D02*
X155861009Y-119261904D01*
X155861009Y-119261904D02*
X155956247Y-119214285D01*
X155956247Y-119214285D02*
X156194342Y-119214285D01*
X156194342Y-119214285D02*
X156289580Y-119261904D01*
X156289580Y-119261904D02*
X156337200Y-119309523D01*
X156337200Y-119309523D02*
X156384819Y-119404761D01*
X156384819Y-119404761D02*
X156384819Y-119690475D01*
X156384819Y-119690475D02*
X156337200Y-119785713D01*
X156337200Y-119785713D02*
X156289580Y-119833332D01*
X166837142Y-87699580D02*
X166789523Y-87747200D01*
X166789523Y-87747200D02*
X166646666Y-87794819D01*
X166646666Y-87794819D02*
X166551428Y-87794819D01*
X166551428Y-87794819D02*
X166408571Y-87747200D01*
X166408571Y-87747200D02*
X166313333Y-87651961D01*
X166313333Y-87651961D02*
X166265714Y-87556723D01*
X166265714Y-87556723D02*
X166218095Y-87366247D01*
X166218095Y-87366247D02*
X166218095Y-87223390D01*
X166218095Y-87223390D02*
X166265714Y-87032914D01*
X166265714Y-87032914D02*
X166313333Y-86937676D01*
X166313333Y-86937676D02*
X166408571Y-86842438D01*
X166408571Y-86842438D02*
X166551428Y-86794819D01*
X166551428Y-86794819D02*
X166646666Y-86794819D01*
X166646666Y-86794819D02*
X166789523Y-86842438D01*
X166789523Y-86842438D02*
X166837142Y-86890057D01*
X167789523Y-87794819D02*
X167218095Y-87794819D01*
X167503809Y-87794819D02*
X167503809Y-86794819D01*
X167503809Y-86794819D02*
X167408571Y-86937676D01*
X167408571Y-86937676D02*
X167313333Y-87032914D01*
X167313333Y-87032914D02*
X167218095Y-87080533D01*
X168694285Y-86794819D02*
X168218095Y-86794819D01*
X168218095Y-86794819D02*
X168170476Y-87271009D01*
X168170476Y-87271009D02*
X168218095Y-87223390D01*
X168218095Y-87223390D02*
X168313333Y-87175771D01*
X168313333Y-87175771D02*
X168551428Y-87175771D01*
X168551428Y-87175771D02*
X168646666Y-87223390D01*
X168646666Y-87223390D02*
X168694285Y-87271009D01*
X168694285Y-87271009D02*
X168741904Y-87366247D01*
X168741904Y-87366247D02*
X168741904Y-87604342D01*
X168741904Y-87604342D02*
X168694285Y-87699580D01*
X168694285Y-87699580D02*
X168646666Y-87747200D01*
X168646666Y-87747200D02*
X168551428Y-87794819D01*
X168551428Y-87794819D02*
X168313333Y-87794819D01*
X168313333Y-87794819D02*
X168218095Y-87747200D01*
X168218095Y-87747200D02*
X168170476Y-87699580D01*
X124384819Y-93642857D02*
X123908628Y-93976190D01*
X124384819Y-94214285D02*
X123384819Y-94214285D01*
X123384819Y-94214285D02*
X123384819Y-93833333D01*
X123384819Y-93833333D02*
X123432438Y-93738095D01*
X123432438Y-93738095D02*
X123480057Y-93690476D01*
X123480057Y-93690476D02*
X123575295Y-93642857D01*
X123575295Y-93642857D02*
X123718152Y-93642857D01*
X123718152Y-93642857D02*
X123813390Y-93690476D01*
X123813390Y-93690476D02*
X123861009Y-93738095D01*
X123861009Y-93738095D02*
X123908628Y-93833333D01*
X123908628Y-93833333D02*
X123908628Y-94214285D01*
X123480057Y-93261904D02*
X123432438Y-93214285D01*
X123432438Y-93214285D02*
X123384819Y-93119047D01*
X123384819Y-93119047D02*
X123384819Y-92880952D01*
X123384819Y-92880952D02*
X123432438Y-92785714D01*
X123432438Y-92785714D02*
X123480057Y-92738095D01*
X123480057Y-92738095D02*
X123575295Y-92690476D01*
X123575295Y-92690476D02*
X123670533Y-92690476D01*
X123670533Y-92690476D02*
X123813390Y-92738095D01*
X123813390Y-92738095D02*
X124384819Y-93309523D01*
X124384819Y-93309523D02*
X124384819Y-92690476D01*
X123384819Y-92071428D02*
X123384819Y-91976190D01*
X123384819Y-91976190D02*
X123432438Y-91880952D01*
X123432438Y-91880952D02*
X123480057Y-91833333D01*
X123480057Y-91833333D02*
X123575295Y-91785714D01*
X123575295Y-91785714D02*
X123765771Y-91738095D01*
X123765771Y-91738095D02*
X124003866Y-91738095D01*
X124003866Y-91738095D02*
X124194342Y-91785714D01*
X124194342Y-91785714D02*
X124289580Y-91833333D01*
X124289580Y-91833333D02*
X124337200Y-91880952D01*
X124337200Y-91880952D02*
X124384819Y-91976190D01*
X124384819Y-91976190D02*
X124384819Y-92071428D01*
X124384819Y-92071428D02*
X124337200Y-92166666D01*
X124337200Y-92166666D02*
X124289580Y-92214285D01*
X124289580Y-92214285D02*
X124194342Y-92261904D01*
X124194342Y-92261904D02*
X124003866Y-92309523D01*
X124003866Y-92309523D02*
X123765771Y-92309523D01*
X123765771Y-92309523D02*
X123575295Y-92261904D01*
X123575295Y-92261904D02*
X123480057Y-92214285D01*
X123480057Y-92214285D02*
X123432438Y-92166666D01*
X123432438Y-92166666D02*
X123384819Y-92071428D01*
X144988095Y-103592319D02*
X144988095Y-104401842D01*
X144988095Y-104401842D02*
X145035714Y-104497080D01*
X145035714Y-104497080D02*
X145083333Y-104544700D01*
X145083333Y-104544700D02*
X145178571Y-104592319D01*
X145178571Y-104592319D02*
X145369047Y-104592319D01*
X145369047Y-104592319D02*
X145464285Y-104544700D01*
X145464285Y-104544700D02*
X145511904Y-104497080D01*
X145511904Y-104497080D02*
X145559523Y-104401842D01*
X145559523Y-104401842D02*
X145559523Y-103592319D01*
X146464285Y-103925652D02*
X146464285Y-104592319D01*
X146226190Y-103544700D02*
X145988095Y-104258985D01*
X145988095Y-104258985D02*
X146607142Y-104258985D01*
X108857142Y-89624819D02*
X108523809Y-89148628D01*
X108285714Y-89624819D02*
X108285714Y-88624819D01*
X108285714Y-88624819D02*
X108666666Y-88624819D01*
X108666666Y-88624819D02*
X108761904Y-88672438D01*
X108761904Y-88672438D02*
X108809523Y-88720057D01*
X108809523Y-88720057D02*
X108857142Y-88815295D01*
X108857142Y-88815295D02*
X108857142Y-88958152D01*
X108857142Y-88958152D02*
X108809523Y-89053390D01*
X108809523Y-89053390D02*
X108761904Y-89101009D01*
X108761904Y-89101009D02*
X108666666Y-89148628D01*
X108666666Y-89148628D02*
X108285714Y-89148628D01*
X109809523Y-89624819D02*
X109238095Y-89624819D01*
X109523809Y-89624819D02*
X109523809Y-88624819D01*
X109523809Y-88624819D02*
X109428571Y-88767676D01*
X109428571Y-88767676D02*
X109333333Y-88862914D01*
X109333333Y-88862914D02*
X109238095Y-88910533D01*
X110380952Y-89053390D02*
X110285714Y-89005771D01*
X110285714Y-89005771D02*
X110238095Y-88958152D01*
X110238095Y-88958152D02*
X110190476Y-88862914D01*
X110190476Y-88862914D02*
X110190476Y-88815295D01*
X110190476Y-88815295D02*
X110238095Y-88720057D01*
X110238095Y-88720057D02*
X110285714Y-88672438D01*
X110285714Y-88672438D02*
X110380952Y-88624819D01*
X110380952Y-88624819D02*
X110571428Y-88624819D01*
X110571428Y-88624819D02*
X110666666Y-88672438D01*
X110666666Y-88672438D02*
X110714285Y-88720057D01*
X110714285Y-88720057D02*
X110761904Y-88815295D01*
X110761904Y-88815295D02*
X110761904Y-88862914D01*
X110761904Y-88862914D02*
X110714285Y-88958152D01*
X110714285Y-88958152D02*
X110666666Y-89005771D01*
X110666666Y-89005771D02*
X110571428Y-89053390D01*
X110571428Y-89053390D02*
X110380952Y-89053390D01*
X110380952Y-89053390D02*
X110285714Y-89101009D01*
X110285714Y-89101009D02*
X110238095Y-89148628D01*
X110238095Y-89148628D02*
X110190476Y-89243866D01*
X110190476Y-89243866D02*
X110190476Y-89434342D01*
X110190476Y-89434342D02*
X110238095Y-89529580D01*
X110238095Y-89529580D02*
X110285714Y-89577200D01*
X110285714Y-89577200D02*
X110380952Y-89624819D01*
X110380952Y-89624819D02*
X110571428Y-89624819D01*
X110571428Y-89624819D02*
X110666666Y-89577200D01*
X110666666Y-89577200D02*
X110714285Y-89529580D01*
X110714285Y-89529580D02*
X110761904Y-89434342D01*
X110761904Y-89434342D02*
X110761904Y-89243866D01*
X110761904Y-89243866D02*
X110714285Y-89148628D01*
X110714285Y-89148628D02*
X110666666Y-89101009D01*
X110666666Y-89101009D02*
X110571428Y-89053390D01*
X134666666Y-120809819D02*
X134666666Y-121524104D01*
X134666666Y-121524104D02*
X134619047Y-121666961D01*
X134619047Y-121666961D02*
X134523809Y-121762200D01*
X134523809Y-121762200D02*
X134380952Y-121809819D01*
X134380952Y-121809819D02*
X134285714Y-121809819D01*
X135095238Y-120905057D02*
X135142857Y-120857438D01*
X135142857Y-120857438D02*
X135238095Y-120809819D01*
X135238095Y-120809819D02*
X135476190Y-120809819D01*
X135476190Y-120809819D02*
X135571428Y-120857438D01*
X135571428Y-120857438D02*
X135619047Y-120905057D01*
X135619047Y-120905057D02*
X135666666Y-121000295D01*
X135666666Y-121000295D02*
X135666666Y-121095533D01*
X135666666Y-121095533D02*
X135619047Y-121238390D01*
X135619047Y-121238390D02*
X135047619Y-121809819D01*
X135047619Y-121809819D02*
X135666666Y-121809819D01*
X160333333Y-95024819D02*
X160000000Y-94548628D01*
X159761905Y-95024819D02*
X159761905Y-94024819D01*
X159761905Y-94024819D02*
X160142857Y-94024819D01*
X160142857Y-94024819D02*
X160238095Y-94072438D01*
X160238095Y-94072438D02*
X160285714Y-94120057D01*
X160285714Y-94120057D02*
X160333333Y-94215295D01*
X160333333Y-94215295D02*
X160333333Y-94358152D01*
X160333333Y-94358152D02*
X160285714Y-94453390D01*
X160285714Y-94453390D02*
X160238095Y-94501009D01*
X160238095Y-94501009D02*
X160142857Y-94548628D01*
X160142857Y-94548628D02*
X159761905Y-94548628D01*
X161190476Y-94358152D02*
X161190476Y-95024819D01*
X160952381Y-93977200D02*
X160714286Y-94691485D01*
X160714286Y-94691485D02*
X161333333Y-94691485D01*
X134709580Y-89642857D02*
X134757200Y-89690476D01*
X134757200Y-89690476D02*
X134804819Y-89833333D01*
X134804819Y-89833333D02*
X134804819Y-89928571D01*
X134804819Y-89928571D02*
X134757200Y-90071428D01*
X134757200Y-90071428D02*
X134661961Y-90166666D01*
X134661961Y-90166666D02*
X134566723Y-90214285D01*
X134566723Y-90214285D02*
X134376247Y-90261904D01*
X134376247Y-90261904D02*
X134233390Y-90261904D01*
X134233390Y-90261904D02*
X134042914Y-90214285D01*
X134042914Y-90214285D02*
X133947676Y-90166666D01*
X133947676Y-90166666D02*
X133852438Y-90071428D01*
X133852438Y-90071428D02*
X133804819Y-89928571D01*
X133804819Y-89928571D02*
X133804819Y-89833333D01*
X133804819Y-89833333D02*
X133852438Y-89690476D01*
X133852438Y-89690476D02*
X133900057Y-89642857D01*
X133900057Y-89261904D02*
X133852438Y-89214285D01*
X133852438Y-89214285D02*
X133804819Y-89119047D01*
X133804819Y-89119047D02*
X133804819Y-88880952D01*
X133804819Y-88880952D02*
X133852438Y-88785714D01*
X133852438Y-88785714D02*
X133900057Y-88738095D01*
X133900057Y-88738095D02*
X133995295Y-88690476D01*
X133995295Y-88690476D02*
X134090533Y-88690476D01*
X134090533Y-88690476D02*
X134233390Y-88738095D01*
X134233390Y-88738095D02*
X134804819Y-89309523D01*
X134804819Y-89309523D02*
X134804819Y-88690476D01*
X133804819Y-88071428D02*
X133804819Y-87976190D01*
X133804819Y-87976190D02*
X133852438Y-87880952D01*
X133852438Y-87880952D02*
X133900057Y-87833333D01*
X133900057Y-87833333D02*
X133995295Y-87785714D01*
X133995295Y-87785714D02*
X134185771Y-87738095D01*
X134185771Y-87738095D02*
X134423866Y-87738095D01*
X134423866Y-87738095D02*
X134614342Y-87785714D01*
X134614342Y-87785714D02*
X134709580Y-87833333D01*
X134709580Y-87833333D02*
X134757200Y-87880952D01*
X134757200Y-87880952D02*
X134804819Y-87976190D01*
X134804819Y-87976190D02*
X134804819Y-88071428D01*
X134804819Y-88071428D02*
X134757200Y-88166666D01*
X134757200Y-88166666D02*
X134709580Y-88214285D01*
X134709580Y-88214285D02*
X134614342Y-88261904D01*
X134614342Y-88261904D02*
X134423866Y-88309523D01*
X134423866Y-88309523D02*
X134185771Y-88309523D01*
X134185771Y-88309523D02*
X133995295Y-88261904D01*
X133995295Y-88261904D02*
X133900057Y-88214285D01*
X133900057Y-88214285D02*
X133852438Y-88166666D01*
X133852438Y-88166666D02*
X133804819Y-88071428D01*
X132342261Y-93025057D02*
X132247023Y-92977438D01*
X132247023Y-92977438D02*
X132151785Y-92882200D01*
X132151785Y-92882200D02*
X132008928Y-92739342D01*
X132008928Y-92739342D02*
X131913690Y-92691723D01*
X131913690Y-92691723D02*
X131818452Y-92691723D01*
X131866071Y-92929819D02*
X131770833Y-92882200D01*
X131770833Y-92882200D02*
X131675595Y-92786961D01*
X131675595Y-92786961D02*
X131627976Y-92596485D01*
X131627976Y-92596485D02*
X131627976Y-92263152D01*
X131627976Y-92263152D02*
X131675595Y-92072676D01*
X131675595Y-92072676D02*
X131770833Y-91977438D01*
X131770833Y-91977438D02*
X131866071Y-91929819D01*
X131866071Y-91929819D02*
X132056547Y-91929819D01*
X132056547Y-91929819D02*
X132151785Y-91977438D01*
X132151785Y-91977438D02*
X132247023Y-92072676D01*
X132247023Y-92072676D02*
X132294642Y-92263152D01*
X132294642Y-92263152D02*
X132294642Y-92596485D01*
X132294642Y-92596485D02*
X132247023Y-92786961D01*
X132247023Y-92786961D02*
X132151785Y-92882200D01*
X132151785Y-92882200D02*
X132056547Y-92929819D01*
X132056547Y-92929819D02*
X131866071Y-92929819D01*
X132627976Y-91929819D02*
X133247023Y-91929819D01*
X133247023Y-91929819D02*
X132913690Y-92310771D01*
X132913690Y-92310771D02*
X133056547Y-92310771D01*
X133056547Y-92310771D02*
X133151785Y-92358390D01*
X133151785Y-92358390D02*
X133199404Y-92406009D01*
X133199404Y-92406009D02*
X133247023Y-92501247D01*
X133247023Y-92501247D02*
X133247023Y-92739342D01*
X133247023Y-92739342D02*
X133199404Y-92834580D01*
X133199404Y-92834580D02*
X133151785Y-92882200D01*
X133151785Y-92882200D02*
X133056547Y-92929819D01*
X133056547Y-92929819D02*
X132770833Y-92929819D01*
X132770833Y-92929819D02*
X132675595Y-92882200D01*
X132675595Y-92882200D02*
X132627976Y-92834580D01*
X159690476Y-90154819D02*
X160357142Y-91154819D01*
X160357142Y-90154819D02*
X159690476Y-91154819D01*
X161261904Y-91154819D02*
X160690476Y-91154819D01*
X160976190Y-91154819D02*
X160976190Y-90154819D01*
X160976190Y-90154819D02*
X160880952Y-90297676D01*
X160880952Y-90297676D02*
X160785714Y-90392914D01*
X160785714Y-90392914D02*
X160690476Y-90440533D01*
X133666667Y-106657200D02*
X133809524Y-106704819D01*
X133809524Y-106704819D02*
X134047619Y-106704819D01*
X134047619Y-106704819D02*
X134142857Y-106657200D01*
X134142857Y-106657200D02*
X134190476Y-106609580D01*
X134190476Y-106609580D02*
X134238095Y-106514342D01*
X134238095Y-106514342D02*
X134238095Y-106419104D01*
X134238095Y-106419104D02*
X134190476Y-106323866D01*
X134190476Y-106323866D02*
X134142857Y-106276247D01*
X134142857Y-106276247D02*
X134047619Y-106228628D01*
X134047619Y-106228628D02*
X133857143Y-106181009D01*
X133857143Y-106181009D02*
X133761905Y-106133390D01*
X133761905Y-106133390D02*
X133714286Y-106085771D01*
X133714286Y-106085771D02*
X133666667Y-105990533D01*
X133666667Y-105990533D02*
X133666667Y-105895295D01*
X133666667Y-105895295D02*
X133714286Y-105800057D01*
X133714286Y-105800057D02*
X133761905Y-105752438D01*
X133761905Y-105752438D02*
X133857143Y-105704819D01*
X133857143Y-105704819D02*
X134095238Y-105704819D01*
X134095238Y-105704819D02*
X134238095Y-105752438D01*
X134571429Y-105704819D02*
X134809524Y-106704819D01*
X134809524Y-106704819D02*
X135000000Y-105990533D01*
X135000000Y-105990533D02*
X135190476Y-106704819D01*
X135190476Y-106704819D02*
X135428572Y-105704819D01*
X136333333Y-106704819D02*
X135761905Y-106704819D01*
X136047619Y-106704819D02*
X136047619Y-105704819D01*
X136047619Y-105704819D02*
X135952381Y-105847676D01*
X135952381Y-105847676D02*
X135857143Y-105942914D01*
X135857143Y-105942914D02*
X135761905Y-105990533D01*
X138384819Y-120642857D02*
X137908628Y-120976190D01*
X138384819Y-121214285D02*
X137384819Y-121214285D01*
X137384819Y-121214285D02*
X137384819Y-120833333D01*
X137384819Y-120833333D02*
X137432438Y-120738095D01*
X137432438Y-120738095D02*
X137480057Y-120690476D01*
X137480057Y-120690476D02*
X137575295Y-120642857D01*
X137575295Y-120642857D02*
X137718152Y-120642857D01*
X137718152Y-120642857D02*
X137813390Y-120690476D01*
X137813390Y-120690476D02*
X137861009Y-120738095D01*
X137861009Y-120738095D02*
X137908628Y-120833333D01*
X137908628Y-120833333D02*
X137908628Y-121214285D01*
X138384819Y-119690476D02*
X138384819Y-120261904D01*
X138384819Y-119976190D02*
X137384819Y-119976190D01*
X137384819Y-119976190D02*
X137527676Y-120071428D01*
X137527676Y-120071428D02*
X137622914Y-120166666D01*
X137622914Y-120166666D02*
X137670533Y-120261904D01*
X137384819Y-119071428D02*
X137384819Y-118976190D01*
X137384819Y-118976190D02*
X137432438Y-118880952D01*
X137432438Y-118880952D02*
X137480057Y-118833333D01*
X137480057Y-118833333D02*
X137575295Y-118785714D01*
X137575295Y-118785714D02*
X137765771Y-118738095D01*
X137765771Y-118738095D02*
X138003866Y-118738095D01*
X138003866Y-118738095D02*
X138194342Y-118785714D01*
X138194342Y-118785714D02*
X138289580Y-118833333D01*
X138289580Y-118833333D02*
X138337200Y-118880952D01*
X138337200Y-118880952D02*
X138384819Y-118976190D01*
X138384819Y-118976190D02*
X138384819Y-119071428D01*
X138384819Y-119071428D02*
X138337200Y-119166666D01*
X138337200Y-119166666D02*
X138289580Y-119214285D01*
X138289580Y-119214285D02*
X138194342Y-119261904D01*
X138194342Y-119261904D02*
X138003866Y-119309523D01*
X138003866Y-119309523D02*
X137765771Y-119309523D01*
X137765771Y-119309523D02*
X137575295Y-119261904D01*
X137575295Y-119261904D02*
X137480057Y-119214285D01*
X137480057Y-119214285D02*
X137432438Y-119166666D01*
X137432438Y-119166666D02*
X137384819Y-119071428D01*
X148884819Y-112666666D02*
X148408628Y-112999999D01*
X148884819Y-113238094D02*
X147884819Y-113238094D01*
X147884819Y-113238094D02*
X147884819Y-112857142D01*
X147884819Y-112857142D02*
X147932438Y-112761904D01*
X147932438Y-112761904D02*
X147980057Y-112714285D01*
X147980057Y-112714285D02*
X148075295Y-112666666D01*
X148075295Y-112666666D02*
X148218152Y-112666666D01*
X148218152Y-112666666D02*
X148313390Y-112714285D01*
X148313390Y-112714285D02*
X148361009Y-112761904D01*
X148361009Y-112761904D02*
X148408628Y-112857142D01*
X148408628Y-112857142D02*
X148408628Y-113238094D01*
X147884819Y-111809523D02*
X147884819Y-111999999D01*
X147884819Y-111999999D02*
X147932438Y-112095237D01*
X147932438Y-112095237D02*
X147980057Y-112142856D01*
X147980057Y-112142856D02*
X148122914Y-112238094D01*
X148122914Y-112238094D02*
X148313390Y-112285713D01*
X148313390Y-112285713D02*
X148694342Y-112285713D01*
X148694342Y-112285713D02*
X148789580Y-112238094D01*
X148789580Y-112238094D02*
X148837200Y-112190475D01*
X148837200Y-112190475D02*
X148884819Y-112095237D01*
X148884819Y-112095237D02*
X148884819Y-111904761D01*
X148884819Y-111904761D02*
X148837200Y-111809523D01*
X148837200Y-111809523D02*
X148789580Y-111761904D01*
X148789580Y-111761904D02*
X148694342Y-111714285D01*
X148694342Y-111714285D02*
X148456247Y-111714285D01*
X148456247Y-111714285D02*
X148361009Y-111761904D01*
X148361009Y-111761904D02*
X148313390Y-111809523D01*
X148313390Y-111809523D02*
X148265771Y-111904761D01*
X148265771Y-111904761D02*
X148265771Y-112095237D01*
X148265771Y-112095237D02*
X148313390Y-112190475D01*
X148313390Y-112190475D02*
X148361009Y-112238094D01*
X148361009Y-112238094D02*
X148456247Y-112285713D01*
X144857142Y-120284819D02*
X144523809Y-119808628D01*
X144285714Y-120284819D02*
X144285714Y-119284819D01*
X144285714Y-119284819D02*
X144666666Y-119284819D01*
X144666666Y-119284819D02*
X144761904Y-119332438D01*
X144761904Y-119332438D02*
X144809523Y-119380057D01*
X144809523Y-119380057D02*
X144857142Y-119475295D01*
X144857142Y-119475295D02*
X144857142Y-119618152D01*
X144857142Y-119618152D02*
X144809523Y-119713390D01*
X144809523Y-119713390D02*
X144761904Y-119761009D01*
X144761904Y-119761009D02*
X144666666Y-119808628D01*
X144666666Y-119808628D02*
X144285714Y-119808628D01*
X145809523Y-120284819D02*
X145238095Y-120284819D01*
X145523809Y-120284819D02*
X145523809Y-119284819D01*
X145523809Y-119284819D02*
X145428571Y-119427676D01*
X145428571Y-119427676D02*
X145333333Y-119522914D01*
X145333333Y-119522914D02*
X145238095Y-119570533D01*
X146142857Y-119284819D02*
X146761904Y-119284819D01*
X146761904Y-119284819D02*
X146428571Y-119665771D01*
X146428571Y-119665771D02*
X146571428Y-119665771D01*
X146571428Y-119665771D02*
X146666666Y-119713390D01*
X146666666Y-119713390D02*
X146714285Y-119761009D01*
X146714285Y-119761009D02*
X146761904Y-119856247D01*
X146761904Y-119856247D02*
X146761904Y-120094342D01*
X146761904Y-120094342D02*
X146714285Y-120189580D01*
X146714285Y-120189580D02*
X146666666Y-120237200D01*
X146666666Y-120237200D02*
X146571428Y-120284819D01*
X146571428Y-120284819D02*
X146285714Y-120284819D01*
X146285714Y-120284819D02*
X146190476Y-120237200D01*
X146190476Y-120237200D02*
X146142857Y-120189580D01*
X165519580Y-90146666D02*
X165567200Y-90194285D01*
X165567200Y-90194285D02*
X165614819Y-90337142D01*
X165614819Y-90337142D02*
X165614819Y-90432380D01*
X165614819Y-90432380D02*
X165567200Y-90575237D01*
X165567200Y-90575237D02*
X165471961Y-90670475D01*
X165471961Y-90670475D02*
X165376723Y-90718094D01*
X165376723Y-90718094D02*
X165186247Y-90765713D01*
X165186247Y-90765713D02*
X165043390Y-90765713D01*
X165043390Y-90765713D02*
X164852914Y-90718094D01*
X164852914Y-90718094D02*
X164757676Y-90670475D01*
X164757676Y-90670475D02*
X164662438Y-90575237D01*
X164662438Y-90575237D02*
X164614819Y-90432380D01*
X164614819Y-90432380D02*
X164614819Y-90337142D01*
X164614819Y-90337142D02*
X164662438Y-90194285D01*
X164662438Y-90194285D02*
X164710057Y-90146666D01*
X164948152Y-89289523D02*
X165614819Y-89289523D01*
X164567200Y-89527618D02*
X165281485Y-89765713D01*
X165281485Y-89765713D02*
X165281485Y-89146666D01*
X154666667Y-106657200D02*
X154809524Y-106704819D01*
X154809524Y-106704819D02*
X155047619Y-106704819D01*
X155047619Y-106704819D02*
X155142857Y-106657200D01*
X155142857Y-106657200D02*
X155190476Y-106609580D01*
X155190476Y-106609580D02*
X155238095Y-106514342D01*
X155238095Y-106514342D02*
X155238095Y-106419104D01*
X155238095Y-106419104D02*
X155190476Y-106323866D01*
X155190476Y-106323866D02*
X155142857Y-106276247D01*
X155142857Y-106276247D02*
X155047619Y-106228628D01*
X155047619Y-106228628D02*
X154857143Y-106181009D01*
X154857143Y-106181009D02*
X154761905Y-106133390D01*
X154761905Y-106133390D02*
X154714286Y-106085771D01*
X154714286Y-106085771D02*
X154666667Y-105990533D01*
X154666667Y-105990533D02*
X154666667Y-105895295D01*
X154666667Y-105895295D02*
X154714286Y-105800057D01*
X154714286Y-105800057D02*
X154761905Y-105752438D01*
X154761905Y-105752438D02*
X154857143Y-105704819D01*
X154857143Y-105704819D02*
X155095238Y-105704819D01*
X155095238Y-105704819D02*
X155238095Y-105752438D01*
X155571429Y-105704819D02*
X155809524Y-106704819D01*
X155809524Y-106704819D02*
X156000000Y-105990533D01*
X156000000Y-105990533D02*
X156190476Y-106704819D01*
X156190476Y-106704819D02*
X156428572Y-105704819D01*
X156761905Y-105800057D02*
X156809524Y-105752438D01*
X156809524Y-105752438D02*
X156904762Y-105704819D01*
X156904762Y-105704819D02*
X157142857Y-105704819D01*
X157142857Y-105704819D02*
X157238095Y-105752438D01*
X157238095Y-105752438D02*
X157285714Y-105800057D01*
X157285714Y-105800057D02*
X157333333Y-105895295D01*
X157333333Y-105895295D02*
X157333333Y-105990533D01*
X157333333Y-105990533D02*
X157285714Y-106133390D01*
X157285714Y-106133390D02*
X156714286Y-106704819D01*
X156714286Y-106704819D02*
X157333333Y-106704819D01*
X165584819Y-88151666D02*
X165584819Y-88627856D01*
X165584819Y-88627856D02*
X164584819Y-88627856D01*
X165584819Y-87294523D02*
X165584819Y-87865951D01*
X165584819Y-87580237D02*
X164584819Y-87580237D01*
X164584819Y-87580237D02*
X164727676Y-87675475D01*
X164727676Y-87675475D02*
X164822914Y-87770713D01*
X164822914Y-87770713D02*
X164870533Y-87865951D01*
X108857142Y-91124819D02*
X108523809Y-90648628D01*
X108285714Y-91124819D02*
X108285714Y-90124819D01*
X108285714Y-90124819D02*
X108666666Y-90124819D01*
X108666666Y-90124819D02*
X108761904Y-90172438D01*
X108761904Y-90172438D02*
X108809523Y-90220057D01*
X108809523Y-90220057D02*
X108857142Y-90315295D01*
X108857142Y-90315295D02*
X108857142Y-90458152D01*
X108857142Y-90458152D02*
X108809523Y-90553390D01*
X108809523Y-90553390D02*
X108761904Y-90601009D01*
X108761904Y-90601009D02*
X108666666Y-90648628D01*
X108666666Y-90648628D02*
X108285714Y-90648628D01*
X109809523Y-91124819D02*
X109238095Y-91124819D01*
X109523809Y-91124819D02*
X109523809Y-90124819D01*
X109523809Y-90124819D02*
X109428571Y-90267676D01*
X109428571Y-90267676D02*
X109333333Y-90362914D01*
X109333333Y-90362914D02*
X109238095Y-90410533D01*
X110142857Y-90124819D02*
X110809523Y-90124819D01*
X110809523Y-90124819D02*
X110380952Y-91124819D01*
X141467261Y-120350057D02*
X141372023Y-120302438D01*
X141372023Y-120302438D02*
X141276785Y-120207200D01*
X141276785Y-120207200D02*
X141133928Y-120064342D01*
X141133928Y-120064342D02*
X141038690Y-120016723D01*
X141038690Y-120016723D02*
X140943452Y-120016723D01*
X140991071Y-120254819D02*
X140895833Y-120207200D01*
X140895833Y-120207200D02*
X140800595Y-120111961D01*
X140800595Y-120111961D02*
X140752976Y-119921485D01*
X140752976Y-119921485D02*
X140752976Y-119588152D01*
X140752976Y-119588152D02*
X140800595Y-119397676D01*
X140800595Y-119397676D02*
X140895833Y-119302438D01*
X140895833Y-119302438D02*
X140991071Y-119254819D01*
X140991071Y-119254819D02*
X141181547Y-119254819D01*
X141181547Y-119254819D02*
X141276785Y-119302438D01*
X141276785Y-119302438D02*
X141372023Y-119397676D01*
X141372023Y-119397676D02*
X141419642Y-119588152D01*
X141419642Y-119588152D02*
X141419642Y-119921485D01*
X141419642Y-119921485D02*
X141372023Y-120111961D01*
X141372023Y-120111961D02*
X141276785Y-120207200D01*
X141276785Y-120207200D02*
X141181547Y-120254819D01*
X141181547Y-120254819D02*
X140991071Y-120254819D01*
X142372023Y-120254819D02*
X141800595Y-120254819D01*
X142086309Y-120254819D02*
X142086309Y-119254819D01*
X142086309Y-119254819D02*
X141991071Y-119397676D01*
X141991071Y-119397676D02*
X141895833Y-119492914D01*
X141895833Y-119492914D02*
X141800595Y-119540533D01*
X134457142Y-109929580D02*
X134409523Y-109977200D01*
X134409523Y-109977200D02*
X134266666Y-110024819D01*
X134266666Y-110024819D02*
X134171428Y-110024819D01*
X134171428Y-110024819D02*
X134028571Y-109977200D01*
X134028571Y-109977200D02*
X133933333Y-109881961D01*
X133933333Y-109881961D02*
X133885714Y-109786723D01*
X133885714Y-109786723D02*
X133838095Y-109596247D01*
X133838095Y-109596247D02*
X133838095Y-109453390D01*
X133838095Y-109453390D02*
X133885714Y-109262914D01*
X133885714Y-109262914D02*
X133933333Y-109167676D01*
X133933333Y-109167676D02*
X134028571Y-109072438D01*
X134028571Y-109072438D02*
X134171428Y-109024819D01*
X134171428Y-109024819D02*
X134266666Y-109024819D01*
X134266666Y-109024819D02*
X134409523Y-109072438D01*
X134409523Y-109072438D02*
X134457142Y-109120057D01*
X135409523Y-110024819D02*
X134838095Y-110024819D01*
X135123809Y-110024819D02*
X135123809Y-109024819D01*
X135123809Y-109024819D02*
X135028571Y-109167676D01*
X135028571Y-109167676D02*
X134933333Y-109262914D01*
X134933333Y-109262914D02*
X134838095Y-109310533D01*
X135742857Y-109024819D02*
X136361904Y-109024819D01*
X136361904Y-109024819D02*
X136028571Y-109405771D01*
X136028571Y-109405771D02*
X136171428Y-109405771D01*
X136171428Y-109405771D02*
X136266666Y-109453390D01*
X136266666Y-109453390D02*
X136314285Y-109501009D01*
X136314285Y-109501009D02*
X136361904Y-109596247D01*
X136361904Y-109596247D02*
X136361904Y-109834342D01*
X136361904Y-109834342D02*
X136314285Y-109929580D01*
X136314285Y-109929580D02*
X136266666Y-109977200D01*
X136266666Y-109977200D02*
X136171428Y-110024819D01*
X136171428Y-110024819D02*
X135885714Y-110024819D01*
X135885714Y-110024819D02*
X135790476Y-109977200D01*
X135790476Y-109977200D02*
X135742857Y-109929580D01*
X159024819Y-109025594D02*
X158024819Y-109025594D01*
X158024819Y-109025594D02*
X158024819Y-108787499D01*
X158024819Y-108787499D02*
X158072438Y-108644642D01*
X158072438Y-108644642D02*
X158167676Y-108549404D01*
X158167676Y-108549404D02*
X158262914Y-108501785D01*
X158262914Y-108501785D02*
X158453390Y-108454166D01*
X158453390Y-108454166D02*
X158596247Y-108454166D01*
X158596247Y-108454166D02*
X158786723Y-108501785D01*
X158786723Y-108501785D02*
X158881961Y-108549404D01*
X158881961Y-108549404D02*
X158977200Y-108644642D01*
X158977200Y-108644642D02*
X159024819Y-108787499D01*
X159024819Y-108787499D02*
X159024819Y-109025594D01*
X158358152Y-107597023D02*
X159024819Y-107597023D01*
X157977200Y-107835118D02*
X158691485Y-108073213D01*
X158691485Y-108073213D02*
X158691485Y-107454166D01*
X179626666Y-83744819D02*
X179626666Y-84459104D01*
X179626666Y-84459104D02*
X179579047Y-84601961D01*
X179579047Y-84601961D02*
X179483809Y-84697200D01*
X179483809Y-84697200D02*
X179340952Y-84744819D01*
X179340952Y-84744819D02*
X179245714Y-84744819D01*
X180007619Y-83744819D02*
X180626666Y-83744819D01*
X180626666Y-83744819D02*
X180293333Y-84125771D01*
X180293333Y-84125771D02*
X180436190Y-84125771D01*
X180436190Y-84125771D02*
X180531428Y-84173390D01*
X180531428Y-84173390D02*
X180579047Y-84221009D01*
X180579047Y-84221009D02*
X180626666Y-84316247D01*
X180626666Y-84316247D02*
X180626666Y-84554342D01*
X180626666Y-84554342D02*
X180579047Y-84649580D01*
X180579047Y-84649580D02*
X180531428Y-84697200D01*
X180531428Y-84697200D02*
X180436190Y-84744819D01*
X180436190Y-84744819D02*
X180150476Y-84744819D01*
X180150476Y-84744819D02*
X180055238Y-84697200D01*
X180055238Y-84697200D02*
X180007619Y-84649580D01*
X165308333Y-90124819D02*
X164832143Y-90124819D01*
X164832143Y-90124819D02*
X164832143Y-89124819D01*
X165546429Y-89124819D02*
X166165476Y-89124819D01*
X166165476Y-89124819D02*
X165832143Y-89505771D01*
X165832143Y-89505771D02*
X165975000Y-89505771D01*
X165975000Y-89505771D02*
X166070238Y-89553390D01*
X166070238Y-89553390D02*
X166117857Y-89601009D01*
X166117857Y-89601009D02*
X166165476Y-89696247D01*
X166165476Y-89696247D02*
X166165476Y-89934342D01*
X166165476Y-89934342D02*
X166117857Y-90029580D01*
X166117857Y-90029580D02*
X166070238Y-90077200D01*
X166070238Y-90077200D02*
X165975000Y-90124819D01*
X165975000Y-90124819D02*
X165689286Y-90124819D01*
X165689286Y-90124819D02*
X165594048Y-90077200D01*
X165594048Y-90077200D02*
X165546429Y-90029580D01*
X166519580Y-90166666D02*
X166567200Y-90214285D01*
X166567200Y-90214285D02*
X166614819Y-90357142D01*
X166614819Y-90357142D02*
X166614819Y-90452380D01*
X166614819Y-90452380D02*
X166567200Y-90595237D01*
X166567200Y-90595237D02*
X166471961Y-90690475D01*
X166471961Y-90690475D02*
X166376723Y-90738094D01*
X166376723Y-90738094D02*
X166186247Y-90785713D01*
X166186247Y-90785713D02*
X166043390Y-90785713D01*
X166043390Y-90785713D02*
X165852914Y-90738094D01*
X165852914Y-90738094D02*
X165757676Y-90690475D01*
X165757676Y-90690475D02*
X165662438Y-90595237D01*
X165662438Y-90595237D02*
X165614819Y-90452380D01*
X165614819Y-90452380D02*
X165614819Y-90357142D01*
X165614819Y-90357142D02*
X165662438Y-90214285D01*
X165662438Y-90214285D02*
X165710057Y-90166666D01*
X165614819Y-89261904D02*
X165614819Y-89738094D01*
X165614819Y-89738094D02*
X166091009Y-89785713D01*
X166091009Y-89785713D02*
X166043390Y-89738094D01*
X166043390Y-89738094D02*
X165995771Y-89642856D01*
X165995771Y-89642856D02*
X165995771Y-89404761D01*
X165995771Y-89404761D02*
X166043390Y-89309523D01*
X166043390Y-89309523D02*
X166091009Y-89261904D01*
X166091009Y-89261904D02*
X166186247Y-89214285D01*
X166186247Y-89214285D02*
X166424342Y-89214285D01*
X166424342Y-89214285D02*
X166519580Y-89261904D01*
X166519580Y-89261904D02*
X166567200Y-89309523D01*
X166567200Y-89309523D02*
X166614819Y-89404761D01*
X166614819Y-89404761D02*
X166614819Y-89642856D01*
X166614819Y-89642856D02*
X166567200Y-89738094D01*
X166567200Y-89738094D02*
X166519580Y-89785713D01*
X161884819Y-105930357D02*
X161408628Y-106263690D01*
X161884819Y-106501785D02*
X160884819Y-106501785D01*
X160884819Y-106501785D02*
X160884819Y-106120833D01*
X160884819Y-106120833D02*
X160932438Y-106025595D01*
X160932438Y-106025595D02*
X160980057Y-105977976D01*
X160980057Y-105977976D02*
X161075295Y-105930357D01*
X161075295Y-105930357D02*
X161218152Y-105930357D01*
X161218152Y-105930357D02*
X161313390Y-105977976D01*
X161313390Y-105977976D02*
X161361009Y-106025595D01*
X161361009Y-106025595D02*
X161408628Y-106120833D01*
X161408628Y-106120833D02*
X161408628Y-106501785D01*
X161884819Y-104977976D02*
X161884819Y-105549404D01*
X161884819Y-105263690D02*
X160884819Y-105263690D01*
X160884819Y-105263690D02*
X161027676Y-105358928D01*
X161027676Y-105358928D02*
X161122914Y-105454166D01*
X161122914Y-105454166D02*
X161170533Y-105549404D01*
X160884819Y-104073214D02*
X160884819Y-104549404D01*
X160884819Y-104549404D02*
X161361009Y-104597023D01*
X161361009Y-104597023D02*
X161313390Y-104549404D01*
X161313390Y-104549404D02*
X161265771Y-104454166D01*
X161265771Y-104454166D02*
X161265771Y-104216071D01*
X161265771Y-104216071D02*
X161313390Y-104120833D01*
X161313390Y-104120833D02*
X161361009Y-104073214D01*
X161361009Y-104073214D02*
X161456247Y-104025595D01*
X161456247Y-104025595D02*
X161694342Y-104025595D01*
X161694342Y-104025595D02*
X161789580Y-104073214D01*
X161789580Y-104073214D02*
X161837200Y-104120833D01*
X161837200Y-104120833D02*
X161884819Y-104216071D01*
X161884819Y-104216071D02*
X161884819Y-104454166D01*
X161884819Y-104454166D02*
X161837200Y-104549404D01*
X161837200Y-104549404D02*
X161789580Y-104597023D01*
X164019580Y-96166666D02*
X164067200Y-96214285D01*
X164067200Y-96214285D02*
X164114819Y-96357142D01*
X164114819Y-96357142D02*
X164114819Y-96452380D01*
X164114819Y-96452380D02*
X164067200Y-96595237D01*
X164067200Y-96595237D02*
X163971961Y-96690475D01*
X163971961Y-96690475D02*
X163876723Y-96738094D01*
X163876723Y-96738094D02*
X163686247Y-96785713D01*
X163686247Y-96785713D02*
X163543390Y-96785713D01*
X163543390Y-96785713D02*
X163352914Y-96738094D01*
X163352914Y-96738094D02*
X163257676Y-96690475D01*
X163257676Y-96690475D02*
X163162438Y-96595237D01*
X163162438Y-96595237D02*
X163114819Y-96452380D01*
X163114819Y-96452380D02*
X163114819Y-96357142D01*
X163114819Y-96357142D02*
X163162438Y-96214285D01*
X163162438Y-96214285D02*
X163210057Y-96166666D01*
X164114819Y-95690475D02*
X164114819Y-95499999D01*
X164114819Y-95499999D02*
X164067200Y-95404761D01*
X164067200Y-95404761D02*
X164019580Y-95357142D01*
X164019580Y-95357142D02*
X163876723Y-95261904D01*
X163876723Y-95261904D02*
X163686247Y-95214285D01*
X163686247Y-95214285D02*
X163305295Y-95214285D01*
X163305295Y-95214285D02*
X163210057Y-95261904D01*
X163210057Y-95261904D02*
X163162438Y-95309523D01*
X163162438Y-95309523D02*
X163114819Y-95404761D01*
X163114819Y-95404761D02*
X163114819Y-95595237D01*
X163114819Y-95595237D02*
X163162438Y-95690475D01*
X163162438Y-95690475D02*
X163210057Y-95738094D01*
X163210057Y-95738094D02*
X163305295Y-95785713D01*
X163305295Y-95785713D02*
X163543390Y-95785713D01*
X163543390Y-95785713D02*
X163638628Y-95738094D01*
X163638628Y-95738094D02*
X163686247Y-95690475D01*
X163686247Y-95690475D02*
X163733866Y-95595237D01*
X163733866Y-95595237D02*
X163733866Y-95404761D01*
X163733866Y-95404761D02*
X163686247Y-95309523D01*
X163686247Y-95309523D02*
X163638628Y-95261904D01*
X163638628Y-95261904D02*
X163543390Y-95214285D01*
X111761905Y-92484819D02*
X111761905Y-91484819D01*
X111761905Y-91484819D02*
X112000000Y-91484819D01*
X112000000Y-91484819D02*
X112142857Y-91532438D01*
X112142857Y-91532438D02*
X112238095Y-91627676D01*
X112238095Y-91627676D02*
X112285714Y-91722914D01*
X112285714Y-91722914D02*
X112333333Y-91913390D01*
X112333333Y-91913390D02*
X112333333Y-92056247D01*
X112333333Y-92056247D02*
X112285714Y-92246723D01*
X112285714Y-92246723D02*
X112238095Y-92341961D01*
X112238095Y-92341961D02*
X112142857Y-92437200D01*
X112142857Y-92437200D02*
X112000000Y-92484819D01*
X112000000Y-92484819D02*
X111761905Y-92484819D01*
X113190476Y-91484819D02*
X113000000Y-91484819D01*
X113000000Y-91484819D02*
X112904762Y-91532438D01*
X112904762Y-91532438D02*
X112857143Y-91580057D01*
X112857143Y-91580057D02*
X112761905Y-91722914D01*
X112761905Y-91722914D02*
X112714286Y-91913390D01*
X112714286Y-91913390D02*
X112714286Y-92294342D01*
X112714286Y-92294342D02*
X112761905Y-92389580D01*
X112761905Y-92389580D02*
X112809524Y-92437200D01*
X112809524Y-92437200D02*
X112904762Y-92484819D01*
X112904762Y-92484819D02*
X113095238Y-92484819D01*
X113095238Y-92484819D02*
X113190476Y-92437200D01*
X113190476Y-92437200D02*
X113238095Y-92389580D01*
X113238095Y-92389580D02*
X113285714Y-92294342D01*
X113285714Y-92294342D02*
X113285714Y-92056247D01*
X113285714Y-92056247D02*
X113238095Y-91961009D01*
X113238095Y-91961009D02*
X113190476Y-91913390D01*
X113190476Y-91913390D02*
X113095238Y-91865771D01*
X113095238Y-91865771D02*
X112904762Y-91865771D01*
X112904762Y-91865771D02*
X112809524Y-91913390D01*
X112809524Y-91913390D02*
X112761905Y-91961009D01*
X112761905Y-91961009D02*
X112714286Y-92056247D01*
X165293333Y-86784819D02*
X164817143Y-86784819D01*
X164817143Y-86784819D02*
X164817143Y-85784819D01*
X165579048Y-85880057D02*
X165626667Y-85832438D01*
X165626667Y-85832438D02*
X165721905Y-85784819D01*
X165721905Y-85784819D02*
X165960000Y-85784819D01*
X165960000Y-85784819D02*
X166055238Y-85832438D01*
X166055238Y-85832438D02*
X166102857Y-85880057D01*
X166102857Y-85880057D02*
X166150476Y-85975295D01*
X166150476Y-85975295D02*
X166150476Y-86070533D01*
X166150476Y-86070533D02*
X166102857Y-86213390D01*
X166102857Y-86213390D02*
X165531429Y-86784819D01*
X165531429Y-86784819D02*
X166150476Y-86784819D01*
X149467261Y-115600057D02*
X149372023Y-115552438D01*
X149372023Y-115552438D02*
X149276785Y-115457200D01*
X149276785Y-115457200D02*
X149133928Y-115314342D01*
X149133928Y-115314342D02*
X149038690Y-115266723D01*
X149038690Y-115266723D02*
X148943452Y-115266723D01*
X148991071Y-115504819D02*
X148895833Y-115457200D01*
X148895833Y-115457200D02*
X148800595Y-115361961D01*
X148800595Y-115361961D02*
X148752976Y-115171485D01*
X148752976Y-115171485D02*
X148752976Y-114838152D01*
X148752976Y-114838152D02*
X148800595Y-114647676D01*
X148800595Y-114647676D02*
X148895833Y-114552438D01*
X148895833Y-114552438D02*
X148991071Y-114504819D01*
X148991071Y-114504819D02*
X149181547Y-114504819D01*
X149181547Y-114504819D02*
X149276785Y-114552438D01*
X149276785Y-114552438D02*
X149372023Y-114647676D01*
X149372023Y-114647676D02*
X149419642Y-114838152D01*
X149419642Y-114838152D02*
X149419642Y-115171485D01*
X149419642Y-115171485D02*
X149372023Y-115361961D01*
X149372023Y-115361961D02*
X149276785Y-115457200D01*
X149276785Y-115457200D02*
X149181547Y-115504819D01*
X149181547Y-115504819D02*
X148991071Y-115504819D01*
X149800595Y-114600057D02*
X149848214Y-114552438D01*
X149848214Y-114552438D02*
X149943452Y-114504819D01*
X149943452Y-114504819D02*
X150181547Y-114504819D01*
X150181547Y-114504819D02*
X150276785Y-114552438D01*
X150276785Y-114552438D02*
X150324404Y-114600057D01*
X150324404Y-114600057D02*
X150372023Y-114695295D01*
X150372023Y-114695295D02*
X150372023Y-114790533D01*
X150372023Y-114790533D02*
X150324404Y-114933390D01*
X150324404Y-114933390D02*
X149752976Y-115504819D01*
X149752976Y-115504819D02*
X150372023Y-115504819D01*
X159199580Y-85146666D02*
X159247200Y-85194285D01*
X159247200Y-85194285D02*
X159294819Y-85337142D01*
X159294819Y-85337142D02*
X159294819Y-85432380D01*
X159294819Y-85432380D02*
X159247200Y-85575237D01*
X159247200Y-85575237D02*
X159151961Y-85670475D01*
X159151961Y-85670475D02*
X159056723Y-85718094D01*
X159056723Y-85718094D02*
X158866247Y-85765713D01*
X158866247Y-85765713D02*
X158723390Y-85765713D01*
X158723390Y-85765713D02*
X158532914Y-85718094D01*
X158532914Y-85718094D02*
X158437676Y-85670475D01*
X158437676Y-85670475D02*
X158342438Y-85575237D01*
X158342438Y-85575237D02*
X158294819Y-85432380D01*
X158294819Y-85432380D02*
X158294819Y-85337142D01*
X158294819Y-85337142D02*
X158342438Y-85194285D01*
X158342438Y-85194285D02*
X158390057Y-85146666D01*
X159294819Y-84194285D02*
X159294819Y-84765713D01*
X159294819Y-84479999D02*
X158294819Y-84479999D01*
X158294819Y-84479999D02*
X158437676Y-84575237D01*
X158437676Y-84575237D02*
X158532914Y-84670475D01*
X158532914Y-84670475D02*
X158580533Y-84765713D01*
X171113095Y-94719819D02*
X171113095Y-95529342D01*
X171113095Y-95529342D02*
X171160714Y-95624580D01*
X171160714Y-95624580D02*
X171208333Y-95672200D01*
X171208333Y-95672200D02*
X171303571Y-95719819D01*
X171303571Y-95719819D02*
X171494047Y-95719819D01*
X171494047Y-95719819D02*
X171589285Y-95672200D01*
X171589285Y-95672200D02*
X171636904Y-95624580D01*
X171636904Y-95624580D02*
X171684523Y-95529342D01*
X171684523Y-95529342D02*
X171684523Y-94719819D01*
X172113095Y-94815057D02*
X172160714Y-94767438D01*
X172160714Y-94767438D02*
X172255952Y-94719819D01*
X172255952Y-94719819D02*
X172494047Y-94719819D01*
X172494047Y-94719819D02*
X172589285Y-94767438D01*
X172589285Y-94767438D02*
X172636904Y-94815057D01*
X172636904Y-94815057D02*
X172684523Y-94910295D01*
X172684523Y-94910295D02*
X172684523Y-95005533D01*
X172684523Y-95005533D02*
X172636904Y-95148390D01*
X172636904Y-95148390D02*
X172065476Y-95719819D01*
X172065476Y-95719819D02*
X172684523Y-95719819D01*
X140857142Y-110289580D02*
X140809523Y-110337200D01*
X140809523Y-110337200D02*
X140666666Y-110384819D01*
X140666666Y-110384819D02*
X140571428Y-110384819D01*
X140571428Y-110384819D02*
X140428571Y-110337200D01*
X140428571Y-110337200D02*
X140333333Y-110241961D01*
X140333333Y-110241961D02*
X140285714Y-110146723D01*
X140285714Y-110146723D02*
X140238095Y-109956247D01*
X140238095Y-109956247D02*
X140238095Y-109813390D01*
X140238095Y-109813390D02*
X140285714Y-109622914D01*
X140285714Y-109622914D02*
X140333333Y-109527676D01*
X140333333Y-109527676D02*
X140428571Y-109432438D01*
X140428571Y-109432438D02*
X140571428Y-109384819D01*
X140571428Y-109384819D02*
X140666666Y-109384819D01*
X140666666Y-109384819D02*
X140809523Y-109432438D01*
X140809523Y-109432438D02*
X140857142Y-109480057D01*
X141809523Y-110384819D02*
X141238095Y-110384819D01*
X141523809Y-110384819D02*
X141523809Y-109384819D01*
X141523809Y-109384819D02*
X141428571Y-109527676D01*
X141428571Y-109527676D02*
X141333333Y-109622914D01*
X141333333Y-109622914D02*
X141238095Y-109670533D01*
X142190476Y-109480057D02*
X142238095Y-109432438D01*
X142238095Y-109432438D02*
X142333333Y-109384819D01*
X142333333Y-109384819D02*
X142571428Y-109384819D01*
X142571428Y-109384819D02*
X142666666Y-109432438D01*
X142666666Y-109432438D02*
X142714285Y-109480057D01*
X142714285Y-109480057D02*
X142761904Y-109575295D01*
X142761904Y-109575295D02*
X142761904Y-109670533D01*
X142761904Y-109670533D02*
X142714285Y-109813390D01*
X142714285Y-109813390D02*
X142142857Y-110384819D01*
X142142857Y-110384819D02*
X142761904Y-110384819D01*
X155166666Y-120809819D02*
X155166666Y-121524104D01*
X155166666Y-121524104D02*
X155119047Y-121666961D01*
X155119047Y-121666961D02*
X155023809Y-121762200D01*
X155023809Y-121762200D02*
X154880952Y-121809819D01*
X154880952Y-121809819D02*
X154785714Y-121809819D01*
X156166666Y-121809819D02*
X155595238Y-121809819D01*
X155880952Y-121809819D02*
X155880952Y-120809819D01*
X155880952Y-120809819D02*
X155785714Y-120952676D01*
X155785714Y-120952676D02*
X155690476Y-121047914D01*
X155690476Y-121047914D02*
X155595238Y-121095533D01*
X137032142Y-119284819D02*
X136698809Y-118808628D01*
X136460714Y-119284819D02*
X136460714Y-118284819D01*
X136460714Y-118284819D02*
X136841666Y-118284819D01*
X136841666Y-118284819D02*
X136936904Y-118332438D01*
X136936904Y-118332438D02*
X136984523Y-118380057D01*
X136984523Y-118380057D02*
X137032142Y-118475295D01*
X137032142Y-118475295D02*
X137032142Y-118618152D01*
X137032142Y-118618152D02*
X136984523Y-118713390D01*
X136984523Y-118713390D02*
X136936904Y-118761009D01*
X136936904Y-118761009D02*
X136841666Y-118808628D01*
X136841666Y-118808628D02*
X136460714Y-118808628D01*
X137984523Y-119284819D02*
X137413095Y-119284819D01*
X137698809Y-119284819D02*
X137698809Y-118284819D01*
X137698809Y-118284819D02*
X137603571Y-118427676D01*
X137603571Y-118427676D02*
X137508333Y-118522914D01*
X137508333Y-118522914D02*
X137413095Y-118570533D01*
X138365476Y-118380057D02*
X138413095Y-118332438D01*
X138413095Y-118332438D02*
X138508333Y-118284819D01*
X138508333Y-118284819D02*
X138746428Y-118284819D01*
X138746428Y-118284819D02*
X138841666Y-118332438D01*
X138841666Y-118332438D02*
X138889285Y-118380057D01*
X138889285Y-118380057D02*
X138936904Y-118475295D01*
X138936904Y-118475295D02*
X138936904Y-118570533D01*
X138936904Y-118570533D02*
X138889285Y-118713390D01*
X138889285Y-118713390D02*
X138317857Y-119284819D01*
X138317857Y-119284819D02*
X138936904Y-119284819D01*
X160524819Y-84491666D02*
X160048628Y-84824999D01*
X160524819Y-85063094D02*
X159524819Y-85063094D01*
X159524819Y-85063094D02*
X159524819Y-84682142D01*
X159524819Y-84682142D02*
X159572438Y-84586904D01*
X159572438Y-84586904D02*
X159620057Y-84539285D01*
X159620057Y-84539285D02*
X159715295Y-84491666D01*
X159715295Y-84491666D02*
X159858152Y-84491666D01*
X159858152Y-84491666D02*
X159953390Y-84539285D01*
X159953390Y-84539285D02*
X160001009Y-84586904D01*
X160001009Y-84586904D02*
X160048628Y-84682142D01*
X160048628Y-84682142D02*
X160048628Y-85063094D01*
X160524819Y-83539285D02*
X160524819Y-84110713D01*
X160524819Y-83824999D02*
X159524819Y-83824999D01*
X159524819Y-83824999D02*
X159667676Y-83920237D01*
X159667676Y-83920237D02*
X159762914Y-84015475D01*
X159762914Y-84015475D02*
X159810533Y-84110713D01*
%TO.C,R5*%
D11*
X144977500Y-112737258D02*
X144977500Y-112262742D01*
X146022500Y-112737258D02*
X146022500Y-112262742D01*
%TO.C,R7*%
X170477500Y-91587742D02*
X170477500Y-92062258D01*
X171522500Y-91587742D02*
X171522500Y-92062258D01*
%TO.C,C10*%
X141288748Y-112090000D02*
X142711252Y-112090000D01*
X141288748Y-113910000D02*
X142711252Y-113910000D01*
%TO.C,C18*%
X132640580Y-84990000D02*
X132359420Y-84990000D01*
X132640580Y-86010000D02*
X132359420Y-86010000D01*
%TO.C,U6*%
X115640000Y-88640000D02*
X119760000Y-88640000D01*
X115640000Y-88735000D02*
X115640000Y-88640000D01*
X115640000Y-93760000D02*
X115640000Y-93665000D01*
X119760000Y-88640000D02*
X119760000Y-88735000D01*
X119760000Y-93665000D02*
X119760000Y-93760000D01*
X119760000Y-93760000D02*
X115640000Y-93760000D01*
X120300000Y-93670000D02*
X120540000Y-94000000D01*
X120060000Y-94000000D01*
X120300000Y-93670000D01*
G36*
X120540000Y-94000000D02*
G01*
X120060000Y-94000000D01*
X120300000Y-93670000D01*
X120540000Y-94000000D01*
G37*
%TO.C,C2*%
X157127836Y-83640000D02*
X156912164Y-83640000D01*
X157127836Y-84360000D02*
X156912164Y-84360000D01*
%TO.C,C16*%
X167640000Y-89872164D02*
X167640000Y-90087836D01*
X168360000Y-89872164D02*
X168360000Y-90087836D01*
%TO.C,R21*%
X128977500Y-96587742D02*
X128977500Y-97062258D01*
X130022500Y-96587742D02*
X130022500Y-97062258D01*
%TO.C,U5*%
D12*
X169555000Y-86445000D02*
X169555000Y-86740000D01*
X169555000Y-86445000D02*
X169850000Y-86445000D01*
X169555000Y-89445000D02*
X169555000Y-89150000D01*
X169555000Y-89445000D02*
X169850000Y-89445000D01*
X172555000Y-86445000D02*
X172260000Y-86445000D01*
X172555000Y-86445000D02*
X172555000Y-86740000D01*
X172555000Y-89445000D02*
X172260000Y-89445000D01*
X172555000Y-89445000D02*
X172555000Y-89150000D01*
D13*
X168700000Y-87195000D02*
G75*
G02*
X168500000Y-87195000I-100000J0D01*
G01*
X168500000Y-87195000D02*
G75*
G02*
X168700000Y-87195000I100000J0D01*
G01*
%TO.C,C3*%
D11*
X157127836Y-84640000D02*
X156912164Y-84640000D01*
X157127836Y-85360000D02*
X156912164Y-85360000D01*
%TO.C,U7*%
X127727500Y-89390000D02*
X129547500Y-89390000D01*
X127727500Y-89440000D02*
X127727500Y-89390000D01*
X127727500Y-91340000D02*
X127727500Y-90560000D01*
X127727500Y-92510000D02*
X127727500Y-92460000D01*
X129547500Y-89390000D02*
X129547500Y-89440000D01*
X129547500Y-92460000D02*
X129547500Y-92510000D01*
X129547500Y-92510000D02*
X127727500Y-92510000D01*
X130087500Y-92460000D02*
X130327500Y-92790000D01*
X129847500Y-92790000D01*
X130087500Y-92460000D01*
G36*
X130327500Y-92790000D02*
G01*
X129847500Y-92790000D01*
X130087500Y-92460000D01*
X130327500Y-92790000D01*
G37*
%TO.C,D7*%
X130360000Y-92825000D02*
X126350000Y-92825000D01*
X130360000Y-94825000D02*
X126350000Y-94825000D01*
X130360000Y-94825000D02*
X130360000Y-92825000D01*
%TO.C,R19*%
X153737258Y-116977500D02*
X153262742Y-116977500D01*
X153737258Y-118022500D02*
X153262742Y-118022500D01*
%TO.C,R16*%
X145262742Y-115977500D02*
X145737258Y-115977500D01*
X145262742Y-117022500D02*
X145737258Y-117022500D01*
%TO.C,C11*%
X141859420Y-110490000D02*
X142140580Y-110490000D01*
X141859420Y-111510000D02*
X142140580Y-111510000D01*
%TO.C,D1*%
X157500000Y-116790000D02*
X157500000Y-120800000D01*
X159500000Y-116790000D02*
X157500000Y-116790000D01*
X159500000Y-116790000D02*
X159500000Y-120800000D01*
%TO.C,R8*%
X147977500Y-112737258D02*
X147977500Y-112262742D01*
X149022500Y-112737258D02*
X149022500Y-112262742D01*
%TO.C,C14*%
X126590000Y-96588748D02*
X126590000Y-98011252D01*
X128410000Y-96588748D02*
X128410000Y-98011252D01*
%TO.C,C19*%
X133236252Y-82590000D02*
X131813748Y-82590000D01*
X133236252Y-84410000D02*
X131813748Y-84410000D01*
%TO.C,R11*%
X149937742Y-106477500D02*
X150412258Y-106477500D01*
X149937742Y-107522500D02*
X150412258Y-107522500D01*
%TO.C,D5*%
X111700000Y-92835000D02*
X113985000Y-92835000D01*
X113985000Y-91365000D02*
X111700000Y-91365000D01*
X113985000Y-92835000D02*
X113985000Y-91365000D01*
%TO.C,U9*%
X135900000Y-75740000D02*
X135900000Y-81940000D01*
X135900000Y-75740000D02*
X154300000Y-75740000D01*
X135900000Y-100590000D02*
X135900000Y-101590000D01*
X135900000Y-101590000D02*
X137400000Y-101590000D01*
X154300000Y-75740000D02*
X154300000Y-81940000D01*
X154300000Y-101590000D02*
X152800000Y-101590000D01*
X154300000Y-101590000D02*
X154300000Y-100590000D01*
X135900000Y-82615000D02*
X135400000Y-82615000D01*
X135900000Y-82115000D01*
X135900000Y-82615000D01*
G36*
X135900000Y-82615000D02*
G01*
X135400000Y-82615000D01*
X135900000Y-82115000D01*
X135900000Y-82615000D01*
G37*
%TO.C,D3*%
X130365000Y-107487500D02*
X130365000Y-109772500D01*
X130365000Y-109772500D02*
X131835000Y-109772500D01*
X131835000Y-109772500D02*
X131835000Y-107487500D01*
%TO.C,C8*%
X158140000Y-95892164D02*
X158140000Y-96107836D01*
X158860000Y-95892164D02*
X158860000Y-96107836D01*
%TO.C,D2*%
X131500000Y-116790000D02*
X131500000Y-120800000D01*
X133500000Y-116790000D02*
X131500000Y-116790000D01*
X133500000Y-116790000D02*
X133500000Y-120800000D01*
%TO.C,R14*%
X130577500Y-105087742D02*
X130577500Y-105562258D01*
X131622500Y-105087742D02*
X131622500Y-105562258D01*
%TO.C,R9*%
X133977500Y-119762742D02*
X133977500Y-120237258D01*
X135022500Y-119762742D02*
X135022500Y-120237258D01*
%TO.C,R23*%
X133977500Y-87762742D02*
X133977500Y-88237258D01*
X135022500Y-87762742D02*
X135022500Y-88237258D01*
%TO.C,J4*%
X113940000Y-79090000D02*
X113940000Y-86910000D01*
X113940000Y-85310000D02*
X114860000Y-85310000D01*
X113940000Y-86910000D02*
X114860000Y-86910000D01*
X114860000Y-85310000D02*
X115140000Y-85310000D01*
X114860000Y-86910000D02*
X114860000Y-85310000D01*
X116500000Y-83450000D02*
X116500000Y-79090000D01*
X117500000Y-79090000D02*
X117500000Y-83450000D01*
X117500000Y-83450000D02*
X116500000Y-83450000D01*
X118300000Y-81350000D02*
X118300000Y-79090000D01*
X118800000Y-81350000D02*
X118800000Y-79090000D01*
X118860000Y-85310000D02*
X118860000Y-86525000D01*
X118860000Y-85310000D02*
X119140000Y-85310000D01*
X119140000Y-85310000D02*
X119140000Y-86910000D01*
X119140000Y-86910000D02*
X120060000Y-86910000D01*
X120060000Y-79090000D02*
X113940000Y-79090000D01*
X120060000Y-85310000D02*
X119140000Y-85310000D01*
X120060000Y-86910000D02*
X120060000Y-79090000D01*
X114700000Y-81350000D02*
X115700000Y-81350000D01*
X115700000Y-82950000D01*
X114700000Y-82950000D01*
X114700000Y-81350000D01*
X118300000Y-81350000D02*
X119300000Y-81350000D01*
X119300000Y-82950000D01*
X118300000Y-82950000D01*
X118300000Y-81350000D01*
%TO.C,U1*%
X158390000Y-86390000D02*
X159115000Y-86390000D01*
X158390000Y-87115000D02*
X158390000Y-86390000D01*
X158390000Y-90610000D02*
X158390000Y-89885000D01*
X159115000Y-90610000D02*
X158390000Y-90610000D01*
X161885000Y-86390000D02*
X162610000Y-86390000D01*
X162610000Y-86390000D02*
X162610000Y-87115000D01*
X162610000Y-89885000D02*
X162610000Y-90610000D01*
X162610000Y-90610000D02*
X161885000Y-90610000D01*
X157890000Y-87500000D02*
X157560000Y-87740000D01*
X157560000Y-87260000D01*
X157890000Y-87500000D01*
G36*
X157890000Y-87500000D02*
G01*
X157560000Y-87740000D01*
X157560000Y-87260000D01*
X157890000Y-87500000D01*
G37*
%TO.C,U3*%
D12*
X103780000Y-105767500D02*
X106930000Y-105767500D01*
X103780000Y-115567500D02*
X103780000Y-105767500D01*
X106930000Y-115567500D02*
X103780000Y-115567500D01*
X106930000Y-115837500D02*
X106930000Y-115567500D01*
X108810000Y-102667500D02*
X109430000Y-102667500D01*
X109430000Y-96367500D02*
X120330000Y-96367500D01*
X109430000Y-102667500D02*
X109430000Y-96367500D01*
X110030000Y-118567500D02*
X108810000Y-118567500D01*
X110030000Y-121767500D02*
X110030000Y-118567500D01*
X119730000Y-118567500D02*
X119730000Y-121767500D01*
X120330000Y-96367500D02*
X120330000Y-102667500D01*
X120330000Y-102667500D02*
X120960000Y-102667500D01*
X120960000Y-118567500D02*
X119730000Y-118567500D01*
X122830000Y-106567500D02*
X124380000Y-106567500D01*
X122830000Y-114667500D02*
X122830000Y-115787500D01*
X124380000Y-106567500D02*
X124380000Y-114667500D01*
X124380000Y-114667500D02*
X122830000Y-114667500D01*
D13*
X108930000Y-97317500D02*
G75*
G02*
X108730000Y-97317500I-100000J0D01*
G01*
X108730000Y-97317500D02*
G75*
G02*
X108930000Y-97317500I100000J0D01*
G01*
%TO.C,R2*%
D11*
X155977500Y-119762742D02*
X155977500Y-120237258D01*
X157022500Y-119762742D02*
X157022500Y-120237258D01*
%TO.C,R3*%
X153977500Y-119762742D02*
X153977500Y-120237258D01*
X155022500Y-119762742D02*
X155022500Y-120237258D01*
%TO.C,C15*%
X167372164Y-88140000D02*
X167587836Y-88140000D01*
X167372164Y-88860000D02*
X167587836Y-88860000D01*
%TO.C,R20*%
X121977500Y-92762742D02*
X121977500Y-93237258D01*
X123022500Y-92762742D02*
X123022500Y-93237258D01*
%TO.C,U4*%
X143640000Y-105327500D02*
X144115000Y-105327500D01*
X143640000Y-105802500D02*
X143640000Y-105327500D01*
X143640000Y-109547500D02*
X143640000Y-109072500D01*
X144115000Y-109547500D02*
X143640000Y-109547500D01*
X147385000Y-105327500D02*
X147860000Y-105327500D01*
X147860000Y-105327500D02*
X147860000Y-105802500D01*
X147860000Y-109072500D02*
X147860000Y-109547500D01*
X147860000Y-109547500D02*
X147385000Y-109547500D01*
X143140000Y-106187500D02*
X142810000Y-106427500D01*
X142810000Y-105947500D01*
X143140000Y-106187500D01*
G36*
X143140000Y-106187500D02*
G01*
X142810000Y-106427500D01*
X142810000Y-105947500D01*
X143140000Y-106187500D01*
G37*
%TO.C,R18*%
X109262742Y-90077500D02*
X109737258Y-90077500D01*
X109262742Y-91122500D02*
X109737258Y-91122500D01*
%TO.C,J2*%
X130300000Y-125100000D02*
X130300000Y-127100000D01*
X130300000Y-129000000D02*
X130300000Y-130900000D01*
X130300000Y-130900000D02*
X139700000Y-130900000D01*
X139700000Y-125100000D02*
X139700000Y-127100000D01*
X139700000Y-129000000D02*
X139700000Y-130900000D01*
%TO.C,R4*%
X160262742Y-95477500D02*
X160737258Y-95477500D01*
X160262742Y-96522500D02*
X160737258Y-96522500D01*
%TO.C,C20*%
X131590000Y-88288748D02*
X131590000Y-89711252D01*
X133410000Y-88288748D02*
X133410000Y-89711252D01*
%TO.C,Q3*%
X131677500Y-93315000D02*
X133197500Y-93315000D01*
X131677500Y-93365000D02*
X131677500Y-93315000D01*
X131677500Y-95265000D02*
X131677500Y-94485000D01*
X131677500Y-96435000D02*
X131677500Y-96385000D01*
X133197500Y-93315000D02*
X133197500Y-94315000D01*
X133197500Y-95435000D02*
X133197500Y-96435000D01*
X133197500Y-96435000D02*
X131677500Y-96435000D01*
X131137500Y-94495000D02*
X131377500Y-94825000D01*
X130897500Y-94825000D01*
X131137500Y-94495000D01*
G36*
X131377500Y-94825000D02*
G01*
X130897500Y-94825000D01*
X131137500Y-94495000D01*
X131377500Y-94825000D01*
G37*
%TO.C,X1*%
X158440000Y-91440000D02*
X158440000Y-94860000D01*
X158440000Y-94860000D02*
X162560000Y-94860000D01*
%TO.C,SW1*%
X132930000Y-106930000D02*
X137070000Y-106930000D01*
X132930000Y-107230000D02*
X132930000Y-106930000D01*
X132930000Y-110070000D02*
X132930000Y-109770000D01*
X137070000Y-106930000D02*
X137070000Y-107230000D01*
X137070000Y-109770000D02*
X137070000Y-110070000D01*
X137070000Y-110070000D02*
X132930000Y-110070000D01*
%TO.C,R10*%
X135977500Y-119762742D02*
X135977500Y-120237258D01*
X137022500Y-119762742D02*
X137022500Y-120237258D01*
%TO.C,R6*%
X146477500Y-112262742D02*
X146477500Y-112737258D01*
X147522500Y-112262742D02*
X147522500Y-112737258D01*
%TO.C,R13*%
X145737258Y-117877500D02*
X145262742Y-117877500D01*
X145737258Y-118922500D02*
X145262742Y-118922500D01*
%TO.C,C4*%
X163640000Y-89872164D02*
X163640000Y-90087836D01*
X164360000Y-89872164D02*
X164360000Y-90087836D01*
%TO.C,SW2*%
X153930000Y-106930000D02*
X158070000Y-106930000D01*
X153930000Y-107230000D02*
X153930000Y-106930000D01*
X153930000Y-110070000D02*
X153930000Y-109770000D01*
X158070000Y-106930000D02*
X158070000Y-107230000D01*
X158070000Y-109770000D02*
X158070000Y-110070000D01*
X158070000Y-110070000D02*
X153930000Y-110070000D01*
%TO.C,R17*%
X109262742Y-91577500D02*
X109737258Y-91577500D01*
X109262742Y-92622500D02*
X109737258Y-92622500D01*
%TO.C,Q1*%
X140802500Y-115840000D02*
X142322500Y-115840000D01*
X140802500Y-116840000D02*
X140802500Y-115840000D01*
X140802500Y-118960000D02*
X140802500Y-117960000D01*
X142322500Y-115840000D02*
X142322500Y-115890000D01*
X142322500Y-117010000D02*
X142322500Y-117790000D01*
X142322500Y-118910000D02*
X142322500Y-118960000D01*
X142322500Y-118960000D02*
X140802500Y-118960000D01*
X142862500Y-117780000D02*
X142622500Y-117450000D01*
X143102500Y-117450000D01*
X142862500Y-117780000D01*
G36*
X142862500Y-117780000D02*
G01*
X142622500Y-117450000D01*
X143102500Y-117450000D01*
X142862500Y-117780000D01*
G37*
%TO.C,C13*%
X134959420Y-110490000D02*
X135240580Y-110490000D01*
X134959420Y-111510000D02*
X135240580Y-111510000D01*
%TO.C,D4*%
X159265000Y-107487500D02*
X159265000Y-109772500D01*
X159265000Y-109772500D02*
X160735000Y-109772500D01*
X160735000Y-109772500D02*
X160735000Y-107487500D01*
%TO.C,J3*%
X176605000Y-87590000D02*
X176605000Y-90490000D01*
X178510000Y-85685000D02*
X181410000Y-85685000D01*
X178510000Y-92395000D02*
X181410000Y-92395000D01*
X183315000Y-87590000D02*
X183315000Y-90490000D01*
%TO.C,C5*%
X164640000Y-89892164D02*
X164640000Y-90107836D01*
X165360000Y-89892164D02*
X165360000Y-90107836D01*
%TO.C,R15*%
X159477500Y-105050242D02*
X159477500Y-105524758D01*
X160522500Y-105050242D02*
X160522500Y-105524758D01*
%TO.C,C9*%
X162140000Y-95892164D02*
X162140000Y-96107836D01*
X162860000Y-95892164D02*
X162860000Y-96107836D01*
%TO.C,D6*%
X111700000Y-91335000D02*
X113985000Y-91335000D01*
X113985000Y-89865000D02*
X111700000Y-89865000D01*
X113985000Y-91335000D02*
X113985000Y-89865000D01*
%TO.C,Q2*%
X148802500Y-115890000D02*
X150322500Y-115890000D01*
X148802500Y-115940000D02*
X148802500Y-115890000D01*
X148802500Y-117840000D02*
X148802500Y-117060000D01*
X148802500Y-119010000D02*
X148802500Y-118960000D01*
X150322500Y-115890000D02*
X150322500Y-116890000D01*
X150322500Y-118010000D02*
X150322500Y-119010000D01*
X150322500Y-119010000D02*
X148802500Y-119010000D01*
X148262500Y-117070000D02*
X148502500Y-117400000D01*
X148022500Y-117400000D01*
X148262500Y-117070000D01*
G36*
X148502500Y-117400000D02*
G01*
X148022500Y-117400000D01*
X148262500Y-117070000D01*
X148502500Y-117400000D01*
G37*
%TO.C,C1*%
X159640000Y-85087836D02*
X159640000Y-84872164D01*
X160360000Y-85087836D02*
X160360000Y-84872164D01*
%TO.C,U2*%
D12*
X163400000Y-105600000D02*
X166550000Y-105600000D01*
X163400000Y-115400000D02*
X163400000Y-105600000D01*
X166550000Y-115400000D02*
X163400000Y-115400000D01*
X166550000Y-115670000D02*
X166550000Y-115400000D01*
X168430000Y-102500000D02*
X169050000Y-102500000D01*
X169050000Y-96200000D02*
X179950000Y-96200000D01*
X169050000Y-102500000D02*
X169050000Y-96200000D01*
X169650000Y-118400000D02*
X168430000Y-118400000D01*
X169650000Y-121600000D02*
X169650000Y-118400000D01*
X179350000Y-118400000D02*
X179350000Y-121600000D01*
X179950000Y-96200000D02*
X179950000Y-102500000D01*
X179950000Y-102500000D02*
X180580000Y-102500000D01*
X180580000Y-118400000D02*
X179350000Y-118400000D01*
X182450000Y-106400000D02*
X184000000Y-106400000D01*
X182450000Y-114500000D02*
X182450000Y-115620000D01*
X184000000Y-106400000D02*
X184000000Y-114500000D01*
X184000000Y-114500000D02*
X182450000Y-114500000D01*
D13*
X168550000Y-97150000D02*
G75*
G02*
X168350000Y-97150000I-100000J0D01*
G01*
X168350000Y-97150000D02*
G75*
G02*
X168550000Y-97150000I100000J0D01*
G01*
%TO.C,C12*%
D11*
X141640580Y-107990000D02*
X141359420Y-107990000D01*
X141640580Y-109010000D02*
X141359420Y-109010000D01*
%TO.C,J1*%
X150800000Y-125100000D02*
X150800000Y-127100000D01*
X150800000Y-129000000D02*
X150800000Y-130900000D01*
X150800000Y-130900000D02*
X160200000Y-130900000D01*
X160200000Y-125100000D02*
X160200000Y-127100000D01*
X160200000Y-129000000D02*
X160200000Y-130900000D01*
%TO.C,R12*%
X137912258Y-116877500D02*
X137437742Y-116877500D01*
X137912258Y-117922500D02*
X137437742Y-117922500D01*
%TO.C,R1*%
X160977500Y-84562258D02*
X160977500Y-84087742D01*
X162022500Y-84562258D02*
X162022500Y-84087742D01*
%TD*%
M02*
