%TF.GenerationSoftware,KiCad,Pcbnew,10.0.4*%
%TF.CreationDate,2026-07-23T14:40:07-04:00*%
%TF.ProjectId,swervecontrollerPCBv1,73776572-7665-4636-9f6e-74726f6c6c65,rev?*%
%TF.SameCoordinates,Original*%
%TF.FileFunction,Soldermask,Bot*%
%TF.FilePolarity,Negative*%
%FSLAX46Y46*%
G04 Gerber Fmt 4.6, Leading zero omitted, Abs format (unit mm)*
G04 Created by KiCad (PCBNEW 10.0.4) date 2026-07-23 14:40:07*
%MOMM*%
%LPD*%
G01*
G04 APERTURE LIST*
G04 Aperture macros list*
%AMRoundRect*
0 Rectangle with rounded corners*
0 $1 Rounding radius*
0 $2 $3 $4 $5 $6 $7 $8 $9 X,Y pos of 4 corners*
0 Add a 4 corners polygon primitive as box body*
4,1,4,$2,$3,$4,$5,$6,$7,$8,$9,$2,$3,0*
0 Add four circle primitives for the rounded corners*
1,1,$1+$1,$2,$3*
1,1,$1+$1,$4,$5*
1,1,$1+$1,$6,$7*
1,1,$1+$1,$8,$9*
0 Add four rect primitives between the rounded corners*
20,1,$1+$1,$2,$3,$4,$5,0*
20,1,$1+$1,$4,$5,$6,$7,0*
20,1,$1+$1,$6,$7,$8,$9,0*
20,1,$1+$1,$8,$9,$2,$3,0*%
G04 Aperture macros list end*
%ADD10RoundRect,0.250000X0.350000X0.625000X-0.350000X0.625000X-0.350000X-0.625000X0.350000X-0.625000X0*%
%ADD11O,1.200000X1.750000*%
%ADD12C,1.982000*%
%ADD13C,2.490000*%
%ADD14C,0.650000*%
%ADD15O,1.000000X2.100000*%
%ADD16O,1.000000X1.600000*%
%ADD17C,2.050000*%
%ADD18C,2.250000*%
G04 APERTURE END LIST*
D10*
%TO.C,J4*%
X118000000Y-85450000D03*
D11*
X116000000Y-85450000D03*
%TD*%
D12*
%TO.C,U3*%
X111705000Y-97967500D03*
X118055000Y-97967500D03*
X111705000Y-103047500D03*
X118055000Y-103047500D03*
X112340000Y-120827500D03*
X114880000Y-120827500D03*
X117420000Y-120827500D03*
D13*
X107260000Y-104000000D03*
X107260000Y-117335000D03*
X122500000Y-117335000D03*
X122500000Y-104000000D03*
D12*
X104720000Y-108127500D03*
X104720000Y-110667500D03*
X104720000Y-113207500D03*
%TD*%
D14*
%TO.C,J2*%
X132110000Y-124400000D03*
X137890000Y-124400000D03*
D15*
X130680000Y-123870000D03*
D16*
X130680000Y-128050000D03*
D15*
X139320000Y-123870000D03*
D16*
X139320000Y-128050000D03*
%TD*%
D17*
%TO.C,J3*%
X179960000Y-89040000D03*
D18*
X177420000Y-86500000D03*
X177420000Y-91580000D03*
X182500000Y-86500000D03*
X182500000Y-91580000D03*
%TD*%
D12*
%TO.C,U2*%
X171325000Y-97800000D03*
X177675000Y-97800000D03*
X171325000Y-102880000D03*
X177675000Y-102880000D03*
X171960000Y-120660000D03*
X174500000Y-120660000D03*
X177040000Y-120660000D03*
D13*
X166880000Y-103832500D03*
X166880000Y-117167500D03*
X182120000Y-117167500D03*
X182120000Y-103832500D03*
D12*
X164340000Y-107960000D03*
X164340000Y-110500000D03*
X164340000Y-113040000D03*
%TD*%
D14*
%TO.C,J1*%
X152610000Y-124400000D03*
X158390000Y-124400000D03*
D15*
X151180000Y-123870000D03*
D16*
X151180000Y-128050000D03*
D15*
X159820000Y-123870000D03*
D16*
X159820000Y-128050000D03*
%TD*%
M02*
