%TF.GenerationSoftware,KiCad,Pcbnew,10.0.4*%
%TF.CreationDate,2026-08-07T18:20:09-04:00*%
%TF.ProjectId,robotpcbv1,726f626f-7470-4636-9276-312e6b696361,rev?*%
%TF.SameCoordinates,Original*%
%TF.FileFunction,Paste,Top*%
%TF.FilePolarity,Positive*%
%FSLAX46Y46*%
G04 Gerber Fmt 4.6, Leading zero omitted, Abs format (unit mm)*
G04 Created by KiCad (PCBNEW 10.0.4) date 2026-08-07 18:20:09*
%MOMM*%
%LPD*%
G01*
G04 APERTURE LIST*
G04 Aperture macros list*
%AMRoundRect*
0 Rectangle with rounded corners*
0 $1 Rounding radius*
0 $2 $3 $4 $5 $6 $7 $8 $9 X,Y pos of 4 corners*
0 Add a 4 corners polygon primitive as box body*
4,1,4,$2,$3,$4,$5,$6,$7,$8,$9,$2,$3,0*
0 Add four circle primitives for the rounded corners*
1,1,$1+$1,$2,$3*
1,1,$1+$1,$4,$5*
1,1,$1+$1,$6,$7*
1,1,$1+$1,$8,$9*
0 Add four rect primitives between the rounded corners*
20,1,$1+$1,$2,$3,$4,$5,0*
20,1,$1+$1,$4,$5,$6,$7,0*
20,1,$1+$1,$6,$7,$8,$9,0*
20,1,$1+$1,$8,$9,$2,$3,0*%
G04 Aperture macros list end*
%ADD10RoundRect,0.150000X-0.512500X-0.150000X0.512500X-0.150000X0.512500X0.150000X-0.512500X0.150000X0*%
%ADD11RoundRect,0.225000X0.225000X0.250000X-0.225000X0.250000X-0.225000X-0.250000X0.225000X-0.250000X0*%
%ADD12RoundRect,0.200000X-0.275000X0.200000X-0.275000X-0.200000X0.275000X-0.200000X0.275000X0.200000X0*%
%ADD13RoundRect,0.200000X0.800000X-0.200000X0.800000X0.200000X-0.800000X0.200000X-0.800000X-0.200000X0*%
%ADD14RoundRect,0.140000X-0.170000X0.140000X-0.170000X-0.140000X0.170000X-0.140000X0.170000X0.140000X0*%
%ADD15RoundRect,0.200000X0.275000X-0.200000X0.275000X0.200000X-0.275000X0.200000X-0.275000X-0.200000X0*%
%ADD16RoundRect,0.250000X0.275000X0.275000X-0.275000X0.275000X-0.275000X-0.275000X0.275000X-0.275000X0*%
%ADD17RoundRect,0.062500X0.350000X0.062500X-0.350000X0.062500X-0.350000X-0.062500X0.350000X-0.062500X0*%
%ADD18RoundRect,0.062500X0.062500X0.350000X-0.062500X0.350000X-0.062500X-0.350000X0.062500X-0.350000X0*%
%ADD19RoundRect,0.147500X-0.147500X-0.172500X0.147500X-0.172500X0.147500X0.172500X-0.147500X0.172500X0*%
%ADD20RoundRect,0.247500X-0.247500X-0.682500X0.247500X-0.682500X0.247500X0.682500X-0.247500X0.682500X0*%
%ADD21RoundRect,0.100000X-0.687500X-0.100000X0.687500X-0.100000X0.687500X0.100000X-0.687500X0.100000X0*%
%ADD22RoundRect,0.225000X0.250000X-0.225000X0.250000X0.225000X-0.250000X0.225000X-0.250000X-0.225000X0*%
%ADD23RoundRect,0.140000X0.140000X0.170000X-0.140000X0.170000X-0.140000X-0.170000X0.140000X-0.170000X0*%
%ADD24RoundRect,0.225000X-0.375000X0.225000X-0.375000X-0.225000X0.375000X-0.225000X0.375000X0.225000X0*%
%ADD25R,2.450000X5.200000*%
%ADD26RoundRect,0.147500X-0.172500X0.147500X-0.172500X-0.147500X0.172500X-0.147500X0.172500X0.147500X0*%
%ADD27RoundRect,0.033750X-0.101250X0.371250X-0.101250X-0.371250X0.101250X-0.371250X0.101250X0.371250X0*%
%ADD28RoundRect,0.033750X-0.371250X0.101250X-0.371250X-0.101250X0.371250X-0.101250X0.371250X0.101250X0*%
%ADD29RoundRect,0.200000X-0.200000X-0.275000X0.200000X-0.275000X0.200000X0.275000X-0.200000X0.275000X0*%
%ADD30RoundRect,0.225000X-0.225000X-0.250000X0.225000X-0.250000X0.225000X0.250000X-0.225000X0.250000X0*%
%ADD31RoundRect,0.250000X0.325000X0.650000X-0.325000X0.650000X-0.325000X-0.650000X0.325000X-0.650000X0*%
%ADD32RoundRect,0.140000X-0.140000X-0.170000X0.140000X-0.170000X0.140000X0.170000X-0.140000X0.170000X0*%
%ADD33RoundRect,0.075000X-0.075000X0.350000X-0.075000X-0.350000X0.075000X-0.350000X0.075000X0.350000X0*%
%ADD34RoundRect,0.075000X-0.350000X-0.075000X0.350000X-0.075000X0.350000X0.075000X-0.350000X0.075000X0*%
%ADD35RoundRect,0.200000X0.200000X0.275000X-0.200000X0.275000X-0.200000X-0.275000X0.200000X-0.275000X0*%
%ADD36RoundRect,0.250000X0.250000X0.475000X-0.250000X0.475000X-0.250000X-0.475000X0.250000X-0.475000X0*%
%ADD37RoundRect,0.250000X-0.325000X-0.650000X0.325000X-0.650000X0.325000X0.650000X-0.325000X0.650000X0*%
%ADD38RoundRect,0.250000X-0.350000X0.450000X-0.350000X-0.450000X0.350000X-0.450000X0.350000X0.450000X0*%
%ADD39RoundRect,0.150000X0.587500X0.150000X-0.587500X0.150000X-0.587500X-0.150000X0.587500X-0.150000X0*%
%ADD40RoundRect,0.150000X-0.587500X-0.150000X0.587500X-0.150000X0.587500X0.150000X-0.587500X0.150000X0*%
%ADD41RoundRect,0.225000X-0.250000X0.225000X-0.250000X-0.225000X0.250000X-0.225000X0.250000X0.225000X0*%
%ADD42RoundRect,0.250000X-0.475000X0.250000X-0.475000X-0.250000X0.475000X-0.250000X0.475000X0.250000X0*%
%ADD43RoundRect,0.250000X-0.255000X0.255000X-0.255000X-0.255000X0.255000X-0.255000X0.255000X0.255000X0*%
%ADD44RoundRect,0.062500X-0.062500X0.350000X-0.062500X-0.350000X0.062500X-0.350000X0.062500X0.350000X0*%
%ADD45RoundRect,0.062500X-0.350000X0.062500X-0.350000X-0.062500X0.350000X-0.062500X0.350000X0.062500X0*%
%ADD46RoundRect,0.147500X0.172500X-0.147500X0.172500X0.147500X-0.172500X0.147500X-0.172500X-0.147500X0*%
%ADD47R,0.900000X0.900000*%
%ADD48R,1.500000X0.900000*%
%ADD49R,0.900000X1.500000*%
G04 APERTURE END LIST*
D10*
%TO.C,U6*%
X132980000Y-95765000D03*
X132980000Y-96715000D03*
X132980000Y-97665000D03*
X135255000Y-97665000D03*
X135255000Y-96715000D03*
X135255000Y-95765000D03*
%TD*%
D11*
%TO.C,C22*%
X124105000Y-91600000D03*
X122555000Y-91600000D03*
%TD*%
D12*
%TO.C,R9*%
X136715000Y-106715000D03*
X136715000Y-108365000D03*
%TD*%
D13*
%TO.C,SW4*%
X154460000Y-93130000D03*
X154460000Y-88930000D03*
%TD*%
D14*
%TO.C,C2*%
X169835000Y-97650000D03*
X169835000Y-98610000D03*
%TD*%
%TO.C,C3*%
X168795000Y-97650000D03*
X168795000Y-98610000D03*
%TD*%
D15*
%TO.C,R6*%
X146122500Y-98582500D03*
X146122500Y-96932500D03*
%TD*%
D16*
%TO.C,U4*%
X145832500Y-102565000D03*
X145832500Y-101265000D03*
X144532500Y-102565000D03*
X144532500Y-101265000D03*
D17*
X147120000Y-103165000D03*
X147120000Y-102665000D03*
X147120000Y-102165000D03*
X147120000Y-101665000D03*
X147120000Y-101165000D03*
X147120000Y-100665000D03*
D18*
X146432500Y-99977500D03*
X145932500Y-99977500D03*
X145432500Y-99977500D03*
X144932500Y-99977500D03*
X144432500Y-99977500D03*
X143932500Y-99977500D03*
D17*
X143245000Y-100665000D03*
X143245000Y-101165000D03*
X143245000Y-101665000D03*
X143245000Y-102165000D03*
X143245000Y-102665000D03*
X143245000Y-103165000D03*
D18*
X143932500Y-103852500D03*
X144432500Y-103852500D03*
X144932500Y-103852500D03*
X145432500Y-103852500D03*
X145932500Y-103852500D03*
X146432500Y-103852500D03*
%TD*%
D19*
%TO.C,L1*%
X164905000Y-100550000D03*
X165875000Y-100550000D03*
%TD*%
D20*
%TO.C,U13*%
X125635000Y-74860000D03*
X126865000Y-74860000D03*
D21*
X123387500Y-72585000D03*
X123387500Y-73235000D03*
X123387500Y-73885000D03*
X123387500Y-74535000D03*
X123387500Y-75185000D03*
X123387500Y-75835000D03*
X123387500Y-76485000D03*
X123387500Y-77135000D03*
X129112500Y-77135000D03*
X129112500Y-76485000D03*
X129112500Y-75835000D03*
X129112500Y-75185000D03*
X129112500Y-74535000D03*
X129112500Y-73885000D03*
X129112500Y-73235000D03*
X129112500Y-72585000D03*
%TD*%
D22*
%TO.C,C18*%
X134730000Y-69435000D03*
X134730000Y-67885000D03*
%TD*%
D23*
%TO.C,C8*%
X158630000Y-95375000D03*
X157670000Y-95375000D03*
%TD*%
D24*
%TO.C,D3*%
X133170000Y-99237500D03*
X133170000Y-102537500D03*
%TD*%
D25*
%TO.C,L4*%
X125725000Y-98155000D03*
X129525000Y-98155000D03*
%TD*%
D26*
%TO.C,L2*%
X164860000Y-101580000D03*
X164860000Y-102550000D03*
%TD*%
D12*
%TO.C,R4*%
X158635000Y-96570000D03*
X158635000Y-98220000D03*
%TD*%
D27*
%TO.C,U5*%
X167270000Y-105950000D03*
X166770000Y-105950000D03*
X166270000Y-105950000D03*
X165770000Y-105950000D03*
D28*
X165075000Y-106645000D03*
X165075000Y-107145000D03*
X165075000Y-107645000D03*
X165075000Y-108145000D03*
D27*
X165770000Y-108840000D03*
X166270000Y-108840000D03*
X166770000Y-108840000D03*
X167270000Y-108840000D03*
D28*
X167965000Y-108145000D03*
X167965000Y-107645000D03*
X167965000Y-107145000D03*
X167965000Y-106645000D03*
%TD*%
D29*
%TO.C,R13*%
X144885000Y-89820000D03*
X146535000Y-89820000D03*
%TD*%
D15*
%TO.C,R12*%
X151945000Y-91575000D03*
X151945000Y-89925000D03*
%TD*%
D12*
%TO.C,R2*%
X150635000Y-106685000D03*
X150635000Y-108335000D03*
%TD*%
D30*
%TO.C,C12*%
X148562500Y-100932500D03*
X150112500Y-100932500D03*
%TD*%
D12*
%TO.C,R5*%
X147652500Y-96932500D03*
X147652500Y-98582500D03*
%TD*%
%TO.C,R8*%
X144582500Y-96932500D03*
X144582500Y-98582500D03*
%TD*%
D31*
%TO.C,C6*%
X138185000Y-99635000D03*
X135235000Y-99635000D03*
%TD*%
D32*
%TO.C,C1*%
X168835000Y-96660000D03*
X169795000Y-96660000D03*
%TD*%
D12*
%TO.C,R19*%
X139495000Y-89985000D03*
X139495000Y-91635000D03*
%TD*%
D24*
%TO.C,D1*%
X152585000Y-104985000D03*
X152585000Y-108285000D03*
%TD*%
D33*
%TO.C,U12*%
X128780000Y-88470000D03*
X128280000Y-88470000D03*
X127780000Y-88470000D03*
X127280000Y-88470000D03*
X126780000Y-88470000D03*
X126280000Y-88470000D03*
D34*
X125580000Y-89170000D03*
X125580000Y-89670000D03*
X125580000Y-90170000D03*
X125580000Y-90670000D03*
X125580000Y-91170000D03*
X125580000Y-91670000D03*
D33*
X126280000Y-92370000D03*
X126780000Y-92370000D03*
X127280000Y-92370000D03*
X127780000Y-92370000D03*
X128280000Y-92370000D03*
X128780000Y-92370000D03*
D34*
X129480000Y-91670000D03*
X129480000Y-91170000D03*
X129480000Y-90670000D03*
X129480000Y-90170000D03*
X129480000Y-89670000D03*
X129480000Y-89170000D03*
%TD*%
D35*
%TO.C,R7*%
X163680000Y-107410000D03*
X162030000Y-107410000D03*
%TD*%
D23*
%TO.C,C40*%
X131657500Y-81475000D03*
X130697500Y-81475000D03*
%TD*%
D31*
%TO.C,C20*%
X133100000Y-70760000D03*
X130150000Y-70760000D03*
%TD*%
D32*
%TO.C,C16*%
X166910000Y-104480000D03*
X167870000Y-104480000D03*
%TD*%
D30*
%TO.C,C38*%
X130930000Y-79540000D03*
X132480000Y-79540000D03*
%TD*%
D12*
%TO.C,R23*%
X134720000Y-70880000D03*
X134720000Y-72530000D03*
%TD*%
D31*
%TO.C,C19*%
X133090000Y-68350000D03*
X130140000Y-68350000D03*
%TD*%
D35*
%TO.C,R11*%
X141852500Y-100985000D03*
X140202500Y-100985000D03*
%TD*%
D36*
%TO.C,C13*%
X130245000Y-102045000D03*
X128345000Y-102045000D03*
%TD*%
D12*
%TO.C,R1*%
X168920000Y-100575000D03*
X168920000Y-102225000D03*
%TD*%
D11*
%TO.C,C11*%
X150712500Y-99392500D03*
X149162500Y-99392500D03*
%TD*%
D37*
%TO.C,C21*%
X124200000Y-86560000D03*
X127150000Y-86560000D03*
%TD*%
D35*
%TO.C,R14*%
X124160000Y-90070000D03*
X122510000Y-90070000D03*
%TD*%
D13*
%TO.C,SW3*%
X136975000Y-92845000D03*
X136975000Y-88645000D03*
%TD*%
D29*
%TO.C,R17*%
X156735000Y-84670000D03*
X158385000Y-84670000D03*
%TD*%
D20*
%TO.C,U14*%
X125642500Y-80505000D03*
X126872500Y-80505000D03*
D21*
X123395000Y-78230000D03*
X123395000Y-78880000D03*
X123395000Y-79530000D03*
X123395000Y-80180000D03*
X123395000Y-80830000D03*
X123395000Y-81480000D03*
X123395000Y-82130000D03*
X123395000Y-82780000D03*
X129120000Y-82780000D03*
X129120000Y-82130000D03*
X129120000Y-81480000D03*
X129120000Y-80830000D03*
X129120000Y-80180000D03*
X129120000Y-79530000D03*
X129120000Y-78880000D03*
X129120000Y-78230000D03*
%TD*%
D12*
%TO.C,R3*%
X147565000Y-106685000D03*
X147565000Y-108335000D03*
%TD*%
D38*
%TO.C,X1*%
X160355000Y-96290000D03*
X160355000Y-98490000D03*
X162055000Y-98490000D03*
X162055000Y-96290000D03*
%TD*%
D35*
%TO.C,R16*%
X146535000Y-91730000D03*
X144885000Y-91730000D03*
%TD*%
D23*
%TO.C,C9*%
X158710000Y-99455000D03*
X157750000Y-99455000D03*
%TD*%
%TO.C,C5*%
X163750000Y-101250000D03*
X162790000Y-101250000D03*
%TD*%
D39*
%TO.C,Q2*%
X143160000Y-91750000D03*
X143160000Y-89850000D03*
X141285000Y-90800000D03*
%TD*%
D40*
%TO.C,Q1*%
X148260000Y-89810000D03*
X148260000Y-91710000D03*
X150135000Y-90760000D03*
%TD*%
D35*
%TO.C,R15*%
X158380000Y-83150000D03*
X156730000Y-83150000D03*
%TD*%
D41*
%TO.C,C17*%
X134485000Y-91200000D03*
X134485000Y-92750000D03*
%TD*%
D23*
%TO.C,C4*%
X163730000Y-100190000D03*
X162770000Y-100190000D03*
%TD*%
D12*
%TO.C,R10*%
X139425000Y-106715000D03*
X139425000Y-108365000D03*
%TD*%
D42*
%TO.C,C33*%
X156770000Y-78700000D03*
X156770000Y-80600000D03*
%TD*%
D24*
%TO.C,D4*%
X135600000Y-101600000D03*
X135600000Y-104900000D03*
%TD*%
D43*
%TO.C,U1*%
X166257500Y-96755000D03*
X165007500Y-96755000D03*
X166257500Y-98005000D03*
X165007500Y-98005000D03*
D44*
X166632500Y-95442500D03*
X166132500Y-95442500D03*
X165632500Y-95442500D03*
X165132500Y-95442500D03*
X164632500Y-95442500D03*
D45*
X163695000Y-96380000D03*
X163695000Y-96880000D03*
X163695000Y-97380000D03*
X163695000Y-97880000D03*
X163695000Y-98380000D03*
D44*
X164632500Y-99317500D03*
X165132500Y-99317500D03*
X165632500Y-99317500D03*
X166132500Y-99317500D03*
X166632500Y-99317500D03*
D45*
X167570000Y-98380000D03*
X167570000Y-97880000D03*
X167570000Y-97380000D03*
X167570000Y-96880000D03*
X167570000Y-96380000D03*
%TD*%
D14*
%TO.C,C7*%
X136710000Y-95660000D03*
X136710000Y-96620000D03*
%TD*%
%TO.C,C15*%
X165950000Y-103550000D03*
X165950000Y-104510000D03*
%TD*%
D30*
%TO.C,C35*%
X130925000Y-73900000D03*
X132475000Y-73900000D03*
%TD*%
D46*
%TO.C,L3*%
X165940000Y-102560000D03*
X165940000Y-101590000D03*
%TD*%
D32*
%TO.C,C23*%
X128930000Y-87250000D03*
X129890000Y-87250000D03*
%TD*%
D14*
%TO.C,C24*%
X130740000Y-91110000D03*
X130740000Y-92070000D03*
%TD*%
D11*
%TO.C,C14*%
X124100000Y-88550000D03*
X122550000Y-88550000D03*
%TD*%
D31*
%TO.C,C10*%
X152232500Y-97432500D03*
X149282500Y-97432500D03*
%TD*%
D24*
%TO.C,D2*%
X141395000Y-105017500D03*
X141395000Y-108317500D03*
%TD*%
D23*
%TO.C,C37*%
X131640000Y-75840000D03*
X130680000Y-75840000D03*
%TD*%
D42*
%TO.C,C30*%
X156760000Y-72990000D03*
X156760000Y-74890000D03*
%TD*%
D47*
%TO.C,U9*%
X142395606Y-77400000D03*
X142400000Y-74600000D03*
X142400000Y-76000000D03*
X143795606Y-77400000D03*
X143800000Y-74600000D03*
X143800000Y-76000000D03*
X145195606Y-77400000D03*
X145200000Y-74600000D03*
X145200000Y-76000000D03*
D48*
X136550000Y-68280000D03*
X136550000Y-69550000D03*
X136550000Y-70820000D03*
X136550000Y-72090000D03*
X136550000Y-73360000D03*
X136550000Y-74630000D03*
X136550000Y-75900000D03*
X136550000Y-77170000D03*
X136550000Y-78440000D03*
X136550000Y-79710000D03*
X136550000Y-80980000D03*
X136550000Y-82250000D03*
X136550000Y-83520000D03*
X136550000Y-84790000D03*
D49*
X138315000Y-86040000D03*
X139585000Y-86040000D03*
X140855000Y-86040000D03*
X142125000Y-86040000D03*
X143395000Y-86040000D03*
X144665000Y-86040000D03*
X145935000Y-86040000D03*
X147205000Y-86040000D03*
X148475000Y-86040000D03*
X149745000Y-86040000D03*
X151015000Y-86040000D03*
X152285000Y-86040000D03*
D48*
X154050000Y-84790000D03*
X154050000Y-83520000D03*
X154050000Y-82250000D03*
X154050000Y-80980000D03*
X154050000Y-79710000D03*
X154050000Y-78440000D03*
X154050000Y-77170000D03*
X154050000Y-75900000D03*
X154050000Y-74630000D03*
X154050000Y-73360000D03*
X154050000Y-72090000D03*
X154050000Y-70820000D03*
X154050000Y-69550000D03*
X154050000Y-68280000D03*
%TD*%
M02*
