%TF.GenerationSoftware,KiCad,Pcbnew,10.0.4*%
%TF.CreationDate,2026-08-07T18:20:09-04:00*%
%TF.ProjectId,robotpcbv1,726f626f-7470-4636-9276-312e6b696361,rev?*%
%TF.SameCoordinates,Original*%
%TF.FileFunction,Copper,L4,Bot*%
%TF.FilePolarity,Positive*%
%FSLAX46Y46*%
G04 Gerber Fmt 4.6, Leading zero omitted, Abs format (unit mm)*
G04 Created by KiCad (PCBNEW 10.0.4) date 2026-08-07 18:20:09*
%MOMM*%
%LPD*%
G01*
G04 APERTURE LIST*
G04 Aperture macros list*
%AMRoundRect*
0 Rectangle with rounded corners*
0 $1 Rounding radius*
0 $2 $3 $4 $5 $6 $7 $8 $9 X,Y pos of 4 corners*
0 Add a 4 corners polygon primitive as box body*
4,1,4,$2,$3,$4,$5,$6,$7,$8,$9,$2,$3,0*
0 Add four circle primitives for the rounded corners*
1,1,$1+$1,$2,$3*
1,1,$1+$1,$4,$5*
1,1,$1+$1,$6,$7*
1,1,$1+$1,$8,$9*
0 Add four rect primitives between the rounded corners*
20,1,$1+$1,$2,$3,$4,$5,0*
20,1,$1+$1,$4,$5,$6,$7,0*
20,1,$1+$1,$6,$7,$8,$9,0*
20,1,$1+$1,$8,$9,$2,$3,0*%
G04 Aperture macros list end*
%TA.AperFunction,HeatsinkPad*%
%ADD10C,0.500000*%
%TD*%
%TA.AperFunction,HeatsinkPad*%
%ADD11R,2.500000X4.100000*%
%TD*%
%TA.AperFunction,ComponentPad*%
%ADD12C,2.050000*%
%TD*%
%TA.AperFunction,ComponentPad*%
%ADD13C,2.250000*%
%TD*%
%TA.AperFunction,HeatsinkPad*%
%ADD14C,0.600000*%
%TD*%
%TA.AperFunction,SMDPad,CuDef*%
%ADD15C,1.000000*%
%TD*%
%TA.AperFunction,SMDPad,CuDef*%
%ADD16RoundRect,0.150000X0.150000X0.575000X-0.150000X0.575000X-0.150000X-0.575000X0.150000X-0.575000X0*%
%TD*%
%TA.AperFunction,SMDPad,CuDef*%
%ADD17RoundRect,0.075000X0.075000X0.650000X-0.075000X0.650000X-0.075000X-0.650000X0.075000X-0.650000X0*%
%TD*%
%TA.AperFunction,ComponentPad*%
%ADD18O,1.000000X1.600000*%
%TD*%
%TA.AperFunction,ComponentPad*%
%ADD19O,1.000000X2.100000*%
%TD*%
%TA.AperFunction,SMDPad,CuDef*%
%ADD20RoundRect,0.250000X-0.475000X0.250000X-0.475000X-0.250000X0.475000X-0.250000X0.475000X0.250000X0*%
%TD*%
%TA.AperFunction,SMDPad,CuDef*%
%ADD21RoundRect,0.100000X0.637500X0.100000X-0.637500X0.100000X-0.637500X-0.100000X0.637500X-0.100000X0*%
%TD*%
%TA.AperFunction,SMDPad,CuDef*%
%ADD22RoundRect,0.140000X-0.140000X-0.170000X0.140000X-0.170000X0.140000X0.170000X-0.140000X0.170000X0*%
%TD*%
%TA.AperFunction,SMDPad,CuDef*%
%ADD23RoundRect,0.225000X0.225000X0.250000X-0.225000X0.250000X-0.225000X-0.250000X0.225000X-0.250000X0*%
%TD*%
%TA.AperFunction,SMDPad,CuDef*%
%ADD24RoundRect,0.100000X0.687500X0.100000X-0.687500X0.100000X-0.687500X-0.100000X0.687500X-0.100000X0*%
%TD*%
%TA.AperFunction,HeatsinkPad*%
%ADD25R,3.400000X5.000000*%
%TD*%
%TA.AperFunction,SMDPad,CuDef*%
%ADD26RoundRect,0.200000X0.275000X-0.200000X0.275000X0.200000X-0.275000X0.200000X-0.275000X-0.200000X0*%
%TD*%
%TA.AperFunction,ComponentPad*%
%ADD27RoundRect,1.500000X-1.500000X1.500000X-1.500000X-1.500000X1.500000X-1.500000X1.500000X1.500000X0*%
%TD*%
%TA.AperFunction,ComponentPad*%
%ADD28C,6.000000*%
%TD*%
%TA.AperFunction,SMDPad,CuDef*%
%ADD29RoundRect,0.218750X0.256250X-0.218750X0.256250X0.218750X-0.256250X0.218750X-0.256250X-0.218750X0*%
%TD*%
%TA.AperFunction,ViaPad*%
%ADD30C,0.600000*%
%TD*%
%TA.AperFunction,ViaPad*%
%ADD31C,1.000000*%
%TD*%
%TA.AperFunction,Conductor*%
%ADD32C,0.500000*%
%TD*%
%TA.AperFunction,Conductor*%
%ADD33C,0.200000*%
%TD*%
%TA.AperFunction,Conductor*%
%ADD34C,0.150000*%
%TD*%
G04 APERTURE END LIST*
D10*
%TO.P,U13,17,GND_17*%
%TO.N,GND*%
X125250000Y-73060000D03*
X125250000Y-74260000D03*
X125250000Y-75460000D03*
X125250000Y-76660000D03*
X126250000Y-73060000D03*
X126250000Y-74260000D03*
D11*
X126250000Y-74860000D03*
D10*
X126250000Y-75460000D03*
X126250000Y-76660000D03*
X127250000Y-73060000D03*
X127250000Y-74260000D03*
X127250000Y-75460000D03*
X127250000Y-76660000D03*
%TD*%
D12*
%TO.P,J3,1,In_1*%
%TO.N,Net-(J3-In)*%
X166670000Y-114430000D03*
D13*
%TO.P,J3,2,Ext_2*%
%TO.N,GND*%
X169210000Y-111890000D03*
X164130000Y-111890000D03*
X169210000Y-116970000D03*
X164130000Y-116970000D03*
%TD*%
D10*
%TO.P,U14,17,GND_17*%
%TO.N,GND*%
X125257500Y-78705000D03*
X125257500Y-79905000D03*
X125257500Y-81105000D03*
X125257500Y-82305000D03*
X126257500Y-78705000D03*
X126257500Y-79905000D03*
D11*
X126257500Y-80505000D03*
D10*
X126257500Y-81105000D03*
X126257500Y-82305000D03*
X127257500Y-78705000D03*
X127257500Y-79905000D03*
X127257500Y-81105000D03*
X127257500Y-82305000D03*
%TD*%
D14*
%TO.P,U9,41,GND_41*%
%TO.N,GND*%
X142400000Y-75300000D03*
X142400000Y-76700000D03*
X143100000Y-74600000D03*
X143100000Y-76000000D03*
X143100000Y-77400000D03*
X143800000Y-75300000D03*
X143800000Y-76700000D03*
X144500000Y-74600000D03*
X144500000Y-76000000D03*
X144500000Y-77400000D03*
X145200000Y-75300000D03*
X145200000Y-76700000D03*
%TD*%
D15*
%TO.P,TP9,1,1_1*%
%TO.N,/out1mo1*%
X169940000Y-67800000D03*
%TD*%
%TO.P,TP34,1,1_1*%
%TO.N,/mod4encSDA*%
X119940000Y-117800000D03*
%TD*%
%TO.P,TP37,1,1_1*%
%TO.N,/mod2encSCL*%
X169920000Y-87720000D03*
%TD*%
%TO.P,TP14,1,1_1*%
%TO.N,Net-(U9-IO13)*%
X159600000Y-67780000D03*
%TD*%
%TO.P,TP24,1,1_1*%
%TO.N,/out4mo2*%
X169940000Y-79900000D03*
%TD*%
%TO.P,TP16,1,1_1*%
%TO.N,Net-(U9-IO8)*%
X125500000Y-68950000D03*
%TD*%
%TO.P,TP19,1,1_1*%
%TO.N,Net-(U9-IO9)*%
X119940000Y-111220000D03*
%TD*%
%TO.P,TP8,1,1_1*%
%TO.N,/out4mo4*%
X119920000Y-81750000D03*
%TD*%
D16*
%TO.P,J2,A1,GND_A1*%
%TO.N,GND*%
X141515000Y-110630000D03*
%TO.P,J2,A4,VBUS_A4*%
%TO.N,Net-(D2-A)*%
X140715000Y-110630000D03*
D17*
%TO.P,J2,A5,CC1_A5*%
%TO.N,Net-(J2-CC1)*%
X139515000Y-110630000D03*
%TO.P,J2,A6,D+_A6*%
%TO.N,/GPIO 20*%
X138515000Y-110630000D03*
%TO.P,J2,A7,D-_A7*%
%TO.N,/GPIO 19*%
X138015000Y-110630000D03*
%TO.P,J2,A8,SBU1_A8*%
%TO.N,unconnected-(J2-SBU1-PadA8)*%
X137015000Y-110630000D03*
D16*
%TO.P,J2,A9,VBUS_A9*%
%TO.N,Net-(D2-A)*%
X135815000Y-110630000D03*
%TO.P,J2,A12,GND_A12*%
%TO.N,GND*%
X135015000Y-110630000D03*
%TO.P,J2,B1,GND_B1*%
X135015000Y-110630000D03*
%TO.P,J2,B4,VBUS_B4*%
%TO.N,Net-(D2-A)*%
X135815000Y-110630000D03*
D17*
%TO.P,J2,B5,CC2_B5*%
%TO.N,Net-(J2-CC2)*%
X136515000Y-110630000D03*
%TO.P,J2,B6,D+_B6*%
%TO.N,/GPIO 20*%
X137515000Y-110630000D03*
%TO.P,J2,B7,D-_B7*%
%TO.N,/GPIO 19*%
X139015000Y-110630000D03*
%TO.P,J2,B8,SBU2_B8*%
%TO.N,unconnected-(J2-SBU2-PadB8)*%
X140015000Y-110630000D03*
D16*
%TO.P,J2,B9,VBUS_B9*%
%TO.N,Net-(D2-A)*%
X140715000Y-110630000D03*
%TO.P,J2,B12,GND_B12*%
%TO.N,GND*%
X141515000Y-110630000D03*
D18*
%TO.P,J2,SH,SHIELD_SH*%
X142585000Y-115725000D03*
D19*
X142585000Y-111545000D03*
D18*
X133945000Y-115725000D03*
D19*
X133945000Y-111545000D03*
%TD*%
D15*
%TO.P,TP30,1,1_1*%
%TO.N,/out2mo3*%
X119970000Y-71490000D03*
%TD*%
%TO.P,TP12,1,1_1*%
%TO.N,/out4mo1*%
X169960000Y-71806667D03*
%TD*%
%TO.P,TP6,1,1_1*%
%TO.N,/out2mo4*%
X119930000Y-79750000D03*
%TD*%
D20*
%TO.P,C39,1*%
%TO.N,/7.4v*%
X133137500Y-81525000D03*
%TO.P,C39,2*%
%TO.N,GND*%
X133137500Y-83425000D03*
%TD*%
D15*
%TO.P,TP39,1,1_1*%
%TO.N,/mod1encSCL*%
X169930000Y-85720000D03*
%TD*%
D21*
%TO.P,U11,1,A0_1*%
%TO.N,GND*%
X165815000Y-82960000D03*
%TO.P,U11,2,A1_2*%
X165815000Y-83610000D03*
%TO.P,U11,3,~{RESET}_3*%
%TO.N,VDD*%
X165815000Y-84260000D03*
%TO.P,U11,4,SD0_4*%
%TO.N,/mod1encSDA*%
X165815000Y-84910000D03*
%TO.P,U11,5,SC0_5*%
%TO.N,/mod1encSCL*%
X165815000Y-85560000D03*
%TO.P,U11,6,SD1_6*%
%TO.N,unconnected-(U11-SD1-Pad6)*%
X165815000Y-86210000D03*
%TO.P,U11,7,SC1_7*%
%TO.N,unconnected-(U11-SC1-Pad7)*%
X165815000Y-86860000D03*
%TO.P,U11,8,SD2_8*%
%TO.N,/mod2encSDA*%
X165815000Y-87510000D03*
%TO.P,U11,9,SC2_9*%
%TO.N,/mod2encSCL*%
X165815000Y-88160000D03*
%TO.P,U11,10,SD3_10*%
%TO.N,unconnected-(U11-SD3-Pad10)*%
X165815000Y-88810000D03*
%TO.P,U11,11,SC3_11*%
%TO.N,unconnected-(U11-SC3-Pad11)*%
X165815000Y-89460000D03*
%TO.P,U11,12,GND_12*%
%TO.N,GND*%
X165815000Y-90110000D03*
%TO.P,U11,13,SD4_13*%
%TO.N,/mod3encSDA*%
X160090000Y-90110000D03*
%TO.P,U11,14,SC4_14*%
%TO.N,/mod3encSCL*%
X160090000Y-89460000D03*
%TO.P,U11,15,SD5_15*%
%TO.N,unconnected-(U11-SD5-Pad15)*%
X160090000Y-88810000D03*
%TO.P,U11,16,SC5_16*%
%TO.N,unconnected-(U11-SC5-Pad16)*%
X160090000Y-88160000D03*
%TO.P,U11,17,SD6_17*%
%TO.N,unconnected-(U11-SD6-Pad17)*%
X160090000Y-87510000D03*
%TO.P,U11,18,SC6_18*%
%TO.N,unconnected-(U11-SC6-Pad18)*%
X160090000Y-86860000D03*
%TO.P,U11,19,SD7_19*%
%TO.N,/mod4encSDA*%
X160090000Y-86210000D03*
%TO.P,U11,20,SC7_20*%
%TO.N,/mod4encSCL*%
X160090000Y-85560000D03*
%TO.P,U11,21,A2_21*%
%TO.N,GND*%
X160090000Y-84910000D03*
%TO.P,U11,22,SCL_22*%
%TO.N,/SCLbus*%
X160090000Y-84260000D03*
%TO.P,U11,23,SDA_23*%
%TO.N,/SDAbus*%
X160090000Y-83610000D03*
%TO.P,U11,24,VCC_24*%
%TO.N,VDD*%
X160090000Y-82960000D03*
%TD*%
D15*
%TO.P,TP33,1,1_1*%
%TO.N,/mod4encSCL*%
X119930000Y-115790000D03*
%TD*%
%TO.P,TP11,1,1_1*%
%TO.N,/out3mo1*%
X169950000Y-73810000D03*
%TD*%
%TO.P,TP61,1,1_1*%
%TO.N,VDD*%
X164900000Y-67880000D03*
%TD*%
%TO.P,TP38,1,1_1*%
%TO.N,/mod2encSDA*%
X167910000Y-87660000D03*
%TD*%
D22*
%TO.P,C34,1*%
%TO.N,/7.4v*%
X158280000Y-78420000D03*
%TO.P,C34,2*%
%TO.N,/VCP2*%
X159240000Y-78420000D03*
%TD*%
D23*
%TO.P,C32,1*%
%TO.N,Net-(U10-VINT)*%
X158990000Y-76460000D03*
%TO.P,C32,2*%
%TO.N,GND*%
X157440000Y-76460000D03*
%TD*%
D15*
%TO.P,TP35,1,1_1*%
%TO.N,/mod3encSCL*%
X155870000Y-117810000D03*
%TD*%
%TO.P,TP57,1,1_1*%
%TO.N,GND*%
X162620000Y-67880000D03*
%TD*%
%TO.P,TP22,1,1_1*%
%TO.N,/out2mo2*%
X169930000Y-77900000D03*
%TD*%
%TO.P,TP17,1,1_1*%
%TO.N,Net-(U9-IO12)*%
X158630000Y-115800000D03*
%TD*%
%TO.P,TP10,1,1_1*%
%TO.N,/out2mo1*%
X169940000Y-69803333D03*
%TD*%
D23*
%TO.P,C29,1*%
%TO.N,Net-(U8-VINT)*%
X158987500Y-70805000D03*
%TO.P,C29,2*%
%TO.N,GND*%
X157437500Y-70805000D03*
%TD*%
D15*
%TO.P,TP15,1,1_1*%
%TO.N,Net-(U9-IO3)*%
X125520000Y-70970000D03*
%TD*%
D24*
%TO.P,U10,1,~{SLEEP}_1*%
%TO.N,VDD*%
X166525000Y-75150000D03*
%TO.P,U10,2,AOUT1_2*%
%TO.N,/out1mo2*%
X166525000Y-75800000D03*
%TO.P,U10,3,AISEN_3*%
%TO.N,GND*%
X166525000Y-76450000D03*
%TO.P,U10,4,AOUT2_4*%
%TO.N,/out2mo2*%
X166525000Y-77100000D03*
%TO.P,U10,5,BOUT2_5*%
%TO.N,/out4mo2*%
X166525000Y-77750000D03*
%TO.P,U10,6,BISEN_6*%
%TO.N,GND*%
X166525000Y-78400000D03*
%TO.P,U10,7,BOUT1_7*%
%TO.N,/out3mo2*%
X166525000Y-79050000D03*
%TO.P,U10,8,~{FAULT}_8*%
%TO.N,unconnected-(U10-~{FAULT}-Pad8)*%
X166525000Y-79700000D03*
%TO.P,U10,9,BIN1_9*%
%TO.N,/in3mo2*%
X160800000Y-79700000D03*
%TO.P,U10,10,BIN2_10*%
%TO.N,/in4mo2*%
X160800000Y-79050000D03*
%TO.P,U10,11,VCP_11*%
%TO.N,/VCP2*%
X160800000Y-78400000D03*
%TO.P,U10,12,VM_12*%
%TO.N,/7.4v*%
X160800000Y-77750000D03*
%TO.P,U10,13,GND_13*%
%TO.N,GND*%
X160800000Y-77100000D03*
%TO.P,U10,14,VINT_14*%
%TO.N,Net-(U10-VINT)*%
X160800000Y-76450000D03*
%TO.P,U10,15,AIN2_15*%
%TO.N,/in2mo2*%
X160800000Y-75800000D03*
%TO.P,U10,16,AIN1_16*%
%TO.N,/in1mo2*%
X160800000Y-75150000D03*
D10*
%TO.P,U10,17,GND_17*%
%TO.N,GND*%
X164662500Y-79225000D03*
X164662500Y-78025000D03*
X164662500Y-76825000D03*
X164662500Y-75625000D03*
X163662500Y-79225000D03*
X163662500Y-78025000D03*
D25*
X163662500Y-77425000D03*
D10*
X163662500Y-76825000D03*
X163662500Y-75625000D03*
X162662500Y-79225000D03*
X162662500Y-78025000D03*
X162662500Y-76825000D03*
X162662500Y-75625000D03*
%TD*%
D22*
%TO.P,C31,1*%
%TO.N,/7.4v*%
X158272500Y-72725000D03*
%TO.P,C31,2*%
%TO.N,/VCP1*%
X159232500Y-72725000D03*
%TD*%
D15*
%TO.P,TP23,1,1_1*%
%TO.N,/out3mo2*%
X169950000Y-81900000D03*
%TD*%
%TO.P,TP64,1,1_1*%
%TO.N,VDD*%
X119940000Y-108880000D03*
%TD*%
D16*
%TO.P,J1,A1,GND_A1*%
%TO.N,GND*%
X152305000Y-110600000D03*
%TO.P,J1,A4,VBUS_A4*%
%TO.N,Net-(D1-A)*%
X151505000Y-110600000D03*
D17*
%TO.P,J1,A5,CC1_A5*%
%TO.N,Net-(J1-CC1)*%
X150305000Y-110600000D03*
%TO.P,J1,A6,D+_A6*%
%TO.N,/DATA+*%
X149305000Y-110600000D03*
%TO.P,J1,A7,D-_A7*%
%TO.N,/DATA-*%
X148805000Y-110600000D03*
%TO.P,J1,A8,SBU1_A8*%
%TO.N,unconnected-(J1-SBU1-PadA8)*%
X147805000Y-110600000D03*
D16*
%TO.P,J1,A9,VBUS_A9*%
%TO.N,Net-(D1-A)*%
X146605000Y-110600000D03*
%TO.P,J1,A12,GND_A12*%
%TO.N,GND*%
X145805000Y-110600000D03*
%TO.P,J1,B1,GND_B1*%
X145805000Y-110600000D03*
%TO.P,J1,B4,VBUS_B4*%
%TO.N,Net-(D1-A)*%
X146605000Y-110600000D03*
D17*
%TO.P,J1,B5,CC2_B5*%
%TO.N,Net-(J1-CC2)*%
X147305000Y-110600000D03*
%TO.P,J1,B6,D+_B6*%
%TO.N,/DATA+*%
X148305000Y-110600000D03*
%TO.P,J1,B7,D-_B7*%
%TO.N,/DATA-*%
X149805000Y-110600000D03*
%TO.P,J1,B8,SBU2_B8*%
%TO.N,unconnected-(J1-SBU2-PadB8)*%
X150805000Y-110600000D03*
D16*
%TO.P,J1,B9,VBUS_B9*%
%TO.N,Net-(D1-A)*%
X151505000Y-110600000D03*
%TO.P,J1,B12,GND_B12*%
%TO.N,GND*%
X152305000Y-110600000D03*
D18*
%TO.P,J1,SH,SHIELD_SH*%
X153375000Y-115695000D03*
D19*
X153375000Y-111515000D03*
D18*
X144735000Y-115695000D03*
D19*
X144735000Y-111515000D03*
%TD*%
D15*
%TO.P,TP18,1,1_1*%
%TO.N,Net-(U9-IO11)*%
X158630000Y-117800000D03*
%TD*%
%TO.P,TP40,1,1_1*%
%TO.N,/mod1encSDA*%
X167920000Y-85660000D03*
%TD*%
%TO.P,TP21,1,1_1*%
%TO.N,/out1mo2*%
X169930000Y-75900000D03*
%TD*%
%TO.P,TP29,1,1_1*%
%TO.N,/out1mo3*%
X119970000Y-69490000D03*
%TD*%
%TO.P,TP60,1,1_1*%
%TO.N,GND*%
X119960000Y-106680000D03*
%TD*%
%TO.P,TP31,1,1_1*%
%TO.N,/out3mo3*%
X120020000Y-75510000D03*
%TD*%
D24*
%TO.P,U8,1,~{SLEEP}_1*%
%TO.N,VDD*%
X166525000Y-69490000D03*
%TO.P,U8,2,AOUT1_2*%
%TO.N,/out1mo1*%
X166525000Y-70140000D03*
%TO.P,U8,3,AISEN_3*%
%TO.N,GND*%
X166525000Y-70790000D03*
%TO.P,U8,4,AOUT2_4*%
%TO.N,/out2mo1*%
X166525000Y-71440000D03*
%TO.P,U8,5,BOUT2_5*%
%TO.N,/out4mo1*%
X166525000Y-72090000D03*
%TO.P,U8,6,BISEN_6*%
%TO.N,GND*%
X166525000Y-72740000D03*
%TO.P,U8,7,BOUT1_7*%
%TO.N,/out3mo1*%
X166525000Y-73390000D03*
%TO.P,U8,8,~{FAULT}_8*%
%TO.N,unconnected-(U8-~{FAULT}-Pad8)*%
X166525000Y-74040000D03*
%TO.P,U8,9,BIN1_9*%
%TO.N,/in3mo1*%
X160800000Y-74040000D03*
%TO.P,U8,10,BIN2_10*%
%TO.N,/in4mo1*%
X160800000Y-73390000D03*
%TO.P,U8,11,VCP_11*%
%TO.N,/VCP1*%
X160800000Y-72740000D03*
%TO.P,U8,12,VM_12*%
%TO.N,/7.4v*%
X160800000Y-72090000D03*
%TO.P,U8,13,GND_13*%
%TO.N,GND*%
X160800000Y-71440000D03*
%TO.P,U8,14,VINT_14*%
%TO.N,Net-(U8-VINT)*%
X160800000Y-70790000D03*
%TO.P,U8,15,AIN2_15*%
%TO.N,/in2mo1*%
X160800000Y-70140000D03*
%TO.P,U8,16,AIN1_16*%
%TO.N,/in1mo1*%
X160800000Y-69490000D03*
D10*
%TO.P,U8,17,GND_17*%
%TO.N,GND*%
X164662500Y-73565000D03*
X164662500Y-72365000D03*
X164662500Y-71165000D03*
X164662500Y-69965000D03*
X163662500Y-73565000D03*
X163662500Y-72365000D03*
D25*
X163662500Y-71765000D03*
D10*
X163662500Y-71165000D03*
X163662500Y-69965000D03*
X162662500Y-73565000D03*
X162662500Y-72365000D03*
X162662500Y-71165000D03*
X162662500Y-69965000D03*
%TD*%
D15*
%TO.P,TP58,1,1_1*%
%TO.N,GND*%
X155880000Y-113360000D03*
%TD*%
%TO.P,TP62,1,1_1*%
%TO.N,VDD*%
X158590000Y-113360000D03*
%TD*%
%TO.P,TP63,1,1_1*%
%TO.N,VDD*%
X121400000Y-67820000D03*
%TD*%
%TO.P,TP7,1,1_1*%
%TO.N,/out3mo4*%
X119940000Y-83760000D03*
%TD*%
%TO.P,TP36,1,1_1*%
%TO.N,/mod3encSDA*%
X155880000Y-115800000D03*
%TD*%
D26*
%TO.P,R24,1*%
%TO.N,Net-(D9-A)*%
X122020000Y-97355000D03*
%TO.P,R24,2*%
%TO.N,VDD*%
X122020000Y-95705000D03*
%TD*%
D15*
%TO.P,TP13,1,1_1*%
%TO.N,Net-(U9-IO46)*%
X157590000Y-67830000D03*
%TD*%
%TO.P,TP32,1,1_1*%
%TO.N,/out4mo3*%
X119970000Y-73500000D03*
%TD*%
%TO.P,TP20,1,1_1*%
%TO.N,Net-(U9-IO10)*%
X119940000Y-113220000D03*
%TD*%
D27*
%TO.P,J4,1,Pin_1_1*%
%TO.N,/7.4v*%
X128215000Y-107005000D03*
D28*
%TO.P,J4,2,Pin_2_2*%
%TO.N,GND*%
X128215000Y-114205000D03*
%TD*%
D15*
%TO.P,TP5,1,1_1*%
%TO.N,/out1mo4*%
X119930000Y-77740000D03*
%TD*%
D29*
%TO.P,D9,1,K_1*%
%TO.N,GND*%
X122010000Y-100345000D03*
%TO.P,D9,2,A_2*%
%TO.N,Net-(D9-A)*%
X122010000Y-98770000D03*
%TD*%
D20*
%TO.P,C36,1*%
%TO.N,/7.4v*%
X133117500Y-75855000D03*
%TO.P,C36,2*%
%TO.N,GND*%
X133117500Y-77755000D03*
%TD*%
D15*
%TO.P,TP59,1,1_1*%
%TO.N,GND*%
X123610000Y-67820000D03*
%TD*%
D30*
%TO.N,VDD*%
X121420000Y-108890000D03*
X134720000Y-72530000D03*
X166600000Y-69440000D03*
X160110000Y-81840000D03*
X166610000Y-75100000D03*
X130245000Y-102045000D03*
X133090000Y-68350000D03*
X144650000Y-95790000D03*
X157330000Y-110630000D03*
X129890000Y-87250000D03*
X169835000Y-97650000D03*
X156720000Y-83160000D03*
X124200000Y-86560000D03*
X156735000Y-84670000D03*
X123387500Y-72535000D03*
X120890000Y-95660000D03*
X148562500Y-100932500D03*
X169220000Y-107230000D03*
X163160416Y-95784985D03*
X126230000Y-93360000D03*
X121370000Y-67790000D03*
X164900000Y-67880000D03*
X167465000Y-100100000D03*
X125370000Y-87710000D03*
X123395000Y-78180000D03*
X161060000Y-81800000D03*
%TO.N,GND*%
X138040000Y-105880000D03*
D31*
X133250000Y-83530000D03*
D30*
X168110000Y-105440000D03*
X161360000Y-84910000D03*
X157430000Y-70810000D03*
X168610000Y-95850000D03*
X126959669Y-86500000D03*
X157730000Y-99460000D03*
D31*
X132480000Y-79520000D03*
D30*
X157440000Y-76460000D03*
X160990000Y-100190000D03*
X164340000Y-109350000D03*
X153940000Y-94250000D03*
X166540000Y-107390000D03*
X121400000Y-106720000D03*
X121000000Y-90010000D03*
X165775000Y-97530000D03*
X140210000Y-100980000D03*
X128930000Y-86230000D03*
X157660000Y-95390000D03*
X138060000Y-68300000D03*
X146140000Y-95690000D03*
X161300000Y-67920000D03*
X168120000Y-109660000D03*
X151330000Y-100950000D03*
X167460000Y-83250000D03*
X158290000Y-80660000D03*
X137010000Y-94080000D03*
X136760000Y-97670000D03*
X155890000Y-113360000D03*
D31*
X132545277Y-73911248D03*
D30*
X123610000Y-67820000D03*
X167120000Y-90140000D03*
X148790000Y-105750000D03*
X152830000Y-67620000D03*
X161130000Y-94750000D03*
X145160000Y-101910000D03*
X130770000Y-93040000D03*
X169270000Y-103470000D03*
X127060000Y-101760000D03*
X122010000Y-100345000D03*
X128620000Y-69290000D03*
%TO.N,Net-(U6-SW)*%
X125725000Y-98155000D03*
X137750000Y-96660000D03*
%TO.N,Net-(J2-CC1)*%
X139520000Y-109470000D03*
%TO.N,/DATA+*%
X148820000Y-111850000D03*
%TO.N,/DATA-*%
X149510000Y-102220000D03*
%TO.N,/RXD*%
X141560000Y-103060000D03*
X145418699Y-84329679D03*
%TO.N,/TXD*%
X144950000Y-105480000D03*
X152900000Y-72040000D03*
%TO.N,/DTR*%
X145785000Y-91710000D03*
X144080000Y-106090000D03*
D31*
%TO.N,/out1mo3*%
X119980000Y-69490000D03*
%TO.N,/out2mo3*%
X119970000Y-71490000D03*
%TO.N,/out4mo3*%
X119970000Y-73500000D03*
%TO.N,/out3mo3*%
X120020000Y-75510000D03*
%TO.N,/7.4v*%
X156760000Y-72990000D03*
X133141140Y-75831360D03*
X156360000Y-71866223D03*
X133428845Y-74723229D03*
D30*
X133190000Y-102530000D03*
D31*
X156770000Y-78700000D03*
X133430000Y-80470000D03*
X133137500Y-81525000D03*
X156830000Y-77600000D03*
D30*
%TO.N,Net-(U1-XC1)*%
X162055000Y-98490000D03*
X158635000Y-96570000D03*
%TO.N,Net-(U1-XC2)*%
X162782171Y-97389999D03*
X160380000Y-96350000D03*
%TO.N,Net-(J1-CC2)*%
X148810000Y-107410000D03*
%TO.N,/USB VBUS*%
X135600000Y-104900000D03*
X148185000Y-96305000D03*
X150900000Y-104820000D03*
X143130000Y-104850000D03*
X153540000Y-97430000D03*
%TO.N,/EN*%
X134730000Y-91200000D03*
X133840000Y-71847431D03*
%TO.N,Net-(D1-A)*%
X151505000Y-110600000D03*
%TO.N,/SCLbus*%
X149480000Y-83500000D03*
D31*
X135271471Y-88240000D03*
D30*
X158400000Y-84670000D03*
%TO.N,/SDAbus*%
X158390000Y-83150000D03*
D31*
X136520000Y-87440000D03*
D30*
X150270000Y-82350000D03*
%TO.N,/CE*%
X154845911Y-87412718D03*
X167880000Y-94150000D03*
X156930000Y-90450000D03*
D31*
%TO.N,/out1mo4*%
X119930000Y-77730000D03*
%TO.N,/out2mo4*%
X119930000Y-79750000D03*
%TO.N,/out4mo4*%
X119920000Y-81750000D03*
%TO.N,/out3mo4*%
X119940000Y-83760000D03*
D30*
%TO.N,Net-(J1-CC1)*%
X150280000Y-109360000D03*
%TO.N,Net-(J2-CC2)*%
X139430000Y-108370000D03*
%TO.N,/CSN*%
X153651076Y-87523972D03*
X166700506Y-94135063D03*
%TO.N,/SCK*%
X165652728Y-92890000D03*
X152007540Y-88323972D03*
%TO.N,/MOSI*%
X164485851Y-92610000D03*
X150120000Y-88530000D03*
%TO.N,/MISO*%
X162210416Y-93920000D03*
X148200000Y-88310000D03*
%TO.N,Net-(D2-A)*%
X141430000Y-108310000D03*
%TO.N,Net-(U9-IO8)*%
X139160000Y-71610000D03*
%TO.N,/GPIO 19*%
X136755938Y-109265000D03*
X132770000Y-86750000D03*
X132890000Y-90540000D03*
%TO.N,/GPIO 20*%
X137890000Y-112300000D03*
X133670000Y-86840000D03*
X137790000Y-101290000D03*
%TO.N,Net-(U9-IO3)*%
X138320000Y-84540000D03*
%TO.N,Net-(U9-IO46)*%
X151460000Y-68040000D03*
%TO.N,Net-(U9-IO9)*%
X140879189Y-88869189D03*
%TO.N,Net-(U9-IO10)*%
X142125000Y-88105000D03*
%TO.N,Net-(U9-IO11)*%
X155624264Y-97354263D03*
X143590000Y-87580000D03*
X143780000Y-93130000D03*
%TO.N,Net-(U9-IO12)*%
X144960000Y-93100000D03*
X156189953Y-96788577D03*
X144650000Y-87540000D03*
%TO.N,Net-(U9-IO13)*%
X149270000Y-79910000D03*
%TO.N,/in3mo2*%
X155565000Y-81825000D03*
%TO.N,/in4mo2*%
X152720000Y-79700000D03*
%TO.N,/in2mo2*%
X152450000Y-78430000D03*
%TO.N,/in1mo2*%
X152820000Y-77170000D03*
%TO.N,/in3mo1*%
X152895331Y-75655331D03*
%TO.N,/in4mo1*%
X155500000Y-73775120D03*
%TO.N,/in2mo1*%
X155410000Y-70360000D03*
%TO.N,/in1mo1*%
X154854511Y-69227021D03*
%TO.N,/mod4encSDA*%
X158355025Y-87119140D03*
X155820000Y-94330000D03*
%TO.N,/mod3encSDA*%
X157720000Y-93450000D03*
X155880000Y-115800000D03*
X158602282Y-90037718D03*
X153956397Y-101056397D03*
%TO.N,/mod3encSCL*%
X159160000Y-93250000D03*
X161540000Y-89500000D03*
%TD*%
%TO.N,VDD*%
D32*
X119940000Y-108880000D02*
X121410000Y-108880000D01*
X122020000Y-95705000D02*
X122020000Y-95695000D01*
X122020000Y-95695000D02*
X121970000Y-95645000D01*
X165815000Y-84260000D02*
X163520000Y-84260000D01*
X158460000Y-111700000D02*
X158460000Y-113230000D01*
X122020000Y-95705000D02*
X120935000Y-95705000D01*
X160090000Y-82960000D02*
X160090000Y-81860000D01*
X121400000Y-67820000D02*
X121370000Y-67790000D01*
X160090000Y-81860000D02*
X160110000Y-81840000D01*
X157330000Y-110630000D02*
X157390000Y-110630000D01*
X157390000Y-110630000D02*
X158460000Y-111700000D01*
X166560000Y-75150000D02*
X166610000Y-75100000D01*
X121410000Y-108880000D02*
X121420000Y-108890000D01*
X166525000Y-69490000D02*
X166550000Y-69490000D01*
X163520000Y-84260000D02*
X161060000Y-81800000D01*
X158460000Y-113230000D02*
X158590000Y-113360000D01*
X120935000Y-95705000D02*
X120890000Y-95660000D01*
X166550000Y-69490000D02*
X166600000Y-69440000D01*
X166525000Y-75150000D02*
X166560000Y-75150000D01*
%TO.N,GND*%
X160800000Y-77100000D02*
X162387500Y-77100000D01*
D33*
X161300000Y-67920000D02*
X161330000Y-67890000D01*
X121360000Y-106680000D02*
X121400000Y-106720000D01*
D34*
X166525000Y-78400000D02*
X165606912Y-78400000D01*
D33*
X157435000Y-70805000D02*
X157430000Y-70810000D01*
D32*
X162387500Y-71440000D02*
X162662500Y-71165000D01*
D34*
X166525000Y-76450000D02*
X165606912Y-76450000D01*
D32*
X164662500Y-71165000D02*
X165231912Y-71165000D01*
D33*
X167460000Y-83270000D02*
X167120000Y-83610000D01*
D32*
X165231912Y-72365000D02*
X165606912Y-72740000D01*
D33*
X133117500Y-77755000D02*
X133135000Y-77755000D01*
X152305000Y-110600000D02*
X152460000Y-110600000D01*
X132480000Y-79540000D02*
X132600000Y-79660000D01*
X132480000Y-78392500D02*
X133117500Y-77755000D01*
D32*
X164662500Y-78025000D02*
X165231912Y-78025000D01*
X164662500Y-76825000D02*
X165231912Y-76825000D01*
D33*
X122010000Y-100345000D02*
X121940000Y-100415000D01*
X133135000Y-77755000D02*
X133140000Y-77760000D01*
X134860000Y-110630000D02*
X133945000Y-111545000D01*
D32*
X164662500Y-72365000D02*
X165231912Y-72365000D01*
X162387500Y-77100000D02*
X162662500Y-76825000D01*
D33*
X135015000Y-110630000D02*
X134860000Y-110630000D01*
X167460000Y-83250000D02*
X167470000Y-83240000D01*
X119960000Y-106680000D02*
X121360000Y-106680000D01*
X132600000Y-79660000D02*
X132630000Y-79660000D01*
D34*
X166525000Y-72740000D02*
X165606912Y-72740000D01*
D33*
X167470000Y-83240000D02*
X167470000Y-83220000D01*
X145805000Y-110600000D02*
X145650000Y-110600000D01*
D32*
X160800000Y-71440000D02*
X162387500Y-71440000D01*
D33*
X133137500Y-83425000D02*
X133137500Y-83427500D01*
X161330000Y-67890000D02*
X162620000Y-67890000D01*
X161360000Y-84910000D02*
X160090000Y-84910000D01*
X141515000Y-110630000D02*
X141670000Y-110630000D01*
D32*
X165231912Y-76825000D02*
X165606912Y-76450000D01*
D33*
X141670000Y-110630000D02*
X142585000Y-111545000D01*
X163337500Y-71440000D02*
X163662500Y-71765000D01*
D32*
X165231912Y-71165000D02*
X165606912Y-70790000D01*
D33*
X167210000Y-82960000D02*
X165815000Y-82960000D01*
X167470000Y-83220000D02*
X167210000Y-82960000D01*
X165037500Y-76450000D02*
X164662500Y-76825000D01*
X152460000Y-110600000D02*
X153375000Y-111515000D01*
X167120000Y-83610000D02*
X165815000Y-83610000D01*
X145650000Y-110600000D02*
X144735000Y-111515000D01*
X167120000Y-90140000D02*
X167090000Y-90110000D01*
X167090000Y-90110000D02*
X165815000Y-90110000D01*
X133145000Y-83425000D02*
X133250000Y-83530000D01*
X133137500Y-83427500D02*
X133150000Y-83440000D01*
X132480000Y-79520000D02*
X132480000Y-78392500D01*
D34*
X166525000Y-70790000D02*
X165606912Y-70790000D01*
D33*
X167460000Y-83250000D02*
X167460000Y-83270000D01*
X133137500Y-83425000D02*
X133145000Y-83425000D01*
X155880000Y-113360000D02*
X155890000Y-113360000D01*
X157437500Y-70805000D02*
X157435000Y-70805000D01*
D32*
X165231912Y-78025000D02*
X165606912Y-78400000D01*
%TO.N,Net-(U6-SW)*%
X137750000Y-96660000D02*
X127220000Y-96660000D01*
X127220000Y-96660000D02*
X125725000Y-98155000D01*
%TO.N,Net-(J2-CC1)*%
D33*
X139520000Y-109470000D02*
X139520000Y-110625000D01*
X139520000Y-110625000D02*
X139515000Y-110630000D01*
%TO.N,/DATA+*%
X148820000Y-111850000D02*
X149305000Y-111365000D01*
X148797590Y-111850000D02*
X148305000Y-111357410D01*
X148820000Y-111850000D02*
X148797590Y-111850000D01*
X148305000Y-111357410D02*
X148305000Y-110600000D01*
X149305000Y-111365000D02*
X149305000Y-110600000D01*
%TO.N,/DATA-*%
X148805000Y-109805000D02*
X149510000Y-109100000D01*
X149510000Y-109100000D02*
X149510000Y-109547590D01*
X149805000Y-109842590D02*
X149805000Y-110600000D01*
X149510000Y-109547590D02*
X149805000Y-109842590D01*
X149510000Y-102220000D02*
X149510000Y-109100000D01*
X148805000Y-110600000D02*
X148805000Y-109805000D01*
%TO.N,/RXD*%
X141570331Y-103130331D02*
X141560000Y-103120000D01*
X141560000Y-103120000D02*
X141560000Y-103060000D01*
X142920000Y-101700000D02*
X141560000Y-103060000D01*
X145510822Y-84421802D02*
X145510822Y-84510611D01*
X145510822Y-84510611D02*
X142920000Y-87101433D01*
X145418699Y-84329679D02*
X145510822Y-84421802D01*
X142920000Y-87101433D02*
X142920000Y-101700000D01*
%TO.N,/TXD*%
X146340000Y-88340000D02*
X146340000Y-91416471D01*
X146730000Y-95948529D02*
X146730000Y-102979215D01*
X146340000Y-91416471D02*
X146385000Y-91461471D01*
X146740000Y-95441471D02*
X146740000Y-95938529D01*
X150870000Y-83810000D02*
X146340000Y-88340000D01*
X150870000Y-74060000D02*
X150870000Y-83810000D01*
X146385000Y-91958529D02*
X146340000Y-92003529D01*
X146730000Y-102979215D02*
X144950000Y-104759215D01*
X144950000Y-104759215D02*
X144950000Y-105480000D01*
X152890000Y-72040000D02*
X150870000Y-74060000D01*
X152900000Y-72040000D02*
X152890000Y-72040000D01*
X146385000Y-91461471D02*
X146385000Y-91958529D01*
X146340000Y-95041471D02*
X146740000Y-95441471D01*
X146340000Y-92003529D02*
X146340000Y-95041471D01*
X146740000Y-95938529D02*
X146730000Y-95948529D01*
%TO.N,/DTR*%
X145760000Y-102158529D02*
X145560000Y-102358529D01*
X145560000Y-92470000D02*
X145560000Y-95421471D01*
X145760000Y-101661471D02*
X145760000Y-102158529D01*
X145540000Y-95938529D02*
X145560000Y-95958529D01*
X145560000Y-95958529D02*
X145560000Y-101461471D01*
X145785000Y-92245000D02*
X145560000Y-92470000D01*
X145785000Y-91710000D02*
X145785000Y-92245000D01*
X144080000Y-106090000D02*
X144050000Y-106060000D01*
X145540000Y-95441471D02*
X145540000Y-95938529D01*
X144080000Y-105063529D02*
X144080000Y-106090000D01*
X145560000Y-103583529D02*
X144080000Y-105063529D01*
X145560000Y-101461471D02*
X145760000Y-101661471D01*
X145560000Y-95421471D02*
X145540000Y-95441471D01*
X145560000Y-102358529D02*
X145560000Y-103583529D01*
%TO.N,/out1mo3*%
D32*
X119970000Y-69490000D02*
X119980000Y-69490000D01*
%TO.N,/7.4v*%
X133117500Y-75855000D02*
X133141140Y-75831360D01*
D34*
X160800000Y-77750000D02*
X159881912Y-77750000D01*
D32*
X156920000Y-78850000D02*
X156770000Y-78700000D01*
X133141140Y-75010934D02*
X133141140Y-75831360D01*
X158280000Y-78420000D02*
X157850000Y-78850000D01*
X157850000Y-78850000D02*
X156920000Y-78850000D01*
X156360000Y-71866223D02*
X159658135Y-71866223D01*
X156830000Y-77600000D02*
X156999412Y-77430588D01*
D34*
X159881912Y-72090000D02*
X159831912Y-72040000D01*
X160800000Y-72090000D02*
X159881912Y-72090000D01*
D32*
X159658135Y-71866223D02*
X159831912Y-72040000D01*
X156760000Y-72990000D02*
X158007500Y-72990000D01*
X159562500Y-77430588D02*
X159831912Y-77700000D01*
X156999412Y-77430588D02*
X159562500Y-77430588D01*
X133428845Y-74723229D02*
X133141140Y-75010934D01*
X158007500Y-72990000D02*
X158272500Y-72725000D01*
X133430000Y-80470000D02*
X133108746Y-80791254D01*
X133108746Y-81496246D02*
X133137500Y-81525000D01*
D34*
X159881912Y-77750000D02*
X159831912Y-77700000D01*
D32*
X133108746Y-80791254D02*
X133108746Y-81496246D01*
%TO.N,Net-(U1-XC1)*%
D33*
X159945000Y-97880000D02*
X158635000Y-96570000D01*
X162055000Y-98490000D02*
X161445000Y-97880000D01*
X161445000Y-97880000D02*
X159945000Y-97880000D01*
%TO.N,Net-(U1-XC2)*%
X161419999Y-97389999D02*
X160380000Y-96350000D01*
X162782171Y-97389999D02*
X161419999Y-97389999D01*
%TO.N,Net-(J1-CC2)*%
X147305000Y-108915000D02*
X147305000Y-110600000D01*
X148810000Y-107410000D02*
X147305000Y-108915000D01*
%TO.N,/EN*%
X134730000Y-91200000D02*
X134471471Y-90941471D01*
X133840000Y-72498529D02*
X133840000Y-71847431D01*
X134471471Y-90941471D02*
X134471471Y-73130000D01*
X134471471Y-73130000D02*
X133840000Y-72498529D01*
%TO.N,Net-(D1-A)*%
X151505000Y-111324999D02*
X150379999Y-112450000D01*
X150379999Y-112450000D02*
X147730001Y-112450000D01*
X146605000Y-111324999D02*
X146605000Y-110600000D01*
X147730001Y-112450000D02*
X146605000Y-111324999D01*
X151505000Y-110600000D02*
X151505000Y-111324999D01*
%TO.N,/SCLbus*%
X158400000Y-84670000D02*
X158810000Y-84260000D01*
X149480000Y-83500000D02*
X148730000Y-82750000D01*
X148730000Y-82750000D02*
X142410000Y-82750000D01*
X142410000Y-82750000D02*
X136920000Y-88240000D01*
X158810000Y-84260000D02*
X160090000Y-84260000D01*
X136920000Y-88240000D02*
X135271471Y-88240000D01*
%TO.N,/SDAbus*%
X136520000Y-87440000D02*
X136520000Y-87410000D01*
X136520000Y-87410000D02*
X141580000Y-82350000D01*
X158850000Y-83610000D02*
X160090000Y-83610000D01*
X158390000Y-83150000D02*
X158850000Y-83610000D01*
X141580000Y-82350000D02*
X150270000Y-82350000D01*
%TO.N,/CE*%
X156861596Y-89428404D02*
X157076596Y-89643404D01*
X154845911Y-87412718D02*
X156861596Y-89428404D01*
X165390000Y-90890000D02*
X167880000Y-93380000D01*
X156930000Y-89496808D02*
X156861596Y-89428404D01*
X156930000Y-90450000D02*
X156930000Y-89496808D01*
X158323193Y-90890000D02*
X165390000Y-90890000D01*
X157076596Y-89643404D02*
X158323193Y-90890000D01*
X167880000Y-94150000D02*
X167900000Y-94170000D01*
X167880000Y-93380000D02*
X167880000Y-94150000D01*
%TO.N,/out1mo4*%
D32*
X119930000Y-77740000D02*
X119930000Y-77730000D01*
%TO.N,Net-(J1-CC1)*%
D33*
X150280000Y-109360000D02*
X150280000Y-110575000D01*
X150280000Y-110575000D02*
X150305000Y-110600000D01*
%TO.N,Net-(J2-CC2)*%
X139430000Y-108370000D02*
X136290000Y-108370000D01*
X136515000Y-109872590D02*
X136515000Y-110630000D01*
X135950000Y-108710000D02*
X135950000Y-109307590D01*
X136290000Y-108370000D02*
X135950000Y-108710000D01*
X135950000Y-109307590D02*
X136515000Y-109872590D01*
%TO.N,/CSN*%
X165240000Y-91340000D02*
X166700506Y-92800506D01*
X166700506Y-92800506D02*
X166700506Y-94135063D01*
X156800000Y-91340000D02*
X165240000Y-91340000D01*
X153651076Y-88191076D02*
X156800000Y-91340000D01*
X153651076Y-87523972D02*
X153651076Y-88191076D01*
%TO.N,/SCK*%
X165652728Y-92642728D02*
X164820000Y-91810000D01*
X155493568Y-91810000D02*
X152007540Y-88323972D01*
X165652728Y-92890000D02*
X165652728Y-92642728D01*
X164820000Y-91810000D02*
X155493568Y-91810000D01*
%TO.N,/MOSI*%
X163038660Y-92220000D02*
X153800000Y-92220000D01*
X150120000Y-88540000D02*
X150120000Y-88530000D01*
X153800000Y-92220000D02*
X150120000Y-88540000D01*
X164485851Y-92610000D02*
X163428660Y-92610000D01*
X163428660Y-92610000D02*
X163038660Y-92220000D01*
%TO.N,/MISO*%
X162210416Y-93540416D02*
X161320000Y-92650000D01*
X162210416Y-93920000D02*
X162210416Y-93540416D01*
X161320000Y-92650000D02*
X152540000Y-92650000D01*
X152540000Y-92650000D02*
X148200000Y-88310000D01*
%TO.N,Net-(D2-A)*%
X141430000Y-108310000D02*
X140715000Y-109025000D01*
X139250000Y-112940000D02*
X137194594Y-112940000D01*
X137194594Y-112940000D02*
X135815000Y-111560406D01*
X140715000Y-109025000D02*
X140715000Y-110630000D01*
X135815000Y-111560406D02*
X135815000Y-110630000D01*
X140715000Y-111475000D02*
X139250000Y-112940000D01*
X140715000Y-110630000D02*
X140715000Y-111475000D01*
%TO.N,Net-(U9-IO8)*%
X139160000Y-71610000D02*
X135214215Y-71610000D01*
X132294215Y-68690000D02*
X125760000Y-68690000D01*
X135214215Y-71610000D02*
X132294215Y-68690000D01*
X125760000Y-68690000D02*
X125500000Y-68950000D01*
%TO.N,/GPIO 19*%
X132890000Y-90540000D02*
X132890000Y-86870000D01*
X138450000Y-109605000D02*
X138282590Y-109605000D01*
X139015000Y-109872590D02*
X138747410Y-109605000D01*
X138747410Y-109605000D02*
X138450000Y-109605000D01*
X138282590Y-109605000D02*
X138015000Y-109872590D01*
X139015000Y-110630000D02*
X139015000Y-109872590D01*
X138110000Y-109265000D02*
X136755938Y-109265000D01*
X132890000Y-86870000D02*
X132770000Y-86750000D01*
X138015000Y-109872590D02*
X138015000Y-110630000D01*
X138450000Y-109605000D02*
X138110000Y-109265000D01*
%TO.N,/GPIO 20*%
X138400000Y-100680000D02*
X137790000Y-101290000D01*
X137782590Y-111655000D02*
X137515000Y-111387410D01*
X138400000Y-96318529D02*
X138400000Y-100680000D01*
X138247410Y-111655000D02*
X137782590Y-111655000D01*
X137890000Y-112300000D02*
X138247410Y-111942590D01*
X133670000Y-86840000D02*
X133670000Y-91588529D01*
X137515000Y-111387410D02*
X137515000Y-110630000D01*
X138247410Y-111942590D02*
X138247410Y-111655000D01*
X133670000Y-91588529D02*
X138400000Y-96318529D01*
X138515000Y-111387410D02*
X138247410Y-111655000D01*
X138515000Y-110630000D02*
X138515000Y-111387410D01*
%TO.N,Net-(U9-IO3)*%
X134008529Y-70970000D02*
X125520000Y-70970000D01*
X138320000Y-75281471D02*
X134008529Y-70970000D01*
X138320000Y-84540000D02*
X138320000Y-75281471D01*
%TO.N,Net-(U9-IO46)*%
X151460000Y-68040000D02*
X151640000Y-68220000D01*
X154740000Y-67830000D02*
X157590000Y-67830000D01*
X151640000Y-68220000D02*
X154350000Y-68220000D01*
X154350000Y-68220000D02*
X154740000Y-67830000D01*
%TO.N,Net-(U9-IO9)*%
X138800000Y-102548529D02*
X138800000Y-90948378D01*
X131043529Y-110305000D02*
X138800000Y-102548529D01*
X138800000Y-90948378D02*
X140879189Y-88869189D01*
X120855000Y-110305000D02*
X131043529Y-110305000D01*
X119940000Y-111220000D02*
X120855000Y-110305000D01*
%TO.N,Net-(U9-IO10)*%
X122255000Y-110905000D02*
X119940000Y-113220000D01*
X142130000Y-99908529D02*
X131133529Y-110905000D01*
X142125000Y-88105000D02*
X142130000Y-88110000D01*
X142130000Y-88110000D02*
X142130000Y-99908529D01*
X131133529Y-110905000D02*
X122255000Y-110905000D01*
%TO.N,Net-(U9-IO11)*%
X143780000Y-93130000D02*
X143590000Y-92940000D01*
X143590000Y-92940000D02*
X143590000Y-87580000D01*
X156810000Y-115980000D02*
X156810000Y-112640000D01*
X155360000Y-111190000D02*
X155360000Y-97618527D01*
X158630000Y-117800000D02*
X156810000Y-115980000D01*
X156810000Y-112640000D02*
X155360000Y-111190000D01*
X155360000Y-97618527D02*
X155624264Y-97354263D01*
%TO.N,Net-(U9-IO12)*%
X144960000Y-93100000D02*
X144285000Y-92425000D01*
X156224264Y-96822888D02*
X156189953Y-96788577D01*
X158630000Y-115800000D02*
X157210000Y-114380000D01*
X157210000Y-114380000D02*
X157210000Y-112454312D01*
X144285000Y-92425000D02*
X144285000Y-87905000D01*
X157210000Y-112454312D02*
X156224264Y-111468576D01*
X144285000Y-87905000D02*
X144650000Y-87540000D01*
X156224264Y-111468576D02*
X156224264Y-96822888D01*
%TO.N,Net-(U9-IO13)*%
X159600000Y-67780000D02*
X158750000Y-68630000D01*
X158750000Y-68630000D02*
X155106019Y-68630000D01*
X154605982Y-68627021D02*
X149270000Y-73963003D01*
X155106019Y-68630000D02*
X155103040Y-68627021D01*
X149270000Y-73963003D02*
X149270000Y-79910000D01*
X155103040Y-68627021D02*
X154605982Y-68627021D01*
%TO.N,/in3mo2*%
X160800000Y-79700000D02*
X158600000Y-81900000D01*
X158600000Y-81900000D02*
X155640000Y-81900000D01*
%TO.N,/in4mo2*%
X152720000Y-79700000D02*
X152730000Y-79710000D01*
X158400000Y-79080000D02*
X159982501Y-79080000D01*
X159982501Y-79080000D02*
X160012501Y-79050000D01*
X157770000Y-79710000D02*
X158400000Y-79080000D01*
X160012501Y-79050000D02*
X160800000Y-79050000D01*
X152730000Y-79710000D02*
X157770000Y-79710000D01*
%TO.N,/in2mo2*%
X160650000Y-75650000D02*
X160800000Y-75800000D01*
X152460000Y-78440000D02*
X154030000Y-78440000D01*
X154030000Y-78440000D02*
X156820000Y-75650000D01*
X152450000Y-78430000D02*
X152460000Y-78440000D01*
X156820000Y-75650000D02*
X160650000Y-75650000D01*
%TO.N,/in1mo2*%
X156184619Y-75506752D02*
X157101372Y-74590000D01*
X160012501Y-75150000D02*
X160800000Y-75150000D01*
X152820000Y-77170000D02*
X154734314Y-77170000D01*
X157101372Y-74590000D02*
X159452501Y-74590000D01*
X154734314Y-77170000D02*
X156184619Y-75719695D01*
X156184619Y-75719695D02*
X156184619Y-75506752D01*
X159452501Y-74590000D02*
X160012501Y-75150000D01*
%TO.N,/in3mo1*%
X153075000Y-75685000D02*
X154295000Y-75685000D01*
X156935686Y-74190000D02*
X159778186Y-74190000D01*
X156018933Y-75106752D02*
X156935686Y-74190000D01*
X154873248Y-75106752D02*
X156018933Y-75106752D01*
X159778186Y-74190000D02*
X159928187Y-74040000D01*
X153045331Y-75655331D02*
X153075000Y-75685000D01*
X152895331Y-75655331D02*
X153045331Y-75655331D01*
X154295000Y-75685000D02*
X154873248Y-75106752D01*
X159928187Y-74040000D02*
X160800000Y-74040000D01*
%TO.N,/in4mo1*%
X160012501Y-73390000D02*
X160800000Y-73390000D01*
X156770000Y-73790000D02*
X159612501Y-73790000D01*
X155500000Y-73775120D02*
X155600452Y-73875572D01*
X156684428Y-73875572D02*
X156770000Y-73790000D01*
X159612501Y-73790000D02*
X160012501Y-73390000D01*
X155600452Y-73875572D02*
X156684428Y-73875572D01*
%TO.N,/in2mo1*%
X156180000Y-70360000D02*
X156781544Y-69758456D01*
X159944044Y-69990000D02*
X160650000Y-69990000D01*
X156781544Y-69758456D02*
X159712500Y-69758456D01*
X159712500Y-69758456D02*
X159944044Y-69990000D01*
X155410000Y-70360000D02*
X156180000Y-70360000D01*
X160650000Y-69990000D02*
X160800000Y-70140000D01*
%TO.N,/in1mo1*%
X156615859Y-69358456D02*
X159878186Y-69358456D01*
X160109730Y-69590000D02*
X160484314Y-69590000D01*
X154854511Y-69227021D02*
X155077293Y-69227021D01*
X159878186Y-69358456D02*
X160109730Y-69590000D01*
X160700000Y-69590000D02*
X160800000Y-69490000D01*
X155610272Y-69760000D02*
X156214314Y-69760000D01*
X156214314Y-69760000D02*
X156615859Y-69358456D01*
X160484314Y-69590000D02*
X160700000Y-69590000D01*
X155077293Y-69227021D02*
X155610272Y-69760000D01*
%TO.N,/out1mo1*%
D34*
X167443088Y-70140000D02*
X166525000Y-70140000D01*
D32*
X169940000Y-67800000D02*
X167600000Y-70140000D01*
X167600000Y-70140000D02*
X167443088Y-70140000D01*
%TO.N,/mod4encSDA*%
D33*
X155420000Y-94730000D02*
X155820000Y-94330000D01*
X158355025Y-87119140D02*
X159264165Y-86210000D01*
X155420000Y-95405684D02*
X155420000Y-94730000D01*
X142667057Y-113710000D02*
X152980000Y-113710000D01*
X138472057Y-117905000D02*
X142667057Y-113710000D01*
X154560000Y-112130000D02*
X154560000Y-96265685D01*
X152980000Y-113710000D02*
X154560000Y-112130000D01*
X119940000Y-117800000D02*
X120045000Y-117905000D01*
X159264165Y-86210000D02*
X160090000Y-86210000D01*
X120045000Y-117905000D02*
X138472057Y-117905000D01*
X154560000Y-96265685D02*
X155420000Y-95405684D01*
%TO.N,/mod2encSCL*%
X169920000Y-87720000D02*
X169180000Y-88460000D01*
X169180000Y-88460000D02*
X166852499Y-88460000D01*
X166552499Y-88160000D02*
X165815000Y-88160000D01*
X166852499Y-88460000D02*
X166552499Y-88160000D01*
%TO.N,/out4mo2*%
D34*
X167493088Y-77800000D02*
X167443088Y-77750000D01*
D32*
X169940000Y-79900000D02*
X167840000Y-77800000D01*
D34*
X167443088Y-77750000D02*
X166525000Y-77750000D01*
D32*
X167840000Y-77800000D02*
X167493088Y-77800000D01*
%TO.N,/out4mo1*%
D34*
X167493088Y-72140000D02*
X167443088Y-72090000D01*
X167443088Y-72090000D02*
X166525000Y-72090000D01*
D32*
X169960000Y-71806667D02*
X169626667Y-72140000D01*
X169626667Y-72140000D02*
X167493088Y-72140000D01*
%TO.N,/mod1encSCL*%
D33*
X169190000Y-86460000D02*
X167370956Y-86460000D01*
X167370956Y-86460000D02*
X166470956Y-85560000D01*
X166470956Y-85560000D02*
X165815000Y-85560000D01*
X169930000Y-85720000D02*
X169190000Y-86460000D01*
%TO.N,/mod1encSDA*%
X167920000Y-85660000D02*
X167170000Y-84910000D01*
X167170000Y-84910000D02*
X165815000Y-84910000D01*
%TO.N,/mod2encSDA*%
X165965000Y-87660000D02*
X165815000Y-87510000D01*
X167910000Y-87660000D02*
X165965000Y-87660000D01*
%TO.N,/mod3encSDA*%
X155290000Y-93450000D02*
X157720000Y-93450000D01*
X155020000Y-95239999D02*
X155020000Y-93720000D01*
X158602282Y-90037718D02*
X160017718Y-90037718D01*
X155020000Y-93720000D02*
X155290000Y-93450000D01*
X160017718Y-90037718D02*
X160090000Y-90110000D01*
X154140000Y-96119999D02*
X155020000Y-95239999D01*
X154140000Y-100872794D02*
X154140000Y-96119999D01*
X153956397Y-101056397D02*
X154140000Y-100872794D01*
%TO.N,/mod3encSCL*%
X161540000Y-89500000D02*
X160130000Y-89500000D01*
X154890000Y-116830000D02*
X154890000Y-112365685D01*
X154890000Y-112365685D02*
X154960000Y-112295685D01*
X154960000Y-112295685D02*
X154960000Y-97170000D01*
X160130000Y-89500000D02*
X160090000Y-89460000D01*
X155870000Y-117810000D02*
X154890000Y-116830000D01*
X154960000Y-97170000D02*
X158880000Y-93250000D01*
X158880000Y-93250000D02*
X159160000Y-93250000D01*
%TO.N,/mod4encSCL*%
X119930000Y-115790000D02*
X121645000Y-117505000D01*
X138306371Y-117505000D02*
X143385000Y-112426371D01*
X147400000Y-106648629D02*
X147400000Y-87978629D01*
X147400000Y-87978629D02*
X149818629Y-85560000D01*
X149818629Y-85560000D02*
X160090000Y-85560000D01*
X143385000Y-112426371D02*
X143385000Y-110663629D01*
X143385000Y-110663629D02*
X147400000Y-106648629D01*
X121645000Y-117505000D02*
X138306371Y-117505000D01*
%TO.N,/out3mo1*%
D32*
X169530000Y-73390000D02*
X166525000Y-73390000D01*
X169950000Y-73810000D02*
X169530000Y-73390000D01*
%TO.N,/VCP2*%
X159240000Y-78420000D02*
X159260000Y-78400000D01*
X159260000Y-78400000D02*
X160800000Y-78400000D01*
%TO.N,Net-(U10-VINT)*%
D33*
X158990000Y-76460000D02*
X160790000Y-76460000D01*
X160790000Y-76460000D02*
X160800000Y-76450000D01*
%TO.N,/out2mo2*%
D32*
X169930000Y-77900000D02*
X169130000Y-77100000D01*
X169130000Y-77100000D02*
X166525000Y-77100000D01*
%TO.N,/out2mo1*%
X169940000Y-69803333D02*
X169336667Y-69803333D01*
X169336667Y-69803333D02*
X167700000Y-71440000D01*
X167700000Y-71440000D02*
X166525000Y-71440000D01*
%TO.N,Net-(U8-VINT)*%
D33*
X160785000Y-70805000D02*
X160800000Y-70790000D01*
X158987500Y-70805000D02*
X160785000Y-70805000D01*
%TO.N,/out1mo2*%
D32*
X167543088Y-75900000D02*
X167443088Y-75800000D01*
D34*
X167443088Y-75800000D02*
X166525000Y-75800000D01*
D32*
X169930000Y-75900000D02*
X167543088Y-75900000D01*
%TO.N,/out3mo2*%
X169950000Y-81900000D02*
X169950000Y-81556912D01*
X169950000Y-81556912D02*
X167443088Y-79050000D01*
X167443088Y-79050000D02*
X166525000Y-79050000D01*
%TO.N,/VCP1*%
X159232500Y-72725000D02*
X159247500Y-72740000D01*
X159247500Y-72740000D02*
X160800000Y-72740000D01*
%TO.N,Net-(D9-A)*%
D33*
X122020000Y-98760000D02*
X122010000Y-98770000D01*
X122020000Y-97355000D02*
X122020000Y-98760000D01*
%TD*%
M02*
