%TF.GenerationSoftware,KiCad,Pcbnew,10.0.4*%
%TF.CreationDate,2026-08-07T18:20:09-04:00*%
%TF.ProjectId,robotpcbv1,726f626f-7470-4636-9276-312e6b696361,rev?*%
%TF.SameCoordinates,Original*%
%TF.FileFunction,Soldermask,Bot*%
%TF.FilePolarity,Negative*%
%FSLAX46Y46*%
G04 Gerber Fmt 4.6, Leading zero omitted, Abs format (unit mm)*
G04 Created by KiCad (PCBNEW 10.0.4) date 2026-08-07 18:20:09*
%MOMM*%
%LPD*%
G01*
G04 APERTURE LIST*
G04 Aperture macros list*
%AMRoundRect*
0 Rectangle with rounded corners*
0 $1 Rounding radius*
0 $2 $3 $4 $5 $6 $7 $8 $9 X,Y pos of 4 corners*
0 Add a 4 corners polygon primitive as box body*
4,1,4,$2,$3,$4,$5,$6,$7,$8,$9,$2,$3,0*
0 Add four circle primitives for the rounded corners*
1,1,$1+$1,$2,$3*
1,1,$1+$1,$4,$5*
1,1,$1+$1,$6,$7*
1,1,$1+$1,$8,$9*
0 Add four rect primitives between the rounded corners*
20,1,$1+$1,$2,$3,$4,$5,0*
20,1,$1+$1,$4,$5,$6,$7,0*
20,1,$1+$1,$6,$7,$8,$9,0*
20,1,$1+$1,$8,$9,$2,$3,0*%
G04 Aperture macros list end*
%ADD10C,2.050000*%
%ADD11C,2.250000*%
%ADD12C,1.000000*%
%ADD13C,0.650000*%
%ADD14RoundRect,0.150000X0.150000X0.575000X-0.150000X0.575000X-0.150000X-0.575000X0.150000X-0.575000X0*%
%ADD15RoundRect,0.075000X0.075000X0.650000X-0.075000X0.650000X-0.075000X-0.650000X0.075000X-0.650000X0*%
%ADD16O,1.000000X1.600000*%
%ADD17O,1.000000X2.100000*%
%ADD18RoundRect,0.250000X-0.475000X0.250000X-0.475000X-0.250000X0.475000X-0.250000X0.475000X0.250000X0*%
%ADD19RoundRect,0.100000X0.637500X0.100000X-0.637500X0.100000X-0.637500X-0.100000X0.637500X-0.100000X0*%
%ADD20RoundRect,0.140000X-0.140000X-0.170000X0.140000X-0.170000X0.140000X0.170000X-0.140000X0.170000X0*%
%ADD21RoundRect,0.225000X0.225000X0.250000X-0.225000X0.250000X-0.225000X-0.250000X0.225000X-0.250000X0*%
%ADD22R,2.460000X2.310000*%
%ADD23RoundRect,0.100000X0.687500X0.100000X-0.687500X0.100000X-0.687500X-0.100000X0.687500X-0.100000X0*%
%ADD24RoundRect,0.200000X0.275000X-0.200000X0.275000X0.200000X-0.275000X0.200000X-0.275000X-0.200000X0*%
%ADD25RoundRect,1.500000X-1.500000X1.500000X-1.500000X-1.500000X1.500000X-1.500000X1.500000X1.500000X0*%
%ADD26C,6.000000*%
%ADD27RoundRect,0.218750X0.256250X-0.218750X0.256250X0.218750X-0.256250X0.218750X-0.256250X-0.218750X0*%
G04 APERTURE END LIST*
D10*
%TO.C,J3*%
X166670000Y-114430000D03*
D11*
X169210000Y-111890000D03*
X164130000Y-111890000D03*
X169210000Y-116970000D03*
X164130000Y-116970000D03*
%TD*%
D12*
%TO.C,TP9*%
X169940000Y-67800000D03*
%TD*%
%TO.C,TP34*%
X119940000Y-117800000D03*
%TD*%
%TO.C,TP37*%
X169920000Y-87720000D03*
%TD*%
%TO.C,TP14*%
X159600000Y-67780000D03*
%TD*%
%TO.C,TP24*%
X169940000Y-79900000D03*
%TD*%
%TO.C,TP16*%
X125500000Y-68950000D03*
%TD*%
%TO.C,TP19*%
X119940000Y-111220000D03*
%TD*%
%TO.C,TP8*%
X119920000Y-81750000D03*
%TD*%
D13*
%TO.C,J2*%
X141155000Y-112075000D03*
X135375000Y-112075000D03*
D14*
X141515000Y-110630000D03*
X140715000Y-110630000D03*
D15*
X139515000Y-110630000D03*
X138515000Y-110630000D03*
X138015000Y-110630000D03*
X137015000Y-110630000D03*
D14*
X135815000Y-110630000D03*
X135015000Y-110630000D03*
X135015000Y-110630000D03*
X135815000Y-110630000D03*
D15*
X136515000Y-110630000D03*
X137515000Y-110630000D03*
X139015000Y-110630000D03*
X140015000Y-110630000D03*
D14*
X140715000Y-110630000D03*
X141515000Y-110630000D03*
D16*
X142585000Y-115725000D03*
D17*
X142585000Y-111545000D03*
D16*
X133945000Y-115725000D03*
D17*
X133945000Y-111545000D03*
%TD*%
D12*
%TO.C,TP30*%
X119970000Y-71490000D03*
%TD*%
%TO.C,TP12*%
X169960000Y-71806667D03*
%TD*%
%TO.C,TP6*%
X119930000Y-79750000D03*
%TD*%
D18*
%TO.C,C39*%
X133137500Y-81525000D03*
X133137500Y-83425000D03*
%TD*%
D12*
%TO.C,TP39*%
X169930000Y-85720000D03*
%TD*%
D19*
%TO.C,U11*%
X165815000Y-82960000D03*
X165815000Y-83610000D03*
X165815000Y-84260000D03*
X165815000Y-84910000D03*
X165815000Y-85560000D03*
X165815000Y-86210000D03*
X165815000Y-86860000D03*
X165815000Y-87510000D03*
X165815000Y-88160000D03*
X165815000Y-88810000D03*
X165815000Y-89460000D03*
X165815000Y-90110000D03*
X160090000Y-90110000D03*
X160090000Y-89460000D03*
X160090000Y-88810000D03*
X160090000Y-88160000D03*
X160090000Y-87510000D03*
X160090000Y-86860000D03*
X160090000Y-86210000D03*
X160090000Y-85560000D03*
X160090000Y-84910000D03*
X160090000Y-84260000D03*
X160090000Y-83610000D03*
X160090000Y-82960000D03*
%TD*%
D12*
%TO.C,TP33*%
X119930000Y-115790000D03*
%TD*%
%TO.C,TP11*%
X169950000Y-73810000D03*
%TD*%
%TO.C,TP61*%
X164900000Y-67880000D03*
%TD*%
%TO.C,TP38*%
X167910000Y-87660000D03*
%TD*%
D20*
%TO.C,C34*%
X158280000Y-78420000D03*
X159240000Y-78420000D03*
%TD*%
D21*
%TO.C,C32*%
X158990000Y-76460000D03*
X157440000Y-76460000D03*
%TD*%
D12*
%TO.C,TP35*%
X155870000Y-117810000D03*
%TD*%
%TO.C,TP57*%
X162620000Y-67880000D03*
%TD*%
%TO.C,TP22*%
X169930000Y-77900000D03*
%TD*%
%TO.C,TP17*%
X158630000Y-115800000D03*
%TD*%
%TO.C,TP10*%
X169940000Y-69803333D03*
%TD*%
D21*
%TO.C,C29*%
X158987500Y-70805000D03*
X157437500Y-70805000D03*
%TD*%
D12*
%TO.C,TP15*%
X125520000Y-70970000D03*
%TD*%
D22*
%TO.C,U10*%
X163662500Y-77425000D03*
D23*
X166525000Y-75150000D03*
X166525000Y-75800000D03*
X166525000Y-76450000D03*
X166525000Y-77100000D03*
X166525000Y-77750000D03*
X166525000Y-78400000D03*
X166525000Y-79050000D03*
X166525000Y-79700000D03*
X160800000Y-79700000D03*
X160800000Y-79050000D03*
X160800000Y-78400000D03*
X160800000Y-77750000D03*
X160800000Y-77100000D03*
X160800000Y-76450000D03*
X160800000Y-75800000D03*
X160800000Y-75150000D03*
%TD*%
D20*
%TO.C,C31*%
X158272500Y-72725000D03*
X159232500Y-72725000D03*
%TD*%
D12*
%TO.C,TP23*%
X169950000Y-81900000D03*
%TD*%
%TO.C,TP64*%
X119940000Y-108880000D03*
%TD*%
D13*
%TO.C,J1*%
X151945000Y-112045000D03*
X146165000Y-112045000D03*
D14*
X152305000Y-110600000D03*
X151505000Y-110600000D03*
D15*
X150305000Y-110600000D03*
X149305000Y-110600000D03*
X148805000Y-110600000D03*
X147805000Y-110600000D03*
D14*
X146605000Y-110600000D03*
X145805000Y-110600000D03*
X145805000Y-110600000D03*
X146605000Y-110600000D03*
D15*
X147305000Y-110600000D03*
X148305000Y-110600000D03*
X149805000Y-110600000D03*
X150805000Y-110600000D03*
D14*
X151505000Y-110600000D03*
X152305000Y-110600000D03*
D16*
X153375000Y-115695000D03*
D17*
X153375000Y-111515000D03*
D16*
X144735000Y-115695000D03*
D17*
X144735000Y-111515000D03*
%TD*%
D12*
%TO.C,TP18*%
X158630000Y-117800000D03*
%TD*%
%TO.C,TP40*%
X167920000Y-85660000D03*
%TD*%
%TO.C,TP21*%
X169930000Y-75900000D03*
%TD*%
%TO.C,TP29*%
X119970000Y-69490000D03*
%TD*%
%TO.C,TP60*%
X119960000Y-106680000D03*
%TD*%
%TO.C,TP31*%
X120020000Y-75510000D03*
%TD*%
D22*
%TO.C,U8*%
X163662500Y-71765000D03*
D23*
X166525000Y-69490000D03*
X166525000Y-70140000D03*
X166525000Y-70790000D03*
X166525000Y-71440000D03*
X166525000Y-72090000D03*
X166525000Y-72740000D03*
X166525000Y-73390000D03*
X166525000Y-74040000D03*
X160800000Y-74040000D03*
X160800000Y-73390000D03*
X160800000Y-72740000D03*
X160800000Y-72090000D03*
X160800000Y-71440000D03*
X160800000Y-70790000D03*
X160800000Y-70140000D03*
X160800000Y-69490000D03*
%TD*%
D12*
%TO.C,TP58*%
X155880000Y-113360000D03*
%TD*%
%TO.C,TP62*%
X158590000Y-113360000D03*
%TD*%
%TO.C,TP63*%
X121400000Y-67820000D03*
%TD*%
%TO.C,TP7*%
X119940000Y-83760000D03*
%TD*%
%TO.C,TP36*%
X155880000Y-115800000D03*
%TD*%
D24*
%TO.C,R24*%
X122020000Y-97355000D03*
X122020000Y-95705000D03*
%TD*%
D12*
%TO.C,TP13*%
X157590000Y-67830000D03*
%TD*%
%TO.C,TP32*%
X119970000Y-73500000D03*
%TD*%
%TO.C,TP20*%
X119940000Y-113220000D03*
%TD*%
D25*
%TO.C,J4*%
X128215000Y-107005000D03*
D26*
X128215000Y-114205000D03*
%TD*%
D12*
%TO.C,TP5*%
X119930000Y-77740000D03*
%TD*%
D27*
%TO.C,D9*%
X122010000Y-100345000D03*
X122010000Y-98770000D03*
%TD*%
D18*
%TO.C,C36*%
X133117500Y-75855000D03*
X133117500Y-77755000D03*
%TD*%
D12*
%TO.C,TP59*%
X123610000Y-67820000D03*
%TD*%
M02*
