%TF.GenerationSoftware,KiCad,Pcbnew,10.0.4*%
%TF.CreationDate,2026-08-07T18:20:09-04:00*%
%TF.ProjectId,robotpcbv1,726f626f-7470-4636-9276-312e6b696361,rev?*%
%TF.SameCoordinates,Original*%
%TF.FileFunction,Copper,L3,Inr*%
%TF.FilePolarity,Positive*%
%FSLAX46Y46*%
G04 Gerber Fmt 4.6, Leading zero omitted, Abs format (unit mm)*
G04 Created by KiCad (PCBNEW 10.0.4) date 2026-08-07 18:20:09*
%MOMM*%
%LPD*%
G01*
G04 APERTURE LIST*
G04 Aperture macros list*
%AMRoundRect*
0 Rectangle with rounded corners*
0 $1 Rounding radius*
0 $2 $3 $4 $5 $6 $7 $8 $9 X,Y pos of 4 corners*
0 Add a 4 corners polygon primitive as box body*
4,1,4,$2,$3,$4,$5,$6,$7,$8,$9,$2,$3,0*
0 Add four circle primitives for the rounded corners*
1,1,$1+$1,$2,$3*
1,1,$1+$1,$4,$5*
1,1,$1+$1,$6,$7*
1,1,$1+$1,$8,$9*
0 Add four rect primitives between the rounded corners*
20,1,$1+$1,$2,$3,$4,$5,0*
20,1,$1+$1,$4,$5,$6,$7,0*
20,1,$1+$1,$6,$7,$8,$9,0*
20,1,$1+$1,$8,$9,$2,$3,0*%
G04 Aperture macros list end*
%TA.AperFunction,HeatsinkPad*%
%ADD10C,0.500000*%
%TD*%
%TA.AperFunction,ComponentPad*%
%ADD11C,2.050000*%
%TD*%
%TA.AperFunction,ComponentPad*%
%ADD12C,2.250000*%
%TD*%
%TA.AperFunction,HeatsinkPad*%
%ADD13C,0.600000*%
%TD*%
%TA.AperFunction,ComponentPad*%
%ADD14O,1.000000X1.600000*%
%TD*%
%TA.AperFunction,ComponentPad*%
%ADD15O,1.000000X2.100000*%
%TD*%
%TA.AperFunction,ComponentPad*%
%ADD16RoundRect,1.500000X-1.500000X1.500000X-1.500000X-1.500000X1.500000X-1.500000X1.500000X1.500000X0*%
%TD*%
%TA.AperFunction,ComponentPad*%
%ADD17C,6.000000*%
%TD*%
%TA.AperFunction,ViaPad*%
%ADD18C,0.600000*%
%TD*%
%TA.AperFunction,ViaPad*%
%ADD19C,1.000000*%
%TD*%
%TA.AperFunction,Conductor*%
%ADD20C,0.500000*%
%TD*%
%TA.AperFunction,Conductor*%
%ADD21C,0.200000*%
%TD*%
%TA.AperFunction,Conductor*%
%ADD22C,1.700000*%
%TD*%
%TA.AperFunction,Conductor*%
%ADD23C,0.400000*%
%TD*%
G04 APERTURE END LIST*
D10*
%TO.N,GND*%
%TO.C,U13*%
X125250000Y-73060000D03*
X125250000Y-74260000D03*
X125250000Y-75460000D03*
X125250000Y-76660000D03*
X126250000Y-73060000D03*
X126250000Y-74260000D03*
X126250000Y-75460000D03*
X126250000Y-76660000D03*
X127250000Y-73060000D03*
X127250000Y-74260000D03*
X127250000Y-75460000D03*
X127250000Y-76660000D03*
%TD*%
D11*
%TO.N,Net-(J3-In)*%
%TO.C,J3*%
X166670000Y-114430000D03*
D12*
%TO.N,GND*%
X169210000Y-111890000D03*
X164130000Y-111890000D03*
X169210000Y-116970000D03*
X164130000Y-116970000D03*
%TD*%
D10*
%TO.N,GND*%
%TO.C,U14*%
X125257500Y-78705000D03*
X125257500Y-79905000D03*
X125257500Y-81105000D03*
X125257500Y-82305000D03*
X126257500Y-78705000D03*
X126257500Y-79905000D03*
X126257500Y-81105000D03*
X126257500Y-82305000D03*
X127257500Y-78705000D03*
X127257500Y-79905000D03*
X127257500Y-81105000D03*
X127257500Y-82305000D03*
%TD*%
D13*
%TO.N,GND*%
%TO.C,U9*%
X142400000Y-75300000D03*
X142400000Y-76700000D03*
X143100000Y-74600000D03*
X143100000Y-76000000D03*
X143100000Y-77400000D03*
X143800000Y-75300000D03*
X143800000Y-76700000D03*
X144500000Y-74600000D03*
X144500000Y-76000000D03*
X144500000Y-77400000D03*
X145200000Y-75300000D03*
X145200000Y-76700000D03*
%TD*%
D14*
%TO.N,GND*%
%TO.C,J2*%
X142585000Y-115725000D03*
D15*
X142585000Y-111545000D03*
D14*
X133945000Y-115725000D03*
D15*
X133945000Y-111545000D03*
%TD*%
D10*
%TO.N,GND*%
%TO.C,U10*%
X164662500Y-79225000D03*
X164662500Y-78025000D03*
X164662500Y-76825000D03*
X164662500Y-75625000D03*
X163662500Y-79225000D03*
X163662500Y-78025000D03*
X163662500Y-76825000D03*
X163662500Y-75625000D03*
X162662500Y-79225000D03*
X162662500Y-78025000D03*
X162662500Y-76825000D03*
X162662500Y-75625000D03*
%TD*%
D14*
%TO.N,GND*%
%TO.C,J1*%
X153375000Y-115695000D03*
D15*
X153375000Y-111515000D03*
D14*
X144735000Y-115695000D03*
D15*
X144735000Y-111515000D03*
%TD*%
D10*
%TO.N,GND*%
%TO.C,U8*%
X164662500Y-73565000D03*
X164662500Y-72365000D03*
X164662500Y-71165000D03*
X164662500Y-69965000D03*
X163662500Y-73565000D03*
X163662500Y-72365000D03*
X163662500Y-71165000D03*
X163662500Y-69965000D03*
X162662500Y-73565000D03*
X162662500Y-72365000D03*
X162662500Y-71165000D03*
X162662500Y-69965000D03*
%TD*%
D16*
%TO.N,/7.4v*%
%TO.C,J4*%
X128215000Y-107005000D03*
D17*
%TO.N,GND*%
X128215000Y-114205000D03*
%TD*%
D18*
%TO.N,VDD*%
X121420000Y-108890000D03*
X134720000Y-72530000D03*
X166600000Y-69440000D03*
X160110000Y-81840000D03*
X166610000Y-75100000D03*
X130245000Y-102045000D03*
X133090000Y-68350000D03*
X144650000Y-95790000D03*
X157330000Y-110630000D03*
X129890000Y-87250000D03*
X169835000Y-97650000D03*
X156720000Y-83160000D03*
X124200000Y-86560000D03*
X156735000Y-84670000D03*
X123387500Y-72535000D03*
X120890000Y-95660000D03*
X148562500Y-100932500D03*
X169220000Y-107230000D03*
X163160416Y-95784985D03*
X126230000Y-93360000D03*
X121370000Y-67790000D03*
X164900000Y-67880000D03*
X167465000Y-100100000D03*
X125370000Y-87710000D03*
X123395000Y-78180000D03*
X161060000Y-81800000D03*
%TO.N,GND*%
X138040000Y-105880000D03*
D19*
X133250000Y-83530000D03*
D18*
X168110000Y-105440000D03*
X161360000Y-84910000D03*
X157430000Y-70810000D03*
X168610000Y-95850000D03*
X126959669Y-86500000D03*
X157730000Y-99460000D03*
D19*
X132480000Y-79520000D03*
D18*
X157440000Y-76460000D03*
X160990000Y-100190000D03*
X164340000Y-109350000D03*
X153940000Y-94250000D03*
X166540000Y-107390000D03*
X121400000Y-106720000D03*
X121000000Y-90010000D03*
X165775000Y-97530000D03*
X140210000Y-100980000D03*
X128930000Y-86230000D03*
X157660000Y-95390000D03*
X138060000Y-68300000D03*
X146140000Y-95690000D03*
X161300000Y-67920000D03*
X168120000Y-109660000D03*
X151330000Y-100950000D03*
X167460000Y-83250000D03*
X158290000Y-80660000D03*
X137010000Y-94080000D03*
X136760000Y-97670000D03*
X155890000Y-113360000D03*
D19*
X132545277Y-73911248D03*
D18*
X123610000Y-67820000D03*
X167120000Y-90140000D03*
X148790000Y-105750000D03*
X152830000Y-67620000D03*
X161130000Y-94750000D03*
X145160000Y-101910000D03*
X130770000Y-93040000D03*
X169270000Y-103470000D03*
X127060000Y-101760000D03*
X122010000Y-100345000D03*
X128620000Y-69290000D03*
%TO.N,Net-(U6-SW)*%
X125725000Y-98155000D03*
X137750000Y-96660000D03*
%TO.N,Net-(J2-CC1)*%
X139520000Y-109470000D03*
%TO.N,/DATA+*%
X148820000Y-111850000D03*
%TO.N,/DATA-*%
X149510000Y-102220000D03*
%TO.N,/RXD*%
X141560000Y-103060000D03*
X145418699Y-84329679D03*
%TO.N,/TXD*%
X144950000Y-105480000D03*
X152900000Y-72040000D03*
%TO.N,/DTR*%
X145785000Y-91710000D03*
X144080000Y-106090000D03*
D19*
%TO.N,/out1mo3*%
X119980000Y-69490000D03*
%TO.N,/out2mo3*%
X119970000Y-71490000D03*
%TO.N,/out4mo3*%
X119970000Y-73500000D03*
%TO.N,/out3mo3*%
X120020000Y-75510000D03*
%TO.N,/7.4v*%
X156760000Y-72990000D03*
X133141140Y-75831360D03*
X156360000Y-71866223D03*
X133428845Y-74723229D03*
D18*
X133190000Y-102530000D03*
D19*
X156770000Y-78700000D03*
X133430000Y-80470000D03*
X133137500Y-81525000D03*
X156830000Y-77600000D03*
D18*
%TO.N,Net-(U1-XC1)*%
X162055000Y-98490000D03*
X158635000Y-96570000D03*
%TO.N,Net-(U1-XC2)*%
X162782171Y-97389999D03*
X160380000Y-96350000D03*
%TO.N,Net-(J1-CC2)*%
X148810000Y-107410000D03*
%TO.N,/USB VBUS*%
X135600000Y-104900000D03*
X148185000Y-96305000D03*
X150900000Y-104820000D03*
X143130000Y-104850000D03*
X153540000Y-97430000D03*
%TO.N,/EN*%
X134730000Y-91200000D03*
X133840000Y-71847431D03*
%TO.N,Net-(D1-A)*%
X151505000Y-110600000D03*
%TO.N,/SCLbus*%
X149480000Y-83500000D03*
D19*
X135271471Y-88240000D03*
D18*
X158400000Y-84670000D03*
%TO.N,/SDAbus*%
X158390000Y-83150000D03*
D19*
X136520000Y-87440000D03*
D18*
X150270000Y-82350000D03*
%TO.N,/CE*%
X154845911Y-87412718D03*
X167880000Y-94150000D03*
X156930000Y-90450000D03*
D19*
%TO.N,/out1mo4*%
X119930000Y-77730000D03*
%TO.N,/out2mo4*%
X119930000Y-79750000D03*
%TO.N,/out4mo4*%
X119920000Y-81750000D03*
%TO.N,/out3mo4*%
X119940000Y-83760000D03*
D18*
%TO.N,Net-(J1-CC1)*%
X150280000Y-109360000D03*
%TO.N,Net-(J2-CC2)*%
X139430000Y-108370000D03*
%TO.N,/CSN*%
X153651076Y-87523972D03*
X166700506Y-94135063D03*
%TO.N,/SCK*%
X165652728Y-92890000D03*
X152007540Y-88323972D03*
%TO.N,/MOSI*%
X164485851Y-92610000D03*
X150120000Y-88530000D03*
%TO.N,/MISO*%
X162210416Y-93920000D03*
X148200000Y-88310000D03*
%TO.N,Net-(D2-A)*%
X141430000Y-108310000D03*
%TO.N,Net-(U9-IO8)*%
X139160000Y-71610000D03*
%TO.N,/GPIO 19*%
X136755938Y-109265000D03*
X132770000Y-86750000D03*
X132890000Y-90540000D03*
%TO.N,/GPIO 20*%
X137890000Y-112300000D03*
X133670000Y-86840000D03*
X137790000Y-101290000D03*
%TO.N,Net-(U9-IO3)*%
X138320000Y-84540000D03*
%TO.N,Net-(U9-IO46)*%
X151460000Y-68040000D03*
%TO.N,Net-(U9-IO9)*%
X140879189Y-88869189D03*
%TO.N,Net-(U9-IO10)*%
X142125000Y-88105000D03*
%TO.N,Net-(U9-IO11)*%
X155624264Y-97354263D03*
X143590000Y-87580000D03*
X143780000Y-93130000D03*
%TO.N,Net-(U9-IO12)*%
X144960000Y-93100000D03*
X156189953Y-96788577D03*
X144650000Y-87540000D03*
%TO.N,Net-(U9-IO13)*%
X149270000Y-79910000D03*
%TO.N,/in3mo2*%
X155565000Y-81825000D03*
%TO.N,/in4mo2*%
X152720000Y-79700000D03*
%TO.N,/in2mo2*%
X152450000Y-78430000D03*
%TO.N,/in1mo2*%
X152820000Y-77170000D03*
%TO.N,/in3mo1*%
X152895331Y-75655331D03*
%TO.N,/in4mo1*%
X155500000Y-73775120D03*
%TO.N,/in2mo1*%
X155410000Y-70360000D03*
%TO.N,/in1mo1*%
X154854511Y-69227021D03*
%TO.N,/mod4encSDA*%
X158355025Y-87119140D03*
X155820000Y-94330000D03*
%TO.N,/mod3encSDA*%
X157720000Y-93450000D03*
X155880000Y-115800000D03*
X158602282Y-90037718D03*
X153956397Y-101056397D03*
%TO.N,/mod3encSCL*%
X159160000Y-93250000D03*
X161540000Y-89500000D03*
%TD*%
%TO.N,VDD*%
D20*
X169835000Y-91875000D02*
X169190000Y-91230000D01*
X126005000Y-87075000D02*
X126365000Y-87075000D01*
X130529986Y-110455000D02*
X134850000Y-106134986D01*
X127950000Y-78005000D02*
X127950000Y-72390000D01*
X133503230Y-70450000D02*
X134720000Y-71666770D01*
X155260000Y-108560000D02*
X157330000Y-110630000D01*
X169450000Y-102085000D02*
X170245000Y-102880000D01*
X135824972Y-100905028D02*
X140195000Y-96535000D01*
X167465000Y-100100000D02*
X169400000Y-100100000D01*
X124200000Y-86560000D02*
X125850000Y-86560000D01*
X121420000Y-108890000D02*
X122420000Y-107890000D01*
X163160000Y-91230000D02*
X156770000Y-91230000D01*
X127957500Y-84310000D02*
X127957500Y-78012500D01*
X129890000Y-87250000D02*
X127330000Y-87250000D01*
X140940000Y-95790000D02*
X144650000Y-95790000D01*
X157610000Y-85840000D02*
X157950331Y-86180331D01*
X119635000Y-95580000D02*
X119635000Y-101955000D01*
X133090000Y-68350000D02*
X133090000Y-70450000D01*
X155810000Y-91230000D02*
X155810000Y-89790000D01*
X134652569Y-72597431D02*
X134720000Y-72530000D01*
X127725000Y-77780000D02*
X123795000Y-77780000D01*
X134850000Y-106134986D02*
X134850000Y-101085028D01*
X122420000Y-107890000D02*
X122420000Y-104740000D01*
X125370000Y-87710000D02*
X126005000Y-87075000D01*
X157950331Y-86180331D02*
X156690661Y-87440000D01*
X127307500Y-84960000D02*
X127957500Y-84310000D01*
X125850000Y-86560000D02*
X126365000Y-87075000D01*
X153100000Y-95890661D02*
X155260000Y-98050661D01*
X119635000Y-93220000D02*
X119635000Y-88985000D01*
X165362500Y-68372500D02*
X165362500Y-69190000D01*
X142790000Y-93940000D02*
X153100000Y-93940000D01*
X163160416Y-91230416D02*
X163160000Y-91230000D01*
X169835000Y-97650000D02*
X169450000Y-98035000D01*
X125940000Y-72360000D02*
X123562500Y-72360000D01*
X155800000Y-86200000D02*
X156735000Y-85265000D01*
X122420000Y-107890000D02*
X124985000Y-110455000D01*
X164900000Y-67910000D02*
X165362500Y-68372500D01*
X156735000Y-85265000D02*
X156735000Y-84670000D01*
X169190000Y-91230000D02*
X163160000Y-91230000D01*
X144592500Y-100932500D02*
X140195000Y-96535000D01*
X126090000Y-93220000D02*
X119635000Y-93220000D01*
X165362500Y-75170000D02*
X165362500Y-80097500D01*
X127957500Y-86622500D02*
X127957500Y-84310000D01*
X123660000Y-84960000D02*
X127307500Y-84960000D01*
X123562500Y-72360000D02*
X123387500Y-72535000D01*
X127330000Y-87250000D02*
X126540000Y-87250000D01*
X126230000Y-93360000D02*
X126090000Y-93220000D01*
X169400000Y-100100000D02*
X169450000Y-100150000D01*
X156770000Y-91230000D02*
X155810000Y-91230000D01*
X157610000Y-82400661D02*
X157610000Y-85840000D01*
X165362500Y-80097500D02*
X164489339Y-80970661D01*
X135030000Y-100905028D02*
X135824972Y-100905028D01*
X119635000Y-93220000D02*
X119635000Y-95580000D01*
X133090000Y-70450000D02*
X133503230Y-70450000D01*
X161060000Y-83070661D02*
X160110000Y-84020661D01*
X133090000Y-70450000D02*
X133090000Y-71590000D01*
X164900000Y-67880000D02*
X164900000Y-67910000D01*
X156720000Y-83160000D02*
X156120000Y-83160000D01*
X127950000Y-72390000D02*
X128250000Y-72090000D01*
X140940000Y-95790000D02*
X142790000Y-93940000D01*
X127957500Y-78012500D02*
X127950000Y-78005000D01*
X153100000Y-93940000D02*
X155810000Y-91230000D01*
X126210000Y-72090000D02*
X125940000Y-72360000D01*
X159040000Y-80970661D02*
X157610000Y-82400661D01*
X127330000Y-87250000D02*
X127957500Y-86622500D01*
X128250000Y-72090000D02*
X126210000Y-72090000D01*
X163160416Y-95784985D02*
X163160416Y-91230416D01*
X134850000Y-101085028D02*
X135030000Y-100905028D01*
X140195000Y-96535000D02*
X140940000Y-95790000D01*
X169835000Y-97650000D02*
X169835000Y-91875000D01*
X131384972Y-100905028D02*
X135030000Y-100905028D01*
X130245000Y-102045000D02*
X131384972Y-100905028D01*
X164489339Y-80970661D02*
X159040000Y-80970661D01*
X155810000Y-86210000D02*
X155800000Y-86200000D01*
X160110000Y-81840000D02*
X160110000Y-84020661D01*
X161060000Y-81800000D02*
X161060000Y-83070661D01*
X155810000Y-87440000D02*
X155810000Y-86210000D01*
X160110000Y-84020661D02*
X157950331Y-86180331D01*
X121370000Y-67790000D02*
X125940000Y-72360000D01*
X169450000Y-100150000D02*
X169450000Y-102085000D01*
X120890000Y-95660000D02*
X119715000Y-95660000D01*
X134720000Y-71666770D02*
X134720000Y-72530000D01*
X166610000Y-75100000D02*
X165432500Y-75100000D01*
X165362500Y-69190000D02*
X165362500Y-75170000D01*
X127950000Y-78005000D02*
X127725000Y-77780000D01*
X126365000Y-87075000D02*
X126540000Y-87250000D01*
X170245000Y-106205000D02*
X170245000Y-102880000D01*
X119715000Y-95660000D02*
X119635000Y-95580000D01*
X165612500Y-69440000D02*
X165362500Y-69190000D01*
X128750000Y-71590000D02*
X133090000Y-71590000D01*
X153100000Y-93940000D02*
X153100000Y-95890661D01*
X169450000Y-98035000D02*
X169450000Y-100150000D01*
X155260000Y-98050661D02*
X155260000Y-108560000D01*
X148562500Y-100932500D02*
X144592500Y-100932500D01*
X169220000Y-107230000D02*
X170245000Y-106205000D01*
X156120000Y-83160000D02*
X156110000Y-83150000D01*
X155800000Y-83460000D02*
X155800000Y-86200000D01*
X119635000Y-88985000D02*
X123660000Y-84960000D01*
X123795000Y-77780000D02*
X123395000Y-78180000D01*
X166600000Y-69440000D02*
X165612500Y-69440000D01*
X119635000Y-101955000D02*
X122420000Y-104740000D01*
X127950000Y-72390000D02*
X128750000Y-71590000D01*
X156690661Y-87440000D02*
X155810000Y-87440000D01*
X165432500Y-75100000D02*
X165362500Y-75170000D01*
X156110000Y-83150000D02*
X155800000Y-83460000D01*
X124985000Y-110455000D02*
X130529986Y-110455000D01*
X155810000Y-89790000D02*
X155810000Y-87440000D01*
%TO.N,/7.4v*%
X145020000Y-81100000D02*
X144940000Y-81020000D01*
X133190000Y-102530000D02*
X128715000Y-107005000D01*
X137510000Y-74920000D02*
X137910000Y-75320000D01*
X147430000Y-80060000D02*
X144940000Y-80060000D01*
X155623777Y-71866223D02*
X147430000Y-80060000D01*
X156230000Y-77600000D02*
X155670000Y-78160000D01*
X133428845Y-74723229D02*
X133625616Y-74920000D01*
D21*
X128215000Y-107005000D02*
X128702500Y-107005000D01*
D20*
X144940000Y-81020000D02*
X133980000Y-81020000D01*
X133980000Y-81020000D02*
X133430000Y-80470000D01*
X142640000Y-80060000D02*
X144940000Y-80060000D01*
X154570000Y-81100000D02*
X145020000Y-81100000D01*
X155670000Y-78160000D02*
X155670000Y-80000000D01*
D22*
X128410000Y-106810000D02*
X128410000Y-99429189D01*
X128215000Y-107005000D02*
X128410000Y-106810000D01*
D20*
X144390000Y-80470000D02*
X144940000Y-81020000D01*
X156830000Y-77600000D02*
X156230000Y-77600000D01*
D22*
X128410000Y-99429189D02*
X144940000Y-82899189D01*
D20*
X155670000Y-80000000D02*
X154570000Y-81100000D01*
D22*
X144940000Y-81020000D02*
X144940000Y-80060000D01*
X144940000Y-82899189D02*
X144940000Y-81020000D01*
D20*
X137910000Y-75330000D02*
X142640000Y-80060000D01*
X128715000Y-107005000D02*
X128215000Y-107005000D01*
X156360000Y-71866223D02*
X155623777Y-71866223D01*
X137910000Y-75320000D02*
X137910000Y-75330000D01*
X133625616Y-74920000D02*
X137510000Y-74920000D01*
%TO.N,/USB VBUS*%
D23*
X154420000Y-99320000D02*
X154420000Y-98520000D01*
X144080000Y-104780000D02*
X148960000Y-104780000D01*
X154420000Y-98520000D02*
X154420000Y-98310000D01*
X154420000Y-98310000D02*
X153540000Y-97430000D01*
X137580000Y-103760000D02*
X136440000Y-104900000D01*
X148960000Y-104780000D02*
X154420000Y-99320000D01*
X143060000Y-103760000D02*
X137580000Y-103760000D01*
X150860000Y-104780000D02*
X150900000Y-104820000D01*
X150400000Y-98520000D02*
X154420000Y-98520000D01*
X136440000Y-104900000D02*
X135600000Y-104900000D01*
X144080000Y-104780000D02*
X143060000Y-103760000D01*
X143200000Y-104780000D02*
X144080000Y-104780000D01*
X148185000Y-96305000D02*
X150400000Y-98520000D01*
X148960000Y-104780000D02*
X150860000Y-104780000D01*
X143130000Y-104850000D02*
X143200000Y-104780000D01*
%TD*%
M02*
