M48
; DRILL file KiCad 10.0.4 date 2026-08-07T18:20:06
; FORMAT={-:-/ absolute / metric / decimal}
; #@! TF.CreationDate,2026-08-07T18:20:06-04:00
; #@! TF.GenerationSoftware,Kicad,Pcbnew,10.0.4
; #@! TF.FileFunction,Plated,1,4,PTH
FMAT,2
METRIC
; #@! TA.AperFunction,Plated,PTH,ViaDrill
T1C0.300
; #@! TA.AperFunction,Plated,PTH,ComponentDrill
T2C0.300
; #@! TA.AperFunction,Plated,PTH,ViaDrill
T3C0.500
; #@! TA.AperFunction,Plated,PTH,ComponentDrill
T4C0.600
; #@! TA.AperFunction,Plated,PTH,ComponentDrill
T5C1.500
; #@! TA.AperFunction,Plated,PTH,ComponentDrill
T6C1.700
; #@! TA.AperFunction,Plated,PTH,ComponentDrill
T7C4.500
%
G90
G05
T1
X120.89Y-95.66
X121.0Y-90.01
X121.37Y-67.79
X121.4Y-106.72
X121.42Y-108.89
X122.01Y-100.345
X123.387Y-72.535
X123.395Y-78.18
X123.61Y-67.82
X124.2Y-86.56
X125.37Y-87.71
X125.725Y-98.155
X126.23Y-93.36
X126.96Y-86.5
X127.06Y-101.76
X128.62Y-69.29
X128.93Y-86.23
X129.89Y-87.25
X130.245Y-102.045
X130.77Y-93.04
X132.77Y-86.75
X132.89Y-90.54
X133.09Y-68.35
X133.19Y-102.53
X133.67Y-86.84
X133.84Y-71.847
X134.72Y-72.53
X134.73Y-91.2
X135.6Y-104.9
X136.756Y-109.265
X136.76Y-97.67
X137.01Y-94.08
X137.75Y-96.66
X137.79Y-101.29
X137.89Y-112.3
X138.04Y-105.88
X138.06Y-68.3
X138.32Y-84.54
X139.16Y-71.61
X139.43Y-108.37
X139.52Y-109.47
X140.21Y-100.98
X140.879Y-88.869
X141.43Y-108.31
X141.56Y-103.06
X142.125Y-88.105
X143.13Y-104.85
X143.59Y-87.58
X143.78Y-93.13
X144.08Y-106.09
X144.65Y-87.54
X144.65Y-95.79
X144.95Y-105.48
X144.96Y-93.1
X145.16Y-101.91
X145.419Y-84.33
X145.785Y-91.71
X146.14Y-95.69
X148.185Y-96.305
X148.2Y-88.31
X148.562Y-100.932
X148.79Y-105.75
X148.81Y-107.41
X148.82Y-111.85
X149.27Y-79.91
X149.48Y-83.5
X149.51Y-102.22
X150.12Y-88.53
X150.27Y-82.35
X150.28Y-109.36
X150.9Y-104.82
X151.33Y-100.95
X151.46Y-68.04
X151.505Y-110.6
X152.008Y-88.324
X152.45Y-78.43
X152.72Y-79.7
X152.82Y-77.17
X152.83Y-67.62
X152.895Y-75.655
X152.9Y-72.04
X153.54Y-97.43
X153.651Y-87.524
X153.94Y-94.25
X153.956Y-101.056
X154.846Y-87.413
X154.855Y-69.227
X155.41Y-70.36
X155.5Y-73.775
X155.565Y-81.825
X155.624Y-97.354
X155.82Y-94.33
X155.88Y-115.8
X155.89Y-113.36
X156.19Y-96.789
X156.72Y-83.16
X156.735Y-84.67
X156.93Y-90.45
X157.33Y-110.63
X157.43Y-70.81
X157.44Y-76.46
X157.66Y-95.39
X157.72Y-93.45
X157.73Y-99.46
X158.29Y-80.66
X158.355Y-87.119
X158.39Y-83.15
X158.4Y-84.67
X158.602Y-90.038
X158.635Y-96.57
X159.16Y-93.25
X160.11Y-81.84
X160.38Y-96.35
X160.99Y-100.19
X161.06Y-81.8
X161.13Y-94.75
X161.3Y-67.92
X161.36Y-84.91
X161.54Y-89.5
X162.055Y-98.49
X162.21Y-93.92
X162.782Y-97.39
X163.16Y-95.785
X164.34Y-109.35
X164.486Y-92.61
X164.9Y-67.88
X165.653Y-92.89
X165.775Y-97.53
X166.54Y-107.39
X166.6Y-69.44
X166.61Y-75.1
X166.701Y-94.135
X167.12Y-90.14
X167.46Y-83.25
X167.465Y-100.1
X167.88Y-94.15
X168.11Y-105.44
X168.12Y-109.66
X168.61Y-95.85
X169.22Y-107.23
X169.27Y-103.47
X169.835Y-97.65
T2
X125.25Y-73.06
X125.25Y-74.26
X125.25Y-75.46
X125.25Y-76.66
X125.257Y-78.705
X125.257Y-79.905
X125.257Y-81.105
X125.257Y-82.305
X126.25Y-73.06
X126.25Y-74.26
X126.25Y-75.46
X126.25Y-76.66
X126.257Y-78.705
X126.257Y-79.905
X126.257Y-81.105
X126.257Y-82.305
X127.25Y-73.06
X127.25Y-74.26
X127.25Y-75.46
X127.25Y-76.66
X127.257Y-78.705
X127.257Y-79.905
X127.257Y-81.105
X127.257Y-82.305
X142.4Y-75.3
X142.4Y-76.7
X143.1Y-74.6
X143.1Y-76.0
X143.1Y-77.4
X143.8Y-75.3
X143.8Y-76.7
X144.5Y-74.6
X144.5Y-76.0
X144.5Y-77.4
X145.2Y-75.3
X145.2Y-76.7
X162.662Y-69.965
X162.662Y-71.165
X162.662Y-72.365
X162.662Y-73.565
X162.662Y-75.625
X162.662Y-76.825
X162.662Y-78.025
X162.662Y-79.225
X163.662Y-69.965
X163.662Y-71.165
X163.662Y-72.365
X163.662Y-73.565
X163.662Y-75.625
X163.662Y-76.825
X163.662Y-78.025
X163.662Y-79.225
X164.662Y-69.965
X164.662Y-71.165
X164.662Y-72.365
X164.662Y-73.565
X164.662Y-75.625
X164.662Y-76.825
X164.662Y-78.025
X164.662Y-79.225
T3
X119.92Y-81.75
X119.93Y-77.73
X119.93Y-79.75
X119.94Y-83.76
X119.97Y-71.49
X119.97Y-73.5
X119.98Y-69.49
X120.02Y-75.51
X132.48Y-79.52
X132.545Y-73.911
X133.137Y-81.525
X133.141Y-75.831
X133.25Y-83.53
X133.429Y-74.723
X133.43Y-80.47
X135.271Y-88.24
X136.52Y-87.44
X156.36Y-71.866
X156.76Y-72.99
X156.77Y-78.7
X156.83Y-77.6
T5
X166.67Y-114.43
T6
X164.13Y-111.89
X164.13Y-116.97
X169.21Y-111.89
X169.21Y-116.97
T7
X128.215Y-107.005
X128.215Y-114.205
T4
G00X133.945Y-112.095
M15
G01X133.945Y-110.995
M16
G05
G00X133.945Y-116.025
M15
G01X133.945Y-115.425
M16
G05
G00X142.585Y-112.095
M15
G01X142.585Y-110.995
M16
G05
G00X142.585Y-116.025
M15
G01X142.585Y-115.425
M16
G05
G00X144.735Y-112.065
M15
G01X144.735Y-110.965
M16
G05
G00X144.735Y-115.995
M15
G01X144.735Y-115.395
M16
G05
G00X153.375Y-112.065
M15
G01X153.375Y-110.965
M16
G05
G00X153.375Y-115.995
M15
G01X153.375Y-115.395
M16
G05
M30
