%TF.GenerationSoftware,KiCad,Pcbnew,10.0.4*%
%TF.CreationDate,2026-07-26T19:35:25-04:00*%
%TF.ProjectId,swervecontrollerPCBv1,73776572-7665-4636-9f6e-74726f6c6c65,rev?*%
%TF.SameCoordinates,Original*%
%TF.FileFunction,Soldermask,Top*%
%TF.FilePolarity,Negative*%
%FSLAX46Y46*%
G04 Gerber Fmt 4.6, Leading zero omitted, Abs format (unit mm)*
G04 Created by KiCad (PCBNEW 10.0.4) date 2026-07-26 19:35:25*
%MOMM*%
%LPD*%
G01*
G04 APERTURE LIST*
G04 Aperture macros list*
%AMRoundRect*
0 Rectangle with rounded corners*
0 $1 Rounding radius*
0 $2 $3 $4 $5 $6 $7 $8 $9 X,Y pos of 4 corners*
0 Add a 4 corners polygon primitive as box body*
4,1,4,$2,$3,$4,$5,$6,$7,$8,$9,$2,$3,0*
0 Add four circle primitives for the rounded corners*
1,1,$1+$1,$2,$3*
1,1,$1+$1,$4,$5*
1,1,$1+$1,$6,$7*
1,1,$1+$1,$8,$9*
0 Add four rect primitives between the rounded corners*
20,1,$1+$1,$2,$3,$4,$5,0*
20,1,$1+$1,$4,$5,$6,$7,0*
20,1,$1+$1,$6,$7,$8,$9,0*
20,1,$1+$1,$8,$9,$2,$3,0*%
G04 Aperture macros list end*
%ADD10RoundRect,0.200000X0.275000X-0.200000X0.275000X0.200000X-0.275000X0.200000X-0.275000X-0.200000X0*%
%ADD11RoundRect,0.200000X-0.275000X0.200000X-0.275000X-0.200000X0.275000X-0.200000X0.275000X0.200000X0*%
%ADD12RoundRect,0.250000X-0.325000X-0.650000X0.325000X-0.650000X0.325000X0.650000X-0.325000X0.650000X0*%
%ADD13RoundRect,0.218750X-0.218750X-0.256250X0.218750X-0.256250X0.218750X0.256250X-0.218750X0.256250X0*%
%ADD14RoundRect,0.225000X0.250000X-0.225000X0.250000X0.225000X-0.250000X0.225000X-0.250000X-0.225000X0*%
%ADD15RoundRect,0.150000X0.825000X0.150000X-0.825000X0.150000X-0.825000X-0.150000X0.825000X-0.150000X0*%
%ADD16R,2.410000X3.300000*%
%ADD17RoundRect,0.140000X-0.140000X-0.170000X0.140000X-0.170000X0.140000X0.170000X-0.140000X0.170000X0*%
%ADD18RoundRect,0.140000X0.170000X-0.140000X0.170000X0.140000X-0.170000X0.140000X-0.170000X-0.140000X0*%
%ADD19RoundRect,0.200000X0.200000X0.275000X-0.200000X0.275000X-0.200000X-0.275000X0.200000X-0.275000X0*%
%ADD20RoundRect,0.135750X-0.371250X-0.101250X0.371250X-0.101250X0.371250X0.101250X-0.371250X0.101250X0*%
%ADD21RoundRect,0.135750X-0.101250X-0.371250X0.101250X-0.371250X0.101250X0.371250X-0.101250X0.371250X0*%
%ADD22RoundRect,0.102000X-0.850000X-0.850000X0.850000X-0.850000X0.850000X0.850000X-0.850000X0.850000X0*%
%ADD23RoundRect,0.150000X0.150000X-0.512500X0.150000X0.512500X-0.150000X0.512500X-0.150000X-0.512500X0*%
%ADD24RoundRect,0.225000X0.225000X0.375000X-0.225000X0.375000X-0.225000X-0.375000X0.225000X-0.375000X0*%
%ADD25RoundRect,0.200000X-0.200000X-0.275000X0.200000X-0.275000X0.200000X0.275000X-0.200000X0.275000X0*%
%ADD26RoundRect,0.225000X-0.225000X-0.250000X0.225000X-0.250000X0.225000X0.250000X-0.225000X0.250000X0*%
%ADD27RoundRect,0.225000X-0.375000X0.225000X-0.375000X-0.225000X0.375000X-0.225000X0.375000X0.225000X0*%
%ADD28RoundRect,0.250000X0.650000X-0.325000X0.650000X0.325000X-0.650000X0.325000X-0.650000X-0.325000X0*%
%ADD29RoundRect,0.218750X0.218750X0.256250X-0.218750X0.256250X-0.218750X-0.256250X0.218750X-0.256250X0*%
%ADD30R,1.500000X0.900000*%
%ADD31R,0.900000X1.500000*%
%ADD32C,0.600000*%
%ADD33R,3.900000X3.900000*%
%ADD34RoundRect,0.200000X0.800000X-0.200000X0.800000X0.200000X-0.800000X0.200000X-0.800000X-0.200000X0*%
%ADD35RoundRect,0.140000X-0.170000X0.140000X-0.170000X-0.140000X0.170000X-0.140000X0.170000X0.140000X0*%
%ADD36RoundRect,0.200000X-0.800000X0.200000X-0.800000X-0.200000X0.800000X-0.200000X0.800000X0.200000X0*%
%ADD37RoundRect,0.250000X0.350000X0.625000X-0.350000X0.625000X-0.350000X-0.625000X0.350000X-0.625000X0*%
%ADD38O,1.200000X1.750000*%
%ADD39RoundRect,0.062500X-0.350000X-0.062500X0.350000X-0.062500X0.350000X0.062500X-0.350000X0.062500X0*%
%ADD40RoundRect,0.062500X-0.062500X-0.350000X0.062500X-0.350000X0.062500X0.350000X-0.062500X0.350000X0*%
%ADD41R,2.500000X2.500000*%
%ADD42C,1.982000*%
%ADD43C,2.490000*%
%ADD44R,2.600000X2.600000*%
%ADD45C,0.650000*%
%ADD46RoundRect,0.150000X-0.150000X-0.575000X0.150000X-0.575000X0.150000X0.575000X-0.150000X0.575000X0*%
%ADD47RoundRect,0.075000X-0.075000X-0.650000X0.075000X-0.650000X0.075000X0.650000X-0.075000X0.650000X0*%
%ADD48O,1.000000X2.100000*%
%ADD49O,1.000000X1.600000*%
%ADD50RoundRect,0.250000X-0.650000X0.325000X-0.650000X-0.325000X0.650000X-0.325000X0.650000X0.325000X0*%
%ADD51RoundRect,0.150000X-0.587500X-0.150000X0.587500X-0.150000X0.587500X0.150000X-0.587500X0.150000X0*%
%ADD52RoundRect,0.250000X-0.450000X-0.350000X0.450000X-0.350000X0.450000X0.350000X-0.450000X0.350000X0*%
%ADD53RoundRect,0.147500X0.172500X-0.147500X0.172500X0.147500X-0.172500X0.147500X-0.172500X-0.147500X0*%
%ADD54RoundRect,0.150000X0.587500X0.150000X-0.587500X0.150000X-0.587500X-0.150000X0.587500X-0.150000X0*%
%ADD55C,2.050000*%
%ADD56C,2.250000*%
%ADD57RoundRect,0.147500X0.147500X0.172500X-0.147500X0.172500X-0.147500X-0.172500X0.147500X-0.172500X0*%
%ADD58RoundRect,0.147500X-0.147500X-0.172500X0.147500X-0.172500X0.147500X0.172500X-0.147500X0.172500X0*%
%ADD59RoundRect,0.225000X0.225000X0.250000X-0.225000X0.250000X-0.225000X-0.250000X0.225000X-0.250000X0*%
G04 APERTURE END LIST*
D10*
%TO.C,R5*%
X145390000Y-117825000D03*
X145390000Y-116175000D03*
%TD*%
D11*
%TO.C,R7*%
X171400000Y-89190000D03*
X171400000Y-90840000D03*
%TD*%
D12*
%TO.C,C10*%
X139325000Y-115200000D03*
X142275000Y-115200000D03*
%TD*%
D13*
%TO.C,D9*%
X125812500Y-83600000D03*
X127387500Y-83600000D03*
%TD*%
D14*
%TO.C,C18*%
X132180000Y-85120000D03*
X132180000Y-83570000D03*
%TD*%
D15*
%TO.C,U6*%
X120440000Y-93510000D03*
X120440000Y-92240000D03*
X120440000Y-90970000D03*
X120440000Y-89700000D03*
X115490000Y-89700000D03*
X115490000Y-90970000D03*
X115490000Y-92240000D03*
X115490000Y-93510000D03*
D16*
X117965000Y-91605000D03*
%TD*%
D17*
%TO.C,C2*%
X160700000Y-82990000D03*
X161660000Y-82990000D03*
%TD*%
D18*
%TO.C,C16*%
X168030000Y-86220000D03*
X168030000Y-85260000D03*
%TD*%
D19*
%TO.C,R21*%
X109445000Y-87910000D03*
X107795000Y-87910000D03*
%TD*%
D20*
%TO.C,U5*%
X170200000Y-85640000D03*
X170200000Y-86140000D03*
X170200000Y-86640000D03*
X170200000Y-87140000D03*
D21*
X170895000Y-87835000D03*
X171395000Y-87835000D03*
X171895000Y-87835000D03*
X172395000Y-87835000D03*
D20*
X173090000Y-87140000D03*
X173090000Y-86640000D03*
X173090000Y-86140000D03*
X173090000Y-85640000D03*
D21*
X172395000Y-84945000D03*
X171895000Y-84945000D03*
X171395000Y-84945000D03*
X170895000Y-84945000D03*
D22*
X171645000Y-86390000D03*
%TD*%
D17*
%TO.C,C3*%
X160740000Y-83990000D03*
X161700000Y-83990000D03*
%TD*%
D23*
%TO.C,U7*%
X111087500Y-83147500D03*
X112037500Y-83147500D03*
X112987500Y-83147500D03*
X112987500Y-80872500D03*
X111087500Y-80872500D03*
%TD*%
D24*
%TO.C,D7*%
X109367500Y-85990000D03*
X106067500Y-85990000D03*
%TD*%
D19*
%TO.C,R19*%
X152425000Y-104900000D03*
X150775000Y-104900000D03*
%TD*%
D25*
%TO.C,R16*%
X143875000Y-104000000D03*
X145525000Y-104000000D03*
%TD*%
D26*
%TO.C,C11*%
X140850000Y-113300000D03*
X142400000Y-113300000D03*
%TD*%
D27*
%TO.C,D1*%
X153860000Y-115750000D03*
X153860000Y-119050000D03*
%TD*%
D10*
%TO.C,R8*%
X146890000Y-116325000D03*
X146890000Y-114675000D03*
%TD*%
D28*
%TO.C,C14*%
X122870000Y-89670000D03*
X122870000Y-86720000D03*
%TD*%
%TO.C,C19*%
X134140000Y-85025000D03*
X134140000Y-82075000D03*
%TD*%
D25*
%TO.C,R11*%
X148600000Y-109900000D03*
X150250000Y-109900000D03*
%TD*%
D29*
%TO.C,D5*%
X113440000Y-91990000D03*
X111865000Y-91990000D03*
%TD*%
D30*
%TO.C,U9*%
X136350000Y-83380000D03*
X136350000Y-84650000D03*
X136350000Y-85920000D03*
X136350000Y-87190000D03*
X136350000Y-88460000D03*
X136350000Y-89730000D03*
X136350000Y-91000000D03*
X136350000Y-92270000D03*
X136350000Y-93540000D03*
X136350000Y-94810000D03*
X136350000Y-96080000D03*
X136350000Y-97350000D03*
X136350000Y-98620000D03*
X136350000Y-99890000D03*
D31*
X138115000Y-101140000D03*
X139385000Y-101140000D03*
X140655000Y-101140000D03*
X141925000Y-101140000D03*
X143195000Y-101140000D03*
X144465000Y-101140000D03*
X145735000Y-101140000D03*
X147005000Y-101140000D03*
X148275000Y-101140000D03*
X149545000Y-101140000D03*
X150815000Y-101140000D03*
X152085000Y-101140000D03*
D30*
X153850000Y-99890000D03*
X153850000Y-98620000D03*
X153850000Y-97350000D03*
X153850000Y-96080000D03*
X153850000Y-94810000D03*
X153850000Y-93540000D03*
X153850000Y-92270000D03*
X153850000Y-91000000D03*
X153850000Y-89730000D03*
X153850000Y-88460000D03*
X153850000Y-87190000D03*
X153850000Y-85920000D03*
X153850000Y-84650000D03*
X153850000Y-83380000D03*
D32*
X142200000Y-90400000D03*
X142200000Y-91800000D03*
X142900000Y-89700000D03*
X142900000Y-91100000D03*
X142900000Y-92500000D03*
X143600000Y-90400000D03*
D33*
X143600000Y-91100000D03*
D32*
X143600000Y-91800000D03*
X144300000Y-89700000D03*
X144300000Y-91100000D03*
X144300000Y-92500000D03*
X145000000Y-90400000D03*
X145000000Y-91800000D03*
%TD*%
D34*
%TO.C,SW4*%
X132400000Y-95500000D03*
X132400000Y-91300000D03*
%TD*%
D35*
%TO.C,C8*%
X162100000Y-95610000D03*
X162100000Y-96570000D03*
%TD*%
D27*
%TO.C,D2*%
X136210000Y-115800000D03*
X136210000Y-119100000D03*
%TD*%
D36*
%TO.C,SW3*%
X127700000Y-87200000D03*
X127700000Y-91400000D03*
%TD*%
D11*
%TO.C,R9*%
X138110000Y-117475000D03*
X138110000Y-119125000D03*
%TD*%
%TO.C,R23*%
X133680000Y-86570000D03*
X133680000Y-88220000D03*
%TD*%
D37*
%TO.C,J4*%
X118600000Y-85500000D03*
D38*
X116600000Y-85500000D03*
%TD*%
D39*
%TO.C,U1*%
X159197500Y-86575000D03*
X159197500Y-87075000D03*
X159197500Y-87575000D03*
X159197500Y-88075000D03*
X159197500Y-88575000D03*
D40*
X160135000Y-89512500D03*
X160635000Y-89512500D03*
X161135000Y-89512500D03*
X161635000Y-89512500D03*
X162135000Y-89512500D03*
D39*
X163072500Y-88575000D03*
X163072500Y-88075000D03*
X163072500Y-87575000D03*
X163072500Y-87075000D03*
X163072500Y-86575000D03*
D40*
X162135000Y-85637500D03*
X161635000Y-85637500D03*
X161135000Y-85637500D03*
X160635000Y-85637500D03*
X160135000Y-85637500D03*
D41*
X161135000Y-87575000D03*
%TD*%
D42*
%TO.C,U3*%
X101305000Y-96467500D03*
X107655000Y-96467500D03*
X101305000Y-101547500D03*
X107655000Y-101547500D03*
X101940000Y-119327500D03*
X104480000Y-119327500D03*
X107020000Y-119327500D03*
D43*
X96860000Y-102500000D03*
X96860000Y-115835000D03*
X112100000Y-115835000D03*
X112100000Y-102500000D03*
D42*
X94320000Y-106627500D03*
X94320000Y-109167500D03*
X94320000Y-111707500D03*
%TD*%
D11*
%TO.C,R2*%
X151960000Y-117475000D03*
X151960000Y-119125000D03*
%TD*%
%TO.C,R3*%
X149260000Y-117475000D03*
X149260000Y-119125000D03*
%TD*%
D17*
%TO.C,C15*%
X167100000Y-87170000D03*
X168060000Y-87170000D03*
%TD*%
D25*
%TO.C,R20*%
X122380000Y-92260000D03*
X124030000Y-92260000D03*
%TD*%
D39*
%TO.C,U4*%
X143412500Y-109387500D03*
X143412500Y-109887500D03*
X143412500Y-110387500D03*
X143412500Y-110887500D03*
X143412500Y-111387500D03*
X143412500Y-111887500D03*
D40*
X144100000Y-112575000D03*
X144600000Y-112575000D03*
X145100000Y-112575000D03*
X145600000Y-112575000D03*
X146100000Y-112575000D03*
X146600000Y-112575000D03*
D39*
X147287500Y-111887500D03*
X147287500Y-111387500D03*
X147287500Y-110887500D03*
X147287500Y-110387500D03*
X147287500Y-109887500D03*
X147287500Y-109387500D03*
D40*
X146600000Y-108700000D03*
X146100000Y-108700000D03*
X145600000Y-108700000D03*
X145100000Y-108700000D03*
X144600000Y-108700000D03*
X144100000Y-108700000D03*
D44*
X145350000Y-110637500D03*
%TD*%
D25*
%TO.C,R18*%
X108865000Y-90430000D03*
X110515000Y-90430000D03*
%TD*%
D45*
%TO.C,J2*%
X136120000Y-122500000D03*
X141900000Y-122500000D03*
D46*
X135760000Y-121055000D03*
X136560000Y-121055000D03*
D47*
X137760000Y-121055000D03*
X138760000Y-121055000D03*
X139260000Y-121055000D03*
X140260000Y-121055000D03*
D46*
X141460000Y-121055000D03*
X142260000Y-121055000D03*
X142260000Y-121055000D03*
X141460000Y-121055000D03*
D47*
X140760000Y-121055000D03*
X139760000Y-121055000D03*
X138260000Y-121055000D03*
X137260000Y-121055000D03*
D46*
X136560000Y-121055000D03*
X135760000Y-121055000D03*
D48*
X134690000Y-121970000D03*
D49*
X134690000Y-126150000D03*
D48*
X143330000Y-121970000D03*
D49*
X143330000Y-126150000D03*
%TD*%
D19*
%TO.C,R4*%
X161910000Y-94400000D03*
X160260000Y-94400000D03*
%TD*%
D50*
%TO.C,C20*%
X131740000Y-86730000D03*
X131740000Y-89680000D03*
%TD*%
D26*
%TO.C,C17*%
X126925000Y-92800000D03*
X128475000Y-92800000D03*
%TD*%
D51*
%TO.C,Q3*%
X111100000Y-86000000D03*
X111100000Y-87900000D03*
X112975000Y-86950000D03*
%TD*%
D52*
%TO.C,X1*%
X160035000Y-92775000D03*
X162235000Y-92775000D03*
X162235000Y-91075000D03*
X160035000Y-91075000D03*
%TD*%
D11*
%TO.C,R10*%
X140810000Y-117450000D03*
X140810000Y-119100000D03*
%TD*%
D19*
%TO.C,R6*%
X145490000Y-114775000D03*
X143840000Y-114775000D03*
%TD*%
%TO.C,R13*%
X145525000Y-105800000D03*
X143875000Y-105800000D03*
%TD*%
D35*
%TO.C,C4*%
X164240000Y-89120000D03*
X164240000Y-90080000D03*
%TD*%
D53*
%TO.C,L1*%
X164230000Y-88220000D03*
X164230000Y-87250000D03*
%TD*%
D25*
%TO.C,R17*%
X108875000Y-91980000D03*
X110525000Y-91980000D03*
%TD*%
D54*
%TO.C,Q1*%
X142175000Y-105850000D03*
X142175000Y-103950000D03*
X140300000Y-104900000D03*
%TD*%
D55*
%TO.C,J3*%
X178780000Y-86670000D03*
D56*
X176240000Y-84130000D03*
X176240000Y-89210000D03*
X181320000Y-84130000D03*
X181320000Y-89210000D03*
%TD*%
D57*
%TO.C,L3*%
X166175000Y-87170000D03*
X165205000Y-87170000D03*
%TD*%
D35*
%TO.C,C5*%
X165220000Y-89110000D03*
X165220000Y-90070000D03*
%TD*%
%TO.C,C9*%
X160070000Y-95610000D03*
X160070000Y-96570000D03*
%TD*%
D29*
%TO.C,D6*%
X113440000Y-90410000D03*
X111865000Y-90410000D03*
%TD*%
D58*
%TO.C,L2*%
X165205000Y-88180000D03*
X166175000Y-88180000D03*
%TD*%
D11*
%TO.C,R24*%
X128900000Y-83600000D03*
X128900000Y-85250000D03*
%TD*%
D51*
%TO.C,Q2*%
X147175000Y-104000000D03*
X147175000Y-105900000D03*
X149050000Y-104950000D03*
%TD*%
D18*
%TO.C,C1*%
X159800000Y-83990000D03*
X159800000Y-83030000D03*
%TD*%
D42*
%TO.C,U2*%
X182410000Y-96581281D03*
X188760000Y-96581281D03*
X182410000Y-101661281D03*
X188760000Y-101661281D03*
X183045000Y-119441281D03*
X185585000Y-119441281D03*
X188125000Y-119441281D03*
D43*
X177965000Y-102613781D03*
X177965000Y-115948781D03*
X193205000Y-115948781D03*
X193205000Y-102613781D03*
D42*
X175425000Y-106741281D03*
X175425000Y-109281281D03*
X175425000Y-111821281D03*
%TD*%
D59*
%TO.C,C12*%
X140510000Y-111680000D03*
X138960000Y-111680000D03*
%TD*%
D45*
%TO.C,J1*%
X147610000Y-122460000D03*
X153390000Y-122460000D03*
D46*
X147250000Y-121015000D03*
X148050000Y-121015000D03*
D47*
X149250000Y-121015000D03*
X150250000Y-121015000D03*
X150750000Y-121015000D03*
X151750000Y-121015000D03*
D46*
X152950000Y-121015000D03*
X153750000Y-121015000D03*
X153750000Y-121015000D03*
X152950000Y-121015000D03*
D47*
X152250000Y-121015000D03*
X151250000Y-121015000D03*
X149750000Y-121015000D03*
X148750000Y-121015000D03*
D46*
X148050000Y-121015000D03*
X147250000Y-121015000D03*
D48*
X146180000Y-121930000D03*
D49*
X146180000Y-126110000D03*
D48*
X154820000Y-121930000D03*
D49*
X154820000Y-126110000D03*
%TD*%
D19*
%TO.C,R12*%
X138600000Y-104900000D03*
X136950000Y-104900000D03*
%TD*%
D10*
%TO.C,R1*%
X162910000Y-84255000D03*
X162910000Y-82605000D03*
%TD*%
M02*
